<?xml version="1.0" encoding="UTF-8" standalone="no"?>
<!DOCTYPE svg PUBLIC "-//W3C//DTD SVG 1.1//EN" "http://www.w3.org/Graphics/SVG/1.1/DTD/svg11.dtd">
<svg class="railroad-diagram" width="1193" height="94" viewBox="0 0 1193 94" id="annotationInterfaceElementDeclaration" xmlns="http://www.w3.org/2000/svg" xmlns:xlink="http://www.w3.org/1999/xlink"><g transform="translate(.5 .5)"><g><path d="M20 37v20m0 -10h20"></path></g><g><path d="M40 47h0"></path><path d="M1153 47h0"></path><path d="M40 47h20"></path><g><path d="M60 47h0"></path><g><path d="M60 47h10"></path><path d="M1123 47h10"></path><g><path d="M70 47h0"></path><path d="M439 47h0"></path><path d="M70 47a10 10 0 0 0 10 -10v-7a10 10 0 0 1 10 -10"></path><g><path d="M90 20h329"></path></g><path d="M419 20a10 10 0 0 1 10 10v7a10 10 0 0 0 10 10"></path><path d="M70 47h20"></path><g><path d="M90 47h0"></path><path d="M419 47h0"></path><path d="M90 47h10"></path><g class="non-terminal "><path d="M100 47h0"></path><path d="M409 47h0"></path><rect x="100" y="36" width="309" height="22" rx="10" ry="10"></rect><text x="254.5" y="51">annotationInterfaceElementModifier</text></g><path d="M409 47h10"></path><path d="M100 47a10 10 0 0 0 -10 10v7a10 10 0 0 0 10 10"></path><g><path d="M100 74h309"></path></g><path d="M409 74a10 10 0 0 0 10 -10v-7a10 10 0 0 0 -10 -10"></path></g><path d="M419 47h20"></path></g><path d="M439 47h10"></path><g class="non-terminal "><path d="M449 47h0"></path><path d="M545.5 47h0"></path><rect x="449" y="36" width="96.5" height="22" rx="10" ry="10"></rect><text x="497.25" y="51">unannType</text></g><path d="M545.5 47h10"></path><path d="M555.5 47h10"></path><g class="non-terminal "><path d="M565.5 47h0"></path><path d="M670.5 47h0"></path><rect x="565.5" y="36" width="105" height="22" rx="10" ry="10"></rect><text x="618" y="51">identifier</text></g><path d="M670.5 47h10"></path><path d="M680.5 47h10"></path><g class="terminal "><path d="M690.5 47h0"></path><path d="M736 47h0"></path><rect x="690.5" y="36" width="45.5" height="22"></rect><text x="713.25" y="51">'('</text></g><path d="M736 47h10"></path><path d="M746 47h10"></path><g class="terminal "><path d="M756 47h0"></path><path d="M801.5 47h0"></path><rect x="756" y="36" width="45.5" height="22"></rect><text x="778.75" y="51">')'</text></g><path d="M801.5 47h10"></path><g><path d="M811.5 47h0"></path><path d="M905.5 47h0"></path><path d="M811.5 47a10 10 0 0 0 10 -10v-7a10 10 0 0 1 10 -10"></path><g><path d="M831.5 20h54"></path></g><path d="M885.5 20a10 10 0 0 1 10 10v7a10 10 0 0 0 10 10"></path><path d="M811.5 47h20"></path><g class="non-terminal "><path d="M831.5 47h0"></path><path d="M885.5 47h0"></path><rect x="831.5" y="36" width="54" height="22" rx="10" ry="10"></rect><text x="858.5" y="51">dims</text></g><path d="M885.5 47h20"></path></g><g><path d="M905.5 47h0"></path><path d="M1067.5 47h0"></path><path d="M905.5 47a10 10 0 0 0 10 -10v-7a10 10 0 0 1 10 -10"></path><g><path d="M925.5 20h122"></path></g><path d="M1047.5 20a10 10 0 0 1 10 10v7a10 10 0 0 0 10 10"></path><path d="M905.5 47h20"></path><g class="non-terminal "><path d="M925.5 47h0"></path><path d="M1047.5 47h0"></path><rect x="925.5" y="36" width="122" height="22" rx="10" ry="10"></rect><text x="986.5" y="51">defaultValue</text></g><path d="M1047.5 47h20"></path></g><path d="M1067.5 47h10"></path><g class="terminal "><path d="M1077.5 47h0"></path><path d="M1123 47h0"></path><rect x="1077.5" y="36" width="45.5" height="22"></rect><text x="1100.25" y="51">';'</text></g></g><path d="M1133 47h0"></path></g><path d="M1133 47h20"></path></g><path d="M 1153 47 h 20 m 0 -10 v 20"></path></g><defs><style type="text/css"><![CDATA[
svg.railroad-diagram path { stroke-width: 2; stroke: darkgray; fill: rgba(0, 0, 0, 0);}/* All text except comments. */svg.railroad-diagram text { font: bold 12px Hack, "Source Code Pro", monospace; text-anchor: middle; fill: #404040;}/* Comment text */svg.railroad-diagram text.comment { font: italic 10px Hack, "Source Code Pro", monospace; fill: #404040;}/* The terminal boxes. */svg.railroad-diagram g.terminal rect { stroke-width: 2; stroke: #404040; fill: rgba(200, 200, 200, 1);}svg.railroad-diagram g.non-terminal rect { /* The non-terminal boxes. */ stroke-width: 2; stroke: #404040; fill: rgba(255, 255, 255, 1);}/* Multiple choice text, not working atm. */svg.railroad-diagram text.diagram-text { font-size: 12px Hack, "Source Code Pro", monospace; fill: red;}/* Multiple choice text, not working atm. */svg.railroad-diagram path.diagram-text { stroke-width: 1; stroke: red; fill: red; cursor: help;}
 ]]>
</style></defs></svg>