<?xml version="1.0" encoding="UTF-8" standalone="no"?>
<!DOCTYPE svg PUBLIC "-//W3C//DTD SVG 1.1//EN" "http://www.w3.org/Graphics/SVG/1.1/DTD/svg11.dtd">
<svg class="railroad-diagram" width="592" height="78" viewBox="0 0 592 78" id="arrayInitializer" xmlns="http://www.w3.org/2000/svg" xmlns:xlink="http://www.w3.org/1999/xlink"><g transform="translate(.5 .5)"><g><path d="M20 37v20m0 -10h20"></path></g><g><path d="M40 47h0"></path><path d="M552 47h0"></path><path d="M40 47h20"></path><g><path d="M60 47h0"></path><g><path d="M60 47h10"></path><path d="M522 47h10"></path><g class="terminal "><path d="M70 47h0"></path><path d="M115.5 47h0"></path><rect x="70" y="36" width="45.5" height="22"></rect><text x="92.75" y="51">'{'</text></g><path d="M115.5 47h10"></path><g><path d="M125.5 47h0"></path><path d="M381 47h0"></path><path d="M125.5 47a10 10 0 0 0 10 -10v-7a10 10 0 0 1 10 -10"></path><g><path d="M145.5 20h215.5"></path></g><path d="M361 20a10 10 0 0 1 10 10v7a10 10 0 0 0 10 10"></path><path d="M125.5 47h20"></path><g class="non-terminal "><path d="M145.5 47h0"></path><path d="M361 47h0"></path><rect x="145.5" y="36" width="215.5" height="22" rx="10" ry="10"></rect><text x="253.25" y="51">variableInitializerList</text></g><path d="M361 47h20"></path></g><g><path d="M381 47h0"></path><path d="M466.5 47h0"></path><path d="M381 47a10 10 0 0 0 10 -10v-7a10 10 0 0 1 10 -10"></path><g><path d="M401 20h45.5"></path></g><path d="M446.5 20a10 10 0 0 1 10 10v7a10 10 0 0 0 10 10"></path><path d="M381 47h20"></path><g class="terminal "><path d="M401 47h0"></path><path d="M446.5 47h0"></path><rect x="401" y="36" width="45.5" height="22"></rect><text x="423.75" y="51">','</text></g><path d="M446.5 47h20"></path></g><path d="M466.5 47h10"></path><g class="terminal "><path d="M476.5 47h0"></path><path d="M522 47h0"></path><rect x="476.5" y="36" width="45.5" height="22"></rect><text x="499.25" y="51">'}'</text></g></g><path d="M532 47h0"></path></g><path d="M532 47h20"></path></g><path d="M 552 47 h 20 m 0 -10 v 20"></path></g><defs><style type="text/css"><![CDATA[
svg.railroad-diagram path { stroke-width: 2; stroke: darkgray; fill: rgba(0, 0, 0, 0);}/* All text except comments. */svg.railroad-diagram text { font: bold 12px Hack, "Source Code Pro", monospace; text-anchor: middle; fill: #404040;}/* Comment text */svg.railroad-diagram text.comment { font: italic 10px Hack, "Source Code Pro", monospace; fill: #404040;}/* The terminal boxes. */svg.railroad-diagram g.terminal rect { stroke-width: 2; stroke: #404040; fill: rgba(200, 200, 200, 1);}svg.railroad-diagram g.non-terminal rect { /* The non-terminal boxes. */ stroke-width: 2; stroke: #404040; fill: rgba(255, 255, 255, 1);}/* Multiple choice text, not working atm. */svg.railroad-diagram text.diagram-text { font-size: 12px Hack, "Source Code Pro", monospace; fill: red;}/* Multiple choice text, not working atm. */svg.railroad-diagram path.diagram-text { stroke-width: 1; stroke: red; fill: red; cursor: help;}
 ]]>
</style></defs></svg>