<?xml version="1.0" encoding="UTF-8" standalone="no"?>
<!DOCTYPE svg PUBLIC "-//W3C//DTD SVG 1.1//EN" "http://www.w3.org/Graphics/SVG/1.1/DTD/svg11.dtd">
<svg class="railroad-diagram" width="662.5" height="100" viewBox="0 0 662.5 100" id="arrayCreationExpressionWithInitializer" xmlns="http://www.w3.org/2000/svg" xmlns:xlink="http://www.w3.org/1999/xlink"><g transform="translate(.5 .5)"><g><path d="M20 21v20m0 -10h20"></path></g><g><path d="M40 31h0"></path><path d="M622.5 31h0"></path><path d="M40 31h20"></path><g><path d="M60 31h29.75"></path><g><path d="M89.75 31h10"></path><path d="M562.75 31h10"></path><g class="terminal "><path d="M99.75 31h0"></path><path d="M162.25 31h0"></path><rect x="99.75" y="20" width="62.5" height="22"></rect><text x="131" y="35">'new'</text></g><path d="M162.25 31h10"></path><path d="M172.25 31h10"></path><g class="non-terminal "><path d="M182.25 31h0"></path><path d="M312.75 31h0"></path><rect x="182.25" y="20" width="130.5" height="22" rx="10" ry="10"></rect><text x="247.5" y="35">primitiveType</text></g><path d="M312.75 31h10"></path><path d="M322.75 31h10"></path><g class="non-terminal "><path d="M332.75 31h0"></path><path d="M386.75 31h0"></path><rect x="332.75" y="20" width="54" height="22" rx="10" ry="10"></rect><text x="359.75" y="35">dims</text></g><path d="M386.75 31h10"></path><path d="M396.75 31h10"></path><g class="non-terminal "><path d="M406.75 31h0"></path><path d="M562.75 31h0"></path><rect x="406.75" y="20" width="156" height="22" rx="10" ry="10"></rect><text x="484.75" y="35">arrayInitializer</text></g></g><path d="M572.75 31h29.75"></path></g><path d="M602.5 31h20"></path><path d="M40 31a10 10 0 0 1 10 10v18a10 10 0 0 0 10 10"></path><g><path d="M60 69h0"></path><g><path d="M60 69h10"></path><path d="M592.5 69h10"></path><g class="terminal "><path d="M70 69h0"></path><path d="M132.5 69h0"></path><rect x="70" y="58" width="62.5" height="22"></rect><text x="101.25" y="73">'new'</text></g><path d="M132.5 69h10"></path><path d="M142.5 69h10"></path><g class="non-terminal "><path d="M152.5 69h0"></path><path d="M342.5 69h0"></path><rect x="152.5" y="58" width="190" height="22" rx="10" ry="10"></rect><text x="247.5" y="73">classOrInterfaceType</text></g><path d="M342.5 69h10"></path><path d="M352.5 69h10"></path><g class="non-terminal "><path d="M362.5 69h0"></path><path d="M416.5 69h0"></path><rect x="362.5" y="58" width="54" height="22" rx="10" ry="10"></rect><text x="389.5" y="73">dims</text></g><path d="M416.5 69h10"></path><path d="M426.5 69h10"></path><g class="non-terminal "><path d="M436.5 69h0"></path><path d="M592.5 69h0"></path><rect x="436.5" y="58" width="156" height="22" rx="10" ry="10"></rect><text x="514.5" y="73">arrayInitializer</text></g></g><path d="M602.5 69h0"></path></g><path d="M602.5 69a10 10 0 0 0 10 -10v-18a10 10 0 0 1 10 -10"></path></g><path d="M 622.5 31 h 20 m 0 -10 v 20"></path></g><defs><style type="text/css"><![CDATA[
svg.railroad-diagram path { stroke-width: 2; stroke: darkgray; fill: rgba(0, 0, 0, 0);}/* All text except comments. */svg.railroad-diagram text { font: bold 12px Hack, "Source Code Pro", monospace; text-anchor: middle; fill: #404040;}/* Comment text */svg.railroad-diagram text.comment { font: italic 10px Hack, "Source Code Pro", monospace; fill: #404040;}/* The terminal boxes. */svg.railroad-diagram g.terminal rect { stroke-width: 2; stroke: #404040; fill: rgba(200, 200, 200, 1);}svg.railroad-diagram g.non-terminal rect { /* The non-terminal boxes. */ stroke-width: 2; stroke: #404040; fill: rgba(255, 255, 255, 1);}/* Multiple choice text, not working atm. */svg.railroad-diagram text.diagram-text { font-size: 12px Hack, "Source Code Pro", monospace; fill: red;}/* Multiple choice text, not working atm. */svg.railroad-diagram path.diagram-text { stroke-width: 1; stroke: red; fill: red; cursor: help;}
 ]]>
</style></defs></svg>