<?xml version="1.0" encoding="UTF-8" standalone="no"?>
<!DOCTYPE svg PUBLIC "-//W3C//DTD SVG 1.1//EN" "http://www.w3.org/Graphics/SVG/1.1/DTD/svg11.dtd">
<svg class="railroad-diagram" width="739" height="138" viewBox="0 0 739 138" id="arrayAccess" xmlns="http://www.w3.org/2000/svg" xmlns:xlink="http://www.w3.org/1999/xlink"><g transform="translate(.5 .5)"><g><path d="M20 21v20m0 -10h20"></path></g><g><path d="M40 31h0"></path><path d="M699 31h0"></path><path d="M40 31h20"></path><g><path d="M60 31h102"></path><g><path d="M162 31h10"></path><path d="M567 31h10"></path><g class="non-terminal "><path d="M172 31h0"></path><path d="M311 31h0"></path><rect x="172" y="20" width="139" height="22" rx="10" ry="10"></rect><text x="241.5" y="35">expressionName</text></g><path d="M311 31h10"></path><path d="M321 31h10"></path><g class="terminal "><path d="M331 31h0"></path><path d="M376.5 31h0"></path><rect x="331" y="20" width="45.5" height="22"></rect><text x="353.75" y="35">'['</text></g><path d="M376.5 31h10"></path><path d="M386.5 31h10"></path><g class="non-terminal "><path d="M396.5 31h0"></path><path d="M501.5 31h0"></path><rect x="396.5" y="20" width="105" height="22" rx="10" ry="10"></rect><text x="449" y="35">expression</text></g><path d="M501.5 31h10"></path><path d="M511.5 31h10"></path><g class="terminal "><path d="M521.5 31h0"></path><path d="M567 31h0"></path><rect x="521.5" y="20" width="45.5" height="22"></rect><text x="544.25" y="35">']'</text></g></g><path d="M577 31h102"></path></g><path d="M679 31h20"></path><path d="M40 31a10 10 0 0 1 10 10v18a10 10 0 0 0 10 10"></path><g><path d="M60 69h89.25"></path><g><path d="M149.25 69h10"></path><path d="M579.75 69h10"></path><g class="non-terminal "><path d="M159.25 69h0"></path><path d="M323.75 69h0"></path><rect x="159.25" y="58" width="164.5" height="22" rx="10" ry="10"></rect><text x="241.5" y="73">primaryNoNewArray</text></g><path d="M323.75 69h10"></path><path d="M333.75 69h10"></path><g class="terminal "><path d="M343.75 69h0"></path><path d="M389.25 69h0"></path><rect x="343.75" y="58" width="45.5" height="22"></rect><text x="366.5" y="73">'['</text></g><path d="M389.25 69h10"></path><path d="M399.25 69h10"></path><g class="non-terminal "><path d="M409.25 69h0"></path><path d="M514.25 69h0"></path><rect x="409.25" y="58" width="105" height="22" rx="10" ry="10"></rect><text x="461.75" y="73">expression</text></g><path d="M514.25 69h10"></path><path d="M524.25 69h10"></path><g class="terminal "><path d="M534.25 69h0"></path><path d="M579.75 69h0"></path><rect x="534.25" y="58" width="45.5" height="22"></rect><text x="557" y="73">']'</text></g></g><path d="M589.75 69h89.25"></path></g><path d="M679 69a10 10 0 0 0 10 -10v-18a10 10 0 0 1 10 -10"></path><path d="M40 31a10 10 0 0 1 10 10v56a10 10 0 0 0 10 10"></path><g><path d="M60 107h0"></path><g><path d="M60 107h10"></path><path d="M669 107h10"></path><g class="non-terminal "><path d="M70 107h0"></path><path d="M413 107h0"></path><rect x="70" y="96" width="343" height="22" rx="10" ry="10"></rect><text x="241.5" y="111">arrayCreationExpressionWithInitializer</text></g><path d="M413 107h10"></path><path d="M423 107h10"></path><g class="terminal "><path d="M433 107h0"></path><path d="M478.5 107h0"></path><rect x="433" y="96" width="45.5" height="22"></rect><text x="455.75" y="111">'['</text></g><path d="M478.5 107h10"></path><path d="M488.5 107h10"></path><g class="non-terminal "><path d="M498.5 107h0"></path><path d="M603.5 107h0"></path><rect x="498.5" y="96" width="105" height="22" rx="10" ry="10"></rect><text x="551" y="111">expression</text></g><path d="M603.5 107h10"></path><path d="M613.5 107h10"></path><g class="terminal "><path d="M623.5 107h0"></path><path d="M669 107h0"></path><rect x="623.5" y="96" width="45.5" height="22"></rect><text x="646.25" y="111">']'</text></g></g><path d="M679 107h0"></path></g><path d="M679 107a10 10 0 0 0 10 -10v-56a10 10 0 0 1 10 -10"></path></g><path d="M 699 31 h 20 m 0 -10 v 20"></path></g><defs><style type="text/css"><![CDATA[
svg.railroad-diagram path { stroke-width: 2; stroke: darkgray; fill: rgba(0, 0, 0, 0);}/* All text except comments. */svg.railroad-diagram text { font: bold 12px Hack, "Source Code Pro", monospace; text-anchor: middle; fill: #404040;}/* Comment text */svg.railroad-diagram text.comment { font: italic 10px Hack, "Source Code Pro", monospace; fill: #404040;}/* The terminal boxes. */svg.railroad-diagram g.terminal rect { stroke-width: 2; stroke: #404040; fill: rgba(200, 200, 200, 1);}svg.railroad-diagram g.non-terminal rect { /* The non-terminal boxes. */ stroke-width: 2; stroke: #404040; fill: rgba(255, 255, 255, 1);}/* Multiple choice text, not working atm. */svg.railroad-diagram text.diagram-text { font-size: 12px Hack, "Source Code Pro", monospace; fill: red;}/* Multiple choice text, not working atm. */svg.railroad-diagram path.diagram-text { stroke-width: 1; stroke: red; fill: red; cursor: help;}
 ]]>
</style></defs></svg>