<?xml version="1.0" encoding="UTF-8" standalone="no"?>
<!DOCTYPE svg PUBLIC "-//W3C//DTD SVG 1.1//EN" "http://www.w3.org/Graphics/SVG/1.1/DTD/svg11.dtd">
<svg class="railroad-diagram" width="344.5" height="138" viewBox="0 0 344.5 138" id="arrayType" xmlns="http://www.w3.org/2000/svg" xmlns:xlink="http://www.w3.org/1999/xlink"><g transform="translate(.5 .5)"><g><path d="M20 21v20m0 -10h20"></path></g><g><path d="M40 31h0"></path><path d="M304.5 31h0"></path><path d="M40 31h20"></path><g><path d="M60 31h0"></path><g><path d="M60 31h10"></path><path d="M274.5 31h10"></path><g class="non-terminal "><path d="M70 31h0"></path><path d="M200.5 31h0"></path><rect x="70" y="20" width="130.5" height="22" rx="10" ry="10"></rect><text x="135.25" y="35">primitiveType</text></g><path d="M200.5 31h10"></path><path d="M210.5 31h10"></path><g class="non-terminal "><path d="M220.5 31h0"></path><path d="M274.5 31h0"></path><rect x="220.5" y="20" width="54" height="22" rx="10" ry="10"></rect><text x="247.5" y="35">dims</text></g></g><path d="M284.5 31h0"></path></g><path d="M284.5 31h20"></path><path d="M40 31a10 10 0 0 1 10 10v18a10 10 0 0 0 10 10"></path><g><path d="M60 69h17"></path><g><path d="M77 69h10"></path><path d="M257.5 69h10"></path><g class="non-terminal "><path d="M87 69h0"></path><path d="M183.5 69h0"></path><rect x="87" y="58" width="96.5" height="22" rx="10" ry="10"></rect><text x="135.25" y="73">classType</text></g><path d="M183.5 69h10"></path><path d="M193.5 69h10"></path><g class="non-terminal "><path d="M203.5 69h0"></path><path d="M257.5 69h0"></path><rect x="203.5" y="58" width="54" height="22" rx="10" ry="10"></rect><text x="230.5" y="73">dims</text></g></g><path d="M267.5 69h17"></path></g><path d="M284.5 69a10 10 0 0 0 10 -10v-18a10 10 0 0 1 10 -10"></path><path d="M40 31a10 10 0 0 1 10 10v56a10 10 0 0 0 10 10"></path><g><path d="M60 107h4.25"></path><g><path d="M64.25 107h10"></path><path d="M270.25 107h10"></path><g class="non-terminal "><path d="M74.25 107h0"></path><path d="M196.25 107h0"></path><rect x="74.25" y="96" width="122" height="22" rx="10" ry="10"></rect><text x="135.25" y="111">typeVariable</text></g><path d="M196.25 107h10"></path><path d="M206.25 107h10"></path><g class="non-terminal "><path d="M216.25 107h0"></path><path d="M270.25 107h0"></path><rect x="216.25" y="96" width="54" height="22" rx="10" ry="10"></rect><text x="243.25" y="111">dims</text></g></g><path d="M280.25 107h4.25"></path></g><path d="M284.5 107a10 10 0 0 0 10 -10v-56a10 10 0 0 1 10 -10"></path></g><path d="M 304.5 31 h 20 m 0 -10 v 20"></path></g><defs><style type="text/css"><![CDATA[
svg.railroad-diagram path { stroke-width: 2; stroke: darkgray; fill: rgba(0, 0, 0, 0);}/* All text except comments. */svg.railroad-diagram text { font: bold 12px Hack, "Source Code Pro", monospace; text-anchor: middle; fill: #404040;}/* Comment text */svg.railroad-diagram text.comment { font: italic 10px Hack, "Source Code Pro", monospace; fill: #404040;}/* The terminal boxes. */svg.railroad-diagram g.terminal rect { stroke-width: 2; stroke: #404040; fill: rgba(200, 200, 200, 1);}svg.railroad-diagram g.non-terminal rect { /* The non-terminal boxes. */ stroke-width: 2; stroke: #404040; fill: rgba(255, 255, 255, 1);}/* Multiple choice text, not working atm. */svg.railroad-diagram text.diagram-text { font-size: 12px Hack, "Source Code Pro", monospace; fill: red;}/* Multiple choice text, not working atm. */svg.railroad-diagram path.diagram-text { stroke-width: 1; stroke: red; fill: red; cursor: help;}
 ]]>
</style></defs></svg>