<?xml version="1.0" encoding="UTF-8" standalone="no"?>
<!DOCTYPE svg PUBLIC "-//W3C//DTD SVG 1.1//EN" "http://www.w3.org/Graphics/SVG/1.1/DTD/svg11.dtd">
<svg class="railroad-diagram" width="565" height="132" viewBox="0 0 565 132" id="arrayCreationExpressionWithoutInitializer" xmlns="http://www.w3.org/2000/svg" xmlns:xlink="http://www.w3.org/1999/xlink"><g transform="translate(.5 .5)"><g><path d="M20 37v20m0 -10h20"></path></g><g><path d="M40 47h0"></path><path d="M525 47h0"></path><path d="M40 47h20"></path><g><path d="M60 47h0"></path><g><path d="M60 47h10"></path><path d="M495 47h10"></path><g class="terminal "><path d="M70 47h0"></path><path d="M132.5 47h0"></path><rect x="70" y="36" width="62.5" height="22"></rect><text x="101.25" y="51">'new'</text></g><path d="M132.5 47h10"></path><path d="M142.5 47h10"></path><g class="non-terminal "><path d="M152.5 47h0"></path><path d="M283 47h0"></path><rect x="152.5" y="36" width="130.5" height="22" rx="10" ry="10"></rect><text x="217.75" y="51">primitiveType</text></g><path d="M283 47h10"></path><path d="M293 47h10"></path><g class="non-terminal "><path d="M303 47h0"></path><path d="M391 47h0"></path><rect x="303" y="36" width="88" height="22" rx="10" ry="10"></rect><text x="347" y="51">dimExprs</text></g><path d="M391 47h10"></path><g><path d="M401 47h0"></path><path d="M495 47h0"></path><path d="M401 47a10 10 0 0 0 10 -10v-7a10 10 0 0 1 10 -10"></path><g><path d="M421 20h54"></path></g><path d="M475 20a10 10 0 0 1 10 10v7a10 10 0 0 0 10 10"></path><path d="M401 47h20"></path><g class="non-terminal "><path d="M421 47h0"></path><path d="M475 47h0"></path><rect x="421" y="36" width="54" height="22" rx="10" ry="10"></rect><text x="448" y="51">dims</text></g><path d="M475 47h20"></path></g></g><path d="M505 47h0"></path></g><path d="M505 47h20"></path><path d="M40 47a10 10 0 0 1 10 10v34a10 10 0 0 0 10 10"></path><g><path d="M60 101h17"></path><g><path d="M77 101h10"></path><path d="M478 101h10"></path><g class="terminal "><path d="M87 101h0"></path><path d="M149.5 101h0"></path><rect x="87" y="90" width="62.5" height="22"></rect><text x="118.25" y="105">'new'</text></g><path d="M149.5 101h10"></path><path d="M159.5 101h10"></path><g class="non-terminal "><path d="M169.5 101h0"></path><path d="M266 101h0"></path><rect x="169.5" y="90" width="96.5" height="22" rx="10" ry="10"></rect><text x="217.75" y="105">classType</text></g><path d="M266 101h10"></path><path d="M276 101h10"></path><g class="non-terminal "><path d="M286 101h0"></path><path d="M374 101h0"></path><rect x="286" y="90" width="88" height="22" rx="10" ry="10"></rect><text x="330" y="105">dimExprs</text></g><path d="M374 101h10"></path><g><path d="M384 101h0"></path><path d="M478 101h0"></path><path d="M384 101a10 10 0 0 0 10 -10v-7a10 10 0 0 1 10 -10"></path><g><path d="M404 74h54"></path></g><path d="M458 74a10 10 0 0 1 10 10v7a10 10 0 0 0 10 10"></path><path d="M384 101h20"></path><g class="non-terminal "><path d="M404 101h0"></path><path d="M458 101h0"></path><rect x="404" y="90" width="54" height="22" rx="10" ry="10"></rect><text x="431" y="105">dims</text></g><path d="M458 101h20"></path></g></g><path d="M488 101h17"></path></g><path d="M505 101a10 10 0 0 0 10 -10v-34a10 10 0 0 1 10 -10"></path></g><path d="M 525 47 h 20 m 0 -10 v 20"></path></g><defs><style type="text/css"><![CDATA[
svg.railroad-diagram path { stroke-width: 2; stroke: darkgray; fill: rgba(0, 0, 0, 0);}/* All text except comments. */svg.railroad-diagram text { font: bold 12px Hack, "Source Code Pro", monospace; text-anchor: middle; fill: #404040;}/* Comment text */svg.railroad-diagram text.comment { font: italic 10px Hack, "Source Code Pro", monospace; fill: #404040;}/* The terminal boxes. */svg.railroad-diagram g.terminal rect { stroke-width: 2; stroke: #404040; fill: rgba(200, 200, 200, 1);}svg.railroad-diagram g.non-terminal rect { /* The non-terminal boxes. */ stroke-width: 2; stroke: #404040; fill: rgba(255, 255, 255, 1);}/* Multiple choice text, not working atm. */svg.railroad-diagram text.diagram-text { font-size: 12px Hack, "Source Code Pro", monospace; fill: red;}/* Multiple choice text, not working atm. */svg.railroad-diagram path.diagram-text { stroke-width: 1; stroke: red; fill: red; cursor: help;}
 ]]>
</style></defs></svg>