<?xml version="1.0" encoding="UTF-8" standalone="no"?>
<!DOCTYPE svg PUBLIC "-//W3C//DTD SVG 1.1//EN" "http://www.w3.org/Graphics/SVG/1.1/DTD/svg11.dtd">
<svg class="railroad-diagram" width="689" height="78" viewBox="0 0 689 78" id="assertStatement" xmlns="http://www.w3.org/2000/svg" xmlns:xlink="http://www.w3.org/1999/xlink"><g transform="translate(.5 .5)"><g><path d="M20 37v20m0 -10h20"></path></g><g><path d="M40 47h0"></path><path d="M649 47h0"></path><path d="M40 47h20"></path><g><path d="M60 47h0"></path><g><path d="M60 47h10"></path><path d="M619 47h10"></path><g class="terminal "><path d="M70 47h0"></path><path d="M158 47h0"></path><rect x="70" y="36" width="88" height="22"></rect><text x="114" y="51">'assert'</text></g><path d="M158 47h10"></path><path d="M168 47h10"></path><g class="non-terminal "><path d="M178 47h0"></path><path d="M283 47h0"></path><rect x="178" y="36" width="105" height="22" rx="10" ry="10"></rect><text x="230.5" y="51">expression</text></g><path d="M283 47h10"></path><g><path d="M293 47h0"></path><path d="M563.5 47h0"></path><path d="M293 47a10 10 0 0 0 10 -10v-7a10 10 0 0 1 10 -10"></path><g><path d="M313 20h230.5"></path></g><path d="M543.5 20a10 10 0 0 1 10 10v7a10 10 0 0 0 10 10"></path><path d="M293 47h20"></path><g><path d="M313 47h0"></path><path d="M543.5 47h0"></path><path d="M313 47h20"></path><g><path d="M333 47h0"></path><g><path d="M333 47h10"></path><path d="M513.5 47h10"></path><g class="terminal "><path d="M343 47h0"></path><path d="M388.5 47h0"></path><rect x="343" y="36" width="45.5" height="22"></rect><text x="365.75" y="51">':'</text></g><path d="M388.5 47h10"></path><path d="M398.5 47h10"></path><g class="non-terminal "><path d="M408.5 47h0"></path><path d="M513.5 47h0"></path><rect x="408.5" y="36" width="105" height="22" rx="10" ry="10"></rect><text x="461" y="51">expression</text></g></g><path d="M523.5 47h0"></path></g><path d="M523.5 47h20"></path></g><path d="M543.5 47h20"></path></g><path d="M563.5 47h10"></path><g class="terminal "><path d="M573.5 47h0"></path><path d="M619 47h0"></path><rect x="573.5" y="36" width="45.5" height="22"></rect><text x="596.25" y="51">';'</text></g></g><path d="M629 47h0"></path></g><path d="M629 47h20"></path></g><path d="M 649 47 h 20 m 0 -10 v 20"></path></g><defs><style type="text/css"><![CDATA[
svg.railroad-diagram path { stroke-width: 2; stroke: darkgray; fill: rgba(0, 0, 0, 0);}/* All text except comments. */svg.railroad-diagram text { font: bold 12px Hack, "Source Code Pro", monospace; text-anchor: middle; fill: #404040;}/* Comment text */svg.railroad-diagram text.comment { font: italic 10px Hack, "Source Code Pro", monospace; fill: #404040;}/* The terminal boxes. */svg.railroad-diagram g.terminal rect { stroke-width: 2; stroke: #404040; fill: rgba(200, 200, 200, 1);}svg.railroad-diagram g.non-terminal rect { /* The non-terminal boxes. */ stroke-width: 2; stroke: #404040; fill: rgba(255, 255, 255, 1);}/* Multiple choice text, not working atm. */svg.railroad-diagram text.diagram-text { font-size: 12px Hack, "Source Code Pro", monospace; fill: red;}/* Multiple choice text, not working atm. */svg.railroad-diagram path.diagram-text { stroke-width: 1; stroke: red; fill: red; cursor: help;}
 ]]>
</style></defs></svg>