<?xml version="1.0" encoding="UTF-8" standalone="no"?>
<!DOCTYPE svg PUBLIC "-//W3C//DTD SVG 1.1//EN" "http://www.w3.org/Graphics/SVG/1.1/DTD/svg11.dtd">
<svg class="railroad-diagram" width="878.5" height="202" viewBox="0 0 878.5 202" id="castExpression" xmlns="http://www.w3.org/2000/svg" xmlns:xlink="http://www.w3.org/1999/xlink"><g transform="translate(.5 .5)"><g><path d="M20 21v20m0 -10h20"></path></g><g><path d="M40 31h0"></path><path d="M838.5 31h0"></path><path d="M40 31h20"></path><g><path d="M60 31h154.75"></path><g><path d="M214.75 31h10"></path><path d="M653.75 31h10"></path><g class="terminal "><path d="M224.75 31h0"></path><path d="M270.25 31h0"></path><rect x="224.75" y="20" width="45.5" height="22"></rect><text x="247.5" y="35">'('</text></g><path d="M270.25 31h10"></path><path d="M280.25 31h10"></path><g class="non-terminal "><path d="M290.25 31h0"></path><path d="M420.75 31h0"></path><rect x="290.25" y="20" width="130.5" height="22" rx="10" ry="10"></rect><text x="355.5" y="35">primitiveType</text></g><path d="M420.75 31h10"></path><path d="M430.75 31h10"></path><g class="terminal "><path d="M440.75 31h0"></path><path d="M486.25 31h0"></path><rect x="440.75" y="20" width="45.5" height="22"></rect><text x="463.5" y="35">')'</text></g><path d="M486.25 31h10"></path><path d="M496.25 31h10"></path><g class="non-terminal "><path d="M506.25 31h0"></path><path d="M653.75 31h0"></path><rect x="506.25" y="20" width="147.5" height="22" rx="10" ry="10"></rect><text x="580" y="35">unaryExpression</text></g></g><path d="M663.75 31h154.75"></path></g><path d="M818.5 31h20"></path><path d="M40 31a10 10 0 0 1 10 10v34a10 10 0 0 0 10 10"></path><g><path d="M60 85h0"></path><g><path d="M60 85h10"></path><path d="M808.5 85h10"></path><g class="terminal "><path d="M70 85h0"></path><path d="M115.5 85h0"></path><rect x="70" y="74" width="45.5" height="22"></rect><text x="92.75" y="89">'('</text></g><path d="M115.5 85h10"></path><path d="M125.5 85h10"></path><g class="non-terminal "><path d="M135.5 85h0"></path><path d="M266 85h0"></path><rect x="135.5" y="74" width="130.5" height="22" rx="10" ry="10"></rect><text x="200.75" y="89">referenceType</text></g><path d="M266 85h10"></path><g><path d="M276 85h0"></path><path d="M483.5 85h0"></path><path d="M276 85a10 10 0 0 0 10 -10v-7a10 10 0 0 1 10 -10"></path><g><path d="M296 58h167.5"></path></g><path d="M463.5 58a10 10 0 0 1 10 10v7a10 10 0 0 0 10 10"></path><path d="M276 85h20"></path><g><path d="M296 85h0"></path><path d="M463.5 85h0"></path><path d="M296 85h10"></path><g class="non-terminal "><path d="M306 85h0"></path><path d="M453.5 85h0"></path><rect x="306" y="74" width="147.5" height="22" rx="10" ry="10"></rect><text x="379.75" y="89">additionalBound</text></g><path d="M453.5 85h10"></path><path d="M306 85a10 10 0 0 0 -10 10v7a10 10 0 0 0 10 10"></path><g><path d="M306 112h147.5"></path></g><path d="M453.5 112a10 10 0 0 0 10 -10v-7a10 10 0 0 0 -10 -10"></path></g><path d="M463.5 85h20"></path></g><path d="M483.5 85h10"></path><g class="terminal "><path d="M493.5 85h0"></path><path d="M539 85h0"></path><rect x="493.5" y="74" width="45.5" height="22"></rect><text x="516.25" y="89">')'</text></g><path d="M539 85h10"></path><path d="M549 85h10"></path><g class="non-terminal "><path d="M559 85h0"></path><path d="M808.5 85h0"></path><rect x="559" y="74" width="249.5" height="22" rx="10" ry="10"></rect><text x="683.75" y="89">unaryExpressionNotPlusMinus</text></g></g><path d="M818.5 85h0"></path></g><path d="M818.5 85a10 10 0 0 0 10 -10v-34a10 10 0 0 1 10 -10"></path><path d="M40 31a10 10 0 0 1 10 10v104a10 10 0 0 0 10 10"></path><g><path d="M60 155h46.75"></path><g><path d="M106.75 155h10"></path><path d="M761.75 155h10"></path><g class="terminal "><path d="M116.75 155h0"></path><path d="M162.25 155h0"></path><rect x="116.75" y="144" width="45.5" height="22"></rect><text x="139.5" y="159">'('</text></g><path d="M162.25 155h10"></path><path d="M172.25 155h10"></path><g class="non-terminal "><path d="M182.25 155h0"></path><path d="M312.75 155h0"></path><rect x="182.25" y="144" width="130.5" height="22" rx="10" ry="10"></rect><text x="247.5" y="159">referenceType</text></g><path d="M312.75 155h10"></path><g><path d="M322.75 155h0"></path><path d="M530.25 155h0"></path><path d="M322.75 155a10 10 0 0 0 10 -10v-7a10 10 0 0 1 10 -10"></path><g><path d="M342.75 128h167.5"></path></g><path d="M510.25 128a10 10 0 0 1 10 10v7a10 10 0 0 0 10 10"></path><path d="M322.75 155h20"></path><g><path d="M342.75 155h0"></path><path d="M510.25 155h0"></path><path d="M342.75 155h10"></path><g class="non-terminal "><path d="M352.75 155h0"></path><path d="M500.25 155h0"></path><rect x="352.75" y="144" width="147.5" height="22" rx="10" ry="10"></rect><text x="426.5" y="159">additionalBound</text></g><path d="M500.25 155h10"></path><path d="M352.75 155a10 10 0 0 0 -10 10v7a10 10 0 0 0 10 10"></path><g><path d="M352.75 182h147.5"></path></g><path d="M500.25 182a10 10 0 0 0 10 -10v-7a10 10 0 0 0 -10 -10"></path></g><path d="M510.25 155h20"></path></g><path d="M530.25 155h10"></path><g class="terminal "><path d="M540.25 155h0"></path><path d="M585.75 155h0"></path><rect x="540.25" y="144" width="45.5" height="22"></rect><text x="563" y="159">')'</text></g><path d="M585.75 155h10"></path><path d="M595.75 155h10"></path><g class="non-terminal "><path d="M605.75 155h0"></path><path d="M761.75 155h0"></path><rect x="605.75" y="144" width="156" height="22" rx="10" ry="10"></rect><text x="683.75" y="159">lambdaExpression</text></g></g><path d="M771.75 155h46.75"></path></g><path d="M818.5 155a10 10 0 0 0 10 -10v-104a10 10 0 0 1 10 -10"></path></g><path d="M 838.5 31 h 20 m 0 -10 v 20"></path></g><defs><style type="text/css"><![CDATA[
svg.railroad-diagram path { stroke-width: 2; stroke: darkgray; fill: rgba(0, 0, 0, 0);}/* All text except comments. */svg.railroad-diagram text { font: bold 12px Hack, "Source Code Pro", monospace; text-anchor: middle; fill: #404040;}/* Comment text */svg.railroad-diagram text.comment { font: italic 10px Hack, "Source Code Pro", monospace; fill: #404040;}/* The terminal boxes. */svg.railroad-diagram g.terminal rect { stroke-width: 2; stroke: #404040; fill: rgba(200, 200, 200, 1);}svg.railroad-diagram g.non-terminal rect { /* The non-terminal boxes. */ stroke-width: 2; stroke: #404040; fill: rgba(255, 255, 255, 1);}/* Multiple choice text, not working atm. */svg.railroad-diagram text.diagram-text { font-size: 12px Hack, "Source Code Pro", monospace; fill: red;}/* Multiple choice text, not working atm. */svg.railroad-diagram path.diagram-text { stroke-width: 1; stroke: red; fill: red; cursor: help;}
 ]]>
</style></defs></svg>