<?xml version="1.0" encoding="UTF-8" standalone="no"?>
<!DOCTYPE svg PUBLIC "-//W3C//DTD SVG 1.1//EN" "http://www.w3.org/Graphics/SVG/1.1/DTD/svg11.dtd">
<svg class="railroad-diagram" width="900" height="234" viewBox="0 0 900 234" id="classType" xmlns="http://www.w3.org/2000/svg" xmlns:xlink="http://www.w3.org/1999/xlink"><g transform="translate(.5 .5)"><g><path d="M20 37v20m0 -10h20"></path></g><g><path d="M40 47h0"></path><path d="M860 47h0"></path><path d="M40 47h20"></path><g><path d="M60 47h132.75"></path><g><path d="M192.75 47h10"></path><path d="M697.25 47h10"></path><g><path d="M202.75 47h0"></path><path d="M367.75 47h0"></path><path d="M202.75 47a10 10 0 0 0 10 -10v-7a10 10 0 0 1 10 -10"></path><g><path d="M222.75 20h125"></path></g><path d="M347.75 20a10 10 0 0 1 10 10v7a10 10 0 0 0 10 10"></path><path d="M202.75 47h20"></path><g><path d="M222.75 47h0"></path><path d="M347.75 47h0"></path><path d="M222.75 47h10"></path><g class="non-terminal "><path d="M232.75 47h0"></path><path d="M337.75 47h0"></path><rect x="232.75" y="36" width="105" height="22" rx="10" ry="10"></rect><text x="285.25" y="51">annotation</text></g><path d="M337.75 47h10"></path><path d="M232.75 47a10 10 0 0 0 -10 10v7a10 10 0 0 0 10 10"></path><g><path d="M232.75 74h105"></path></g><path d="M337.75 74a10 10 0 0 0 10 -10v-7a10 10 0 0 0 -10 -10"></path></g><path d="M347.75 47h20"></path></g><path d="M367.75 47h10"></path><g class="non-terminal "><path d="M377.75 47h0"></path><path d="M516.75 47h0"></path><rect x="377.75" y="36" width="139" height="22" rx="10" ry="10"></rect><text x="447.25" y="51">typeIdentifier</text></g><path d="M516.75 47h10"></path><g><path d="M526.75 47h0"></path><path d="M697.25 47h0"></path><path d="M526.75 47a10 10 0 0 0 10 -10v-7a10 10 0 0 1 10 -10"></path><g><path d="M546.75 20h130.5"></path></g><path d="M677.25 20a10 10 0 0 1 10 10v7a10 10 0 0 0 10 10"></path><path d="M526.75 47h20"></path><g class="non-terminal "><path d="M546.75 47h0"></path><path d="M677.25 47h0"></path><rect x="546.75" y="36" width="130.5" height="22" rx="10" ry="10"></rect><text x="612" y="51">typeArguments</text></g><path d="M677.25 47h20"></path></g></g><path d="M707.25 47h132.75"></path></g><path d="M840 47h20"></path><path d="M40 47a10 10 0 0 1 10 10v50a10 10 0 0 0 10 10"></path><g><path d="M60 117h38.25"></path><g><path d="M98.25 117h10"></path><path d="M791.75 117h10"></path><g class="non-terminal "><path d="M108.25 117h0"></path><path d="M221.75 117h0"></path><rect x="108.25" y="106" width="113.5" height="22" rx="10" ry="10"></rect><text x="165" y="121">packageName</text></g><path d="M221.75 117h10"></path><path d="M231.75 117h10"></path><g class="terminal "><path d="M241.75 117h0"></path><path d="M287.25 117h0"></path><rect x="241.75" y="106" width="45.5" height="22"></rect><text x="264.5" y="121">'.'</text></g><path d="M287.25 117h10"></path><g><path d="M297.25 117h0"></path><path d="M462.25 117h0"></path><path d="M297.25 117a10 10 0 0 0 10 -10v-7a10 10 0 0 1 10 -10"></path><g><path d="M317.25 90h125"></path></g><path d="M442.25 90a10 10 0 0 1 10 10v7a10 10 0 0 0 10 10"></path><path d="M297.25 117h20"></path><g><path d="M317.25 117h0"></path><path d="M442.25 117h0"></path><path d="M317.25 117h10"></path><g class="non-terminal "><path d="M327.25 117h0"></path><path d="M432.25 117h0"></path><rect x="327.25" y="106" width="105" height="22" rx="10" ry="10"></rect><text x="379.75" y="121">annotation</text></g><path d="M432.25 117h10"></path><path d="M327.25 117a10 10 0 0 0 -10 10v7a10 10 0 0 0 10 10"></path><g><path d="M327.25 144h105"></path></g><path d="M432.25 144a10 10 0 0 0 10 -10v-7a10 10 0 0 0 -10 -10"></path></g><path d="M442.25 117h20"></path></g><path d="M462.25 117h10"></path><g class="non-terminal "><path d="M472.25 117h0"></path><path d="M611.25 117h0"></path><rect x="472.25" y="106" width="139" height="22" rx="10" ry="10"></rect><text x="541.75" y="121">typeIdentifier</text></g><path d="M611.25 117h10"></path><g><path d="M621.25 117h0"></path><path d="M791.75 117h0"></path><path d="M621.25 117a10 10 0 0 0 10 -10v-7a10 10 0 0 1 10 -10"></path><g><path d="M641.25 90h130.5"></path></g><path d="M771.75 90a10 10 0 0 1 10 10v7a10 10 0 0 0 10 10"></path><path d="M621.25 117h20"></path><g class="non-terminal "><path d="M641.25 117h0"></path><path d="M771.75 117h0"></path><rect x="641.25" y="106" width="130.5" height="22" rx="10" ry="10"></rect><text x="706.5" y="121">typeArguments</text></g><path d="M771.75 117h20"></path></g></g><path d="M801.75 117h38.25"></path></g><path d="M840 117a10 10 0 0 0 10 -10v-50a10 10 0 0 1 10 -10"></path><path d="M40 47a10 10 0 0 1 10 10v120a10 10 0 0 0 10 10"></path><g><path d="M60 187h0"></path><g><path d="M60 187h10"></path><path d="M830 187h10"></path><g class="non-terminal "><path d="M70 187h0"></path><path d="M260 187h0"></path><rect x="70" y="176" width="190" height="22" rx="10" ry="10"></rect><text x="165" y="191">classOrInterfaceType</text></g><path d="M260 187h10"></path><path d="M270 187h10"></path><g class="terminal "><path d="M280 187h0"></path><path d="M325.5 187h0"></path><rect x="280" y="176" width="45.5" height="22"></rect><text x="302.75" y="191">'.'</text></g><path d="M325.5 187h10"></path><g><path d="M335.5 187h0"></path><path d="M500.5 187h0"></path><path d="M335.5 187a10 10 0 0 0 10 -10v-7a10 10 0 0 1 10 -10"></path><g><path d="M355.5 160h125"></path></g><path d="M480.5 160a10 10 0 0 1 10 10v7a10 10 0 0 0 10 10"></path><path d="M335.5 187h20"></path><g><path d="M355.5 187h0"></path><path d="M480.5 187h0"></path><path d="M355.5 187h10"></path><g class="non-terminal "><path d="M365.5 187h0"></path><path d="M470.5 187h0"></path><rect x="365.5" y="176" width="105" height="22" rx="10" ry="10"></rect><text x="418" y="191">annotation</text></g><path d="M470.5 187h10"></path><path d="M365.5 187a10 10 0 0 0 -10 10v7a10 10 0 0 0 10 10"></path><g><path d="M365.5 214h105"></path></g><path d="M470.5 214a10 10 0 0 0 10 -10v-7a10 10 0 0 0 -10 -10"></path></g><path d="M480.5 187h20"></path></g><path d="M500.5 187h10"></path><g class="non-terminal "><path d="M510.5 187h0"></path><path d="M649.5 187h0"></path><rect x="510.5" y="176" width="139" height="22" rx="10" ry="10"></rect><text x="580" y="191">typeIdentifier</text></g><path d="M649.5 187h10"></path><g><path d="M659.5 187h0"></path><path d="M830 187h0"></path><path d="M659.5 187a10 10 0 0 0 10 -10v-7a10 10 0 0 1 10 -10"></path><g><path d="M679.5 160h130.5"></path></g><path d="M810 160a10 10 0 0 1 10 10v7a10 10 0 0 0 10 10"></path><path d="M659.5 187h20"></path><g class="non-terminal "><path d="M679.5 187h0"></path><path d="M810 187h0"></path><rect x="679.5" y="176" width="130.5" height="22" rx="10" ry="10"></rect><text x="744.75" y="191">typeArguments</text></g><path d="M810 187h20"></path></g></g><path d="M840 187h0"></path></g><path d="M840 187a10 10 0 0 0 10 -10v-120a10 10 0 0 1 10 -10"></path></g><path d="M 860 47 h 20 m 0 -10 v 20"></path></g><defs><style type="text/css"><![CDATA[
svg.railroad-diagram path { stroke-width: 2; stroke: darkgray; fill: rgba(0, 0, 0, 0);}/* All text except comments. */svg.railroad-diagram text { font: bold 12px Hack, "Source Code Pro", monospace; text-anchor: middle; fill: #404040;}/* Comment text */svg.railroad-diagram text.comment { font: italic 10px Hack, "Source Code Pro", monospace; fill: #404040;}/* The terminal boxes. */svg.railroad-diagram g.terminal rect { stroke-width: 2; stroke: #404040; fill: rgba(200, 200, 200, 1);}svg.railroad-diagram g.non-terminal rect { /* The non-terminal boxes. */ stroke-width: 2; stroke: #404040; fill: rgba(255, 255, 255, 1);}/* Multiple choice text, not working atm. */svg.railroad-diagram text.diagram-text { font-size: 12px Hack, "Source Code Pro", monospace; fill: red;}/* Multiple choice text, not working atm. */svg.railroad-diagram path.diagram-text { stroke-width: 1; stroke: red; fill: red; cursor: help;}
 ]]>
</style></defs></svg>