<?xml version="1.0" encoding="UTF-8" standalone="no"?>
<!DOCTYPE svg PUBLIC "-//W3C//DTD SVG 1.1//EN" "http://www.w3.org/Graphics/SVG/1.1/DTD/svg11.dtd">
<svg class="railroad-diagram" width="649.5" height="272" viewBox="0 0 649.5 272" id="classLiteral" xmlns="http://www.w3.org/2000/svg" xmlns:xlink="http://www.w3.org/1999/xlink"><g transform="translate(.5 .5)"><g><path d="M20 37v20m0 -10h20"></path></g><g><path d="M40 47h0"></path><path d="M609.5 47h0"></path><path d="M40 47h20"></path><g><path d="M60 47h12.75"></path><g><path d="M72.75 47h10"></path><path d="M566.75 47h10"></path><g class="non-terminal "><path d="M82.75 47h0"></path><path d="M170.75 47h0"></path><rect x="82.75" y="36" width="88" height="22" rx="10" ry="10"></rect><text x="126.75" y="51">typeName</text></g><path d="M170.75 47h10"></path><g><path d="M180.75 47h0"></path><path d="M411.75 47h0"></path><path d="M180.75 47a10 10 0 0 0 10 -10v-7a10 10 0 0 1 10 -10"></path><g><path d="M200.75 20h191"></path></g><path d="M391.75 20a10 10 0 0 1 10 10v7a10 10 0 0 0 10 10"></path><path d="M180.75 47h20"></path><g><path d="M200.75 47h0"></path><path d="M391.75 47h0"></path><path d="M200.75 47h10"></path><g><path d="M210.75 47h0"></path><path d="M381.75 47h0"></path><path d="M210.75 47h20"></path><g><path d="M230.75 47h0"></path><g><path d="M230.75 47h10"></path><path d="M351.75 47h10"></path><g class="terminal "><path d="M240.75 47h0"></path><path d="M286.25 47h0"></path><rect x="240.75" y="36" width="45.5" height="22"></rect><text x="263.5" y="51">'['</text></g><path d="M286.25 47h10"></path><path d="M296.25 47h10"></path><g class="terminal "><path d="M306.25 47h0"></path><path d="M351.75 47h0"></path><rect x="306.25" y="36" width="45.5" height="22"></rect><text x="329" y="51">']'</text></g></g><path d="M361.75 47h0"></path></g><path d="M361.75 47h20"></path></g><path d="M381.75 47h10"></path><path d="M210.75 47a10 10 0 0 0 -10 10v7a10 10 0 0 0 10 10"></path><g><path d="M210.75 74h171"></path></g><path d="M381.75 74a10 10 0 0 0 10 -10v-7a10 10 0 0 0 -10 -10"></path></g><path d="M391.75 47h20"></path></g><path d="M411.75 47h10"></path><g class="terminal "><path d="M421.75 47h0"></path><path d="M467.25 47h0"></path><rect x="421.75" y="36" width="45.5" height="22"></rect><text x="444.5" y="51">'.'</text></g><path d="M467.25 47h10"></path><path d="M477.25 47h10"></path><g class="terminal "><path d="M487.25 47h0"></path><path d="M566.75 47h0"></path><rect x="487.25" y="36" width="79.5" height="22"></rect><text x="527" y="51">'class'</text></g></g><path d="M576.75 47h12.75"></path></g><path d="M589.5 47h20"></path><path d="M40 47a10 10 0 0 1 10 10v50a10 10 0 0 0 10 10"></path><g><path d="M60 117h0"></path><g><path d="M60 117h10"></path><path d="M579.5 117h10"></path><g class="non-terminal "><path d="M70 117h0"></path><path d="M183.5 117h0"></path><rect x="70" y="106" width="113.5" height="22" rx="10" ry="10"></rect><text x="126.75" y="121">numericType</text></g><path d="M183.5 117h10"></path><g><path d="M193.5 117h0"></path><path d="M424.5 117h0"></path><path d="M193.5 117a10 10 0 0 0 10 -10v-7a10 10 0 0 1 10 -10"></path><g><path d="M213.5 90h191"></path></g><path d="M404.5 90a10 10 0 0 1 10 10v7a10 10 0 0 0 10 10"></path><path d="M193.5 117h20"></path><g><path d="M213.5 117h0"></path><path d="M404.5 117h0"></path><path d="M213.5 117h10"></path><g><path d="M223.5 117h0"></path><path d="M394.5 117h0"></path><path d="M223.5 117h20"></path><g><path d="M243.5 117h0"></path><g><path d="M243.5 117h10"></path><path d="M364.5 117h10"></path><g class="terminal "><path d="M253.5 117h0"></path><path d="M299 117h0"></path><rect x="253.5" y="106" width="45.5" height="22"></rect><text x="276.25" y="121">'['</text></g><path d="M299 117h10"></path><path d="M309 117h10"></path><g class="terminal "><path d="M319 117h0"></path><path d="M364.5 117h0"></path><rect x="319" y="106" width="45.5" height="22"></rect><text x="341.75" y="121">']'</text></g></g><path d="M374.5 117h0"></path></g><path d="M374.5 117h20"></path></g><path d="M394.5 117h10"></path><path d="M223.5 117a10 10 0 0 0 -10 10v7a10 10 0 0 0 10 10"></path><g><path d="M223.5 144h171"></path></g><path d="M394.5 144a10 10 0 0 0 10 -10v-7a10 10 0 0 0 -10 -10"></path></g><path d="M404.5 117h20"></path></g><path d="M424.5 117h10"></path><g class="terminal "><path d="M434.5 117h0"></path><path d="M480 117h0"></path><rect x="434.5" y="106" width="45.5" height="22"></rect><text x="457.25" y="121">'.'</text></g><path d="M480 117h10"></path><path d="M490 117h10"></path><g class="terminal "><path d="M500 117h0"></path><path d="M579.5 117h0"></path><rect x="500" y="106" width="79.5" height="22"></rect><text x="539.75" y="121">'class'</text></g></g><path d="M589.5 117h0"></path></g><path d="M589.5 117a10 10 0 0 0 10 -10v-50a10 10 0 0 1 10 -10"></path><path d="M40 47a10 10 0 0 1 10 10v120a10 10 0 0 0 10 10"></path><g><path d="M60 187h8.5"></path><g><path d="M68.5 187h10"></path><path d="M571 187h10"></path><g class="terminal "><path d="M78.5 187h0"></path><path d="M175 187h0"></path><rect x="78.5" y="176" width="96.5" height="22"></rect><text x="126.75" y="191">'boolean'</text></g><path d="M175 187h10"></path><g><path d="M185 187h0"></path><path d="M416 187h0"></path><path d="M185 187a10 10 0 0 0 10 -10v-7a10 10 0 0 1 10 -10"></path><g><path d="M205 160h191"></path></g><path d="M396 160a10 10 0 0 1 10 10v7a10 10 0 0 0 10 10"></path><path d="M185 187h20"></path><g><path d="M205 187h0"></path><path d="M396 187h0"></path><path d="M205 187h10"></path><g><path d="M215 187h0"></path><path d="M386 187h0"></path><path d="M215 187h20"></path><g><path d="M235 187h0"></path><g><path d="M235 187h10"></path><path d="M356 187h10"></path><g class="terminal "><path d="M245 187h0"></path><path d="M290.5 187h0"></path><rect x="245" y="176" width="45.5" height="22"></rect><text x="267.75" y="191">'['</text></g><path d="M290.5 187h10"></path><path d="M300.5 187h10"></path><g class="terminal "><path d="M310.5 187h0"></path><path d="M356 187h0"></path><rect x="310.5" y="176" width="45.5" height="22"></rect><text x="333.25" y="191">']'</text></g></g><path d="M366 187h0"></path></g><path d="M366 187h20"></path></g><path d="M386 187h10"></path><path d="M215 187a10 10 0 0 0 -10 10v7a10 10 0 0 0 10 10"></path><g><path d="M215 214h171"></path></g><path d="M386 214a10 10 0 0 0 10 -10v-7a10 10 0 0 0 -10 -10"></path></g><path d="M396 187h20"></path></g><path d="M416 187h10"></path><g class="terminal "><path d="M426 187h0"></path><path d="M471.5 187h0"></path><rect x="426" y="176" width="45.5" height="22"></rect><text x="448.75" y="191">'.'</text></g><path d="M471.5 187h10"></path><path d="M481.5 187h10"></path><g class="terminal "><path d="M491.5 187h0"></path><path d="M571 187h0"></path><rect x="491.5" y="176" width="79.5" height="22"></rect><text x="531.25" y="191">'class'</text></g></g><path d="M581 187h8.5"></path></g><path d="M589.5 187a10 10 0 0 0 10 -10v-120a10 10 0 0 1 10 -10"></path><path d="M40 47a10 10 0 0 1 10 10v174a10 10 0 0 0 10 10"></path><g><path d="M60 241h136.75"></path><g><path d="M196.75 241h10"></path><path d="M442.75 241h10"></path><g class="terminal "><path d="M206.75 241h0"></path><path d="M277.75 241h0"></path><rect x="206.75" y="230" width="71" height="22"></rect><text x="242.25" y="245">'void'</text></g><path d="M277.75 241h10"></path><path d="M287.75 241h10"></path><g class="terminal "><path d="M297.75 241h0"></path><path d="M343.25 241h0"></path><rect x="297.75" y="230" width="45.5" height="22"></rect><text x="320.5" y="245">'.'</text></g><path d="M343.25 241h10"></path><path d="M353.25 241h10"></path><g class="terminal "><path d="M363.25 241h0"></path><path d="M442.75 241h0"></path><rect x="363.25" y="230" width="79.5" height="22"></rect><text x="403" y="245">'class'</text></g></g><path d="M452.75 241h136.75"></path></g><path d="M589.5 241a10 10 0 0 0 10 -10v-174a10 10 0 0 1 10 -10"></path></g><path d="M 609.5 47 h 20 m 0 -10 v 20"></path></g><defs><style type="text/css"><![CDATA[
svg.railroad-diagram path { stroke-width: 2; stroke: darkgray; fill: rgba(0, 0, 0, 0);}/* All text except comments. */svg.railroad-diagram text { font: bold 12px Hack, "Source Code Pro", monospace; text-anchor: middle; fill: #404040;}/* Comment text */svg.railroad-diagram text.comment { font: italic 10px Hack, "Source Code Pro", monospace; fill: #404040;}/* The terminal boxes. */svg.railroad-diagram g.terminal rect { stroke-width: 2; stroke: #404040; fill: rgba(200, 200, 200, 1);}svg.railroad-diagram g.non-terminal rect { /* The non-terminal boxes. */ stroke-width: 2; stroke: #404040; fill: rgba(255, 255, 255, 1);}/* Multiple choice text, not working atm. */svg.railroad-diagram text.diagram-text { font-size: 12px Hack, "Source Code Pro", monospace; fill: red;}/* Multiple choice text, not working atm. */svg.railroad-diagram path.diagram-text { stroke-width: 1; stroke: red; fill: red; cursor: help;}
 ]]>
</style></defs></svg>