<?xml version="1.0" encoding="UTF-8" standalone="no"?>
<!DOCTYPE svg PUBLIC "-//W3C//DTD SVG 1.1//EN" "http://www.w3.org/Graphics/SVG/1.1/DTD/svg11.dtd">
<svg class="railroad-diagram" width="330" height="214" viewBox="0 0 330 214" id="classMemberDeclaration" xmlns="http://www.w3.org/2000/svg" xmlns:xlink="http://www.w3.org/1999/xlink"><g transform="translate(.5 .5)"><g><path d="M20 21v20m0 -10h20"></path></g><g><path d="M40 31h0"></path><path d="M290 31h0"></path><path d="M40 31h20"></path><g><path d="M60 31h17"></path><g><path d="M77 31h10"></path><path d="M243 31h10"></path><g class="non-terminal "><path d="M87 31h0"></path><path d="M243 31h0"></path><rect x="87" y="20" width="156" height="22" rx="10" ry="10"></rect><text x="165" y="35">fieldDeclaration</text></g></g><path d="M253 31h17"></path></g><path d="M270 31h20"></path><path d="M40 31a10 10 0 0 1 10 10v18a10 10 0 0 0 10 10"></path><g><path d="M60 69h12.75"></path><g><path d="M72.75 69h10"></path><path d="M247.25 69h10"></path><g class="non-terminal "><path d="M82.75 69h0"></path><path d="M247.25 69h0"></path><rect x="82.75" y="58" width="164.5" height="22" rx="10" ry="10"></rect><text x="165" y="73">methodDeclaration</text></g></g><path d="M257.25 69h12.75"></path></g><path d="M270 69a10 10 0 0 0 10 -10v-18a10 10 0 0 1 10 -10"></path><path d="M40 31a10 10 0 0 1 10 10v56a10 10 0 0 0 10 10"></path><g><path d="M60 107h17"></path><g><path d="M77 107h10"></path><path d="M243 107h10"></path><g class="non-terminal "><path d="M87 107h0"></path><path d="M243 107h0"></path><rect x="87" y="96" width="156" height="22" rx="10" ry="10"></rect><text x="165" y="111">classDeclaration</text></g></g><path d="M253 107h17"></path></g><path d="M270 107a10 10 0 0 0 10 -10v-56a10 10 0 0 1 10 -10"></path><path d="M40 31a10 10 0 0 1 10 10v94a10 10 0 0 0 10 10"></path><g><path d="M60 145h0"></path><g><path d="M60 145h10"></path><path d="M260 145h10"></path><g class="non-terminal "><path d="M70 145h0"></path><path d="M260 145h0"></path><rect x="70" y="134" width="190" height="22" rx="10" ry="10"></rect><text x="165" y="149">interfaceDeclaration</text></g></g><path d="M270 145h0"></path></g><path d="M270 145a10 10 0 0 0 10 -10v-94a10 10 0 0 1 10 -10"></path><path d="M40 31a10 10 0 0 1 10 10v132a10 10 0 0 0 10 10"></path><g><path d="M60 183h72.25"></path><g><path d="M132.25 183h10"></path><path d="M187.75 183h10"></path><g class="terminal "><path d="M142.25 183h0"></path><path d="M187.75 183h0"></path><rect x="142.25" y="172" width="45.5" height="22"></rect><text x="165" y="187">';'</text></g></g><path d="M197.75 183h72.25"></path></g><path d="M270 183a10 10 0 0 0 10 -10v-132a10 10 0 0 1 10 -10"></path></g><path d="M 290 31 h 20 m 0 -10 v 20"></path></g><defs><style type="text/css"><![CDATA[
svg.railroad-diagram path { stroke-width: 2; stroke: darkgray; fill: rgba(0, 0, 0, 0);}/* All text except comments. */svg.railroad-diagram text { font: bold 12px Hack, "Source Code Pro", monospace; text-anchor: middle; fill: #404040;}/* Comment text */svg.railroad-diagram text.comment { font: italic 10px Hack, "Source Code Pro", monospace; fill: #404040;}/* The terminal boxes. */svg.railroad-diagram g.terminal rect { stroke-width: 2; stroke: #404040; fill: rgba(200, 200, 200, 1);}svg.railroad-diagram g.non-terminal rect { /* The non-terminal boxes. */ stroke-width: 2; stroke: #404040; fill: rgba(255, 255, 255, 1);}/* Multiple choice text, not working atm. */svg.railroad-diagram text.diagram-text { font-size: 12px Hack, "Source Code Pro", monospace; fill: red;}/* Multiple choice text, not working atm. */svg.railroad-diagram path.diagram-text { stroke-width: 1; stroke: red; fill: red; cursor: help;}
 ]]>
</style></defs></svg>