<?xml version="1.0" encoding="UTF-8" standalone="no"?>
<!DOCTYPE svg PUBLIC "-//W3C//DTD SVG 1.1//EN" "http://www.w3.org/Graphics/SVG/1.1/DTD/svg11.dtd">
<svg class="railroad-diagram" width="1132.5" height="126" viewBox="0 0 1132.5 126" id="classOrInterfaceTypeToInstantiate" xmlns="http://www.w3.org/2000/svg" xmlns:xlink="http://www.w3.org/1999/xlink"><g transform="translate(.5 .5)"><g><path d="M20 53v20m0 -10h20"></path></g><g><path d="M40 63h0"></path><path d="M1092.5 63h0"></path><path d="M40 63h20"></path><g><path d="M60 63h0"></path><g><path d="M60 63h10"></path><path d="M1062.5 63h10"></path><g><path d="M70 63h0"></path><path d="M235 63h0"></path><path d="M70 63a10 10 0 0 0 10 -10v-7a10 10 0 0 1 10 -10"></path><g><path d="M90 36h125"></path></g><path d="M215 36a10 10 0 0 1 10 10v7a10 10 0 0 0 10 10"></path><path d="M70 63h20"></path><g><path d="M90 63h0"></path><path d="M215 63h0"></path><path d="M90 63h10"></path><g class="non-terminal "><path d="M100 63h0"></path><path d="M205 63h0"></path><rect x="100" y="52" width="105" height="22" rx="10" ry="10"></rect><text x="152.5" y="67">annotation</text></g><path d="M205 63h10"></path><path d="M100 63a10 10 0 0 0 -10 10v7a10 10 0 0 0 10 10"></path><g><path d="M100 90h105"></path></g><path d="M205 90a10 10 0 0 0 10 -10v-7a10 10 0 0 0 -10 -10"></path></g><path d="M215 63h20"></path></g><path d="M235 63h10"></path><g class="non-terminal "><path d="M245 63h0"></path><path d="M350 63h0"></path><rect x="245" y="52" width="105" height="22" rx="10" ry="10"></rect><text x="297.5" y="67">identifier</text></g><path d="M350 63h10"></path><g><path d="M360 63h0"></path><path d="M815.5 63h0"></path><path d="M360 63a10 10 0 0 0 10 -10v-23a10 10 0 0 1 10 -10"></path><g><path d="M380 20h415.5"></path></g><path d="M795.5 20a10 10 0 0 1 10 10v23a10 10 0 0 0 10 10"></path><path d="M360 63h20"></path><g><path d="M380 63h0"></path><path d="M795.5 63h0"></path><path d="M380 63h10"></path><g><path d="M390 63h0"></path><path d="M785.5 63h0"></path><path d="M390 63h20"></path><g><path d="M410 63h0"></path><g><path d="M410 63h10"></path><path d="M755.5 63h10"></path><g class="terminal "><path d="M420 63h0"></path><path d="M465.5 63h0"></path><rect x="420" y="52" width="45.5" height="22"></rect><text x="442.75" y="67">'.'</text></g><path d="M465.5 63h10"></path><g><path d="M475.5 63h0"></path><path d="M640.5 63h0"></path><path d="M475.5 63a10 10 0 0 0 10 -10v-7a10 10 0 0 1 10 -10"></path><g><path d="M495.5 36h125"></path></g><path d="M620.5 36a10 10 0 0 1 10 10v7a10 10 0 0 0 10 10"></path><path d="M475.5 63h20"></path><g><path d="M495.5 63h0"></path><path d="M620.5 63h0"></path><path d="M495.5 63h10"></path><g class="non-terminal "><path d="M505.5 63h0"></path><path d="M610.5 63h0"></path><rect x="505.5" y="52" width="105" height="22" rx="10" ry="10"></rect><text x="558" y="67">annotation</text></g><path d="M610.5 63h10"></path><path d="M505.5 63a10 10 0 0 0 -10 10v7a10 10 0 0 0 10 10"></path><g><path d="M505.5 90h105"></path></g><path d="M610.5 90a10 10 0 0 0 10 -10v-7a10 10 0 0 0 -10 -10"></path></g><path d="M620.5 63h20"></path></g><path d="M640.5 63h10"></path><g class="non-terminal "><path d="M650.5 63h0"></path><path d="M755.5 63h0"></path><rect x="650.5" y="52" width="105" height="22" rx="10" ry="10"></rect><text x="703" y="67">identifier</text></g></g><path d="M765.5 63h0"></path></g><path d="M765.5 63h20"></path></g><path d="M785.5 63h10"></path><path d="M390 63a10 10 0 0 0 -10 10v23a10 10 0 0 0 10 10"></path><g><path d="M390 106h395.5"></path></g><path d="M785.5 106a10 10 0 0 0 10 -10v-23a10 10 0 0 0 -10 -10"></path></g><path d="M795.5 63h20"></path></g><g><path d="M815.5 63h0"></path><path d="M1062.5 63h0"></path><path d="M815.5 63a10 10 0 0 0 10 -10v-7a10 10 0 0 1 10 -10"></path><g><path d="M835.5 36h207"></path></g><path d="M1042.5 36a10 10 0 0 1 10 10v7a10 10 0 0 0 10 10"></path><path d="M815.5 63h20"></path><g class="non-terminal "><path d="M835.5 63h0"></path><path d="M1042.5 63h0"></path><rect x="835.5" y="52" width="207" height="22" rx="10" ry="10"></rect><text x="939" y="67">typeArgumentsOrDiamond</text></g><path d="M1042.5 63h20"></path></g></g><path d="M1072.5 63h0"></path></g><path d="M1072.5 63h20"></path></g><path d="M 1092.5 63 h 20 m 0 -10 v 20"></path></g><defs><style type="text/css"><![CDATA[
svg.railroad-diagram path { stroke-width: 2; stroke: darkgray; fill: rgba(0, 0, 0, 0);}/* All text except comments. */svg.railroad-diagram text { font: bold 12px Hack, "Source Code Pro", monospace; text-anchor: middle; fill: #404040;}/* Comment text */svg.railroad-diagram text.comment { font: italic 10px Hack, "Source Code Pro", monospace; fill: #404040;}/* The terminal boxes. */svg.railroad-diagram g.terminal rect { stroke-width: 2; stroke: #404040; fill: rgba(200, 200, 200, 1);}svg.railroad-diagram g.non-terminal rect { /* The non-terminal boxes. */ stroke-width: 2; stroke: #404040; fill: rgba(255, 255, 255, 1);}/* Multiple choice text, not working atm. */svg.railroad-diagram text.diagram-text { font-size: 12px Hack, "Source Code Pro", monospace; fill: red;}/* Multiple choice text, not working atm. */svg.railroad-diagram path.diagram-text { stroke-width: 1; stroke: red; fill: red; cursor: help;}
 ]]>
</style></defs></svg>