<?xml version="1.0" encoding="UTF-8" standalone="no"?>
<!DOCTYPE svg PUBLIC "-//W3C//DTD SVG 1.1//EN" "http://www.w3.org/Graphics/SVG/1.1/DTD/svg11.dtd">
<svg class="railroad-diagram" width="1007.5" height="94" viewBox="0 0 1007.5 94" id="classOrInterfaceType" xmlns="http://www.w3.org/2000/svg" xmlns:xlink="http://www.w3.org/1999/xlink"><g transform="translate(.5 .5)"><g><path d="M20 37v20m0 -10h20"></path></g><g><path d="M40 47h0"></path><path d="M967.5 47h0"></path><path d="M40 47h20"></path><g><path d="M60 47h0"></path><g><path d="M60 47h10"></path><path d="M937.5 47h10"></path><g><path d="M70 47h0"></path><path d="M349 47h0"></path><path d="M70 47a10 10 0 0 0 10 -10v-7a10 10 0 0 1 10 -10"></path><g><path d="M90 20h239"></path></g><path d="M329 20a10 10 0 0 1 10 10v7a10 10 0 0 0 10 10"></path><path d="M70 47h20"></path><g><path d="M90 47h0"></path><path d="M329 47h0"></path><path d="M90 47h20"></path><g><path d="M110 47h0"></path><g><path d="M110 47h10"></path><path d="M299 47h10"></path><g class="non-terminal "><path d="M120 47h0"></path><path d="M233.5 47h0"></path><rect x="120" y="36" width="113.5" height="22" rx="10" ry="10"></rect><text x="176.75" y="51">packageName</text></g><path d="M233.5 47h10"></path><path d="M243.5 47h10"></path><g class="terminal "><path d="M253.5 47h0"></path><path d="M299 47h0"></path><rect x="253.5" y="36" width="45.5" height="22"></rect><text x="276.25" y="51">'.'</text></g></g><path d="M309 47h0"></path></g><path d="M309 47h20"></path></g><path d="M329 47h20"></path></g><g><path d="M349 47h0"></path><path d="M514 47h0"></path><path d="M349 47a10 10 0 0 0 10 -10v-7a10 10 0 0 1 10 -10"></path><g><path d="M369 20h125"></path></g><path d="M494 20a10 10 0 0 1 10 10v7a10 10 0 0 0 10 10"></path><path d="M349 47h20"></path><g><path d="M369 47h0"></path><path d="M494 47h0"></path><path d="M369 47h10"></path><g class="non-terminal "><path d="M379 47h0"></path><path d="M484 47h0"></path><rect x="379" y="36" width="105" height="22" rx="10" ry="10"></rect><text x="431.5" y="51">annotation</text></g><path d="M484 47h10"></path><path d="M379 47a10 10 0 0 0 -10 10v7a10 10 0 0 0 10 10"></path><g><path d="M379 74h105"></path></g><path d="M484 74a10 10 0 0 0 10 -10v-7a10 10 0 0 0 -10 -10"></path></g><path d="M494 47h20"></path></g><path d="M514 47h10"></path><g class="non-terminal "><path d="M524 47h0"></path><path d="M663 47h0"></path><rect x="524" y="36" width="139" height="22" rx="10" ry="10"></rect><text x="593.5" y="51">typeIdentifier</text></g><path d="M663 47h10"></path><g><path d="M673 47h0"></path><path d="M843.5 47h0"></path><path d="M673 47a10 10 0 0 0 10 -10v-7a10 10 0 0 1 10 -10"></path><g><path d="M693 20h130.5"></path></g><path d="M823.5 20a10 10 0 0 1 10 10v7a10 10 0 0 0 10 10"></path><path d="M673 47h20"></path><g class="non-terminal "><path d="M693 47h0"></path><path d="M823.5 47h0"></path><rect x="693" y="36" width="130.5" height="22" rx="10" ry="10"></rect><text x="758.25" y="51">typeArguments</text></g><path d="M823.5 47h20"></path></g><g><path d="M843.5 47h0"></path><path d="M937.5 47h0"></path><path d="M843.5 47a10 10 0 0 0 10 -10v-7a10 10 0 0 1 10 -10"></path><g><path d="M863.5 20h54"></path></g><path d="M917.5 20a10 10 0 0 1 10 10v7a10 10 0 0 0 10 10"></path><path d="M843.5 47h20"></path><g class="non-terminal "><path d="M863.5 47h0"></path><path d="M917.5 47h0"></path><rect x="863.5" y="36" width="54" height="22" rx="10" ry="10"></rect><text x="890.5" y="51">coit</text></g><path d="M917.5 47h20"></path></g></g><path d="M947.5 47h0"></path></g><path d="M947.5 47h20"></path></g><path d="M 967.5 47 h 20 m 0 -10 v 20"></path></g><defs><style type="text/css"><![CDATA[
svg.railroad-diagram path { stroke-width: 2; stroke: darkgray; fill: rgba(0, 0, 0, 0);}/* All text except comments. */svg.railroad-diagram text { font: bold 12px Hack, "Source Code Pro", monospace; text-anchor: middle; fill: #404040;}/* Comment text */svg.railroad-diagram text.comment { font: italic 10px Hack, "Source Code Pro", monospace; fill: #404040;}/* The terminal boxes. */svg.railroad-diagram g.terminal rect { stroke-width: 2; stroke: #404040; fill: rgba(200, 200, 200, 1);}svg.railroad-diagram g.non-terminal rect { /* The non-terminal boxes. */ stroke-width: 2; stroke: #404040; fill: rgba(255, 255, 255, 1);}/* Multiple choice text, not working atm. */svg.railroad-diagram text.diagram-text { font-size: 12px Hack, "Source Code Pro", monospace; fill: red;}/* Multiple choice text, not working atm. */svg.railroad-diagram path.diagram-text { stroke-width: 1; stroke: red; fill: red; cursor: help;}
 ]]>
</style></defs></svg>