<?xml version="1.0" encoding="UTF-8" standalone="no"?>
<!DOCTYPE svg PUBLIC "-//W3C//DTD SVG 1.1//EN" "http://www.w3.org/Graphics/SVG/1.1/DTD/svg11.dtd">
<svg class="railroad-diagram" width="830" height="138" viewBox="0 0 830 138" id="conditionalExpression" xmlns="http://www.w3.org/2000/svg" xmlns:xlink="http://www.w3.org/1999/xlink"><g transform="translate(.5 .5)"><g><path d="M20 21v20m0 -10h20"></path></g><g><path d="M40 31h0"></path><path d="M790 31h0"></path><path d="M40 31h20"></path><g><path d="M60 31h237.25"></path><g><path d="M297.25 31h10"></path><path d="M522.75 31h10"></path><g class="non-terminal "><path d="M307.25 31h0"></path><path d="M522.75 31h0"></path><rect x="307.25" y="20" width="215.5" height="22" rx="10" ry="10"></rect><text x="415" y="35">conditionalOrExpression</text></g></g><path d="M532.75 31h237.25"></path></g><path d="M770 31h20"></path><path d="M40 31a10 10 0 0 1 10 10v18a10 10 0 0 0 10 10"></path><g><path d="M60 69h0"></path><g><path d="M60 69h10"></path><path d="M760 69h10"></path><g class="non-terminal "><path d="M70 69h0"></path><path d="M285.5 69h0"></path><rect x="70" y="58" width="215.5" height="22" rx="10" ry="10"></rect><text x="177.75" y="73">conditionalOrExpression</text></g><path d="M285.5 69h10"></path><path d="M295.5 69h10"></path><g class="terminal "><path d="M305.5 69h0"></path><path d="M351 69h0"></path><rect x="305.5" y="58" width="45.5" height="22"></rect><text x="328.25" y="73">'?'</text></g><path d="M351 69h10"></path><path d="M361 69h10"></path><g class="non-terminal "><path d="M371 69h0"></path><path d="M476 69h0"></path><rect x="371" y="58" width="105" height="22" rx="10" ry="10"></rect><text x="423.5" y="73">expression</text></g><path d="M476 69h10"></path><path d="M486 69h10"></path><g class="terminal "><path d="M496 69h0"></path><path d="M541.5 69h0"></path><rect x="496" y="58" width="45.5" height="22"></rect><text x="518.75" y="73">':'</text></g><path d="M541.5 69h10"></path><path d="M551.5 69h10"></path><g class="non-terminal "><path d="M561.5 69h0"></path><path d="M760 69h0"></path><rect x="561.5" y="58" width="198.5" height="22" rx="10" ry="10"></rect><text x="660.75" y="73">conditionalExpression</text></g></g><path d="M770 69h0"></path></g><path d="M770 69a10 10 0 0 0 10 -10v-18a10 10 0 0 1 10 -10"></path><path d="M40 31a10 10 0 0 1 10 10v56a10 10 0 0 0 10 10"></path><g><path d="M60 107h21.25"></path><g><path d="M81.25 107h10"></path><path d="M738.75 107h10"></path><g class="non-terminal "><path d="M91.25 107h0"></path><path d="M306.75 107h0"></path><rect x="91.25" y="96" width="215.5" height="22" rx="10" ry="10"></rect><text x="199" y="111">conditionalOrExpression</text></g><path d="M306.75 107h10"></path><path d="M316.75 107h10"></path><g class="terminal "><path d="M326.75 107h0"></path><path d="M372.25 107h0"></path><rect x="326.75" y="96" width="45.5" height="22"></rect><text x="349.5" y="111">'?'</text></g><path d="M372.25 107h10"></path><path d="M382.25 107h10"></path><g class="non-terminal "><path d="M392.25 107h0"></path><path d="M497.25 107h0"></path><rect x="392.25" y="96" width="105" height="22" rx="10" ry="10"></rect><text x="444.75" y="111">expression</text></g><path d="M497.25 107h10"></path><path d="M507.25 107h10"></path><g class="terminal "><path d="M517.25 107h0"></path><path d="M562.75 107h0"></path><rect x="517.25" y="96" width="45.5" height="22"></rect><text x="540" y="111">':'</text></g><path d="M562.75 107h10"></path><path d="M572.75 107h10"></path><g class="non-terminal "><path d="M582.75 107h0"></path><path d="M738.75 107h0"></path><rect x="582.75" y="96" width="156" height="22" rx="10" ry="10"></rect><text x="660.75" y="111">lambdaExpression</text></g></g><path d="M748.75 107h21.25"></path></g><path d="M770 107a10 10 0 0 0 10 -10v-56a10 10 0 0 1 10 -10"></path></g><path d="M 790 31 h 20 m 0 -10 v 20"></path></g><defs><style type="text/css"><![CDATA[
svg.railroad-diagram path { stroke-width: 2; stroke: darkgray; fill: rgba(0, 0, 0, 0);}/* All text except comments. */svg.railroad-diagram text { font: bold 12px Hack, "Source Code Pro", monospace; text-anchor: middle; fill: #404040;}/* Comment text */svg.railroad-diagram text.comment { font: italic 10px Hack, "Source Code Pro", monospace; fill: #404040;}/* The terminal boxes. */svg.railroad-diagram g.terminal rect { stroke-width: 2; stroke: #404040; fill: rgba(200, 200, 200, 1);}svg.railroad-diagram g.non-terminal rect { /* The non-terminal boxes. */ stroke-width: 2; stroke: #404040; fill: rgba(255, 255, 255, 1);}/* Multiple choice text, not working atm. */svg.railroad-diagram text.diagram-text { font-size: 12px Hack, "Source Code Pro", monospace; fill: red;}/* Multiple choice text, not working atm. */svg.railroad-diagram path.diagram-text { stroke-width: 1; stroke: red; fill: red; cursor: help;}
 ]]>
</style></defs></svg>