<?xml version="1.0" encoding="UTF-8" standalone="no"?>
<!DOCTYPE svg PUBLIC "-//W3C//DTD SVG 1.1//EN" "http://www.w3.org/Graphics/SVG/1.1/DTD/svg11.dtd">
<svg class="railroad-diagram" width="673.5" height="100" viewBox="0 0 673.5 100" id="conditionalOrExpression" xmlns="http://www.w3.org/2000/svg" xmlns:xlink="http://www.w3.org/1999/xlink"><g transform="translate(.5 .5)"><g><path d="M20 21v20m0 -10h20"></path></g><g><path d="M40 31h0"></path><path d="M633.5 31h0"></path><path d="M40 31h20"></path><g><path d="M60 31h154.75"></path><g><path d="M214.75 31h10"></path><path d="M448.75 31h10"></path><g class="non-terminal "><path d="M224.75 31h0"></path><path d="M448.75 31h0"></path><rect x="224.75" y="20" width="224" height="22" rx="10" ry="10"></rect><text x="336.75" y="35">conditionalAndExpression</text></g></g><path d="M458.75 31h154.75"></path></g><path d="M613.5 31h20"></path><path d="M40 31a10 10 0 0 1 10 10v18a10 10 0 0 0 10 10"></path><g><path d="M60 69h0"></path><g><path d="M60 69h10"></path><path d="M603.5 69h10"></path><g class="non-terminal "><path d="M70 69h0"></path><path d="M285.5 69h0"></path><rect x="70" y="58" width="215.5" height="22" rx="10" ry="10"></rect><text x="177.75" y="73">conditionalOrExpression</text></g><path d="M285.5 69h10"></path><path d="M295.5 69h10"></path><g class="terminal "><path d="M305.5 69h0"></path><path d="M359.5 69h0"></path><rect x="305.5" y="58" width="54" height="22"></rect><text x="332.5" y="73">'||'</text></g><path d="M359.5 69h10"></path><path d="M369.5 69h10"></path><g class="non-terminal "><path d="M379.5 69h0"></path><path d="M603.5 69h0"></path><rect x="379.5" y="58" width="224" height="22" rx="10" ry="10"></rect><text x="491.5" y="73">conditionalAndExpression</text></g></g><path d="M613.5 69h0"></path></g><path d="M613.5 69a10 10 0 0 0 10 -10v-18a10 10 0 0 1 10 -10"></path></g><path d="M 633.5 31 h 20 m 0 -10 v 20"></path></g><defs><style type="text/css"><![CDATA[
svg.railroad-diagram path { stroke-width: 2; stroke: darkgray; fill: rgba(0, 0, 0, 0);}/* All text except comments. */svg.railroad-diagram text { font: bold 12px Hack, "Source Code Pro", monospace; text-anchor: middle; fill: #404040;}/* Comment text */svg.railroad-diagram text.comment { font: italic 10px Hack, "Source Code Pro", monospace; fill: #404040;}/* The terminal boxes. */svg.railroad-diagram g.terminal rect { stroke-width: 2; stroke: #404040; fill: rgba(200, 200, 200, 1);}svg.railroad-diagram g.non-terminal rect { /* The non-terminal boxes. */ stroke-width: 2; stroke: #404040; fill: rgba(255, 255, 255, 1);}/* Multiple choice text, not working atm. */svg.railroad-diagram text.diagram-text { font-size: 12px Hack, "Source Code Pro", monospace; fill: red;}/* Multiple choice text, not working atm. */svg.railroad-diagram path.diagram-text { stroke-width: 1; stroke: red; fill: red; cursor: help;}
 ]]>
</style></defs></svg>