<?xml version="1.0" encoding="UTF-8" standalone="no"?>
<!DOCTYPE svg PUBLIC "-//W3C//DTD SVG 1.1//EN" "http://www.w3.org/Graphics/SVG/1.1/DTD/svg11.dtd">
<svg class="railroad-diagram" width="877" height="94" viewBox="0 0 877 94" id="constructorDeclaration" xmlns="http://www.w3.org/2000/svg" xmlns:xlink="http://www.w3.org/1999/xlink"><g transform="translate(.5 .5)"><g><path d="M20 37v20m0 -10h20"></path></g><g><path d="M40 47h0"></path><path d="M837 47h0"></path><path d="M40 47h20"></path><g><path d="M60 47h0"></path><g><path d="M60 47h10"></path><path d="M807 47h10"></path><g><path d="M70 47h0"></path><path d="M311.5 47h0"></path><path d="M70 47a10 10 0 0 0 10 -10v-7a10 10 0 0 1 10 -10"></path><g><path d="M90 20h201.5"></path></g><path d="M291.5 20a10 10 0 0 1 10 10v7a10 10 0 0 0 10 10"></path><path d="M70 47h20"></path><g><path d="M90 47h0"></path><path d="M291.5 47h0"></path><path d="M90 47h10"></path><g class="non-terminal "><path d="M100 47h0"></path><path d="M281.5 47h0"></path><rect x="100" y="36" width="181.5" height="22" rx="10" ry="10"></rect><text x="190.75" y="51">constructorModifier</text></g><path d="M281.5 47h10"></path><path d="M100 47a10 10 0 0 0 -10 10v7a10 10 0 0 0 10 10"></path><g><path d="M100 74h181.5"></path></g><path d="M281.5 74a10 10 0 0 0 10 -10v-7a10 10 0 0 0 -10 -10"></path></g><path d="M291.5 47h20"></path></g><path d="M311.5 47h10"></path><g class="non-terminal "><path d="M321.5 47h0"></path><path d="M520 47h0"></path><rect x="321.5" y="36" width="198.5" height="22" rx="10" ry="10"></rect><text x="420.75" y="51">constructorDeclarator</text></g><path d="M520 47h10"></path><g><path d="M530 47h0"></path><path d="M649.5 47h0"></path><path d="M530 47a10 10 0 0 0 10 -10v-7a10 10 0 0 1 10 -10"></path><g><path d="M550 20h79.5"></path></g><path d="M629.5 20a10 10 0 0 1 10 10v7a10 10 0 0 0 10 10"></path><path d="M530 47h20"></path><g class="non-terminal "><path d="M550 47h0"></path><path d="M629.5 47h0"></path><rect x="550" y="36" width="79.5" height="22" rx="10" ry="10"></rect><text x="589.75" y="51">throwsT</text></g><path d="M629.5 47h20"></path></g><path d="M649.5 47h10"></path><g class="non-terminal "><path d="M659.5 47h0"></path><path d="M807 47h0"></path><rect x="659.5" y="36" width="147.5" height="22" rx="10" ry="10"></rect><text x="733.25" y="51">constructorBody</text></g></g><path d="M817 47h0"></path></g><path d="M817 47h20"></path></g><path d="M 837 47 h 20 m 0 -10 v 20"></path></g><defs><style type="text/css"><![CDATA[
svg.railroad-diagram path { stroke-width: 2; stroke: darkgray; fill: rgba(0, 0, 0, 0);}/* All text except comments. */svg.railroad-diagram text { font: bold 12px Hack, "Source Code Pro", monospace; text-anchor: middle; fill: #404040;}/* Comment text */svg.railroad-diagram text.comment { font: italic 10px Hack, "Source Code Pro", monospace; fill: #404040;}/* The terminal boxes. */svg.railroad-diagram g.terminal rect { stroke-width: 2; stroke: #404040; fill: rgba(200, 200, 200, 1);}svg.railroad-diagram g.non-terminal rect { /* The non-terminal boxes. */ stroke-width: 2; stroke: #404040; fill: rgba(255, 255, 255, 1);}/* Multiple choice text, not working atm. */svg.railroad-diagram text.diagram-text { font-size: 12px Hack, "Source Code Pro", monospace; fill: red;}/* Multiple choice text, not working atm. */svg.railroad-diagram path.diagram-text { stroke-width: 1; stroke: red; fill: red; cursor: help;}
 ]]>
</style></defs></svg>