<?xml version="1.0" encoding="UTF-8" standalone="no"?>
<!DOCTYPE svg PUBLIC "-//W3C//DTD SVG 1.1//EN" "http://www.w3.org/Graphics/SVG/1.1/DTD/svg11.dtd">
<svg class="railroad-diagram" width="1150.5" height="78" viewBox="0 0 1150.5 78" id="constructorDeclarator" xmlns="http://www.w3.org/2000/svg" xmlns:xlink="http://www.w3.org/1999/xlink"><g transform="translate(.5 .5)"><g><path d="M20 37v20m0 -10h20"></path></g><g><path d="M40 47h0"></path><path d="M1110.5 47h0"></path><path d="M40 47h20"></path><g><path d="M60 47h0"></path><g><path d="M60 47h10"></path><path d="M1080.5 47h10"></path><g><path d="M70 47h0"></path><path d="M249 47h0"></path><path d="M70 47a10 10 0 0 0 10 -10v-7a10 10 0 0 1 10 -10"></path><g><path d="M90 20h139"></path></g><path d="M229 20a10 10 0 0 1 10 10v7a10 10 0 0 0 10 10"></path><path d="M70 47h20"></path><g class="non-terminal "><path d="M90 47h0"></path><path d="M229 47h0"></path><rect x="90" y="36" width="139" height="22" rx="10" ry="10"></rect><text x="159.5" y="51">typeParameters</text></g><path d="M229 47h20"></path></g><path d="M249 47h10"></path><g class="non-terminal "><path d="M259 47h0"></path><path d="M398 47h0"></path><rect x="259" y="36" width="139" height="22" rx="10" ry="10"></rect><text x="328.5" y="51">simpleTypeName</text></g><path d="M398 47h10"></path><path d="M408 47h10"></path><g class="terminal "><path d="M418 47h0"></path><path d="M463.5 47h0"></path><rect x="418" y="36" width="45.5" height="22"></rect><text x="440.75" y="51">'('</text></g><path d="M463.5 47h10"></path><g><path d="M473.5 47h0"></path><path d="M803.5 47h0"></path><path d="M473.5 47a10 10 0 0 0 10 -10v-7a10 10 0 0 1 10 -10"></path><g><path d="M493.5 20h290"></path></g><path d="M783.5 20a10 10 0 0 1 10 10v7a10 10 0 0 0 10 10"></path><path d="M473.5 47h20"></path><g><path d="M493.5 47h0"></path><path d="M783.5 47h0"></path><path d="M493.5 47h20"></path><g><path d="M513.5 47h0"></path><g><path d="M513.5 47h10"></path><path d="M753.5 47h10"></path><g class="non-terminal "><path d="M523.5 47h0"></path><path d="M688 47h0"></path><rect x="523.5" y="36" width="164.5" height="22" rx="10" ry="10"></rect><text x="605.75" y="51">receiverParameter</text></g><path d="M688 47h10"></path><path d="M698 47h10"></path><g class="terminal "><path d="M708 47h0"></path><path d="M753.5 47h0"></path><rect x="708" y="36" width="45.5" height="22"></rect><text x="730.75" y="51">','</text></g></g><path d="M763.5 47h0"></path></g><path d="M763.5 47h20"></path></g><path d="M783.5 47h20"></path></g><g><path d="M803.5 47h0"></path><path d="M1025 47h0"></path><path d="M803.5 47a10 10 0 0 0 10 -10v-7a10 10 0 0 1 10 -10"></path><g><path d="M823.5 20h181.5"></path></g><path d="M1005 20a10 10 0 0 1 10 10v7a10 10 0 0 0 10 10"></path><path d="M803.5 47h20"></path><g class="non-terminal "><path d="M823.5 47h0"></path><path d="M1005 47h0"></path><rect x="823.5" y="36" width="181.5" height="22" rx="10" ry="10"></rect><text x="914.25" y="51">formalParameterList</text></g><path d="M1005 47h20"></path></g><path d="M1025 47h10"></path><g class="terminal "><path d="M1035 47h0"></path><path d="M1080.5 47h0"></path><rect x="1035" y="36" width="45.5" height="22"></rect><text x="1057.75" y="51">')'</text></g></g><path d="M1090.5 47h0"></path></g><path d="M1090.5 47h20"></path></g><path d="M 1110.5 47 h 20 m 0 -10 v 20"></path></g><defs><style type="text/css"><![CDATA[
svg.railroad-diagram path { stroke-width: 2; stroke: darkgray; fill: rgba(0, 0, 0, 0);}/* All text except comments. */svg.railroad-diagram text { font: bold 12px Hack, "Source Code Pro", monospace; text-anchor: middle; fill: #404040;}/* Comment text */svg.railroad-diagram text.comment { font: italic 10px Hack, "Source Code Pro", monospace; fill: #404040;}/* The terminal boxes. */svg.railroad-diagram g.terminal rect { stroke-width: 2; stroke: #404040; fill: rgba(200, 200, 200, 1);}svg.railroad-diagram g.non-terminal rect { /* The non-terminal boxes. */ stroke-width: 2; stroke: #404040; fill: rgba(255, 255, 255, 1);}/* Multiple choice text, not working atm. */svg.railroad-diagram text.diagram-text { font-size: 12px Hack, "Source Code Pro", monospace; fill: red;}/* Multiple choice text, not working atm. */svg.railroad-diagram path.diagram-text { stroke-width: 1; stroke: red; fill: red; cursor: help;}
 ]]>
</style></defs></svg>