<?xml version="1.0" encoding="UTF-8" standalone="no"?>
<!DOCTYPE svg PUBLIC "-//W3C//DTD SVG 1.1//EN" "http://www.w3.org/Graphics/SVG/1.1/DTD/svg11.dtd">
<svg class="railroad-diagram" width="262" height="442" viewBox="0 0 262 442" id="contextualKeywordMinusForTypeIdentifier" xmlns="http://www.w3.org/2000/svg" xmlns:xlink="http://www.w3.org/1999/xlink"><g transform="translate(.5 .5)"><g><path d="M20 21v20m0 -10h20"></path></g><g><path d="M40 31h0"></path><path d="M222 31h0"></path><path d="M40 31h20"></path><g><path d="M60 31h12.75"></path><g><path d="M72.75 31h10"></path><path d="M179.25 31h10"></path><g class="terminal "><path d="M82.75 31h0"></path><path d="M179.25 31h0"></path><rect x="82.75" y="20" width="96.5" height="22"></rect><text x="131" y="35">'exports'</text></g></g><path d="M189.25 31h12.75"></path></g><path d="M202 31h20"></path><path d="M40 31a10 10 0 0 1 10 10v18a10 10 0 0 0 10 10"></path><g><path d="M60 69h17"></path><g><path d="M77 69h10"></path><path d="M175 69h10"></path><g class="terminal "><path d="M87 69h0"></path><path d="M175 69h0"></path><rect x="87" y="58" width="88" height="22"></rect><text x="131" y="73">'module'</text></g></g><path d="M185 69h17"></path></g><path d="M202 69a10 10 0 0 0 10 -10v-18a10 10 0 0 1 10 -10"></path><path d="M40 31a10 10 0 0 1 10 10v56a10 10 0 0 0 10 10"></path><g><path d="M60 107h0"></path><g><path d="M60 107h10"></path><path d="M192 107h10"></path><g class="terminal "><path d="M70 107h0"></path><path d="M192 107h0"></path><rect x="70" y="96" width="122" height="22"></rect><text x="131" y="111">'non-sealed'</text></g></g><path d="M202 107h0"></path></g><path d="M202 107a10 10 0 0 0 10 -10v-56a10 10 0 0 1 10 -10"></path><path d="M40 31a10 10 0 0 1 10 10v94a10 10 0 0 0 10 10"></path><g><path d="M60 145h25.5"></path><g><path d="M85.5 145h10"></path><path d="M166.5 145h10"></path><g class="terminal "><path d="M95.5 145h0"></path><path d="M166.5 145h0"></path><rect x="95.5" y="134" width="71" height="22"></rect><text x="131" y="149">'open'</text></g></g><path d="M176.5 145h25.5"></path></g><path d="M202 145a10 10 0 0 0 10 -10v-94a10 10 0 0 1 10 -10"></path><path d="M40 31a10 10 0 0 1 10 10v132a10 10 0 0 0 10 10"></path><g><path d="M60 183h21.25"></path><g><path d="M81.25 183h10"></path><path d="M170.75 183h10"></path><g class="terminal "><path d="M91.25 183h0"></path><path d="M170.75 183h0"></path><rect x="91.25" y="172" width="79.5" height="22"></rect><text x="131" y="187">'opens'</text></g></g><path d="M180.75 183h21.25"></path></g><path d="M202 183a10 10 0 0 0 10 -10v-132a10 10 0 0 1 10 -10"></path><path d="M40 31a10 10 0 0 1 10 10v170a10 10 0 0 0 10 10"></path><g><path d="M60 221h8.5"></path><g><path d="M68.5 221h10"></path><path d="M183.5 221h10"></path><g class="terminal "><path d="M78.5 221h0"></path><path d="M183.5 221h0"></path><rect x="78.5" y="210" width="105" height="22"></rect><text x="131" y="225">'provides'</text></g></g><path d="M193.5 221h8.5"></path></g><path d="M202 221a10 10 0 0 0 10 -10v-170a10 10 0 0 1 10 -10"></path><path d="M40 31a10 10 0 0 1 10 10v208a10 10 0 0 0 10 10"></path><g><path d="M60 259h8.5"></path><g><path d="M68.5 259h10"></path><path d="M183.5 259h10"></path><g class="terminal "><path d="M78.5 259h0"></path><path d="M183.5 259h0"></path><rect x="78.5" y="248" width="105" height="22"></rect><text x="131" y="263">'requires'</text></g></g><path d="M193.5 259h8.5"></path></g><path d="M202 259a10 10 0 0 0 10 -10v-208a10 10 0 0 1 10 -10"></path><path d="M40 31a10 10 0 0 1 10 10v246a10 10 0 0 0 10 10"></path><g><path d="M60 297h34"></path><g><path d="M94 297h10"></path><path d="M158 297h10"></path><g class="terminal "><path d="M104 297h0"></path><path d="M158 297h0"></path><rect x="104" y="286" width="54" height="22"></rect><text x="131" y="301">'to'</text></g></g><path d="M168 297h34"></path></g><path d="M202 297a10 10 0 0 0 10 -10v-246a10 10 0 0 1 10 -10"></path><path d="M40 31a10 10 0 0 1 10 10v284a10 10 0 0 0 10 10"></path><g><path d="M60 335h0"></path><g><path d="M60 335h10"></path><path d="M192 335h10"></path><g class="terminal "><path d="M70 335h0"></path><path d="M192 335h0"></path><rect x="70" y="324" width="122" height="22"></rect><text x="131" y="339">'transitive'</text></g></g><path d="M202 335h0"></path></g><path d="M202 335a10 10 0 0 0 10 -10v-284a10 10 0 0 1 10 -10"></path><path d="M40 31a10 10 0 0 1 10 10v322a10 10 0 0 0 10 10"></path><g><path d="M60 373h25.5"></path><g><path d="M85.5 373h10"></path><path d="M166.5 373h10"></path><g class="terminal "><path d="M95.5 373h0"></path><path d="M166.5 373h0"></path><rect x="95.5" y="362" width="71" height="22"></rect><text x="131" y="377">'uses'</text></g></g><path d="M176.5 373h25.5"></path></g><path d="M202 373a10 10 0 0 0 10 -10v-322a10 10 0 0 1 10 -10"></path><path d="M40 31a10 10 0 0 1 10 10v360a10 10 0 0 0 10 10"></path><g><path d="M60 411h25.5"></path><g><path d="M85.5 411h10"></path><path d="M166.5 411h10"></path><g class="terminal "><path d="M95.5 411h0"></path><path d="M166.5 411h0"></path><rect x="95.5" y="400" width="71" height="22"></rect><text x="131" y="415">'with'</text></g></g><path d="M176.5 411h25.5"></path></g><path d="M202 411a10 10 0 0 0 10 -10v-360a10 10 0 0 1 10 -10"></path></g><path d="M 222 31 h 20 m 0 -10 v 20"></path></g><defs><style type="text/css"><![CDATA[
svg.railroad-diagram path { stroke-width: 2; stroke: darkgray; fill: rgba(0, 0, 0, 0);}/* All text except comments. */svg.railroad-diagram text { font: bold 12px Hack, "Source Code Pro", monospace; text-anchor: middle; fill: #404040;}/* Comment text */svg.railroad-diagram text.comment { font: italic 10px Hack, "Source Code Pro", monospace; fill: #404040;}/* The terminal boxes. */svg.railroad-diagram g.terminal rect { stroke-width: 2; stroke: #404040; fill: rgba(200, 200, 200, 1);}svg.railroad-diagram g.non-terminal rect { /* The non-terminal boxes. */ stroke-width: 2; stroke: #404040; fill: rgba(255, 255, 255, 1);}/* Multiple choice text, not working atm. */svg.railroad-diagram text.diagram-text { font-size: 12px Hack, "Source Code Pro", monospace; fill: red;}/* Multiple choice text, not working atm. */svg.railroad-diagram path.diagram-text { stroke-width: 1; stroke: red; fill: red; cursor: help;}
 ]]>
</style></defs></svg>