<?xml version="1.0" encoding="UTF-8" standalone="no"?>
<!DOCTYPE svg PUBLIC "-//W3C//DTD SVG 1.1//EN" "http://www.w3.org/Graphics/SVG/1.1/DTD/svg11.dtd">
<svg class="railroad-diagram" width="842" height="126" viewBox="0 0 842 126" id="dims" xmlns="http://www.w3.org/2000/svg" xmlns:xlink="http://www.w3.org/1999/xlink"><g transform="translate(.5 .5)"><g><path d="M20 53v20m0 -10h20"></path></g><g><path d="M40 63h0"></path><path d="M802 63h0"></path><path d="M40 63h20"></path><g><path d="M60 63h0"></path><g><path d="M60 63h10"></path><path d="M772 63h10"></path><g><path d="M70 63h0"></path><path d="M235 63h0"></path><path d="M70 63a10 10 0 0 0 10 -10v-7a10 10 0 0 1 10 -10"></path><g><path d="M90 36h125"></path></g><path d="M215 36a10 10 0 0 1 10 10v7a10 10 0 0 0 10 10"></path><path d="M70 63h20"></path><g><path d="M90 63h0"></path><path d="M215 63h0"></path><path d="M90 63h10"></path><g class="non-terminal "><path d="M100 63h0"></path><path d="M205 63h0"></path><rect x="100" y="52" width="105" height="22" rx="10" ry="10"></rect><text x="152.5" y="67">annotation</text></g><path d="M205 63h10"></path><path d="M100 63a10 10 0 0 0 -10 10v7a10 10 0 0 0 10 10"></path><g><path d="M100 90h105"></path></g><path d="M205 90a10 10 0 0 0 10 -10v-7a10 10 0 0 0 -10 -10"></path></g><path d="M215 63h20"></path></g><path d="M235 63h10"></path><g class="terminal "><path d="M245 63h0"></path><path d="M290.5 63h0"></path><rect x="245" y="52" width="45.5" height="22"></rect><text x="267.75" y="67">'['</text></g><path d="M290.5 63h10"></path><path d="M300.5 63h10"></path><g class="terminal "><path d="M310.5 63h0"></path><path d="M356 63h0"></path><rect x="310.5" y="52" width="45.5" height="22"></rect><text x="333.25" y="67">']'</text></g><path d="M356 63h10"></path><g><path d="M366 63h0"></path><path d="M772 63h0"></path><path d="M366 63a10 10 0 0 0 10 -10v-23a10 10 0 0 1 10 -10"></path><g><path d="M386 20h366"></path></g><path d="M752 20a10 10 0 0 1 10 10v23a10 10 0 0 0 10 10"></path><path d="M366 63h20"></path><g><path d="M386 63h0"></path><path d="M752 63h0"></path><path d="M386 63h10"></path><g><path d="M396 63h0"></path><path d="M742 63h0"></path><path d="M396 63h20"></path><g><path d="M416 63h0"></path><g><path d="M416 63h10"></path><path d="M712 63h10"></path><g><path d="M426 63h0"></path><path d="M591 63h0"></path><path d="M426 63a10 10 0 0 0 10 -10v-7a10 10 0 0 1 10 -10"></path><g><path d="M446 36h125"></path></g><path d="M571 36a10 10 0 0 1 10 10v7a10 10 0 0 0 10 10"></path><path d="M426 63h20"></path><g><path d="M446 63h0"></path><path d="M571 63h0"></path><path d="M446 63h10"></path><g class="non-terminal "><path d="M456 63h0"></path><path d="M561 63h0"></path><rect x="456" y="52" width="105" height="22" rx="10" ry="10"></rect><text x="508.5" y="67">annotation</text></g><path d="M561 63h10"></path><path d="M456 63a10 10 0 0 0 -10 10v7a10 10 0 0 0 10 10"></path><g><path d="M456 90h105"></path></g><path d="M561 90a10 10 0 0 0 10 -10v-7a10 10 0 0 0 -10 -10"></path></g><path d="M571 63h20"></path></g><path d="M591 63h10"></path><g class="terminal "><path d="M601 63h0"></path><path d="M646.5 63h0"></path><rect x="601" y="52" width="45.5" height="22"></rect><text x="623.75" y="67">'['</text></g><path d="M646.5 63h10"></path><path d="M656.5 63h10"></path><g class="terminal "><path d="M666.5 63h0"></path><path d="M712 63h0"></path><rect x="666.5" y="52" width="45.5" height="22"></rect><text x="689.25" y="67">']'</text></g></g><path d="M722 63h0"></path></g><path d="M722 63h20"></path></g><path d="M742 63h10"></path><path d="M396 63a10 10 0 0 0 -10 10v23a10 10 0 0 0 10 10"></path><g><path d="M396 106h346"></path></g><path d="M742 106a10 10 0 0 0 10 -10v-23a10 10 0 0 0 -10 -10"></path></g><path d="M752 63h20"></path></g></g><path d="M782 63h0"></path></g><path d="M782 63h20"></path></g><path d="M 802 63 h 20 m 0 -10 v 20"></path></g><defs><style type="text/css"><![CDATA[
svg.railroad-diagram path { stroke-width: 2; stroke: darkgray; fill: rgba(0, 0, 0, 0);}/* All text except comments. */svg.railroad-diagram text { font: bold 12px Hack, "Source Code Pro", monospace; text-anchor: middle; fill: #404040;}/* Comment text */svg.railroad-diagram text.comment { font: italic 10px Hack, "Source Code Pro", monospace; fill: #404040;}/* The terminal boxes. */svg.railroad-diagram g.terminal rect { stroke-width: 2; stroke: #404040; fill: rgba(200, 200, 200, 1);}svg.railroad-diagram g.non-terminal rect { /* The non-terminal boxes. */ stroke-width: 2; stroke: #404040; fill: rgba(255, 255, 255, 1);}/* Multiple choice text, not working atm. */svg.railroad-diagram text.diagram-text { font-size: 12px Hack, "Source Code Pro", monospace; fill: red;}/* Multiple choice text, not working atm. */svg.railroad-diagram path.diagram-text { stroke-width: 1; stroke: red; fill: red; cursor: help;}
 ]]>
</style></defs></svg>