<?xml version="1.0" encoding="UTF-8" standalone="no"?>
<!DOCTYPE svg PUBLIC "-//W3C//DTD SVG 1.1//EN" "http://www.w3.org/Graphics/SVG/1.1/DTD/svg11.dtd">
<svg class="railroad-diagram" width="884.5" height="62" viewBox="0 0 884.5 62" id="enhancedForStatement" xmlns="http://www.w3.org/2000/svg" xmlns:xlink="http://www.w3.org/1999/xlink"><g transform="translate(.5 .5)"><g><path d="M20 21v20m0 -10h20"></path></g><g><path d="M40 31h0"></path><path d="M844.5 31h0"></path><path d="M40 31h20"></path><g><path d="M60 31h0"></path><g><path d="M60 31h10"></path><path d="M814.5 31h10"></path><g class="terminal "><path d="M70 31h0"></path><path d="M132.5 31h0"></path><rect x="70" y="20" width="62.5" height="22"></rect><text x="101.25" y="35">'for'</text></g><path d="M132.5 31h10"></path><path d="M142.5 31h10"></path><g class="terminal "><path d="M152.5 31h0"></path><path d="M198 31h0"></path><rect x="152.5" y="20" width="45.5" height="22"></rect><text x="175.25" y="35">'('</text></g><path d="M198 31h10"></path><path d="M208 31h10"></path><g class="non-terminal "><path d="M218 31h0"></path><path d="M442 31h0"></path><rect x="218" y="20" width="224" height="22" rx="10" ry="10"></rect><text x="330" y="35">localVariableDeclaration</text></g><path d="M442 31h10"></path><path d="M452 31h10"></path><g class="terminal "><path d="M462 31h0"></path><path d="M507.5 31h0"></path><rect x="462" y="20" width="45.5" height="22"></rect><text x="484.75" y="35">':'</text></g><path d="M507.5 31h10"></path><path d="M517.5 31h10"></path><g class="non-terminal "><path d="M527.5 31h0"></path><path d="M632.5 31h0"></path><rect x="527.5" y="20" width="105" height="22" rx="10" ry="10"></rect><text x="580" y="35">expression</text></g><path d="M632.5 31h10"></path><path d="M642.5 31h10"></path><g class="terminal "><path d="M652.5 31h0"></path><path d="M698 31h0"></path><rect x="652.5" y="20" width="45.5" height="22"></rect><text x="675.25" y="35">')'</text></g><path d="M698 31h10"></path><path d="M708 31h10"></path><g class="non-terminal "><path d="M718 31h0"></path><path d="M814.5 31h0"></path><rect x="718" y="20" width="96.5" height="22" rx="10" ry="10"></rect><text x="766.25" y="35">statement</text></g></g><path d="M824.5 31h0"></path></g><path d="M824.5 31h20"></path></g><path d="M 844.5 31 h 20 m 0 -10 v 20"></path></g><defs><style type="text/css"><![CDATA[
svg.railroad-diagram path { stroke-width: 2; stroke: darkgray; fill: rgba(0, 0, 0, 0);}/* All text except comments. */svg.railroad-diagram text { font: bold 12px Hack, "Source Code Pro", monospace; text-anchor: middle; fill: #404040;}/* Comment text */svg.railroad-diagram text.comment { font: italic 10px Hack, "Source Code Pro", monospace; fill: #404040;}/* The terminal boxes. */svg.railroad-diagram g.terminal rect { stroke-width: 2; stroke: #404040; fill: rgba(200, 200, 200, 1);}svg.railroad-diagram g.non-terminal rect { /* The non-terminal boxes. */ stroke-width: 2; stroke: #404040; fill: rgba(255, 255, 255, 1);}/* Multiple choice text, not working atm. */svg.railroad-diagram text.diagram-text { font-size: 12px Hack, "Source Code Pro", monospace; fill: red;}/* Multiple choice text, not working atm. */svg.railroad-diagram path.diagram-text { stroke-width: 1; stroke: red; fill: red; cursor: help;}
 ]]>
</style></defs></svg>