<?xml version="1.0" encoding="UTF-8" standalone="no"?>
<!DOCTYPE svg PUBLIC "-//W3C//DTD SVG 1.1//EN" "http://www.w3.org/Graphics/SVG/1.1/DTD/svg11.dtd">
<svg class="railroad-diagram" width="1024.5" height="110" viewBox="0 0 1024.5 110" id="enumConstant" xmlns="http://www.w3.org/2000/svg" xmlns:xlink="http://www.w3.org/1999/xlink"><g transform="translate(.5 .5)"><g><path d="M20 53v20m0 -10h20"></path></g><g><path d="M40 63h0"></path><path d="M984.5 63h0"></path><path d="M40 63h20"></path><g><path d="M60 63h0"></path><g><path d="M60 63h10"></path><path d="M954.5 63h10"></path><g><path d="M70 63h0"></path><path d="M320 63h0"></path><path d="M70 63a10 10 0 0 0 10 -10v-7a10 10 0 0 1 10 -10"></path><g><path d="M90 36h210"></path></g><path d="M300 36a10 10 0 0 1 10 10v7a10 10 0 0 0 10 10"></path><path d="M70 63h20"></path><g><path d="M90 63h0"></path><path d="M300 63h0"></path><path d="M90 63h10"></path><g class="non-terminal "><path d="M100 63h0"></path><path d="M290 63h0"></path><rect x="100" y="52" width="190" height="22" rx="10" ry="10"></rect><text x="195" y="67">enumConstantModifier</text></g><path d="M290 63h10"></path><path d="M100 63a10 10 0 0 0 -10 10v7a10 10 0 0 0 10 10"></path><g><path d="M100 90h190"></path></g><path d="M290 90a10 10 0 0 0 10 -10v-7a10 10 0 0 0 -10 -10"></path></g><path d="M300 63h20"></path></g><path d="M320 63h10"></path><g class="non-terminal "><path d="M330 63h0"></path><path d="M435 63h0"></path><rect x="330" y="52" width="105" height="22" rx="10" ry="10"></rect><text x="382.5" y="67">identifier</text></g><path d="M435 63h10"></path><g><path d="M445 63h0"></path><path d="M818 63h0"></path><path d="M445 63a10 10 0 0 0 10 -10v-23a10 10 0 0 1 10 -10"></path><g><path d="M465 20h333"></path></g><path d="M798 20a10 10 0 0 1 10 10v23a10 10 0 0 0 10 10"></path><path d="M445 63h20"></path><g><path d="M465 63h0"></path><path d="M798 63h0"></path><path d="M465 63h20"></path><g><path d="M485 63h0"></path><g><path d="M485 63h10"></path><path d="M768 63h10"></path><g class="terminal "><path d="M495 63h0"></path><path d="M540.5 63h0"></path><rect x="495" y="52" width="45.5" height="22"></rect><text x="517.75" y="67">'('</text></g><path d="M540.5 63h10"></path><g><path d="M550.5 63h0"></path><path d="M712.5 63h0"></path><path d="M550.5 63a10 10 0 0 0 10 -10v-7a10 10 0 0 1 10 -10"></path><g><path d="M570.5 36h122"></path></g><path d="M692.5 36a10 10 0 0 1 10 10v7a10 10 0 0 0 10 10"></path><path d="M550.5 63h20"></path><g class="non-terminal "><path d="M570.5 63h0"></path><path d="M692.5 63h0"></path><rect x="570.5" y="52" width="122" height="22" rx="10" ry="10"></rect><text x="631.5" y="67">argumentList</text></g><path d="M692.5 63h20"></path></g><path d="M712.5 63h10"></path><g class="terminal "><path d="M722.5 63h0"></path><path d="M768 63h0"></path><rect x="722.5" y="52" width="45.5" height="22"></rect><text x="745.25" y="67">')'</text></g></g><path d="M778 63h0"></path></g><path d="M778 63h20"></path></g><path d="M798 63h20"></path></g><g><path d="M818 63h0"></path><path d="M954.5 63h0"></path><path d="M818 63a10 10 0 0 0 10 -10v-7a10 10 0 0 1 10 -10"></path><g><path d="M838 36h96.5"></path></g><path d="M934.5 36a10 10 0 0 1 10 10v7a10 10 0 0 0 10 10"></path><path d="M818 63h20"></path><g class="non-terminal "><path d="M838 63h0"></path><path d="M934.5 63h0"></path><rect x="838" y="52" width="96.5" height="22" rx="10" ry="10"></rect><text x="886.25" y="67">classBody</text></g><path d="M934.5 63h20"></path></g></g><path d="M964.5 63h0"></path></g><path d="M964.5 63h20"></path></g><path d="M 984.5 63 h 20 m 0 -10 v 20"></path></g><defs><style type="text/css"><![CDATA[
svg.railroad-diagram path { stroke-width: 2; stroke: darkgray; fill: rgba(0, 0, 0, 0);}/* All text except comments. */svg.railroad-diagram text { font: bold 12px Hack, "Source Code Pro", monospace; text-anchor: middle; fill: #404040;}/* Comment text */svg.railroad-diagram text.comment { font: italic 10px Hack, "Source Code Pro", monospace; fill: #404040;}/* The terminal boxes. */svg.railroad-diagram g.terminal rect { stroke-width: 2; stroke: #404040; fill: rgba(200, 200, 200, 1);}svg.railroad-diagram g.non-terminal rect { /* The non-terminal boxes. */ stroke-width: 2; stroke: #404040; fill: rgba(255, 255, 255, 1);}/* Multiple choice text, not working atm. */svg.railroad-diagram text.diagram-text { font-size: 12px Hack, "Source Code Pro", monospace; fill: red;}/* Multiple choice text, not working atm. */svg.railroad-diagram path.diagram-text { stroke-width: 1; stroke: red; fill: red; cursor: help;}
 ]]>
</style></defs></svg>