<?xml version="1.0" encoding="UTF-8" standalone="no"?>
<!DOCTYPE svg PUBLIC "-//W3C//DTD SVG 1.1//EN" "http://www.w3.org/Graphics/SVG/1.1/DTD/svg11.dtd">
<svg class="railroad-diagram" width="762.5" height="78" viewBox="0 0 762.5 78" id="enumBody" xmlns="http://www.w3.org/2000/svg" xmlns:xlink="http://www.w3.org/1999/xlink"><g transform="translate(.5 .5)"><g><path d="M20 37v20m0 -10h20"></path></g><g><path d="M40 47h0"></path><path d="M722.5 47h0"></path><path d="M40 47h20"></path><g><path d="M60 47h0"></path><g><path d="M60 47h10"></path><path d="M692.5 47h10"></path><g class="terminal "><path d="M70 47h0"></path><path d="M115.5 47h0"></path><rect x="70" y="36" width="45.5" height="22"></rect><text x="92.75" y="51">'{'</text></g><path d="M115.5 47h10"></path><g><path d="M125.5 47h0"></path><path d="M321.5 47h0"></path><path d="M125.5 47a10 10 0 0 0 10 -10v-7a10 10 0 0 1 10 -10"></path><g><path d="M145.5 20h156"></path></g><path d="M301.5 20a10 10 0 0 1 10 10v7a10 10 0 0 0 10 10"></path><path d="M125.5 47h20"></path><g class="non-terminal "><path d="M145.5 47h0"></path><path d="M301.5 47h0"></path><rect x="145.5" y="36" width="156" height="22" rx="10" ry="10"></rect><text x="223.5" y="51">enumConstantList</text></g><path d="M301.5 47h20"></path></g><g><path d="M321.5 47h0"></path><path d="M407 47h0"></path><path d="M321.5 47a10 10 0 0 0 10 -10v-7a10 10 0 0 1 10 -10"></path><g><path d="M341.5 20h45.5"></path></g><path d="M387 20a10 10 0 0 1 10 10v7a10 10 0 0 0 10 10"></path><path d="M321.5 47h20"></path><g class="terminal "><path d="M341.5 47h0"></path><path d="M387 47h0"></path><rect x="341.5" y="36" width="45.5" height="22"></rect><text x="364.25" y="51">','</text></g><path d="M387 47h20"></path></g><g><path d="M407 47h0"></path><path d="M637 47h0"></path><path d="M407 47a10 10 0 0 0 10 -10v-7a10 10 0 0 1 10 -10"></path><g><path d="M427 20h190"></path></g><path d="M617 20a10 10 0 0 1 10 10v7a10 10 0 0 0 10 10"></path><path d="M407 47h20"></path><g class="non-terminal "><path d="M427 47h0"></path><path d="M617 47h0"></path><rect x="427" y="36" width="190" height="22" rx="10" ry="10"></rect><text x="522" y="51">enumBodyDeclarations</text></g><path d="M617 47h20"></path></g><path d="M637 47h10"></path><g class="terminal "><path d="M647 47h0"></path><path d="M692.5 47h0"></path><rect x="647" y="36" width="45.5" height="22"></rect><text x="669.75" y="51">'}'</text></g></g><path d="M702.5 47h0"></path></g><path d="M702.5 47h20"></path></g><path d="M 722.5 47 h 20 m 0 -10 v 20"></path></g><defs><style type="text/css"><![CDATA[
svg.railroad-diagram path { stroke-width: 2; stroke: darkgray; fill: rgba(0, 0, 0, 0);}/* All text except comments. */svg.railroad-diagram text { font: bold 12px Hack, "Source Code Pro", monospace; text-anchor: middle; fill: #404040;}/* Comment text */svg.railroad-diagram text.comment { font: italic 10px Hack, "Source Code Pro", monospace; fill: #404040;}/* The terminal boxes. */svg.railroad-diagram g.terminal rect { stroke-width: 2; stroke: #404040; fill: rgba(200, 200, 200, 1);}svg.railroad-diagram g.non-terminal rect { /* The non-terminal boxes. */ stroke-width: 2; stroke: #404040; fill: rgba(255, 255, 255, 1);}/* Multiple choice text, not working atm. */svg.railroad-diagram text.diagram-text { font-size: 12px Hack, "Source Code Pro", monospace; fill: red;}/* Multiple choice text, not working atm. */svg.railroad-diagram path.diagram-text { stroke-width: 1; stroke: red; fill: red; cursor: help;}
 ]]>
</style></defs></svg>