<?xml version="1.0" encoding="UTF-8" standalone="no"?>
<!DOCTYPE svg PUBLIC "-//W3C//DTD SVG 1.1//EN" "http://www.w3.org/Graphics/SVG/1.1/DTD/svg11.dtd">
<svg class="railroad-diagram" width="597" height="138" viewBox="0 0 597 138" id="equalityExpression" xmlns="http://www.w3.org/2000/svg" xmlns:xlink="http://www.w3.org/1999/xlink"><g transform="translate(.5 .5)"><g><path d="M20 21v20m0 -10h20"></path></g><g><path d="M40 31h0"></path><path d="M557 31h0"></path><path d="M40 31h20"></path><g><path d="M60 31h133.5"></path><g><path d="M193.5 31h10"></path><path d="M393.5 31h10"></path><g class="non-terminal "><path d="M203.5 31h0"></path><path d="M393.5 31h0"></path><rect x="203.5" y="20" width="190" height="22" rx="10" ry="10"></rect><text x="298.5" y="35">relationalExpression</text></g></g><path d="M403.5 31h133.5"></path></g><path d="M537 31h20"></path><path d="M40 31a10 10 0 0 1 10 10v18a10 10 0 0 0 10 10"></path><g><path d="M60 69h0"></path><g><path d="M60 69h10"></path><path d="M527 69h10"></path><g class="non-terminal "><path d="M70 69h0"></path><path d="M243 69h0"></path><rect x="70" y="58" width="173" height="22" rx="10" ry="10"></rect><text x="156.5" y="73">equalityExpression</text></g><path d="M243 69h10"></path><path d="M253 69h10"></path><g class="terminal "><path d="M263 69h0"></path><path d="M317 69h0"></path><rect x="263" y="58" width="54" height="22"></rect><text x="290" y="73">'=='</text></g><path d="M317 69h10"></path><path d="M327 69h10"></path><g class="non-terminal "><path d="M337 69h0"></path><path d="M527 69h0"></path><rect x="337" y="58" width="190" height="22" rx="10" ry="10"></rect><text x="432" y="73">relationalExpression</text></g></g><path d="M537 69h0"></path></g><path d="M537 69a10 10 0 0 0 10 -10v-18a10 10 0 0 1 10 -10"></path><path d="M40 31a10 10 0 0 1 10 10v56a10 10 0 0 0 10 10"></path><g><path d="M60 107h0"></path><g><path d="M60 107h10"></path><path d="M527 107h10"></path><g class="non-terminal "><path d="M70 107h0"></path><path d="M243 107h0"></path><rect x="70" y="96" width="173" height="22" rx="10" ry="10"></rect><text x="156.5" y="111">equalityExpression</text></g><path d="M243 107h10"></path><path d="M253 107h10"></path><g class="terminal "><path d="M263 107h0"></path><path d="M317 107h0"></path><rect x="263" y="96" width="54" height="22"></rect><text x="290" y="111">'!='</text></g><path d="M317 107h10"></path><path d="M327 107h10"></path><g class="non-terminal "><path d="M337 107h0"></path><path d="M527 107h0"></path><rect x="337" y="96" width="190" height="22" rx="10" ry="10"></rect><text x="432" y="111">relationalExpression</text></g></g><path d="M537 107h0"></path></g><path d="M537 107a10 10 0 0 0 10 -10v-56a10 10 0 0 1 10 -10"></path></g><path d="M 557 31 h 20 m 0 -10 v 20"></path></g><defs><style type="text/css"><![CDATA[
svg.railroad-diagram path { stroke-width: 2; stroke: darkgray; fill: rgba(0, 0, 0, 0);}/* All text except comments. */svg.railroad-diagram text { font: bold 12px Hack, "Source Code Pro", monospace; text-anchor: middle; fill: #404040;}/* Comment text */svg.railroad-diagram text.comment { font: italic 10px Hack, "Source Code Pro", monospace; fill: #404040;}/* The terminal boxes. */svg.railroad-diagram g.terminal rect { stroke-width: 2; stroke: #404040; fill: rgba(200, 200, 200, 1);}svg.railroad-diagram g.non-terminal rect { /* The non-terminal boxes. */ stroke-width: 2; stroke: #404040; fill: rgba(255, 255, 255, 1);}/* Multiple choice text, not working atm. */svg.railroad-diagram text.diagram-text { font-size: 12px Hack, "Source Code Pro", monospace; fill: red;}/* Multiple choice text, not working atm. */svg.railroad-diagram path.diagram-text { stroke-width: 1; stroke: red; fill: red; cursor: help;}
 ]]>
</style></defs></svg>