<?xml version="1.0" encoding="UTF-8" standalone="no"?>
<!DOCTYPE svg PUBLIC "-//W3C//DTD SVG 1.1//EN" "http://www.w3.org/Graphics/SVG/1.1/DTD/svg11.dtd">
<svg class="railroad-diagram" width="1023" height="208" viewBox="0 0 1023 208" id="explicitConstructorInvocation" xmlns="http://www.w3.org/2000/svg" xmlns:xlink="http://www.w3.org/1999/xlink"><g transform="translate(.5 .5)"><g><path d="M20 37v20m0 -10h20"></path></g><g><path d="M40 47h0"></path><path d="M983 47h0"></path><path d="M40 47h20"></path><g><path d="M60 47h112.25"></path><g><path d="M172.25 47h10"></path><path d="M840.75 47h10"></path><g><path d="M182.25 47h0"></path><path d="M352.75 47h0"></path><path d="M182.25 47a10 10 0 0 0 10 -10v-7a10 10 0 0 1 10 -10"></path><g><path d="M202.25 20h130.5"></path></g><path d="M332.75 20a10 10 0 0 1 10 10v7a10 10 0 0 0 10 10"></path><path d="M182.25 47h20"></path><g class="non-terminal "><path d="M202.25 47h0"></path><path d="M332.75 47h0"></path><rect x="202.25" y="36" width="130.5" height="22" rx="10" ry="10"></rect><text x="267.5" y="51">typeArguments</text></g><path d="M332.75 47h20"></path></g><g><path d="M352.75 47h0"></path><path d="M492.25 47h0"></path><path d="M352.75 47h20"></path><g><path d="M372.75 47h4.25"></path><g><path d="M377 47h10"></path><path d="M458 47h10"></path><g class="terminal "><path d="M387 47h0"></path><path d="M458 47h0"></path><rect x="387" y="36" width="71" height="22"></rect><text x="422.5" y="51">'this'</text></g></g><path d="M468 47h4.25"></path></g><path d="M472.25 47h20"></path><path d="M352.75 47a10 10 0 0 1 10 10v18a10 10 0 0 0 10 10"></path><g><path d="M372.75 85h0"></path><g><path d="M372.75 85h10"></path><path d="M462.25 85h10"></path><g class="terminal "><path d="M382.75 85h0"></path><path d="M462.25 85h0"></path><rect x="382.75" y="74" width="79.5" height="22"></rect><text x="422.5" y="89">'super'</text></g></g><path d="M472.25 85h0"></path></g><path d="M472.25 85a10 10 0 0 0 10 -10v-18a10 10 0 0 1 10 -10"></path></g><path d="M492.25 47h10"></path><g class="terminal "><path d="M502.25 47h0"></path><path d="M547.75 47h0"></path><rect x="502.25" y="36" width="45.5" height="22"></rect><text x="525" y="51">'('</text></g><path d="M547.75 47h10"></path><g><path d="M557.75 47h0"></path><path d="M719.75 47h0"></path><path d="M557.75 47a10 10 0 0 0 10 -10v-7a10 10 0 0 1 10 -10"></path><g><path d="M577.75 20h122"></path></g><path d="M699.75 20a10 10 0 0 1 10 10v7a10 10 0 0 0 10 10"></path><path d="M557.75 47h20"></path><g class="non-terminal "><path d="M577.75 47h0"></path><path d="M699.75 47h0"></path><rect x="577.75" y="36" width="122" height="22" rx="10" ry="10"></rect><text x="638.75" y="51">argumentList</text></g><path d="M699.75 47h20"></path></g><path d="M719.75 47h10"></path><g class="terminal "><path d="M729.75 47h0"></path><path d="M775.25 47h0"></path><rect x="729.75" y="36" width="45.5" height="22"></rect><text x="752.5" y="51">')'</text></g><path d="M775.25 47h10"></path><path d="M785.25 47h10"></path><g class="terminal "><path d="M795.25 47h0"></path><path d="M840.75 47h0"></path><rect x="795.25" y="36" width="45.5" height="22"></rect><text x="818" y="51">';'</text></g></g><path d="M850.75 47h112.25"></path></g><path d="M963 47h20"></path><path d="M40 47a10 10 0 0 1 10 10v72a10 10 0 0 0 10 10"></path><g><path d="M60 139h0"></path><g><path d="M60 139h10"></path><path d="M953 139h10"></path><g><path d="M70 139h0"></path><path d="M269 139h0"></path><path d="M70 139h20"></path><g><path d="M90 139h0"></path><g><path d="M90 139h10"></path><path d="M239 139h10"></path><g class="non-terminal "><path d="M100 139h0"></path><path d="M239 139h0"></path><rect x="100" y="128" width="139" height="22" rx="10" ry="10"></rect><text x="169.5" y="143">expressionName</text></g></g><path d="M249 139h0"></path></g><path d="M249 139h20"></path><path d="M70 139a10 10 0 0 1 10 10v18a10 10 0 0 0 10 10"></path><g><path d="M90 177h29.75"></path><g><path d="M119.75 177h10"></path><path d="M209.25 177h10"></path><g class="non-terminal "><path d="M129.75 177h0"></path><path d="M209.25 177h0"></path><rect x="129.75" y="166" width="79.5" height="22" rx="10" ry="10"></rect><text x="169.5" y="181">primary</text></g></g><path d="M219.25 177h29.75"></path></g><path d="M249 177a10 10 0 0 0 10 -10v-18a10 10 0 0 1 10 -10"></path></g><path d="M269 139h10"></path><g class="terminal "><path d="M279 139h0"></path><path d="M324.5 139h0"></path><rect x="279" y="128" width="45.5" height="22"></rect><text x="301.75" y="143">'.'</text></g><path d="M324.5 139h10"></path><g><path d="M334.5 139h0"></path><path d="M505 139h0"></path><path d="M334.5 139a10 10 0 0 0 10 -10v-7a10 10 0 0 1 10 -10"></path><g><path d="M354.5 112h130.5"></path></g><path d="M485 112a10 10 0 0 1 10 10v7a10 10 0 0 0 10 10"></path><path d="M334.5 139h20"></path><g class="non-terminal "><path d="M354.5 139h0"></path><path d="M485 139h0"></path><rect x="354.5" y="128" width="130.5" height="22" rx="10" ry="10"></rect><text x="419.75" y="143">typeArguments</text></g><path d="M485 139h20"></path></g><path d="M505 139h10"></path><g class="terminal "><path d="M515 139h0"></path><path d="M594.5 139h0"></path><rect x="515" y="128" width="79.5" height="22"></rect><text x="554.75" y="143">'super'</text></g><path d="M594.5 139h10"></path><path d="M604.5 139h10"></path><g class="terminal "><path d="M614.5 139h0"></path><path d="M660 139h0"></path><rect x="614.5" y="128" width="45.5" height="22"></rect><text x="637.25" y="143">'('</text></g><path d="M660 139h10"></path><g><path d="M670 139h0"></path><path d="M832 139h0"></path><path d="M670 139a10 10 0 0 0 10 -10v-7a10 10 0 0 1 10 -10"></path><g><path d="M690 112h122"></path></g><path d="M812 112a10 10 0 0 1 10 10v7a10 10 0 0 0 10 10"></path><path d="M670 139h20"></path><g class="non-terminal "><path d="M690 139h0"></path><path d="M812 139h0"></path><rect x="690" y="128" width="122" height="22" rx="10" ry="10"></rect><text x="751" y="143">argumentList</text></g><path d="M812 139h20"></path></g><path d="M832 139h10"></path><g class="terminal "><path d="M842 139h0"></path><path d="M887.5 139h0"></path><rect x="842" y="128" width="45.5" height="22"></rect><text x="864.75" y="143">')'</text></g><path d="M887.5 139h10"></path><path d="M897.5 139h10"></path><g class="terminal "><path d="M907.5 139h0"></path><path d="M953 139h0"></path><rect x="907.5" y="128" width="45.5" height="22"></rect><text x="930.25" y="143">';'</text></g></g><path d="M963 139h0"></path></g><path d="M963 139a10 10 0 0 0 10 -10v-72a10 10 0 0 1 10 -10"></path></g><path d="M 983 47 h 20 m 0 -10 v 20"></path></g><defs><style type="text/css"><![CDATA[
svg.railroad-diagram path { stroke-width: 2; stroke: darkgray; fill: rgba(0, 0, 0, 0);}/* All text except comments. */svg.railroad-diagram text { font: bold 12px Hack, "Source Code Pro", monospace; text-anchor: middle; fill: #404040;}/* Comment text */svg.railroad-diagram text.comment { font: italic 10px Hack, "Source Code Pro", monospace; fill: #404040;}/* The terminal boxes. */svg.railroad-diagram g.terminal rect { stroke-width: 2; stroke: #404040; fill: rgba(200, 200, 200, 1);}svg.railroad-diagram g.non-terminal rect { /* The non-terminal boxes. */ stroke-width: 2; stroke: #404040; fill: rgba(255, 255, 255, 1);}/* Multiple choice text, not working atm. */svg.railroad-diagram text.diagram-text { font-size: 12px Hack, "Source Code Pro", monospace; fill: red;}/* Multiple choice text, not working atm. */svg.railroad-diagram path.diagram-text { stroke-width: 1; stroke: red; fill: red; cursor: help;}
 ]]>
</style></defs></svg>