<?xml version="1.0" encoding="UTF-8" standalone="no"?>
<!DOCTYPE svg PUBLIC "-//W3C//DTD SVG 1.1//EN" "http://www.w3.org/Graphics/SVG/1.1/DTD/svg11.dtd">
<svg class="railroad-diagram" width="583.5" height="138" viewBox="0 0 583.5 138" id="fieldAccess" xmlns="http://www.w3.org/2000/svg" xmlns:xlink="http://www.w3.org/1999/xlink"><g transform="translate(.5 .5)"><g><path d="M20 21v20m0 -10h20"></path></g><g><path d="M40 31h0"></path><path d="M543.5 31h0"></path><path d="M40 31h20"></path><g><path d="M60 31h86.75"></path><g><path d="M146.75 31h10"></path><path d="M426.75 31h10"></path><g class="non-terminal "><path d="M156.75 31h0"></path><path d="M236.25 31h0"></path><rect x="156.75" y="20" width="79.5" height="22" rx="10" ry="10"></rect><text x="196.5" y="35">primary</text></g><path d="M236.25 31h10"></path><path d="M246.25 31h10"></path><g class="terminal "><path d="M256.25 31h0"></path><path d="M301.75 31h0"></path><rect x="256.25" y="20" width="45.5" height="22"></rect><text x="279" y="35">'.'</text></g><path d="M301.75 31h10"></path><path d="M311.75 31h10"></path><g class="non-terminal "><path d="M321.75 31h0"></path><path d="M426.75 31h0"></path><rect x="321.75" y="20" width="105" height="22" rx="10" ry="10"></rect><text x="374.25" y="35">identifier</text></g></g><path d="M436.75 31h86.75"></path></g><path d="M523.5 31h20"></path><path d="M40 31a10 10 0 0 1 10 10v18a10 10 0 0 0 10 10"></path><g><path d="M60 69h86.75"></path><g><path d="M146.75 69h10"></path><path d="M426.75 69h10"></path><g class="terminal "><path d="M156.75 69h0"></path><path d="M236.25 69h0"></path><rect x="156.75" y="58" width="79.5" height="22"></rect><text x="196.5" y="73">'super'</text></g><path d="M236.25 69h10"></path><path d="M246.25 69h10"></path><g class="terminal "><path d="M256.25 69h0"></path><path d="M301.75 69h0"></path><rect x="256.25" y="58" width="45.5" height="22"></rect><text x="279" y="73">'.'</text></g><path d="M301.75 69h10"></path><path d="M311.75 69h10"></path><g class="non-terminal "><path d="M321.75 69h0"></path><path d="M426.75 69h0"></path><rect x="321.75" y="58" width="105" height="22" rx="10" ry="10"></rect><text x="374.25" y="73">identifier</text></g></g><path d="M436.75 69h86.75"></path></g><path d="M523.5 69a10 10 0 0 0 10 -10v-18a10 10 0 0 1 10 -10"></path><path d="M40 31a10 10 0 0 1 10 10v56a10 10 0 0 0 10 10"></path><g><path d="M60 107h0"></path><g><path d="M60 107h10"></path><path d="M513.5 107h10"></path><g class="non-terminal "><path d="M70 107h0"></path><path d="M158 107h0"></path><rect x="70" y="96" width="88" height="22" rx="10" ry="10"></rect><text x="114" y="111">typeName</text></g><path d="M158 107h10"></path><path d="M168 107h10"></path><g class="terminal "><path d="M178 107h0"></path><path d="M223.5 107h0"></path><rect x="178" y="96" width="45.5" height="22"></rect><text x="200.75" y="111">'.'</text></g><path d="M223.5 107h10"></path><path d="M233.5 107h10"></path><g class="terminal "><path d="M243.5 107h0"></path><path d="M323 107h0"></path><rect x="243.5" y="96" width="79.5" height="22"></rect><text x="283.25" y="111">'super'</text></g><path d="M323 107h10"></path><path d="M333 107h10"></path><g class="terminal "><path d="M343 107h0"></path><path d="M388.5 107h0"></path><rect x="343" y="96" width="45.5" height="22"></rect><text x="365.75" y="111">'.'</text></g><path d="M388.5 107h10"></path><path d="M398.5 107h10"></path><g class="non-terminal "><path d="M408.5 107h0"></path><path d="M513.5 107h0"></path><rect x="408.5" y="96" width="105" height="22" rx="10" ry="10"></rect><text x="461" y="111">identifier</text></g></g><path d="M523.5 107h0"></path></g><path d="M523.5 107a10 10 0 0 0 10 -10v-56a10 10 0 0 1 10 -10"></path></g><path d="M 543.5 31 h 20 m 0 -10 v 20"></path></g><defs><style type="text/css"><![CDATA[
svg.railroad-diagram path { stroke-width: 2; stroke: darkgray; fill: rgba(0, 0, 0, 0);}/* All text except comments. */svg.railroad-diagram text { font: bold 12px Hack, "Source Code Pro", monospace; text-anchor: middle; fill: #404040;}/* Comment text */svg.railroad-diagram text.comment { font: italic 10px Hack, "Source Code Pro", monospace; fill: #404040;}/* The terminal boxes. */svg.railroad-diagram g.terminal rect { stroke-width: 2; stroke: #404040; fill: rgba(200, 200, 200, 1);}svg.railroad-diagram g.non-terminal rect { /* The non-terminal boxes. */ stroke-width: 2; stroke: #404040; fill: rgba(255, 255, 255, 1);}/* Multiple choice text, not working atm. */svg.railroad-diagram text.diagram-text { font-size: 12px Hack, "Source Code Pro", monospace; fill: red;}/* Multiple choice text, not working atm. */svg.railroad-diagram path.diagram-text { stroke-width: 1; stroke: red; fill: red; cursor: help;}
 ]]>
</style></defs></svg>