<?xml version="1.0" encoding="UTF-8" standalone="no"?>
<!DOCTYPE svg PUBLIC "-//W3C//DTD SVG 1.1//EN" "http://www.w3.org/Graphics/SVG/1.1/DTD/svg11.dtd">
<svg class="railroad-diagram" width="850.5" height="62" viewBox="0 0 850.5 62" id="ifThenElseStatement" xmlns="http://www.w3.org/2000/svg" xmlns:xlink="http://www.w3.org/1999/xlink"><g transform="translate(.5 .5)"><g><path d="M20 21v20m0 -10h20"></path></g><g><path d="M40 31h0"></path><path d="M810.5 31h0"></path><path d="M40 31h20"></path><g><path d="M60 31h0"></path><g><path d="M60 31h10"></path><path d="M780.5 31h10"></path><g class="terminal "><path d="M70 31h0"></path><path d="M124 31h0"></path><rect x="70" y="20" width="54" height="22"></rect><text x="97" y="35">'if'</text></g><path d="M124 31h10"></path><path d="M134 31h10"></path><g class="terminal "><path d="M144 31h0"></path><path d="M189.5 31h0"></path><rect x="144" y="20" width="45.5" height="22"></rect><text x="166.75" y="35">'('</text></g><path d="M189.5 31h10"></path><path d="M199.5 31h10"></path><g class="non-terminal "><path d="M209.5 31h0"></path><path d="M314.5 31h0"></path><rect x="209.5" y="20" width="105" height="22" rx="10" ry="10"></rect><text x="262" y="35">expression</text></g><path d="M314.5 31h10"></path><path d="M324.5 31h10"></path><g class="terminal "><path d="M334.5 31h0"></path><path d="M380 31h0"></path><rect x="334.5" y="20" width="45.5" height="22"></rect><text x="357.25" y="35">')'</text></g><path d="M380 31h10"></path><path d="M390 31h10"></path><g class="non-terminal "><path d="M400 31h0"></path><path d="M573 31h0"></path><rect x="400" y="20" width="173" height="22" rx="10" ry="10"></rect><text x="486.5" y="35">statementNoShortIf</text></g><path d="M573 31h10"></path><path d="M583 31h10"></path><g class="terminal "><path d="M593 31h0"></path><path d="M664 31h0"></path><rect x="593" y="20" width="71" height="22"></rect><text x="628.5" y="35">'else'</text></g><path d="M664 31h10"></path><path d="M674 31h10"></path><g class="non-terminal "><path d="M684 31h0"></path><path d="M780.5 31h0"></path><rect x="684" y="20" width="96.5" height="22" rx="10" ry="10"></rect><text x="732.25" y="35">statement</text></g></g><path d="M790.5 31h0"></path></g><path d="M790.5 31h20"></path></g><path d="M 810.5 31 h 20 m 0 -10 v 20"></path></g><defs><style type="text/css"><![CDATA[
svg.railroad-diagram path { stroke-width: 2; stroke: darkgray; fill: rgba(0, 0, 0, 0);}/* All text except comments. */svg.railroad-diagram text { font: bold 12px Hack, "Source Code Pro", monospace; text-anchor: middle; fill: #404040;}/* Comment text */svg.railroad-diagram text.comment { font: italic 10px Hack, "Source Code Pro", monospace; fill: #404040;}/* The terminal boxes. */svg.railroad-diagram g.terminal rect { stroke-width: 2; stroke: #404040; fill: rgba(200, 200, 200, 1);}svg.railroad-diagram g.non-terminal rect { /* The non-terminal boxes. */ stroke-width: 2; stroke: #404040; fill: rgba(255, 255, 255, 1);}/* Multiple choice text, not working atm. */svg.railroad-diagram text.diagram-text { font-size: 12px Hack, "Source Code Pro", monospace; fill: red;}/* Multiple choice text, not working atm. */svg.railroad-diagram path.diagram-text { stroke-width: 1; stroke: red; fill: red; cursor: help;}
 ]]>
</style></defs></svg>