<?xml version="1.0" encoding="UTF-8" standalone="no"?>
<!DOCTYPE svg PUBLIC "-//W3C//DTD SVG 1.1//EN" "http://www.w3.org/Graphics/SVG/1.1/DTD/svg11.dtd">
<svg class="railroad-diagram" width="622.5" height="100" viewBox="0 0 622.5 100" id="inclusiveOrExpression" xmlns="http://www.w3.org/2000/svg" xmlns:xlink="http://www.w3.org/1999/xlink"><g transform="translate(.5 .5)"><g><path d="M20 21v20m0 -10h20"></path></g><g><path d="M40 31h0"></path><path d="M582.5 31h0"></path><path d="M40 31h20"></path><g><path d="M60 31h142"></path><g><path d="M202 31h10"></path><path d="M410.5 31h10"></path><g class="non-terminal "><path d="M212 31h0"></path><path d="M410.5 31h0"></path><rect x="212" y="20" width="198.5" height="22" rx="10" ry="10"></rect><text x="311.25" y="35">exclusiveOrExpression</text></g></g><path d="M420.5 31h142"></path></g><path d="M562.5 31h20"></path><path d="M40 31a10 10 0 0 1 10 10v18a10 10 0 0 0 10 10"></path><g><path d="M60 69h0"></path><g><path d="M60 69h10"></path><path d="M552.5 69h10"></path><g class="non-terminal "><path d="M70 69h0"></path><path d="M268.5 69h0"></path><rect x="70" y="58" width="198.5" height="22" rx="10" ry="10"></rect><text x="169.25" y="73">inclusiveOrExpression</text></g><path d="M268.5 69h10"></path><path d="M278.5 69h10"></path><g class="terminal "><path d="M288.5 69h0"></path><path d="M334 69h0"></path><rect x="288.5" y="58" width="45.5" height="22"></rect><text x="311.25" y="73">'|'</text></g><path d="M334 69h10"></path><path d="M344 69h10"></path><g class="non-terminal "><path d="M354 69h0"></path><path d="M552.5 69h0"></path><rect x="354" y="58" width="198.5" height="22" rx="10" ry="10"></rect><text x="453.25" y="73">exclusiveOrExpression</text></g></g><path d="M562.5 69h0"></path></g><path d="M562.5 69a10 10 0 0 0 10 -10v-18a10 10 0 0 1 10 -10"></path></g><path d="M 582.5 31 h 20 m 0 -10 v 20"></path></g><defs><style type="text/css"><![CDATA[
svg.railroad-diagram path { stroke-width: 2; stroke: darkgray; fill: rgba(0, 0, 0, 0);}/* All text except comments. */svg.railroad-diagram text { font: bold 12px Hack, "Source Code Pro", monospace; text-anchor: middle; fill: #404040;}/* Comment text */svg.railroad-diagram text.comment { font: italic 10px Hack, "Source Code Pro", monospace; fill: #404040;}/* The terminal boxes. */svg.railroad-diagram g.terminal rect { stroke-width: 2; stroke: #404040; fill: rgba(200, 200, 200, 1);}svg.railroad-diagram g.non-terminal rect { /* The non-terminal boxes. */ stroke-width: 2; stroke: #404040; fill: rgba(255, 255, 255, 1);}/* Multiple choice text, not working atm. */svg.railroad-diagram text.diagram-text { font-size: 12px Hack, "Source Code Pro", monospace; fill: red;}/* Multiple choice text, not working atm. */svg.railroad-diagram path.diagram-text { stroke-width: 1; stroke: red; fill: red; cursor: help;}
 ]]>
</style></defs></svg>