<?xml version="1.0" encoding="UTF-8" standalone="no"?>
<!DOCTYPE svg PUBLIC "-//W3C//DTD SVG 1.1//EN" "http://www.w3.org/Graphics/SVG/1.1/DTD/svg11.dtd">
<svg class="railroad-diagram" width="381" height="214" viewBox="0 0 381 214" id="interfaceMemberDeclaration" xmlns="http://www.w3.org/2000/svg" xmlns:xlink="http://www.w3.org/1999/xlink"><g transform="translate(.5 .5)"><g><path d="M20 21v20m0 -10h20"></path></g><g><path d="M40 31h0"></path><path d="M341 31h0"></path><path d="M40 31h20"></path><g><path d="M60 31h29.75"></path><g><path d="M89.75 31h10"></path><path d="M281.25 31h10"></path><g class="non-terminal "><path d="M99.75 31h0"></path><path d="M281.25 31h0"></path><rect x="99.75" y="20" width="181.5" height="22" rx="10" ry="10"></rect><text x="190.5" y="35">constantDeclaration</text></g></g><path d="M291.25 31h29.75"></path></g><path d="M321 31h20"></path><path d="M40 31a10 10 0 0 1 10 10v18a10 10 0 0 0 10 10"></path><g><path d="M60 69h0"></path><g><path d="M60 69h10"></path><path d="M311 69h10"></path><g class="non-terminal "><path d="M70 69h0"></path><path d="M311 69h0"></path><rect x="70" y="58" width="241" height="22" rx="10" ry="10"></rect><text x="190.5" y="73">interfaceMethodDeclaration</text></g></g><path d="M321 69h0"></path></g><path d="M321 69a10 10 0 0 0 10 -10v-18a10 10 0 0 1 10 -10"></path><path d="M40 31a10 10 0 0 1 10 10v56a10 10 0 0 0 10 10"></path><g><path d="M60 107h42.5"></path><g><path d="M102.5 107h10"></path><path d="M268.5 107h10"></path><g class="non-terminal "><path d="M112.5 107h0"></path><path d="M268.5 107h0"></path><rect x="112.5" y="96" width="156" height="22" rx="10" ry="10"></rect><text x="190.5" y="111">classDeclaration</text></g></g><path d="M278.5 107h42.5"></path></g><path d="M321 107a10 10 0 0 0 10 -10v-56a10 10 0 0 1 10 -10"></path><path d="M40 31a10 10 0 0 1 10 10v94a10 10 0 0 0 10 10"></path><g><path d="M60 145h25.5"></path><g><path d="M85.5 145h10"></path><path d="M285.5 145h10"></path><g class="non-terminal "><path d="M95.5 145h0"></path><path d="M285.5 145h0"></path><rect x="95.5" y="134" width="190" height="22" rx="10" ry="10"></rect><text x="190.5" y="149">interfaceDeclaration</text></g></g><path d="M295.5 145h25.5"></path></g><path d="M321 145a10 10 0 0 0 10 -10v-94a10 10 0 0 1 10 -10"></path><path d="M40 31a10 10 0 0 1 10 10v132a10 10 0 0 0 10 10"></path><g><path d="M60 183h97.75"></path><g><path d="M157.75 183h10"></path><path d="M213.25 183h10"></path><g class="terminal "><path d="M167.75 183h0"></path><path d="M213.25 183h0"></path><rect x="167.75" y="172" width="45.5" height="22"></rect><text x="190.5" y="187">';'</text></g></g><path d="M223.25 183h97.75"></path></g><path d="M321 183a10 10 0 0 0 10 -10v-132a10 10 0 0 1 10 -10"></path></g><path d="M 341 31 h 20 m 0 -10 v 20"></path></g><defs><style type="text/css"><![CDATA[
svg.railroad-diagram path { stroke-width: 2; stroke: darkgray; fill: rgba(0, 0, 0, 0);}/* All text except comments. */svg.railroad-diagram text { font: bold 12px Hack, "Source Code Pro", monospace; text-anchor: middle; fill: #404040;}/* Comment text */svg.railroad-diagram text.comment { font: italic 10px Hack, "Source Code Pro", monospace; fill: #404040;}/* The terminal boxes. */svg.railroad-diagram g.terminal rect { stroke-width: 2; stroke: #404040; fill: rgba(200, 200, 200, 1);}svg.railroad-diagram g.non-terminal rect { /* The non-terminal boxes. */ stroke-width: 2; stroke: #404040; fill: rgba(255, 255, 255, 1);}/* Multiple choice text, not working atm. */svg.railroad-diagram text.diagram-text { font-size: 12px Hack, "Source Code Pro", monospace; fill: red;}/* Multiple choice text, not working atm. */svg.railroad-diagram path.diagram-text { stroke-width: 1; stroke: red; fill: red; cursor: help;}
 ]]>
</style></defs></svg>