<?xml version="1.0" encoding="UTF-8" standalone="no"?>
<!DOCTYPE svg PUBLIC "-//W3C//DTD SVG 1.1//EN" "http://www.w3.org/Graphics/SVG/1.1/DTD/svg11.dtd">
<svg class="railroad-diagram" width="630.5" height="164" viewBox="0 0 630.5 164" id="lambdaParameterList" xmlns="http://www.w3.org/2000/svg" xmlns:xlink="http://www.w3.org/1999/xlink"><g transform="translate(.5 .5)"><g><path d="M20 37v20m0 -10h20"></path></g><g><path d="M40 47h0"></path><path d="M590.5 47h0"></path><path d="M40 47h20"></path><g><path d="M60 47h0"></path><g><path d="M60 47h10"></path><path d="M560.5 47h10"></path><g class="non-terminal "><path d="M70 47h0"></path><path d="M217.5 47h0"></path><rect x="70" y="36" width="147.5" height="22" rx="10" ry="10"></rect><text x="143.75" y="51">lambdaParameter</text></g><path d="M217.5 47h10"></path><g><path d="M227.5 47h0"></path><path d="M560.5 47h0"></path><path d="M227.5 47a10 10 0 0 0 10 -10v-7a10 10 0 0 1 10 -10"></path><g><path d="M247.5 20h293"></path></g><path d="M540.5 20a10 10 0 0 1 10 10v7a10 10 0 0 0 10 10"></path><path d="M227.5 47h20"></path><g><path d="M247.5 47h0"></path><path d="M540.5 47h0"></path><path d="M247.5 47h10"></path><g><path d="M257.5 47h0"></path><path d="M530.5 47h0"></path><path d="M257.5 47h20"></path><g><path d="M277.5 47h0"></path><g><path d="M277.5 47h10"></path><path d="M500.5 47h10"></path><g class="terminal "><path d="M287.5 47h0"></path><path d="M333 47h0"></path><rect x="287.5" y="36" width="45.5" height="22"></rect><text x="310.25" y="51">','</text></g><path d="M333 47h10"></path><path d="M343 47h10"></path><g class="non-terminal "><path d="M353 47h0"></path><path d="M500.5 47h0"></path><rect x="353" y="36" width="147.5" height="22" rx="10" ry="10"></rect><text x="426.75" y="51">lambdaParameter</text></g></g><path d="M510.5 47h0"></path></g><path d="M510.5 47h20"></path></g><path d="M530.5 47h10"></path><path d="M257.5 47a10 10 0 0 0 -10 10v7a10 10 0 0 0 10 10"></path><g><path d="M257.5 74h273"></path></g><path d="M530.5 74a10 10 0 0 0 10 -10v-7a10 10 0 0 0 -10 -10"></path></g><path d="M540.5 47h20"></path></g></g><path d="M570.5 47h0"></path></g><path d="M570.5 47h20"></path><path d="M40 47a10 10 0 0 1 10 10v50a10 10 0 0 0 10 10"></path><g><path d="M60 117h42.5"></path><g><path d="M102.5 117h10"></path><path d="M518 117h10"></path><g class="non-terminal "><path d="M112.5 117h0"></path><path d="M217.5 117h0"></path><rect x="112.5" y="106" width="105" height="22" rx="10" ry="10"></rect><text x="165" y="121">identifier</text></g><path d="M217.5 117h10"></path><g><path d="M227.5 117h0"></path><path d="M518 117h0"></path><path d="M227.5 117a10 10 0 0 0 10 -10v-7a10 10 0 0 1 10 -10"></path><g><path d="M247.5 90h250.5"></path></g><path d="M498 90a10 10 0 0 1 10 10v7a10 10 0 0 0 10 10"></path><path d="M227.5 117h20"></path><g><path d="M247.5 117h0"></path><path d="M498 117h0"></path><path d="M247.5 117h10"></path><g><path d="M257.5 117h0"></path><path d="M488 117h0"></path><path d="M257.5 117h20"></path><g><path d="M277.5 117h0"></path><g><path d="M277.5 117h10"></path><path d="M458 117h10"></path><g class="terminal "><path d="M287.5 117h0"></path><path d="M333 117h0"></path><rect x="287.5" y="106" width="45.5" height="22"></rect><text x="310.25" y="121">','</text></g><path d="M333 117h10"></path><path d="M343 117h10"></path><g class="non-terminal "><path d="M353 117h0"></path><path d="M458 117h0"></path><rect x="353" y="106" width="105" height="22" rx="10" ry="10"></rect><text x="405.5" y="121">identifier</text></g></g><path d="M468 117h0"></path></g><path d="M468 117h20"></path></g><path d="M488 117h10"></path><path d="M257.5 117a10 10 0 0 0 -10 10v7a10 10 0 0 0 10 10"></path><g><path d="M257.5 144h230.5"></path></g><path d="M488 144a10 10 0 0 0 10 -10v-7a10 10 0 0 0 -10 -10"></path></g><path d="M498 117h20"></path></g></g><path d="M528 117h42.5"></path></g><path d="M570.5 117a10 10 0 0 0 10 -10v-50a10 10 0 0 1 10 -10"></path></g><path d="M 590.5 47 h 20 m 0 -10 v 20"></path></g><defs><style type="text/css"><![CDATA[
svg.railroad-diagram path { stroke-width: 2; stroke: darkgray; fill: rgba(0, 0, 0, 0);}/* All text except comments. */svg.railroad-diagram text { font: bold 12px Hack, "Source Code Pro", monospace; text-anchor: middle; fill: #404040;}/* Comment text */svg.railroad-diagram text.comment { font: italic 10px Hack, "Source Code Pro", monospace; fill: #404040;}/* The terminal boxes. */svg.railroad-diagram g.terminal rect { stroke-width: 2; stroke: #404040; fill: rgba(200, 200, 200, 1);}svg.railroad-diagram g.non-terminal rect { /* The non-terminal boxes. */ stroke-width: 2; stroke: #404040; fill: rgba(255, 255, 255, 1);}/* Multiple choice text, not working atm. */svg.railroad-diagram text.diagram-text { font-size: 12px Hack, "Source Code Pro", monospace; fill: red;}/* Multiple choice text, not working atm. */svg.railroad-diagram path.diagram-text { stroke-width: 1; stroke: red; fill: red; cursor: help;}
 ]]>
</style></defs></svg>