<?xml version="1.0" encoding="UTF-8" standalone="no"?>
<!DOCTYPE svg PUBLIC "-//W3C//DTD SVG 1.1//EN" "http://www.w3.org/Graphics/SVG/1.1/DTD/svg11.dtd">
<svg class="railroad-diagram" width="787.5" height="94" viewBox="0 0 787.5 94" id="localVariableDeclaration" xmlns="http://www.w3.org/2000/svg" xmlns:xlink="http://www.w3.org/1999/xlink"><g transform="translate(.5 .5)"><g><path d="M20 37v20m0 -10h20"></path></g><g><path d="M40 47h0"></path><path d="M747.5 47h0"></path><path d="M40 47h20"></path><g><path d="M60 47h0"></path><g><path d="M60 47h10"></path><path d="M717.5 47h10"></path><g><path d="M70 47h0"></path><path d="M286 47h0"></path><path d="M70 47a10 10 0 0 0 10 -10v-7a10 10 0 0 1 10 -10"></path><g><path d="M90 20h176"></path></g><path d="M266 20a10 10 0 0 1 10 10v7a10 10 0 0 0 10 10"></path><path d="M70 47h20"></path><g><path d="M90 47h0"></path><path d="M266 47h0"></path><path d="M90 47h10"></path><g class="non-terminal "><path d="M100 47h0"></path><path d="M256 47h0"></path><rect x="100" y="36" width="156" height="22" rx="10" ry="10"></rect><text x="178" y="51">variableModifier</text></g><path d="M256 47h10"></path><path d="M100 47a10 10 0 0 0 -10 10v7a10 10 0 0 0 10 10"></path><g><path d="M100 74h156"></path></g><path d="M256 74a10 10 0 0 0 10 -10v-7a10 10 0 0 0 -10 -10"></path></g><path d="M266 47h20"></path></g><path d="M286 47h10"></path><g class="non-terminal "><path d="M296 47h0"></path><path d="M460.5 47h0"></path><rect x="296" y="36" width="164.5" height="22" rx="10" ry="10"></rect><text x="378.25" y="51">localVariableType</text></g><path d="M460.5 47h10"></path><g><path d="M470.5 47h0"></path><path d="M717.5 47h0"></path><path d="M470.5 47a10 10 0 0 0 10 -10v-7a10 10 0 0 1 10 -10"></path><g><path d="M490.5 20h207"></path></g><path d="M697.5 20a10 10 0 0 1 10 10v7a10 10 0 0 0 10 10"></path><path d="M470.5 47h20"></path><g class="non-terminal "><path d="M490.5 47h0"></path><path d="M697.5 47h0"></path><rect x="490.5" y="36" width="207" height="22" rx="10" ry="10"></rect><text x="594" y="51">variableDeclaratorList</text></g><path d="M697.5 47h20"></path></g></g><path d="M727.5 47h0"></path></g><path d="M727.5 47h20"></path></g><path d="M 747.5 47 h 20 m 0 -10 v 20"></path></g><defs><style type="text/css"><![CDATA[
svg.railroad-diagram path { stroke-width: 2; stroke: darkgray; fill: rgba(0, 0, 0, 0);}/* All text except comments. */svg.railroad-diagram text { font: bold 12px Hack, "Source Code Pro", monospace; text-anchor: middle; fill: #404040;}/* Comment text */svg.railroad-diagram text.comment { font: italic 10px Hack, "Source Code Pro", monospace; fill: #404040;}/* The terminal boxes. */svg.railroad-diagram g.terminal rect { stroke-width: 2; stroke: #404040; fill: rgba(200, 200, 200, 1);}svg.railroad-diagram g.non-terminal rect { /* The non-terminal boxes. */ stroke-width: 2; stroke: #404040; fill: rgba(255, 255, 255, 1);}/* Multiple choice text, not working atm. */svg.railroad-diagram text.diagram-text { font-size: 12px Hack, "Source Code Pro", monospace; fill: red;}/* Multiple choice text, not working atm. */svg.railroad-diagram path.diagram-text { stroke-width: 1; stroke: red; fill: red; cursor: help;}
 ]]>
</style></defs></svg>