<?xml version="1.0" encoding="UTF-8" standalone="no"?>
<!DOCTYPE svg PUBLIC "-//W3C//DTD SVG 1.1//EN" "http://www.w3.org/Graphics/SVG/1.1/DTD/svg11.dtd">
<svg class="railroad-diagram" width="1047" height="348" viewBox="0 0 1047 348" id="methodInvocation" xmlns="http://www.w3.org/2000/svg" xmlns:xlink="http://www.w3.org/1999/xlink"><g transform="translate(.5 .5)"><g><path d="M20 37v20m0 -10h20"></path></g><g><path d="M40 47h0"></path><path d="M1007 47h0"></path><path d="M40 47h20"></path><g><path d="M60 47h254.5"></path><g><path d="M314.5 47h10"></path><path d="M722.5 47h10"></path><g class="non-terminal "><path d="M324.5 47h0"></path><path d="M429.5 47h0"></path><rect x="324.5" y="36" width="105" height="22" rx="10" ry="10"></rect><text x="377" y="51">methodName</text></g><path d="M429.5 47h10"></path><path d="M439.5 47h10"></path><g class="terminal "><path d="M449.5 47h0"></path><path d="M495 47h0"></path><rect x="449.5" y="36" width="45.5" height="22"></rect><text x="472.25" y="51">'('</text></g><path d="M495 47h10"></path><g><path d="M505 47h0"></path><path d="M667 47h0"></path><path d="M505 47a10 10 0 0 0 10 -10v-7a10 10 0 0 1 10 -10"></path><g><path d="M525 20h122"></path></g><path d="M647 20a10 10 0 0 1 10 10v7a10 10 0 0 0 10 10"></path><path d="M505 47h20"></path><g class="non-terminal "><path d="M525 47h0"></path><path d="M647 47h0"></path><rect x="525" y="36" width="122" height="22" rx="10" ry="10"></rect><text x="586" y="51">argumentList</text></g><path d="M647 47h20"></path></g><path d="M667 47h10"></path><g class="terminal "><path d="M677 47h0"></path><path d="M722.5 47h0"></path><rect x="677" y="36" width="45.5" height="22"></rect><text x="699.75" y="51">')'</text></g></g><path d="M732.5 47h254.5"></path></g><path d="M987 47h20"></path><path d="M40 47a10 10 0 0 1 10 10v34a10 10 0 0 0 10 10"></path><g><path d="M60 101h82.5"></path><g><path d="M142.5 101h10"></path><path d="M894.5 101h10"></path><g class="non-terminal "><path d="M152.5 101h0"></path><path d="M240.5 101h0"></path><rect x="152.5" y="90" width="88" height="22" rx="10" ry="10"></rect><text x="196.5" y="105">typeName</text></g><path d="M240.5 101h10"></path><path d="M250.5 101h10"></path><g class="terminal "><path d="M260.5 101h0"></path><path d="M306 101h0"></path><rect x="260.5" y="90" width="45.5" height="22"></rect><text x="283.25" y="105">'.'</text></g><path d="M306 101h10"></path><g><path d="M316 101h0"></path><path d="M486.5 101h0"></path><path d="M316 101a10 10 0 0 0 10 -10v-7a10 10 0 0 1 10 -10"></path><g><path d="M336 74h130.5"></path></g><path d="M466.5 74a10 10 0 0 1 10 10v7a10 10 0 0 0 10 10"></path><path d="M316 101h20"></path><g class="non-terminal "><path d="M336 101h0"></path><path d="M466.5 101h0"></path><rect x="336" y="90" width="130.5" height="22" rx="10" ry="10"></rect><text x="401.25" y="105">typeArguments</text></g><path d="M466.5 101h20"></path></g><path d="M486.5 101h10"></path><g class="non-terminal "><path d="M496.5 101h0"></path><path d="M601.5 101h0"></path><rect x="496.5" y="90" width="105" height="22" rx="10" ry="10"></rect><text x="549" y="105">identifier</text></g><path d="M601.5 101h10"></path><path d="M611.5 101h10"></path><g class="terminal "><path d="M621.5 101h0"></path><path d="M667 101h0"></path><rect x="621.5" y="90" width="45.5" height="22"></rect><text x="644.25" y="105">'('</text></g><path d="M667 101h10"></path><g><path d="M677 101h0"></path><path d="M839 101h0"></path><path d="M677 101a10 10 0 0 0 10 -10v-7a10 10 0 0 1 10 -10"></path><g><path d="M697 74h122"></path></g><path d="M819 74a10 10 0 0 1 10 10v7a10 10 0 0 0 10 10"></path><path d="M677 101h20"></path><g class="non-terminal "><path d="M697 101h0"></path><path d="M819 101h0"></path><rect x="697" y="90" width="122" height="22" rx="10" ry="10"></rect><text x="758" y="105">argumentList</text></g><path d="M819 101h20"></path></g><path d="M839 101h10"></path><g class="terminal "><path d="M849 101h0"></path><path d="M894.5 101h0"></path><rect x="849" y="90" width="45.5" height="22"></rect><text x="871.75" y="105">')'</text></g></g><path d="M904.5 101h82.5"></path></g><path d="M987 101a10 10 0 0 0 10 -10v-34a10 10 0 0 1 10 -10"></path><path d="M40 47a10 10 0 0 1 10 10v88a10 10 0 0 0 10 10"></path><g><path d="M60 155h57"></path><g><path d="M117 155h10"></path><path d="M920 155h10"></path><g class="non-terminal "><path d="M127 155h0"></path><path d="M266 155h0"></path><rect x="127" y="144" width="139" height="22" rx="10" ry="10"></rect><text x="196.5" y="159">expressionName</text></g><path d="M266 155h10"></path><path d="M276 155h10"></path><g class="terminal "><path d="M286 155h0"></path><path d="M331.5 155h0"></path><rect x="286" y="144" width="45.5" height="22"></rect><text x="308.75" y="159">'.'</text></g><path d="M331.5 155h10"></path><g><path d="M341.5 155h0"></path><path d="M512 155h0"></path><path d="M341.5 155a10 10 0 0 0 10 -10v-7a10 10 0 0 1 10 -10"></path><g><path d="M361.5 128h130.5"></path></g><path d="M492 128a10 10 0 0 1 10 10v7a10 10 0 0 0 10 10"></path><path d="M341.5 155h20"></path><g class="non-terminal "><path d="M361.5 155h0"></path><path d="M492 155h0"></path><rect x="361.5" y="144" width="130.5" height="22" rx="10" ry="10"></rect><text x="426.75" y="159">typeArguments</text></g><path d="M492 155h20"></path></g><path d="M512 155h10"></path><g class="non-terminal "><path d="M522 155h0"></path><path d="M627 155h0"></path><rect x="522" y="144" width="105" height="22" rx="10" ry="10"></rect><text x="574.5" y="159">identifier</text></g><path d="M627 155h10"></path><path d="M637 155h10"></path><g class="terminal "><path d="M647 155h0"></path><path d="M692.5 155h0"></path><rect x="647" y="144" width="45.5" height="22"></rect><text x="669.75" y="159">'('</text></g><path d="M692.5 155h10"></path><g><path d="M702.5 155h0"></path><path d="M864.5 155h0"></path><path d="M702.5 155a10 10 0 0 0 10 -10v-7a10 10 0 0 1 10 -10"></path><g><path d="M722.5 128h122"></path></g><path d="M844.5 128a10 10 0 0 1 10 10v7a10 10 0 0 0 10 10"></path><path d="M702.5 155h20"></path><g class="non-terminal "><path d="M722.5 155h0"></path><path d="M844.5 155h0"></path><rect x="722.5" y="144" width="122" height="22" rx="10" ry="10"></rect><text x="783.5" y="159">argumentList</text></g><path d="M844.5 155h20"></path></g><path d="M864.5 155h10"></path><g class="terminal "><path d="M874.5 155h0"></path><path d="M920 155h0"></path><rect x="874.5" y="144" width="45.5" height="22"></rect><text x="897.25" y="159">')'</text></g></g><path d="M930 155h57"></path></g><path d="M987 155a10 10 0 0 0 10 -10v-88a10 10 0 0 1 10 -10"></path><path d="M40 47a10 10 0 0 1 10 10v142a10 10 0 0 0 10 10"></path><g><path d="M60 209h86.75"></path><g><path d="M146.75 209h10"></path><path d="M890.25 209h10"></path><g class="non-terminal "><path d="M156.75 209h0"></path><path d="M236.25 209h0"></path><rect x="156.75" y="198" width="79.5" height="22" rx="10" ry="10"></rect><text x="196.5" y="213">primary</text></g><path d="M236.25 209h10"></path><path d="M246.25 209h10"></path><g class="terminal "><path d="M256.25 209h0"></path><path d="M301.75 209h0"></path><rect x="256.25" y="198" width="45.5" height="22"></rect><text x="279" y="213">'.'</text></g><path d="M301.75 209h10"></path><g><path d="M311.75 209h0"></path><path d="M482.25 209h0"></path><path d="M311.75 209a10 10 0 0 0 10 -10v-7a10 10 0 0 1 10 -10"></path><g><path d="M331.75 182h130.5"></path></g><path d="M462.25 182a10 10 0 0 1 10 10v7a10 10 0 0 0 10 10"></path><path d="M311.75 209h20"></path><g class="non-terminal "><path d="M331.75 209h0"></path><path d="M462.25 209h0"></path><rect x="331.75" y="198" width="130.5" height="22" rx="10" ry="10"></rect><text x="397" y="213">typeArguments</text></g><path d="M462.25 209h20"></path></g><path d="M482.25 209h10"></path><g class="non-terminal "><path d="M492.25 209h0"></path><path d="M597.25 209h0"></path><rect x="492.25" y="198" width="105" height="22" rx="10" ry="10"></rect><text x="544.75" y="213">identifier</text></g><path d="M597.25 209h10"></path><path d="M607.25 209h10"></path><g class="terminal "><path d="M617.25 209h0"></path><path d="M662.75 209h0"></path><rect x="617.25" y="198" width="45.5" height="22"></rect><text x="640" y="213">'('</text></g><path d="M662.75 209h10"></path><g><path d="M672.75 209h0"></path><path d="M834.75 209h0"></path><path d="M672.75 209a10 10 0 0 0 10 -10v-7a10 10 0 0 1 10 -10"></path><g><path d="M692.75 182h122"></path></g><path d="M814.75 182a10 10 0 0 1 10 10v7a10 10 0 0 0 10 10"></path><path d="M672.75 209h20"></path><g class="non-terminal "><path d="M692.75 209h0"></path><path d="M814.75 209h0"></path><rect x="692.75" y="198" width="122" height="22" rx="10" ry="10"></rect><text x="753.75" y="213">argumentList</text></g><path d="M814.75 209h20"></path></g><path d="M834.75 209h10"></path><g class="terminal "><path d="M844.75 209h0"></path><path d="M890.25 209h0"></path><rect x="844.75" y="198" width="45.5" height="22"></rect><text x="867.5" y="213">')'</text></g></g><path d="M900.25 209h86.75"></path></g><path d="M987 209a10 10 0 0 0 10 -10v-142a10 10 0 0 1 10 -10"></path><path d="M40 47a10 10 0 0 1 10 10v196a10 10 0 0 0 10 10"></path><g><path d="M60 263h86.75"></path><g><path d="M146.75 263h10"></path><path d="M890.25 263h10"></path><g class="terminal "><path d="M156.75 263h0"></path><path d="M236.25 263h0"></path><rect x="156.75" y="252" width="79.5" height="22"></rect><text x="196.5" y="267">'super'</text></g><path d="M236.25 263h10"></path><path d="M246.25 263h10"></path><g class="terminal "><path d="M256.25 263h0"></path><path d="M301.75 263h0"></path><rect x="256.25" y="252" width="45.5" height="22"></rect><text x="279" y="267">'.'</text></g><path d="M301.75 263h10"></path><g><path d="M311.75 263h0"></path><path d="M482.25 263h0"></path><path d="M311.75 263a10 10 0 0 0 10 -10v-7a10 10 0 0 1 10 -10"></path><g><path d="M331.75 236h130.5"></path></g><path d="M462.25 236a10 10 0 0 1 10 10v7a10 10 0 0 0 10 10"></path><path d="M311.75 263h20"></path><g class="non-terminal "><path d="M331.75 263h0"></path><path d="M462.25 263h0"></path><rect x="331.75" y="252" width="130.5" height="22" rx="10" ry="10"></rect><text x="397" y="267">typeArguments</text></g><path d="M462.25 263h20"></path></g><path d="M482.25 263h10"></path><g class="non-terminal "><path d="M492.25 263h0"></path><path d="M597.25 263h0"></path><rect x="492.25" y="252" width="105" height="22" rx="10" ry="10"></rect><text x="544.75" y="267">identifier</text></g><path d="M597.25 263h10"></path><path d="M607.25 263h10"></path><g class="terminal "><path d="M617.25 263h0"></path><path d="M662.75 263h0"></path><rect x="617.25" y="252" width="45.5" height="22"></rect><text x="640" y="267">'('</text></g><path d="M662.75 263h10"></path><g><path d="M672.75 263h0"></path><path d="M834.75 263h0"></path><path d="M672.75 263a10 10 0 0 0 10 -10v-7a10 10 0 0 1 10 -10"></path><g><path d="M692.75 236h122"></path></g><path d="M814.75 236a10 10 0 0 1 10 10v7a10 10 0 0 0 10 10"></path><path d="M672.75 263h20"></path><g class="non-terminal "><path d="M692.75 263h0"></path><path d="M814.75 263h0"></path><rect x="692.75" y="252" width="122" height="22" rx="10" ry="10"></rect><text x="753.75" y="267">argumentList</text></g><path d="M814.75 263h20"></path></g><path d="M834.75 263h10"></path><g class="terminal "><path d="M844.75 263h0"></path><path d="M890.25 263h0"></path><rect x="844.75" y="252" width="45.5" height="22"></rect><text x="867.5" y="267">')'</text></g></g><path d="M900.25 263h86.75"></path></g><path d="M987 263a10 10 0 0 0 10 -10v-196a10 10 0 0 1 10 -10"></path><path d="M40 47a10 10 0 0 1 10 10v250a10 10 0 0 0 10 10"></path><g><path d="M60 317h0"></path><g><path d="M60 317h10"></path><path d="M977 317h10"></path><g class="non-terminal "><path d="M70 317h0"></path><path d="M158 317h0"></path><rect x="70" y="306" width="88" height="22" rx="10" ry="10"></rect><text x="114" y="321">typeName</text></g><path d="M158 317h10"></path><path d="M168 317h10"></path><g class="terminal "><path d="M178 317h0"></path><path d="M223.5 317h0"></path><rect x="178" y="306" width="45.5" height="22"></rect><text x="200.75" y="321">'.'</text></g><path d="M223.5 317h10"></path><path d="M233.5 317h10"></path><g class="terminal "><path d="M243.5 317h0"></path><path d="M323 317h0"></path><rect x="243.5" y="306" width="79.5" height="22"></rect><text x="283.25" y="321">'super'</text></g><path d="M323 317h10"></path><path d="M333 317h10"></path><g class="terminal "><path d="M343 317h0"></path><path d="M388.5 317h0"></path><rect x="343" y="306" width="45.5" height="22"></rect><text x="365.75" y="321">'.'</text></g><path d="M388.5 317h10"></path><g><path d="M398.5 317h0"></path><path d="M569 317h0"></path><path d="M398.5 317a10 10 0 0 0 10 -10v-7a10 10 0 0 1 10 -10"></path><g><path d="M418.5 290h130.5"></path></g><path d="M549 290a10 10 0 0 1 10 10v7a10 10 0 0 0 10 10"></path><path d="M398.5 317h20"></path><g class="non-terminal "><path d="M418.5 317h0"></path><path d="M549 317h0"></path><rect x="418.5" y="306" width="130.5" height="22" rx="10" ry="10"></rect><text x="483.75" y="321">typeArguments</text></g><path d="M549 317h20"></path></g><path d="M569 317h10"></path><g class="non-terminal "><path d="M579 317h0"></path><path d="M684 317h0"></path><rect x="579" y="306" width="105" height="22" rx="10" ry="10"></rect><text x="631.5" y="321">identifier</text></g><path d="M684 317h10"></path><path d="M694 317h10"></path><g class="terminal "><path d="M704 317h0"></path><path d="M749.5 317h0"></path><rect x="704" y="306" width="45.5" height="22"></rect><text x="726.75" y="321">'('</text></g><path d="M749.5 317h10"></path><g><path d="M759.5 317h0"></path><path d="M921.5 317h0"></path><path d="M759.5 317a10 10 0 0 0 10 -10v-7a10 10 0 0 1 10 -10"></path><g><path d="M779.5 290h122"></path></g><path d="M901.5 290a10 10 0 0 1 10 10v7a10 10 0 0 0 10 10"></path><path d="M759.5 317h20"></path><g class="non-terminal "><path d="M779.5 317h0"></path><path d="M901.5 317h0"></path><rect x="779.5" y="306" width="122" height="22" rx="10" ry="10"></rect><text x="840.5" y="321">argumentList</text></g><path d="M901.5 317h20"></path></g><path d="M921.5 317h10"></path><g class="terminal "><path d="M931.5 317h0"></path><path d="M977 317h0"></path><rect x="931.5" y="306" width="45.5" height="22"></rect><text x="954.25" y="321">')'</text></g></g><path d="M987 317h0"></path></g><path d="M987 317a10 10 0 0 0 10 -10v-250a10 10 0 0 1 10 -10"></path></g><path d="M 1007 47 h 20 m 0 -10 v 20"></path></g><defs><style type="text/css"><![CDATA[
svg.railroad-diagram path { stroke-width: 2; stroke: darkgray; fill: rgba(0, 0, 0, 0);}/* All text except comments. */svg.railroad-diagram text { font: bold 12px Hack, "Source Code Pro", monospace; text-anchor: middle; fill: #404040;}/* Comment text */svg.railroad-diagram text.comment { font: italic 10px Hack, "Source Code Pro", monospace; fill: #404040;}/* The terminal boxes. */svg.railroad-diagram g.terminal rect { stroke-width: 2; stroke: #404040; fill: rgba(200, 200, 200, 1);}svg.railroad-diagram g.non-terminal rect { /* The non-terminal boxes. */ stroke-width: 2; stroke: #404040; fill: rgba(255, 255, 255, 1);}/* Multiple choice text, not working atm. */svg.railroad-diagram text.diagram-text { font-size: 12px Hack, "Source Code Pro", monospace; fill: red;}/* Multiple choice text, not working atm. */svg.railroad-diagram path.diagram-text { stroke-width: 1; stroke: red; fill: red; cursor: help;}
 ]]>
</style></defs></svg>