<?xml version="1.0" encoding="UTF-8" standalone="no"?>
<!DOCTYPE svg PUBLIC "-//W3C//DTD SVG 1.1//EN" "http://www.w3.org/Graphics/SVG/1.1/DTD/svg11.dtd">
<svg class="railroad-diagram" width="1031.5" height="78" viewBox="0 0 1031.5 78" id="methodDeclarator" xmlns="http://www.w3.org/2000/svg" xmlns:xlink="http://www.w3.org/1999/xlink"><g transform="translate(.5 .5)"><g><path d="M20 37v20m0 -10h20"></path></g><g><path d="M40 47h0"></path><path d="M991.5 47h0"></path><path d="M40 47h20"></path><g><path d="M60 47h0"></path><g><path d="M60 47h10"></path><path d="M961.5 47h10"></path><g class="non-terminal "><path d="M70 47h0"></path><path d="M175 47h0"></path><rect x="70" y="36" width="105" height="22" rx="10" ry="10"></rect><text x="122.5" y="51">identifier</text></g><path d="M175 47h10"></path><path d="M185 47h10"></path><g class="terminal "><path d="M195 47h0"></path><path d="M240.5 47h0"></path><rect x="195" y="36" width="45.5" height="22"></rect><text x="217.75" y="51">'('</text></g><path d="M240.5 47h10"></path><g><path d="M250.5 47h0"></path><path d="M580.5 47h0"></path><path d="M250.5 47a10 10 0 0 0 10 -10v-7a10 10 0 0 1 10 -10"></path><g><path d="M270.5 20h290"></path></g><path d="M560.5 20a10 10 0 0 1 10 10v7a10 10 0 0 0 10 10"></path><path d="M250.5 47h20"></path><g><path d="M270.5 47h0"></path><path d="M560.5 47h0"></path><path d="M270.5 47h20"></path><g><path d="M290.5 47h0"></path><g><path d="M290.5 47h10"></path><path d="M530.5 47h10"></path><g class="non-terminal "><path d="M300.5 47h0"></path><path d="M465 47h0"></path><rect x="300.5" y="36" width="164.5" height="22" rx="10" ry="10"></rect><text x="382.75" y="51">receiverParameter</text></g><path d="M465 47h10"></path><path d="M475 47h10"></path><g class="terminal "><path d="M485 47h0"></path><path d="M530.5 47h0"></path><rect x="485" y="36" width="45.5" height="22"></rect><text x="507.75" y="51">','</text></g></g><path d="M540.5 47h0"></path></g><path d="M540.5 47h20"></path></g><path d="M560.5 47h20"></path></g><g><path d="M580.5 47h0"></path><path d="M802 47h0"></path><path d="M580.5 47a10 10 0 0 0 10 -10v-7a10 10 0 0 1 10 -10"></path><g><path d="M600.5 20h181.5"></path></g><path d="M782 20a10 10 0 0 1 10 10v7a10 10 0 0 0 10 10"></path><path d="M580.5 47h20"></path><g class="non-terminal "><path d="M600.5 47h0"></path><path d="M782 47h0"></path><rect x="600.5" y="36" width="181.5" height="22" rx="10" ry="10"></rect><text x="691.25" y="51">formalParameterList</text></g><path d="M782 47h20"></path></g><path d="M802 47h10"></path><g class="terminal "><path d="M812 47h0"></path><path d="M857.5 47h0"></path><rect x="812" y="36" width="45.5" height="22"></rect><text x="834.75" y="51">')'</text></g><path d="M857.5 47h10"></path><g><path d="M867.5 47h0"></path><path d="M961.5 47h0"></path><path d="M867.5 47a10 10 0 0 0 10 -10v-7a10 10 0 0 1 10 -10"></path><g><path d="M887.5 20h54"></path></g><path d="M941.5 20a10 10 0 0 1 10 10v7a10 10 0 0 0 10 10"></path><path d="M867.5 47h20"></path><g class="non-terminal "><path d="M887.5 47h0"></path><path d="M941.5 47h0"></path><rect x="887.5" y="36" width="54" height="22" rx="10" ry="10"></rect><text x="914.5" y="51">dims</text></g><path d="M941.5 47h20"></path></g></g><path d="M971.5 47h0"></path></g><path d="M971.5 47h20"></path></g><path d="M 991.5 47 h 20 m 0 -10 v 20"></path></g><defs><style type="text/css"><![CDATA[
svg.railroad-diagram path { stroke-width: 2; stroke: darkgray; fill: rgba(0, 0, 0, 0);}/* All text except comments. */svg.railroad-diagram text { font: bold 12px Hack, "Source Code Pro", monospace; text-anchor: middle; fill: #404040;}/* Comment text */svg.railroad-diagram text.comment { font: italic 10px Hack, "Source Code Pro", monospace; fill: #404040;}/* The terminal boxes. */svg.railroad-diagram g.terminal rect { stroke-width: 2; stroke: #404040; fill: rgba(200, 200, 200, 1);}svg.railroad-diagram g.non-terminal rect { /* The non-terminal boxes. */ stroke-width: 2; stroke: #404040; fill: rgba(255, 255, 255, 1);}/* Multiple choice text, not working atm. */svg.railroad-diagram text.diagram-text { font-size: 12px Hack, "Source Code Pro", monospace; fill: red;}/* Multiple choice text, not working atm. */svg.railroad-diagram path.diagram-text { stroke-width: 1; stroke: red; fill: red; cursor: help;}
 ]]>
</style></defs></svg>