<?xml version="1.0" encoding="UTF-8" standalone="no"?>
<!DOCTYPE svg PUBLIC "-//W3C//DTD SVG 1.1//EN" "http://www.w3.org/Graphics/SVG/1.1/DTD/svg11.dtd">
<svg class="railroad-diagram" width="279" height="404" viewBox="0 0 279 404" id="methodModifier" xmlns="http://www.w3.org/2000/svg" xmlns:xlink="http://www.w3.org/1999/xlink"><g transform="translate(.5 .5)"><g><path d="M20 21v20m0 -10h20"></path></g><g><path d="M40 31h0"></path><path d="M239 31h0"></path><path d="M40 31h20"></path><g><path d="M60 31h17"></path><g><path d="M77 31h10"></path><path d="M192 31h10"></path><g class="non-terminal "><path d="M87 31h0"></path><path d="M192 31h0"></path><rect x="87" y="20" width="105" height="22" rx="10" ry="10"></rect><text x="139.5" y="35">annotation</text></g></g><path d="M202 31h17"></path></g><path d="M219 31h20"></path><path d="M40 31a10 10 0 0 1 10 10v18a10 10 0 0 0 10 10"></path><g><path d="M60 69h25.5"></path><g><path d="M85.5 69h10"></path><path d="M183.5 69h10"></path><g class="terminal "><path d="M95.5 69h0"></path><path d="M183.5 69h0"></path><rect x="95.5" y="58" width="88" height="22"></rect><text x="139.5" y="73">'public'</text></g></g><path d="M193.5 69h25.5"></path></g><path d="M219 69a10 10 0 0 0 10 -10v-18a10 10 0 0 1 10 -10"></path><path d="M40 31a10 10 0 0 1 10 10v56a10 10 0 0 0 10 10"></path><g><path d="M60 107h12.75"></path><g><path d="M72.75 107h10"></path><path d="M196.25 107h10"></path><g class="terminal "><path d="M82.75 107h0"></path><path d="M196.25 107h0"></path><rect x="82.75" y="96" width="113.5" height="22"></rect><text x="139.5" y="111">'protected'</text></g></g><path d="M206.25 107h12.75"></path></g><path d="M219 107a10 10 0 0 0 10 -10v-56a10 10 0 0 1 10 -10"></path><path d="M40 31a10 10 0 0 1 10 10v94a10 10 0 0 0 10 10"></path><g><path d="M60 145h21.25"></path><g><path d="M81.25 145h10"></path><path d="M187.75 145h10"></path><g class="terminal "><path d="M91.25 145h0"></path><path d="M187.75 145h0"></path><rect x="91.25" y="134" width="96.5" height="22"></rect><text x="139.5" y="149">'private'</text></g></g><path d="M197.75 145h21.25"></path></g><path d="M219 145a10 10 0 0 0 10 -10v-94a10 10 0 0 1 10 -10"></path><path d="M40 31a10 10 0 0 1 10 10v132a10 10 0 0 0 10 10"></path><g><path d="M60 183h17"></path><g><path d="M77 183h10"></path><path d="M192 183h10"></path><g class="terminal "><path d="M87 183h0"></path><path d="M192 183h0"></path><rect x="87" y="172" width="105" height="22"></rect><text x="139.5" y="187">'abstract'</text></g></g><path d="M202 183h17"></path></g><path d="M219 183a10 10 0 0 0 10 -10v-132a10 10 0 0 1 10 -10"></path><path d="M40 31a10 10 0 0 1 10 10v170a10 10 0 0 0 10 10"></path><g><path d="M60 221h25.5"></path><g><path d="M85.5 221h10"></path><path d="M183.5 221h10"></path><g class="terminal "><path d="M95.5 221h0"></path><path d="M183.5 221h0"></path><rect x="95.5" y="210" width="88" height="22"></rect><text x="139.5" y="225">'static'</text></g></g><path d="M193.5 221h25.5"></path></g><path d="M219 221a10 10 0 0 0 10 -10v-170a10 10 0 0 1 10 -10"></path><path d="M40 31a10 10 0 0 1 10 10v208a10 10 0 0 0 10 10"></path><g><path d="M60 259h29.75"></path><g><path d="M89.75 259h10"></path><path d="M179.25 259h10"></path><g class="terminal "><path d="M99.75 259h0"></path><path d="M179.25 259h0"></path><rect x="99.75" y="248" width="79.5" height="22"></rect><text x="139.5" y="263">'final'</text></g></g><path d="M189.25 259h29.75"></path></g><path d="M219 259a10 10 0 0 0 10 -10v-208a10 10 0 0 1 10 -10"></path><path d="M40 31a10 10 0 0 1 10 10v246a10 10 0 0 0 10 10"></path><g><path d="M60 297h0"></path><g><path d="M60 297h10"></path><path d="M209 297h10"></path><g class="terminal "><path d="M70 297h0"></path><path d="M209 297h0"></path><rect x="70" y="286" width="139" height="22"></rect><text x="139.5" y="301">'synchronized'</text></g></g><path d="M219 297h0"></path></g><path d="M219 297a10 10 0 0 0 10 -10v-246a10 10 0 0 1 10 -10"></path><path d="M40 31a10 10 0 0 1 10 10v284a10 10 0 0 0 10 10"></path><g><path d="M60 335h25.5"></path><g><path d="M85.5 335h10"></path><path d="M183.5 335h10"></path><g class="terminal "><path d="M95.5 335h0"></path><path d="M183.5 335h0"></path><rect x="95.5" y="324" width="88" height="22"></rect><text x="139.5" y="339">'native'</text></g></g><path d="M193.5 335h25.5"></path></g><path d="M219 335a10 10 0 0 0 10 -10v-284a10 10 0 0 1 10 -10"></path><path d="M40 31a10 10 0 0 1 10 10v322a10 10 0 0 0 10 10"></path><g><path d="M60 373h17"></path><g><path d="M77 373h10"></path><path d="M192 373h10"></path><g class="terminal "><path d="M87 373h0"></path><path d="M192 373h0"></path><rect x="87" y="362" width="105" height="22"></rect><text x="139.5" y="377">'strictfp'</text></g></g><path d="M202 373h17"></path></g><path d="M219 373a10 10 0 0 0 10 -10v-322a10 10 0 0 1 10 -10"></path></g><path d="M 239 31 h 20 m 0 -10 v 20"></path></g><defs><style type="text/css"><![CDATA[
svg.railroad-diagram path { stroke-width: 2; stroke: darkgray; fill: rgba(0, 0, 0, 0);}/* All text except comments. */svg.railroad-diagram text { font: bold 12px Hack, "Source Code Pro", monospace; text-anchor: middle; fill: #404040;}/* Comment text */svg.railroad-diagram text.comment { font: italic 10px Hack, "Source Code Pro", monospace; fill: #404040;}/* The terminal boxes. */svg.railroad-diagram g.terminal rect { stroke-width: 2; stroke: #404040; fill: rgba(200, 200, 200, 1);}svg.railroad-diagram g.non-terminal rect { /* The non-terminal boxes. */ stroke-width: 2; stroke: #404040; fill: rgba(255, 255, 255, 1);}/* Multiple choice text, not working atm. */svg.railroad-diagram text.diagram-text { font-size: 12px Hack, "Source Code Pro", monospace; fill: red;}/* Multiple choice text, not working atm. */svg.railroad-diagram path.diagram-text { stroke-width: 1; stroke: red; fill: red; cursor: help;}
 ]]>
</style></defs></svg>