<?xml version="1.0" encoding="UTF-8" standalone="no"?>
<!DOCTYPE svg PUBLIC "-//W3C//DTD SVG 1.1//EN" "http://www.w3.org/Graphics/SVG/1.1/DTD/svg11.dtd">
<svg class="railroad-diagram" width="940.5" height="110" viewBox="0 0 940.5 110" id="methodHeader" xmlns="http://www.w3.org/2000/svg" xmlns:xlink="http://www.w3.org/1999/xlink"><g transform="translate(.5 .5)"><g><path d="M20 53v20m0 -10h20"></path></g><g><path d="M40 63h0"></path><path d="M900.5 63h0"></path><path d="M40 63h20"></path><g><path d="M60 63h0"></path><g><path d="M60 63h10"></path><path d="M870.5 63h10"></path><g><path d="M70 63h0"></path><path d="M484 63h0"></path><path d="M70 63a10 10 0 0 0 10 -10v-23a10 10 0 0 1 10 -10"></path><g><path d="M90 20h374"></path></g><path d="M464 20a10 10 0 0 1 10 10v23a10 10 0 0 0 10 10"></path><path d="M70 63h20"></path><g><path d="M90 63h0"></path><path d="M464 63h0"></path><path d="M90 63h20"></path><g><path d="M110 63h0"></path><g><path d="M110 63h10"></path><path d="M434 63h10"></path><g class="non-terminal "><path d="M120 63h0"></path><path d="M259 63h0"></path><rect x="120" y="52" width="139" height="22" rx="10" ry="10"></rect><text x="189.5" y="67">typeParameters</text></g><path d="M259 63h10"></path><g><path d="M269 63h0"></path><path d="M434 63h0"></path><path d="M269 63a10 10 0 0 0 10 -10v-7a10 10 0 0 1 10 -10"></path><g><path d="M289 36h125"></path></g><path d="M414 36a10 10 0 0 1 10 10v7a10 10 0 0 0 10 10"></path><path d="M269 63h20"></path><g><path d="M289 63h0"></path><path d="M414 63h0"></path><path d="M289 63h10"></path><g class="non-terminal "><path d="M299 63h0"></path><path d="M404 63h0"></path><rect x="299" y="52" width="105" height="22" rx="10" ry="10"></rect><text x="351.5" y="67">annotation</text></g><path d="M404 63h10"></path><path d="M299 63a10 10 0 0 0 -10 10v7a10 10 0 0 0 10 10"></path><g><path d="M299 90h105"></path></g><path d="M404 90a10 10 0 0 0 10 -10v-7a10 10 0 0 0 -10 -10"></path></g><path d="M414 63h20"></path></g></g><path d="M444 63h0"></path></g><path d="M444 63h20"></path></g><path d="M464 63h20"></path></g><path d="M484 63h10"></path><g class="non-terminal "><path d="M494 63h0"></path><path d="M565 63h0"></path><rect x="494" y="52" width="71" height="22" rx="10" ry="10"></rect><text x="529.5" y="67">result</text></g><path d="M565 63h10"></path><path d="M575 63h10"></path><g class="non-terminal "><path d="M585 63h0"></path><path d="M741 63h0"></path><rect x="585" y="52" width="156" height="22" rx="10" ry="10"></rect><text x="663" y="67">methodDeclarator</text></g><path d="M741 63h10"></path><g><path d="M751 63h0"></path><path d="M870.5 63h0"></path><path d="M751 63a10 10 0 0 0 10 -10v-7a10 10 0 0 1 10 -10"></path><g><path d="M771 36h79.5"></path></g><path d="M850.5 36a10 10 0 0 1 10 10v7a10 10 0 0 0 10 10"></path><path d="M751 63h20"></path><g class="non-terminal "><path d="M771 63h0"></path><path d="M850.5 63h0"></path><rect x="771" y="52" width="79.5" height="22" rx="10" ry="10"></rect><text x="810.75" y="67">throwsT</text></g><path d="M850.5 63h20"></path></g></g><path d="M880.5 63h0"></path></g><path d="M880.5 63h20"></path></g><path d="M 900.5 63 h 20 m 0 -10 v 20"></path></g><defs><style type="text/css"><![CDATA[
svg.railroad-diagram path { stroke-width: 2; stroke: darkgray; fill: rgba(0, 0, 0, 0);}/* All text except comments. */svg.railroad-diagram text { font: bold 12px Hack, "Source Code Pro", monospace; text-anchor: middle; fill: #404040;}/* Comment text */svg.railroad-diagram text.comment { font: italic 10px Hack, "Source Code Pro", monospace; fill: #404040;}/* The terminal boxes. */svg.railroad-diagram g.terminal rect { stroke-width: 2; stroke: #404040; fill: rgba(200, 200, 200, 1);}svg.railroad-diagram g.non-terminal rect { /* The non-terminal boxes. */ stroke-width: 2; stroke: #404040; fill: rgba(255, 255, 255, 1);}/* Multiple choice text, not working atm. */svg.railroad-diagram text.diagram-text { font-size: 12px Hack, "Source Code Pro", monospace; fill: red;}/* Multiple choice text, not working atm. */svg.railroad-diagram path.diagram-text { stroke-width: 1; stroke: red; fill: red; cursor: help;}
 ]]>
</style></defs></svg>