<?xml version="1.0" encoding="UTF-8" standalone="no"?>
<!DOCTYPE svg PUBLIC "-//W3C//DTD SVG 1.1//EN" "http://www.w3.org/Graphics/SVG/1.1/DTD/svg11.dtd">
<svg class="railroad-diagram" width="762.5" height="386" viewBox="0 0 762.5 386" id="methodReference" xmlns="http://www.w3.org/2000/svg" xmlns:xlink="http://www.w3.org/1999/xlink"><g transform="translate(.5 .5)"><g><path d="M20 37v20m0 -10h20"></path></g><g><path d="M40 47h0"></path><path d="M722.5 47h0"></path><path d="M40 47h20"></path><g><path d="M60 47h57"></path><g><path d="M117 47h10"></path><path d="M635.5 47h10"></path><g class="non-terminal "><path d="M127 47h0"></path><path d="M266 47h0"></path><rect x="127" y="36" width="139" height="22" rx="10" ry="10"></rect><text x="196.5" y="51">expressionName</text></g><path d="M266 47h10"></path><path d="M276 47h10"></path><g class="terminal "><path d="M286 47h0"></path><path d="M340 47h0"></path><rect x="286" y="36" width="54" height="22"></rect><text x="313" y="51">'::'</text></g><path d="M340 47h10"></path><g><path d="M350 47h0"></path><path d="M520.5 47h0"></path><path d="M350 47a10 10 0 0 0 10 -10v-7a10 10 0 0 1 10 -10"></path><g><path d="M370 20h130.5"></path></g><path d="M500.5 20a10 10 0 0 1 10 10v7a10 10 0 0 0 10 10"></path><path d="M350 47h20"></path><g class="non-terminal "><path d="M370 47h0"></path><path d="M500.5 47h0"></path><rect x="370" y="36" width="130.5" height="22" rx="10" ry="10"></rect><text x="435.25" y="51">typeArguments</text></g><path d="M500.5 47h20"></path></g><path d="M520.5 47h10"></path><g class="non-terminal "><path d="M530.5 47h0"></path><path d="M635.5 47h0"></path><rect x="530.5" y="36" width="105" height="22" rx="10" ry="10"></rect><text x="583" y="51">identifier</text></g></g><path d="M645.5 47h57"></path></g><path d="M702.5 47h20"></path><path d="M40 47a10 10 0 0 1 10 10v34a10 10 0 0 0 10 10"></path><g><path d="M60 101h86.75"></path><g><path d="M146.75 101h10"></path><path d="M605.75 101h10"></path><g class="non-terminal "><path d="M156.75 101h0"></path><path d="M236.25 101h0"></path><rect x="156.75" y="90" width="79.5" height="22" rx="10" ry="10"></rect><text x="196.5" y="105">primary</text></g><path d="M236.25 101h10"></path><path d="M246.25 101h10"></path><g class="terminal "><path d="M256.25 101h0"></path><path d="M310.25 101h0"></path><rect x="256.25" y="90" width="54" height="22"></rect><text x="283.25" y="105">'::'</text></g><path d="M310.25 101h10"></path><g><path d="M320.25 101h0"></path><path d="M490.75 101h0"></path><path d="M320.25 101a10 10 0 0 0 10 -10v-7a10 10 0 0 1 10 -10"></path><g><path d="M340.25 74h130.5"></path></g><path d="M470.75 74a10 10 0 0 1 10 10v7a10 10 0 0 0 10 10"></path><path d="M320.25 101h20"></path><g class="non-terminal "><path d="M340.25 101h0"></path><path d="M470.75 101h0"></path><rect x="340.25" y="90" width="130.5" height="22" rx="10" ry="10"></rect><text x="405.5" y="105">typeArguments</text></g><path d="M470.75 101h20"></path></g><path d="M490.75 101h10"></path><g class="non-terminal "><path d="M500.75 101h0"></path><path d="M605.75 101h0"></path><rect x="500.75" y="90" width="105" height="22" rx="10" ry="10"></rect><text x="553.25" y="105">identifier</text></g></g><path d="M615.75 101h86.75"></path></g><path d="M702.5 101a10 10 0 0 0 10 -10v-34a10 10 0 0 1 10 -10"></path><path d="M40 47a10 10 0 0 1 10 10v88a10 10 0 0 0 10 10"></path><g><path d="M60 155h61.25"></path><g><path d="M121.25 155h10"></path><path d="M631.25 155h10"></path><g class="non-terminal "><path d="M131.25 155h0"></path><path d="M261.75 155h0"></path><rect x="131.25" y="144" width="130.5" height="22" rx="10" ry="10"></rect><text x="196.5" y="159">referenceType</text></g><path d="M261.75 155h10"></path><path d="M271.75 155h10"></path><g class="terminal "><path d="M281.75 155h0"></path><path d="M335.75 155h0"></path><rect x="281.75" y="144" width="54" height="22"></rect><text x="308.75" y="159">'::'</text></g><path d="M335.75 155h10"></path><g><path d="M345.75 155h0"></path><path d="M516.25 155h0"></path><path d="M345.75 155a10 10 0 0 0 10 -10v-7a10 10 0 0 1 10 -10"></path><g><path d="M365.75 128h130.5"></path></g><path d="M496.25 128a10 10 0 0 1 10 10v7a10 10 0 0 0 10 10"></path><path d="M345.75 155h20"></path><g class="non-terminal "><path d="M365.75 155h0"></path><path d="M496.25 155h0"></path><rect x="365.75" y="144" width="130.5" height="22" rx="10" ry="10"></rect><text x="431" y="159">typeArguments</text></g><path d="M496.25 155h20"></path></g><path d="M516.25 155h10"></path><g class="non-terminal "><path d="M526.25 155h0"></path><path d="M631.25 155h0"></path><rect x="526.25" y="144" width="105" height="22" rx="10" ry="10"></rect><text x="578.75" y="159">identifier</text></g></g><path d="M641.25 155h61.25"></path></g><path d="M702.5 155a10 10 0 0 0 10 -10v-88a10 10 0 0 1 10 -10"></path><path d="M40 47a10 10 0 0 1 10 10v142a10 10 0 0 0 10 10"></path><g><path d="M60 209h86.75"></path><g><path d="M146.75 209h10"></path><path d="M605.75 209h10"></path><g class="terminal "><path d="M156.75 209h0"></path><path d="M236.25 209h0"></path><rect x="156.75" y="198" width="79.5" height="22"></rect><text x="196.5" y="213">'super'</text></g><path d="M236.25 209h10"></path><path d="M246.25 209h10"></path><g class="terminal "><path d="M256.25 209h0"></path><path d="M310.25 209h0"></path><rect x="256.25" y="198" width="54" height="22"></rect><text x="283.25" y="213">'::'</text></g><path d="M310.25 209h10"></path><g><path d="M320.25 209h0"></path><path d="M490.75 209h0"></path><path d="M320.25 209a10 10 0 0 0 10 -10v-7a10 10 0 0 1 10 -10"></path><g><path d="M340.25 182h130.5"></path></g><path d="M470.75 182a10 10 0 0 1 10 10v7a10 10 0 0 0 10 10"></path><path d="M320.25 209h20"></path><g class="non-terminal "><path d="M340.25 209h0"></path><path d="M470.75 209h0"></path><rect x="340.25" y="198" width="130.5" height="22" rx="10" ry="10"></rect><text x="405.5" y="213">typeArguments</text></g><path d="M470.75 209h20"></path></g><path d="M490.75 209h10"></path><g class="non-terminal "><path d="M500.75 209h0"></path><path d="M605.75 209h0"></path><rect x="500.75" y="198" width="105" height="22" rx="10" ry="10"></rect><text x="553.25" y="213">identifier</text></g></g><path d="M615.75 209h86.75"></path></g><path d="M702.5 209a10 10 0 0 0 10 -10v-142a10 10 0 0 1 10 -10"></path><path d="M40 47a10 10 0 0 1 10 10v196a10 10 0 0 0 10 10"></path><g><path d="M60 263h0"></path><g><path d="M60 263h10"></path><path d="M692.5 263h10"></path><g class="non-terminal "><path d="M70 263h0"></path><path d="M158 263h0"></path><rect x="70" y="252" width="88" height="22" rx="10" ry="10"></rect><text x="114" y="267">typeName</text></g><path d="M158 263h10"></path><path d="M168 263h10"></path><g class="terminal "><path d="M178 263h0"></path><path d="M223.5 263h0"></path><rect x="178" y="252" width="45.5" height="22"></rect><text x="200.75" y="267">'.'</text></g><path d="M223.5 263h10"></path><path d="M233.5 263h10"></path><g class="terminal "><path d="M243.5 263h0"></path><path d="M323 263h0"></path><rect x="243.5" y="252" width="79.5" height="22"></rect><text x="283.25" y="267">'super'</text></g><path d="M323 263h10"></path><path d="M333 263h10"></path><g class="terminal "><path d="M343 263h0"></path><path d="M397 263h0"></path><rect x="343" y="252" width="54" height="22"></rect><text x="370" y="267">'::'</text></g><path d="M397 263h10"></path><g><path d="M407 263h0"></path><path d="M577.5 263h0"></path><path d="M407 263a10 10 0 0 0 10 -10v-7a10 10 0 0 1 10 -10"></path><g><path d="M427 236h130.5"></path></g><path d="M557.5 236a10 10 0 0 1 10 10v7a10 10 0 0 0 10 10"></path><path d="M407 263h20"></path><g class="non-terminal "><path d="M427 263h0"></path><path d="M557.5 263h0"></path><rect x="427" y="252" width="130.5" height="22" rx="10" ry="10"></rect><text x="492.25" y="267">typeArguments</text></g><path d="M557.5 263h20"></path></g><path d="M577.5 263h10"></path><g class="non-terminal "><path d="M587.5 263h0"></path><path d="M692.5 263h0"></path><rect x="587.5" y="252" width="105" height="22" rx="10" ry="10"></rect><text x="640" y="267">identifier</text></g></g><path d="M702.5 263h0"></path></g><path d="M702.5 263a10 10 0 0 0 10 -10v-196a10 10 0 0 1 10 -10"></path><path d="M40 47a10 10 0 0 1 10 10v250a10 10 0 0 0 10 10"></path><g><path d="M60 317h99.5"></path><g><path d="M159.5 317h10"></path><path d="M593 317h10"></path><g class="non-terminal "><path d="M169.5 317h0"></path><path d="M266 317h0"></path><rect x="169.5" y="306" width="96.5" height="22" rx="10" ry="10"></rect><text x="217.75" y="321">classType</text></g><path d="M266 317h10"></path><path d="M276 317h10"></path><g class="terminal "><path d="M286 317h0"></path><path d="M340 317h0"></path><rect x="286" y="306" width="54" height="22"></rect><text x="313" y="321">'::'</text></g><path d="M340 317h10"></path><g><path d="M350 317h0"></path><path d="M520.5 317h0"></path><path d="M350 317a10 10 0 0 0 10 -10v-7a10 10 0 0 1 10 -10"></path><g><path d="M370 290h130.5"></path></g><path d="M500.5 290a10 10 0 0 1 10 10v7a10 10 0 0 0 10 10"></path><path d="M350 317h20"></path><g class="non-terminal "><path d="M370 317h0"></path><path d="M500.5 317h0"></path><rect x="370" y="306" width="130.5" height="22" rx="10" ry="10"></rect><text x="435.25" y="321">typeArguments</text></g><path d="M500.5 317h20"></path></g><path d="M520.5 317h10"></path><g class="terminal "><path d="M530.5 317h0"></path><path d="M593 317h0"></path><rect x="530.5" y="306" width="62.5" height="22"></rect><text x="561.75" y="321">'new'</text></g></g><path d="M603 317h99.5"></path></g><path d="M702.5 317a10 10 0 0 0 10 -10v-250a10 10 0 0 1 10 -10"></path><path d="M40 47a10 10 0 0 1 10 10v288a10 10 0 0 0 10 10"></path><g><path d="M60 355h184.75"></path><g><path d="M244.75 355h10"></path><path d="M507.75 355h10"></path><g class="non-terminal "><path d="M254.75 355h0"></path><path d="M351.25 355h0"></path><rect x="254.75" y="344" width="96.5" height="22" rx="10" ry="10"></rect><text x="303" y="359">arrayType</text></g><path d="M351.25 355h10"></path><path d="M361.25 355h10"></path><g class="terminal "><path d="M371.25 355h0"></path><path d="M425.25 355h0"></path><rect x="371.25" y="344" width="54" height="22"></rect><text x="398.25" y="359">'::'</text></g><path d="M425.25 355h10"></path><path d="M435.25 355h10"></path><g class="terminal "><path d="M445.25 355h0"></path><path d="M507.75 355h0"></path><rect x="445.25" y="344" width="62.5" height="22"></rect><text x="476.5" y="359">'new'</text></g></g><path d="M517.75 355h184.75"></path></g><path d="M702.5 355a10 10 0 0 0 10 -10v-288a10 10 0 0 1 10 -10"></path></g><path d="M 722.5 47 h 20 m 0 -10 v 20"></path></g><defs><style type="text/css"><![CDATA[
svg.railroad-diagram path { stroke-width: 2; stroke: darkgray; fill: rgba(0, 0, 0, 0);}/* All text except comments. */svg.railroad-diagram text { font: bold 12px Hack, "Source Code Pro", monospace; text-anchor: middle; fill: #404040;}/* Comment text */svg.railroad-diagram text.comment { font: italic 10px Hack, "Source Code Pro", monospace; fill: #404040;}/* The terminal boxes. */svg.railroad-diagram g.terminal rect { stroke-width: 2; stroke: #404040; fill: rgba(200, 200, 200, 1);}svg.railroad-diagram g.non-terminal rect { /* The non-terminal boxes. */ stroke-width: 2; stroke: #404040; fill: rgba(255, 255, 255, 1);}/* Multiple choice text, not working atm. */svg.railroad-diagram text.diagram-text { font-size: 12px Hack, "Source Code Pro", monospace; fill: red;}/* Multiple choice text, not working atm. */svg.railroad-diagram path.diagram-text { stroke-width: 1; stroke: red; fill: red; cursor: help;}
 ]]>
</style></defs></svg>