<?xml version="1.0" encoding="UTF-8" standalone="no"?>
<!DOCTYPE svg PUBLIC "-//W3C//DTD SVG 1.1//EN" "http://www.w3.org/Graphics/SVG/1.1/DTD/svg11.dtd">
<svg class="railroad-diagram" width="1268" height="94" viewBox="0 0 1268 94" id="moduleDeclaration" xmlns="http://www.w3.org/2000/svg" xmlns:xlink="http://www.w3.org/1999/xlink"><g transform="translate(.5 .5)"><g><path d="M20 37v20m0 -10h20"></path></g><g><path d="M40 47h0"></path><path d="M1228 47h0"></path><path d="M40 47h20"></path><g><path d="M60 47h0"></path><g><path d="M60 47h10"></path><path d="M1198 47h10"></path><g><path d="M70 47h0"></path><path d="M235 47h0"></path><path d="M70 47a10 10 0 0 0 10 -10v-7a10 10 0 0 1 10 -10"></path><g><path d="M90 20h125"></path></g><path d="M215 20a10 10 0 0 1 10 10v7a10 10 0 0 0 10 10"></path><path d="M70 47h20"></path><g><path d="M90 47h0"></path><path d="M215 47h0"></path><path d="M90 47h10"></path><g class="non-terminal "><path d="M100 47h0"></path><path d="M205 47h0"></path><rect x="100" y="36" width="105" height="22" rx="10" ry="10"></rect><text x="152.5" y="51">annotation</text></g><path d="M205 47h10"></path><path d="M100 47a10 10 0 0 0 -10 10v7a10 10 0 0 0 10 10"></path><g><path d="M100 74h105"></path></g><path d="M205 74a10 10 0 0 0 10 -10v-7a10 10 0 0 0 -10 -10"></path></g><path d="M215 47h20"></path></g><g><path d="M235 47h0"></path><path d="M346 47h0"></path><path d="M235 47a10 10 0 0 0 10 -10v-7a10 10 0 0 1 10 -10"></path><g><path d="M255 20h71"></path></g><path d="M326 20a10 10 0 0 1 10 10v7a10 10 0 0 0 10 10"></path><path d="M235 47h20"></path><g class="terminal "><path d="M255 47h0"></path><path d="M326 47h0"></path><rect x="255" y="36" width="71" height="22"></rect><text x="290.5" y="51">'open'</text></g><path d="M326 47h20"></path></g><path d="M346 47h10"></path><g class="terminal "><path d="M356 47h0"></path><path d="M444 47h0"></path><rect x="356" y="36" width="88" height="22"></rect><text x="400" y="51">'module'</text></g><path d="M444 47h10"></path><path d="M454 47h10"></path><g class="non-terminal "><path d="M464 47h0"></path><path d="M569 47h0"></path><rect x="464" y="36" width="105" height="22" rx="10" ry="10"></rect><text x="516.5" y="51">identifier</text></g><path d="M569 47h10"></path><g><path d="M579 47h0"></path><path d="M869.5 47h0"></path><path d="M579 47a10 10 0 0 0 10 -10v-7a10 10 0 0 1 10 -10"></path><g><path d="M599 20h250.5"></path></g><path d="M849.5 20a10 10 0 0 1 10 10v7a10 10 0 0 0 10 10"></path><path d="M579 47h20"></path><g><path d="M599 47h0"></path><path d="M849.5 47h0"></path><path d="M599 47h10"></path><g><path d="M609 47h0"></path><path d="M839.5 47h0"></path><path d="M609 47h20"></path><g><path d="M629 47h0"></path><g><path d="M629 47h10"></path><path d="M809.5 47h10"></path><g class="terminal "><path d="M639 47h0"></path><path d="M684.5 47h0"></path><rect x="639" y="36" width="45.5" height="22"></rect><text x="661.75" y="51">'.'</text></g><path d="M684.5 47h10"></path><path d="M694.5 47h10"></path><g class="non-terminal "><path d="M704.5 47h0"></path><path d="M809.5 47h0"></path><rect x="704.5" y="36" width="105" height="22" rx="10" ry="10"></rect><text x="757" y="51">identifier</text></g></g><path d="M819.5 47h0"></path></g><path d="M819.5 47h20"></path></g><path d="M839.5 47h10"></path><path d="M609 47a10 10 0 0 0 -10 10v7a10 10 0 0 0 10 10"></path><g><path d="M609 74h230.5"></path></g><path d="M839.5 74a10 10 0 0 0 10 -10v-7a10 10 0 0 0 -10 -10"></path></g><path d="M849.5 47h20"></path></g><path d="M869.5 47h10"></path><g class="terminal "><path d="M879.5 47h0"></path><path d="M925 47h0"></path><rect x="879.5" y="36" width="45.5" height="22"></rect><text x="902.25" y="51">'{'</text></g><path d="M925 47h10"></path><g><path d="M935 47h0"></path><path d="M1142.5 47h0"></path><path d="M935 47a10 10 0 0 0 10 -10v-7a10 10 0 0 1 10 -10"></path><g><path d="M955 20h167.5"></path></g><path d="M1122.5 20a10 10 0 0 1 10 10v7a10 10 0 0 0 10 10"></path><path d="M935 47h20"></path><g><path d="M955 47h0"></path><path d="M1122.5 47h0"></path><path d="M955 47h10"></path><g class="non-terminal "><path d="M965 47h0"></path><path d="M1112.5 47h0"></path><rect x="965" y="36" width="147.5" height="22" rx="10" ry="10"></rect><text x="1038.75" y="51">moduleDirective</text></g><path d="M1112.5 47h10"></path><path d="M965 47a10 10 0 0 0 -10 10v7a10 10 0 0 0 10 10"></path><g><path d="M965 74h147.5"></path></g><path d="M1112.5 74a10 10 0 0 0 10 -10v-7a10 10 0 0 0 -10 -10"></path></g><path d="M1122.5 47h20"></path></g><path d="M1142.5 47h10"></path><g class="terminal "><path d="M1152.5 47h0"></path><path d="M1198 47h0"></path><rect x="1152.5" y="36" width="45.5" height="22"></rect><text x="1175.25" y="51">'}'</text></g></g><path d="M1208 47h0"></path></g><path d="M1208 47h20"></path></g><path d="M 1228 47 h 20 m 0 -10 v 20"></path></g><defs><style type="text/css"><![CDATA[
svg.railroad-diagram path { stroke-width: 2; stroke: darkgray; fill: rgba(0, 0, 0, 0);}/* All text except comments. */svg.railroad-diagram text { font: bold 12px Hack, "Source Code Pro", monospace; text-anchor: middle; fill: #404040;}/* Comment text */svg.railroad-diagram text.comment { font: italic 10px Hack, "Source Code Pro", monospace; fill: #404040;}/* The terminal boxes. */svg.railroad-diagram g.terminal rect { stroke-width: 2; stroke: #404040; fill: rgba(200, 200, 200, 1);}svg.railroad-diagram g.non-terminal rect { /* The non-terminal boxes. */ stroke-width: 2; stroke: #404040; fill: rgba(255, 255, 255, 1);}/* Multiple choice text, not working atm. */svg.railroad-diagram text.diagram-text { font-size: 12px Hack, "Source Code Pro", monospace; fill: red;}/* Multiple choice text, not working atm. */svg.railroad-diagram path.diagram-text { stroke-width: 1; stroke: red; fill: red; cursor: help;}
 ]]>
</style></defs></svg>