<?xml version="1.0" encoding="UTF-8" standalone="no"?>
<!DOCTYPE svg PUBLIC "-//W3C//DTD SVG 1.1//EN" "http://www.w3.org/Graphics/SVG/1.1/DTD/svg11.dtd">
<svg class="railroad-diagram" width="1015" height="374" viewBox="0 0 1015 374" id="moduleDirective" xmlns="http://www.w3.org/2000/svg" xmlns:xlink="http://www.w3.org/1999/xlink"><g transform="translate(.5 .5)"><g><path d="M20 37v20m0 -10h20"></path></g><g><path d="M40 47h0"></path><path d="M975 47h0"></path><path d="M40 47h20"></path><g><path d="M60 47h181.75"></path><g><path d="M241.75 47h10"></path><path d="M763.25 47h10"></path><g class="terminal "><path d="M251.75 47h0"></path><path d="M356.75 47h0"></path><rect x="251.75" y="36" width="105" height="22"></rect><text x="304.25" y="51">'requires'</text></g><path d="M356.75 47h10"></path><g><path d="M366.75 47h0"></path><path d="M582.75 47h0"></path><path d="M366.75 47a10 10 0 0 0 10 -10v-7a10 10 0 0 1 10 -10"></path><g><path d="M386.75 20h176"></path></g><path d="M562.75 20a10 10 0 0 1 10 10v7a10 10 0 0 0 10 10"></path><path d="M366.75 47h20"></path><g><path d="M386.75 47h0"></path><path d="M562.75 47h0"></path><path d="M386.75 47h10"></path><g class="non-terminal "><path d="M396.75 47h0"></path><path d="M552.75 47h0"></path><rect x="396.75" y="36" width="156" height="22" rx="10" ry="10"></rect><text x="474.75" y="51">requiresModifier</text></g><path d="M552.75 47h10"></path><path d="M396.75 47a10 10 0 0 0 -10 10v7a10 10 0 0 0 10 10"></path><g><path d="M396.75 74h156"></path></g><path d="M552.75 74a10 10 0 0 0 10 -10v-7a10 10 0 0 0 -10 -10"></path></g><path d="M562.75 47h20"></path></g><path d="M582.75 47h10"></path><g class="non-terminal "><path d="M592.75 47h0"></path><path d="M697.75 47h0"></path><rect x="592.75" y="36" width="105" height="22" rx="10" ry="10"></rect><text x="645.25" y="51">moduleName</text></g><path d="M697.75 47h10"></path><path d="M707.75 47h10"></path><g class="terminal "><path d="M717.75 47h0"></path><path d="M763.25 47h0"></path><rect x="717.75" y="36" width="45.5" height="22"></rect><text x="740.5" y="51">';'</text></g></g><path d="M773.25 47h181.75"></path></g><path d="M955 47h20"></path><path d="M40 47a10 10 0 0 1 10 10v66a10 10 0 0 0 10 10"></path><g><path d="M60 133h0"></path><g><path d="M60 133h10"></path><path d="M945 133h10"></path><g class="terminal "><path d="M70 133h0"></path><path d="M166.5 133h0"></path><rect x="70" y="122" width="96.5" height="22"></rect><text x="118.25" y="137">'exports'</text></g><path d="M166.5 133h10"></path><path d="M176.5 133h10"></path><g class="non-terminal "><path d="M186.5 133h0"></path><path d="M300 133h0"></path><rect x="186.5" y="122" width="113.5" height="22" rx="10" ry="10"></rect><text x="243.25" y="137">packageName</text></g><path d="M300 133h10"></path><g><path d="M310 133h0"></path><path d="M889.5 133h0"></path><path d="M310 133a10 10 0 0 0 10 -10v-23a10 10 0 0 1 10 -10"></path><g><path d="M330 90h539.5"></path></g><path d="M869.5 90a10 10 0 0 1 10 10v23a10 10 0 0 0 10 10"></path><path d="M310 133h20"></path><g><path d="M330 133h0"></path><path d="M869.5 133h0"></path><path d="M330 133h20"></path><g><path d="M350 133h0"></path><g><path d="M350 133h10"></path><path d="M839.5 133h10"></path><g class="terminal "><path d="M360 133h0"></path><path d="M414 133h0"></path><rect x="360" y="122" width="54" height="22"></rect><text x="387" y="137">'to'</text></g><path d="M414 133h10"></path><path d="M424 133h10"></path><g class="non-terminal "><path d="M434 133h0"></path><path d="M539 133h0"></path><rect x="434" y="122" width="105" height="22" rx="10" ry="10"></rect><text x="486.5" y="137">moduleName</text></g><path d="M539 133h10"></path><g><path d="M549 133h0"></path><path d="M839.5 133h0"></path><path d="M549 133a10 10 0 0 0 10 -10v-7a10 10 0 0 1 10 -10"></path><g><path d="M569 106h250.5"></path></g><path d="M819.5 106a10 10 0 0 1 10 10v7a10 10 0 0 0 10 10"></path><path d="M549 133h20"></path><g><path d="M569 133h0"></path><path d="M819.5 133h0"></path><path d="M569 133h10"></path><g><path d="M579 133h0"></path><path d="M809.5 133h0"></path><path d="M579 133h20"></path><g><path d="M599 133h0"></path><g><path d="M599 133h10"></path><path d="M779.5 133h10"></path><g class="terminal "><path d="M609 133h0"></path><path d="M654.5 133h0"></path><rect x="609" y="122" width="45.5" height="22"></rect><text x="631.75" y="137">','</text></g><path d="M654.5 133h10"></path><path d="M664.5 133h10"></path><g class="non-terminal "><path d="M674.5 133h0"></path><path d="M779.5 133h0"></path><rect x="674.5" y="122" width="105" height="22" rx="10" ry="10"></rect><text x="727" y="137">moduleName</text></g></g><path d="M789.5 133h0"></path></g><path d="M789.5 133h20"></path></g><path d="M809.5 133h10"></path><path d="M579 133a10 10 0 0 0 -10 10v7a10 10 0 0 0 10 10"></path><g><path d="M579 160h230.5"></path></g><path d="M809.5 160a10 10 0 0 0 10 -10v-7a10 10 0 0 0 -10 -10"></path></g><path d="M819.5 133h20"></path></g></g><path d="M849.5 133h0"></path></g><path d="M849.5 133h20"></path></g><path d="M869.5 133h20"></path></g><path d="M889.5 133h10"></path><g class="terminal "><path d="M899.5 133h0"></path><path d="M945 133h0"></path><rect x="899.5" y="122" width="45.5" height="22"></rect><text x="922.25" y="137">';'</text></g></g><path d="M955 133h0"></path></g><path d="M955 133a10 10 0 0 0 10 -10v-66a10 10 0 0 1 10 -10"></path><path d="M40 47a10 10 0 0 1 10 10v152a10 10 0 0 0 10 10"></path><g><path d="M60 219h8.5"></path><g><path d="M68.5 219h10"></path><path d="M936.5 219h10"></path><g class="terminal "><path d="M78.5 219h0"></path><path d="M158 219h0"></path><rect x="78.5" y="208" width="79.5" height="22"></rect><text x="118.25" y="223">'opens'</text></g><path d="M158 219h10"></path><path d="M168 219h10"></path><g class="non-terminal "><path d="M178 219h0"></path><path d="M291.5 219h0"></path><rect x="178" y="208" width="113.5" height="22" rx="10" ry="10"></rect><text x="234.75" y="223">packageName</text></g><path d="M291.5 219h10"></path><g><path d="M301.5 219h0"></path><path d="M881 219h0"></path><path d="M301.5 219a10 10 0 0 0 10 -10v-23a10 10 0 0 1 10 -10"></path><g><path d="M321.5 176h539.5"></path></g><path d="M861 176a10 10 0 0 1 10 10v23a10 10 0 0 0 10 10"></path><path d="M301.5 219h20"></path><g><path d="M321.5 219h0"></path><path d="M861 219h0"></path><path d="M321.5 219h20"></path><g><path d="M341.5 219h0"></path><g><path d="M341.5 219h10"></path><path d="M831 219h10"></path><g class="terminal "><path d="M351.5 219h0"></path><path d="M405.5 219h0"></path><rect x="351.5" y="208" width="54" height="22"></rect><text x="378.5" y="223">'to'</text></g><path d="M405.5 219h10"></path><path d="M415.5 219h10"></path><g class="non-terminal "><path d="M425.5 219h0"></path><path d="M530.5 219h0"></path><rect x="425.5" y="208" width="105" height="22" rx="10" ry="10"></rect><text x="478" y="223">moduleName</text></g><path d="M530.5 219h10"></path><g><path d="M540.5 219h0"></path><path d="M831 219h0"></path><path d="M540.5 219a10 10 0 0 0 10 -10v-7a10 10 0 0 1 10 -10"></path><g><path d="M560.5 192h250.5"></path></g><path d="M811 192a10 10 0 0 1 10 10v7a10 10 0 0 0 10 10"></path><path d="M540.5 219h20"></path><g><path d="M560.5 219h0"></path><path d="M811 219h0"></path><path d="M560.5 219h10"></path><g><path d="M570.5 219h0"></path><path d="M801 219h0"></path><path d="M570.5 219h20"></path><g><path d="M590.5 219h0"></path><g><path d="M590.5 219h10"></path><path d="M771 219h10"></path><g class="terminal "><path d="M600.5 219h0"></path><path d="M646 219h0"></path><rect x="600.5" y="208" width="45.5" height="22"></rect><text x="623.25" y="223">','</text></g><path d="M646 219h10"></path><path d="M656 219h10"></path><g class="non-terminal "><path d="M666 219h0"></path><path d="M771 219h0"></path><rect x="666" y="208" width="105" height="22" rx="10" ry="10"></rect><text x="718.5" y="223">moduleName</text></g></g><path d="M781 219h0"></path></g><path d="M781 219h20"></path></g><path d="M801 219h10"></path><path d="M570.5 219a10 10 0 0 0 -10 10v7a10 10 0 0 0 10 10"></path><g><path d="M570.5 246h230.5"></path></g><path d="M801 246a10 10 0 0 0 10 -10v-7a10 10 0 0 0 -10 -10"></path></g><path d="M811 219h20"></path></g></g><path d="M841 219h0"></path></g><path d="M841 219h20"></path></g><path d="M861 219h20"></path></g><path d="M881 219h10"></path><g class="terminal "><path d="M891 219h0"></path><path d="M936.5 219h0"></path><rect x="891" y="208" width="45.5" height="22"></rect><text x="913.75" y="223">';'</text></g></g><path d="M946.5 219h8.5"></path></g><path d="M955 219a10 10 0 0 0 10 -10v-152a10 10 0 0 1 10 -10"></path><path d="M40 47a10 10 0 0 1 10 10v206a10 10 0 0 0 10 10"></path><g><path d="M60 273h315.25"></path><g><path d="M375.25 273h10"></path><path d="M629.75 273h10"></path><g class="terminal "><path d="M385.25 273h0"></path><path d="M456.25 273h0"></path><rect x="385.25" y="262" width="71" height="22"></rect><text x="420.75" y="277">'uses'</text></g><path d="M456.25 273h10"></path><path d="M466.25 273h10"></path><g class="non-terminal "><path d="M476.25 273h0"></path><path d="M564.25 273h0"></path><rect x="476.25" y="262" width="88" height="22" rx="10" ry="10"></rect><text x="520.25" y="277">typeName</text></g><path d="M564.25 273h10"></path><path d="M574.25 273h10"></path><g class="terminal "><path d="M584.25 273h0"></path><path d="M629.75 273h0"></path><rect x="584.25" y="262" width="45.5" height="22"></rect><text x="607" y="277">';'</text></g></g><path d="M639.75 273h315.25"></path></g><path d="M955 273a10 10 0 0 0 10 -10v-206a10 10 0 0 1 10 -10"></path><path d="M40 47a10 10 0 0 1 10 10v260a10 10 0 0 0 10 10"></path><g><path d="M60 327h62"></path><g><path d="M122 327h10"></path><path d="M883 327h10"></path><g class="terminal "><path d="M132 327h0"></path><path d="M237 327h0"></path><rect x="132" y="316" width="105" height="22"></rect><text x="184.5" y="331">'provides'</text></g><path d="M237 327h10"></path><path d="M247 327h10"></path><g class="non-terminal "><path d="M257 327h0"></path><path d="M345 327h0"></path><rect x="257" y="316" width="88" height="22" rx="10" ry="10"></rect><text x="301" y="331">typeName</text></g><path d="M345 327h10"></path><path d="M355 327h10"></path><g class="terminal "><path d="M365 327h0"></path><path d="M436 327h0"></path><rect x="365" y="316" width="71" height="22"></rect><text x="400.5" y="331">'with'</text></g><path d="M436 327h10"></path><path d="M446 327h10"></path><g class="non-terminal "><path d="M456 327h0"></path><path d="M544 327h0"></path><rect x="456" y="316" width="88" height="22" rx="10" ry="10"></rect><text x="500" y="331">typeName</text></g><path d="M544 327h10"></path><g><path d="M554 327h0"></path><path d="M827.5 327h0"></path><path d="M554 327a10 10 0 0 0 10 -10v-7a10 10 0 0 1 10 -10"></path><g><path d="M574 300h233.5"></path></g><path d="M807.5 300a10 10 0 0 1 10 10v7a10 10 0 0 0 10 10"></path><path d="M554 327h20"></path><g><path d="M574 327h0"></path><path d="M807.5 327h0"></path><path d="M574 327h10"></path><g><path d="M584 327h0"></path><path d="M797.5 327h0"></path><path d="M584 327h20"></path><g><path d="M604 327h0"></path><g><path d="M604 327h10"></path><path d="M767.5 327h10"></path><g class="terminal "><path d="M614 327h0"></path><path d="M659.5 327h0"></path><rect x="614" y="316" width="45.5" height="22"></rect><text x="636.75" y="331">','</text></g><path d="M659.5 327h10"></path><path d="M669.5 327h10"></path><g class="non-terminal "><path d="M679.5 327h0"></path><path d="M767.5 327h0"></path><rect x="679.5" y="316" width="88" height="22" rx="10" ry="10"></rect><text x="723.5" y="331">typeName</text></g></g><path d="M777.5 327h0"></path></g><path d="M777.5 327h20"></path></g><path d="M797.5 327h10"></path><path d="M584 327a10 10 0 0 0 -10 10v7a10 10 0 0 0 10 10"></path><g><path d="M584 354h213.5"></path></g><path d="M797.5 354a10 10 0 0 0 10 -10v-7a10 10 0 0 0 -10 -10"></path></g><path d="M807.5 327h20"></path></g><path d="M827.5 327h10"></path><g class="terminal "><path d="M837.5 327h0"></path><path d="M883 327h0"></path><rect x="837.5" y="316" width="45.5" height="22"></rect><text x="860.25" y="331">';'</text></g></g><path d="M893 327h62"></path></g><path d="M955 327a10 10 0 0 0 10 -10v-260a10 10 0 0 1 10 -10"></path></g><path d="M 975 47 h 20 m 0 -10 v 20"></path></g><defs><style type="text/css"><![CDATA[
svg.railroad-diagram path { stroke-width: 2; stroke: darkgray; fill: rgba(0, 0, 0, 0);}/* All text except comments. */svg.railroad-diagram text { font: bold 12px Hack, "Source Code Pro", monospace; text-anchor: middle; fill: #404040;}/* Comment text */svg.railroad-diagram text.comment { font: italic 10px Hack, "Source Code Pro", monospace; fill: #404040;}/* The terminal boxes. */svg.railroad-diagram g.terminal rect { stroke-width: 2; stroke: #404040; fill: rgba(200, 200, 200, 1);}svg.railroad-diagram g.non-terminal rect { /* The non-terminal boxes. */ stroke-width: 2; stroke: #404040; fill: rgba(255, 255, 255, 1);}/* Multiple choice text, not working atm. */svg.railroad-diagram text.diagram-text { font-size: 12px Hack, "Source Code Pro", monospace; fill: red;}/* Multiple choice text, not working atm. */svg.railroad-diagram path.diagram-text { stroke-width: 1; stroke: red; fill: red; cursor: help;}
 ]]>
</style></defs></svg>