<?xml version="1.0" encoding="UTF-8" standalone="no"?>
<!DOCTYPE svg PUBLIC "-//W3C//DTD SVG 1.1//EN" "http://www.w3.org/Graphics/SVG/1.1/DTD/svg11.dtd">
<svg class="railroad-diagram" width="1386" height="94" viewBox="0 0 1386 94" id="normalClassDeclaration" xmlns="http://www.w3.org/2000/svg" xmlns:xlink="http://www.w3.org/1999/xlink"><g transform="translate(.5 .5)"><g><path d="M20 37v20m0 -10h20"></path></g><g><path d="M40 47h0"></path><path d="M1346 47h0"></path><path d="M40 47h20"></path><g><path d="M60 47h0"></path><g><path d="M60 47h10"></path><path d="M1316 47h10"></path><g><path d="M70 47h0"></path><path d="M260.5 47h0"></path><path d="M70 47a10 10 0 0 0 10 -10v-7a10 10 0 0 1 10 -10"></path><g><path d="M90 20h150.5"></path></g><path d="M240.5 20a10 10 0 0 1 10 10v7a10 10 0 0 0 10 10"></path><path d="M70 47h20"></path><g><path d="M90 47h0"></path><path d="M240.5 47h0"></path><path d="M90 47h10"></path><g class="non-terminal "><path d="M100 47h0"></path><path d="M230.5 47h0"></path><rect x="100" y="36" width="130.5" height="22" rx="10" ry="10"></rect><text x="165.25" y="51">classModifier</text></g><path d="M230.5 47h10"></path><path d="M100 47a10 10 0 0 0 -10 10v7a10 10 0 0 0 10 10"></path><g><path d="M100 74h130.5"></path></g><path d="M230.5 74a10 10 0 0 0 10 -10v-7a10 10 0 0 0 -10 -10"></path></g><path d="M240.5 47h20"></path></g><path d="M260.5 47h10"></path><g class="terminal "><path d="M270.5 47h0"></path><path d="M350 47h0"></path><rect x="270.5" y="36" width="79.5" height="22"></rect><text x="310.25" y="51">'class'</text></g><path d="M350 47h10"></path><path d="M360 47h10"></path><g class="non-terminal "><path d="M370 47h0"></path><path d="M509 47h0"></path><rect x="370" y="36" width="139" height="22" rx="10" ry="10"></rect><text x="439.5" y="51">typeIdentifier</text></g><path d="M509 47h10"></path><g><path d="M519 47h0"></path><path d="M698 47h0"></path><path d="M519 47a10 10 0 0 0 10 -10v-7a10 10 0 0 1 10 -10"></path><g><path d="M539 20h139"></path></g><path d="M678 20a10 10 0 0 1 10 10v7a10 10 0 0 0 10 10"></path><path d="M519 47h20"></path><g class="non-terminal "><path d="M539 47h0"></path><path d="M678 47h0"></path><rect x="539" y="36" width="139" height="22" rx="10" ry="10"></rect><text x="608.5" y="51">typeParameters</text></g><path d="M678 47h20"></path></g><g><path d="M698 47h0"></path><path d="M860 47h0"></path><path d="M698 47a10 10 0 0 0 10 -10v-7a10 10 0 0 1 10 -10"></path><g><path d="M718 20h122"></path></g><path d="M840 20a10 10 0 0 1 10 10v7a10 10 0 0 0 10 10"></path><path d="M698 47h20"></path><g class="non-terminal "><path d="M718 47h0"></path><path d="M840 47h0"></path><rect x="718" y="36" width="122" height="22" rx="10" ry="10"></rect><text x="779" y="51">classExtends</text></g><path d="M840 47h20"></path></g><g><path d="M860 47h0"></path><path d="M1047.5 47h0"></path><path d="M860 47a10 10 0 0 0 10 -10v-7a10 10 0 0 1 10 -10"></path><g><path d="M880 20h147.5"></path></g><path d="M1027.5 20a10 10 0 0 1 10 10v7a10 10 0 0 0 10 10"></path><path d="M860 47h20"></path><g class="non-terminal "><path d="M880 47h0"></path><path d="M1027.5 47h0"></path><rect x="880" y="36" width="147.5" height="22" rx="10" ry="10"></rect><text x="953.75" y="51">classImplements</text></g><path d="M1027.5 47h20"></path></g><g><path d="M1047.5 47h0"></path><path d="M1209.5 47h0"></path><path d="M1047.5 47a10 10 0 0 0 10 -10v-7a10 10 0 0 1 10 -10"></path><g><path d="M1067.5 20h122"></path></g><path d="M1189.5 20a10 10 0 0 1 10 10v7a10 10 0 0 0 10 10"></path><path d="M1047.5 47h20"></path><g class="non-terminal "><path d="M1067.5 47h0"></path><path d="M1189.5 47h0"></path><rect x="1067.5" y="36" width="122" height="22" rx="10" ry="10"></rect><text x="1128.5" y="51">classPermits</text></g><path d="M1189.5 47h20"></path></g><path d="M1209.5 47h10"></path><g class="non-terminal "><path d="M1219.5 47h0"></path><path d="M1316 47h0"></path><rect x="1219.5" y="36" width="96.5" height="22" rx="10" ry="10"></rect><text x="1267.75" y="51">classBody</text></g></g><path d="M1326 47h0"></path></g><path d="M1326 47h20"></path></g><path d="M 1346 47 h 20 m 0 -10 v 20"></path></g><defs><style type="text/css"><![CDATA[
svg.railroad-diagram path { stroke-width: 2; stroke: darkgray; fill: rgba(0, 0, 0, 0);}/* All text except comments. */svg.railroad-diagram text { font: bold 12px Hack, "Source Code Pro", monospace; text-anchor: middle; fill: #404040;}/* Comment text */svg.railroad-diagram text.comment { font: italic 10px Hack, "Source Code Pro", monospace; fill: #404040;}/* The terminal boxes. */svg.railroad-diagram g.terminal rect { stroke-width: 2; stroke: #404040; fill: rgba(200, 200, 200, 1);}svg.railroad-diagram g.non-terminal rect { /* The non-terminal boxes. */ stroke-width: 2; stroke: #404040; fill: rgba(255, 255, 255, 1);}/* Multiple choice text, not working atm. */svg.railroad-diagram text.diagram-text { font-size: 12px Hack, "Source Code Pro", monospace; fill: red;}/* Multiple choice text, not working atm. */svg.railroad-diagram path.diagram-text { stroke-width: 1; stroke: red; fill: red; cursor: help;}
 ]]>
</style></defs></svg>