<?xml version="1.0" encoding="UTF-8" standalone="no"?>
<!DOCTYPE svg PUBLIC "-//W3C//DTD SVG 1.1//EN" "http://www.w3.org/Graphics/SVG/1.1/DTD/svg11.dtd">
<svg class="railroad-diagram" width="1368.5" height="94" viewBox="0 0 1368.5 94" id="normalInterfaceDeclaration" xmlns="http://www.w3.org/2000/svg" xmlns:xlink="http://www.w3.org/1999/xlink"><g transform="translate(.5 .5)"><g><path d="M20 37v20m0 -10h20"></path></g><g><path d="M40 47h0"></path><path d="M1328.5 47h0"></path><path d="M40 47h20"></path><g><path d="M60 47h0"></path><g><path d="M60 47h10"></path><path d="M1298.5 47h10"></path><g><path d="M70 47h0"></path><path d="M294.5 47h0"></path><path d="M70 47a10 10 0 0 0 10 -10v-7a10 10 0 0 1 10 -10"></path><g><path d="M90 20h184.5"></path></g><path d="M274.5 20a10 10 0 0 1 10 10v7a10 10 0 0 0 10 10"></path><path d="M70 47h20"></path><g><path d="M90 47h0"></path><path d="M274.5 47h0"></path><path d="M90 47h10"></path><g class="non-terminal "><path d="M100 47h0"></path><path d="M264.5 47h0"></path><rect x="100" y="36" width="164.5" height="22" rx="10" ry="10"></rect><text x="182.25" y="51">interfaceModifier</text></g><path d="M264.5 47h10"></path><path d="M100 47a10 10 0 0 0 -10 10v7a10 10 0 0 0 10 10"></path><g><path d="M100 74h164.5"></path></g><path d="M264.5 74a10 10 0 0 0 10 -10v-7a10 10 0 0 0 -10 -10"></path></g><path d="M274.5 47h20"></path></g><path d="M294.5 47h10"></path><g class="terminal "><path d="M304.5 47h0"></path><path d="M418 47h0"></path><rect x="304.5" y="36" width="113.5" height="22"></rect><text x="361.25" y="51">'interface'</text></g><path d="M418 47h10"></path><path d="M428 47h10"></path><g class="non-terminal "><path d="M438 47h0"></path><path d="M577 47h0"></path><rect x="438" y="36" width="139" height="22" rx="10" ry="10"></rect><text x="507.5" y="51">typeIdentifier</text></g><path d="M577 47h10"></path><g><path d="M587 47h0"></path><path d="M766 47h0"></path><path d="M587 47a10 10 0 0 0 10 -10v-7a10 10 0 0 1 10 -10"></path><g><path d="M607 20h139"></path></g><path d="M746 20a10 10 0 0 1 10 10v7a10 10 0 0 0 10 10"></path><path d="M587 47h20"></path><g class="non-terminal "><path d="M607 47h0"></path><path d="M746 47h0"></path><rect x="607" y="36" width="139" height="22" rx="10" ry="10"></rect><text x="676.5" y="51">typeParameters</text></g><path d="M746 47h20"></path></g><g><path d="M766 47h0"></path><path d="M962 47h0"></path><path d="M766 47a10 10 0 0 0 10 -10v-7a10 10 0 0 1 10 -10"></path><g><path d="M786 20h156"></path></g><path d="M942 20a10 10 0 0 1 10 10v7a10 10 0 0 0 10 10"></path><path d="M766 47h20"></path><g class="non-terminal "><path d="M786 47h0"></path><path d="M942 47h0"></path><rect x="786" y="36" width="156" height="22" rx="10" ry="10"></rect><text x="864" y="51">interfaceExtends</text></g><path d="M942 47h20"></path></g><g><path d="M962 47h0"></path><path d="M1158 47h0"></path><path d="M962 47a10 10 0 0 0 10 -10v-7a10 10 0 0 1 10 -10"></path><g><path d="M982 20h156"></path></g><path d="M1138 20a10 10 0 0 1 10 10v7a10 10 0 0 0 10 10"></path><path d="M962 47h20"></path><g class="non-terminal "><path d="M982 47h0"></path><path d="M1138 47h0"></path><rect x="982" y="36" width="156" height="22" rx="10" ry="10"></rect><text x="1060" y="51">interfacePermits</text></g><path d="M1138 47h20"></path></g><path d="M1158 47h10"></path><g class="non-terminal "><path d="M1168 47h0"></path><path d="M1298.5 47h0"></path><rect x="1168" y="36" width="130.5" height="22" rx="10" ry="10"></rect><text x="1233.25" y="51">interfaceBody</text></g></g><path d="M1308.5 47h0"></path></g><path d="M1308.5 47h20"></path></g><path d="M 1328.5 47 h 20 m 0 -10 v 20"></path></g><defs><style type="text/css"><![CDATA[
svg.railroad-diagram path { stroke-width: 2; stroke: darkgray; fill: rgba(0, 0, 0, 0);}/* All text except comments. */svg.railroad-diagram text { font: bold 12px Hack, "Source Code Pro", monospace; text-anchor: middle; fill: #404040;}/* Comment text */svg.railroad-diagram text.comment { font: italic 10px Hack, "Source Code Pro", monospace; fill: #404040;}/* The terminal boxes. */svg.railroad-diagram g.terminal rect { stroke-width: 2; stroke: #404040; fill: rgba(200, 200, 200, 1);}svg.railroad-diagram g.non-terminal rect { /* The non-terminal boxes. */ stroke-width: 2; stroke: #404040; fill: rgba(255, 255, 255, 1);}/* Multiple choice text, not working atm. */svg.railroad-diagram text.diagram-text { font-size: 12px Hack, "Source Code Pro", monospace; fill: red;}/* Multiple choice text, not working atm. */svg.railroad-diagram path.diagram-text { stroke-width: 1; stroke: red; fill: red; cursor: help;}
 ]]>
</style></defs></svg>