<?xml version="1.0" encoding="UTF-8" standalone="no"?>
<!DOCTYPE svg PUBLIC "-//W3C//DTD SVG 1.1//EN" "http://www.w3.org/Graphics/SVG/1.1/DTD/svg11.dtd">
<svg class="railroad-diagram" width="955" height="94" viewBox="0 0 955 94" id="ordinaryCompilationUnit" xmlns="http://www.w3.org/2000/svg" xmlns:xlink="http://www.w3.org/1999/xlink"><g transform="translate(.5 .5)"><g><path d="M20 37v20m0 -10h20"></path></g><g><path d="M40 47h0"></path><path d="M915 47h0"></path><path d="M40 47h20"></path><g><path d="M60 47h0"></path><g><path d="M60 47h10"></path><path d="M885 47h10"></path><g><path d="M70 47h0"></path><path d="M283 47h0"></path><path d="M70 47a10 10 0 0 0 10 -10v-7a10 10 0 0 1 10 -10"></path><g><path d="M90 20h173"></path></g><path d="M263 20a10 10 0 0 1 10 10v7a10 10 0 0 0 10 10"></path><path d="M70 47h20"></path><g class="non-terminal "><path d="M90 47h0"></path><path d="M263 47h0"></path><rect x="90" y="36" width="173" height="22" rx="10" ry="10"></rect><text x="176.5" y="51">packageDeclaration</text></g><path d="M263 47h20"></path></g><g><path d="M283 47h0"></path><path d="M507.5 47h0"></path><path d="M283 47a10 10 0 0 0 10 -10v-7a10 10 0 0 1 10 -10"></path><g><path d="M303 20h184.5"></path></g><path d="M487.5 20a10 10 0 0 1 10 10v7a10 10 0 0 0 10 10"></path><path d="M283 47h20"></path><g><path d="M303 47h0"></path><path d="M487.5 47h0"></path><path d="M303 47h10"></path><g class="non-terminal "><path d="M313 47h0"></path><path d="M477.5 47h0"></path><rect x="313" y="36" width="164.5" height="22" rx="10" ry="10"></rect><text x="395.25" y="51">importDeclaration</text></g><path d="M477.5 47h10"></path><path d="M313 47a10 10 0 0 0 -10 10v7a10 10 0 0 0 10 10"></path><g><path d="M313 74h164.5"></path></g><path d="M477.5 74a10 10 0 0 0 10 -10v-7a10 10 0 0 0 -10 -10"></path></g><path d="M487.5 47h20"></path></g><g><path d="M507.5 47h0"></path><path d="M885 47h0"></path><path d="M507.5 47a10 10 0 0 0 10 -10v-7a10 10 0 0 1 10 -10"></path><g><path d="M527.5 20h337.5"></path></g><path d="M865 20a10 10 0 0 1 10 10v7a10 10 0 0 0 10 10"></path><path d="M507.5 47h20"></path><g><path d="M527.5 47h0"></path><path d="M865 47h0"></path><path d="M527.5 47h10"></path><g class="non-terminal "><path d="M537.5 47h0"></path><path d="M855 47h0"></path><rect x="537.5" y="36" width="317.5" height="22" rx="10" ry="10"></rect><text x="696.25" y="51">topLevelClassOrInterfaceDeclaration</text></g><path d="M855 47h10"></path><path d="M537.5 47a10 10 0 0 0 -10 10v7a10 10 0 0 0 10 10"></path><g><path d="M537.5 74h317.5"></path></g><path d="M855 74a10 10 0 0 0 10 -10v-7a10 10 0 0 0 -10 -10"></path></g><path d="M865 47h20"></path></g></g><path d="M895 47h0"></path></g><path d="M895 47h20"></path></g><path d="M 915 47 h 20 m 0 -10 v 20"></path></g><defs><style type="text/css"><![CDATA[
svg.railroad-diagram path { stroke-width: 2; stroke: darkgray; fill: rgba(0, 0, 0, 0);}/* All text except comments. */svg.railroad-diagram text { font: bold 12px Hack, "Source Code Pro", monospace; text-anchor: middle; fill: #404040;}/* Comment text */svg.railroad-diagram text.comment { font: italic 10px Hack, "Source Code Pro", monospace; fill: #404040;}/* The terminal boxes. */svg.railroad-diagram g.terminal rect { stroke-width: 2; stroke: #404040; fill: rgba(200, 200, 200, 1);}svg.railroad-diagram g.non-terminal rect { /* The non-terminal boxes. */ stroke-width: 2; stroke: #404040; fill: rgba(255, 255, 255, 1);}/* Multiple choice text, not working atm. */svg.railroad-diagram text.diagram-text { font-size: 12px Hack, "Source Code Pro", monospace; fill: red;}/* Multiple choice text, not working atm. */svg.railroad-diagram path.diagram-text { stroke-width: 1; stroke: red; fill: red; cursor: help;}
 ]]>
</style></defs></svg>