<?xml version="1.0" encoding="UTF-8" standalone="no"?>
<!DOCTYPE svg PUBLIC "-//W3C//DTD SVG 1.1//EN" "http://www.w3.org/Graphics/SVG/1.1/DTD/svg11.dtd">
<svg class="railroad-diagram" width="289.5" height="132" viewBox="0 0 289.5 132" id="pfE" xmlns="http://www.w3.org/2000/svg" xmlns:xlink="http://www.w3.org/1999/xlink"><g transform="translate(.5 .5)"><g><path d="M20 37v20m0 -10h20"></path></g><g><path d="M40 47h0"></path><path d="M249.5 47h0"></path><path d="M40 47h20"></path><g><path d="M60 47h0"></path><g><path d="M60 47h10"></path><path d="M219.5 47h10"></path><g class="terminal "><path d="M70 47h0"></path><path d="M124 47h0"></path><rect x="70" y="36" width="54" height="22"></rect><text x="97" y="51">'++'</text></g><path d="M124 47h10"></path><g><path d="M134 47h0"></path><path d="M219.5 47h0"></path><path d="M134 47a10 10 0 0 0 10 -10v-7a10 10 0 0 1 10 -10"></path><g><path d="M154 20h45.5"></path></g><path d="M199.5 20a10 10 0 0 1 10 10v7a10 10 0 0 0 10 10"></path><path d="M134 47h20"></path><g class="non-terminal "><path d="M154 47h0"></path><path d="M199.5 47h0"></path><rect x="154" y="36" width="45.5" height="22" rx="10" ry="10"></rect><text x="176.75" y="51">pfE</text></g><path d="M199.5 47h20"></path></g></g><path d="M229.5 47h0"></path></g><path d="M229.5 47h20"></path><path d="M40 47a10 10 0 0 1 10 10v34a10 10 0 0 0 10 10"></path><g><path d="M60 101h0"></path><g><path d="M60 101h10"></path><path d="M219.5 101h10"></path><g class="terminal "><path d="M70 101h0"></path><path d="M124 101h0"></path><rect x="70" y="90" width="54" height="22"></rect><text x="97" y="105">'--'</text></g><path d="M124 101h10"></path><g><path d="M134 101h0"></path><path d="M219.5 101h0"></path><path d="M134 101a10 10 0 0 0 10 -10v-7a10 10 0 0 1 10 -10"></path><g><path d="M154 74h45.5"></path></g><path d="M199.5 74a10 10 0 0 1 10 10v7a10 10 0 0 0 10 10"></path><path d="M134 101h20"></path><g class="non-terminal "><path d="M154 101h0"></path><path d="M199.5 101h0"></path><rect x="154" y="90" width="45.5" height="22" rx="10" ry="10"></rect><text x="176.75" y="105">pfE</text></g><path d="M199.5 101h20"></path></g></g><path d="M229.5 101h0"></path></g><path d="M229.5 101a10 10 0 0 0 10 -10v-34a10 10 0 0 1 10 -10"></path></g><path d="M 249.5 47 h 20 m 0 -10 v 20"></path></g><defs><style type="text/css"><![CDATA[
svg.railroad-diagram path { stroke-width: 2; stroke: darkgray; fill: rgba(0, 0, 0, 0);}/* All text except comments. */svg.railroad-diagram text { font: bold 12px Hack, "Source Code Pro", monospace; text-anchor: middle; fill: #404040;}/* Comment text */svg.railroad-diagram text.comment { font: italic 10px Hack, "Source Code Pro", monospace; fill: #404040;}/* The terminal boxes. */svg.railroad-diagram g.terminal rect { stroke-width: 2; stroke: #404040; fill: rgba(200, 200, 200, 1);}svg.railroad-diagram g.non-terminal rect { /* The non-terminal boxes. */ stroke-width: 2; stroke: #404040; fill: rgba(255, 255, 255, 1);}/* Multiple choice text, not working atm. */svg.railroad-diagram text.diagram-text { font-size: 12px Hack, "Source Code Pro", monospace; fill: red;}/* Multiple choice text, not working atm. */svg.railroad-diagram path.diagram-text { stroke-width: 1; stroke: red; fill: red; cursor: help;}
 ]]>
</style></defs></svg>