<?xml version="1.0" encoding="UTF-8" standalone="no"?>
<!DOCTYPE svg PUBLIC "-//W3C//DTD SVG 1.1//EN" "http://www.w3.org/Graphics/SVG/1.1/DTD/svg11.dtd">
<svg class="railroad-diagram" width="878" height="294" viewBox="0 0 878 294" id="pNNA" xmlns="http://www.w3.org/2000/svg" xmlns:xlink="http://www.w3.org/1999/xlink"><g transform="translate(.5 .5)"><g><path d="M20 37v20m0 -10h20"></path></g><g><path d="M40 47h0"></path><path d="M838 47h0"></path><path d="M40 47h20"></path><g><path d="M60 47h95.75"></path><g><path d="M155.75 47h10"></path><path d="M712.25 47h10"></path><g class="terminal "><path d="M165.75 47h0"></path><path d="M211.25 47h0"></path><rect x="165.75" y="36" width="45.5" height="22"></rect><text x="188.5" y="51">'.'</text></g><path d="M211.25 47h10"></path><path d="M221.25 47h10"></path><g class="non-terminal "><path d="M231.25 47h0"></path><path d="M608.25 47h0"></path><rect x="231.25" y="36" width="377" height="22" rx="10" ry="10"></rect><text x="419.75" y="51">unqualifiedClassInstanceCreationExpression</text></g><path d="M608.25 47h10"></path><g><path d="M618.25 47h0"></path><path d="M712.25 47h0"></path><path d="M618.25 47a10 10 0 0 0 10 -10v-7a10 10 0 0 1 10 -10"></path><g><path d="M638.25 20h54"></path></g><path d="M692.25 20a10 10 0 0 1 10 10v7a10 10 0 0 0 10 10"></path><path d="M618.25 47h20"></path><g class="non-terminal "><path d="M638.25 47h0"></path><path d="M692.25 47h0"></path><rect x="638.25" y="36" width="54" height="22" rx="10" ry="10"></rect><text x="665.25" y="51">pNNA</text></g><path d="M692.25 47h20"></path></g></g><path d="M722.25 47h95.75"></path></g><path d="M818 47h20"></path><path d="M40 47a10 10 0 0 1 10 10v34a10 10 0 0 0 10 10"></path><g><path d="M60 101h231.75"></path><g><path d="M291.75 101h10"></path><path d="M576.25 101h10"></path><g class="terminal "><path d="M301.75 101h0"></path><path d="M347.25 101h0"></path><rect x="301.75" y="90" width="45.5" height="22"></rect><text x="324.5" y="105">'.'</text></g><path d="M347.25 101h10"></path><path d="M357.25 101h10"></path><g class="non-terminal "><path d="M367.25 101h0"></path><path d="M472.25 101h0"></path><rect x="367.25" y="90" width="105" height="22" rx="10" ry="10"></rect><text x="419.75" y="105">identifier</text></g><path d="M472.25 101h10"></path><g><path d="M482.25 101h0"></path><path d="M576.25 101h0"></path><path d="M482.25 101a10 10 0 0 0 10 -10v-7a10 10 0 0 1 10 -10"></path><g><path d="M502.25 74h54"></path></g><path d="M556.25 74a10 10 0 0 1 10 10v7a10 10 0 0 0 10 10"></path><path d="M482.25 101h20"></path><g class="non-terminal "><path d="M502.25 101h0"></path><path d="M556.25 101h0"></path><rect x="502.25" y="90" width="54" height="22" rx="10" ry="10"></rect><text x="529.25" y="105">pNNA</text></g><path d="M556.25 101h20"></path></g></g><path d="M586.25 101h231.75"></path></g><path d="M818 101a10 10 0 0 0 10 -10v-34a10 10 0 0 1 10 -10"></path><path d="M40 47a10 10 0 0 1 10 10v88a10 10 0 0 0 10 10"></path><g><path d="M60 155h199"></path><g><path d="M259 155h10"></path><path d="M609 155h10"></path><g class="terminal "><path d="M269 155h0"></path><path d="M314.5 155h0"></path><rect x="269" y="144" width="45.5" height="22"></rect><text x="291.75" y="159">'['</text></g><path d="M314.5 155h10"></path><path d="M324.5 155h10"></path><g class="non-terminal "><path d="M334.5 155h0"></path><path d="M439.5 155h0"></path><rect x="334.5" y="144" width="105" height="22" rx="10" ry="10"></rect><text x="387" y="159">expression</text></g><path d="M439.5 155h10"></path><path d="M449.5 155h10"></path><g class="terminal "><path d="M459.5 155h0"></path><path d="M505 155h0"></path><rect x="459.5" y="144" width="45.5" height="22"></rect><text x="482.25" y="159">']'</text></g><path d="M505 155h10"></path><g><path d="M515 155h0"></path><path d="M609 155h0"></path><path d="M515 155a10 10 0 0 0 10 -10v-7a10 10 0 0 1 10 -10"></path><g><path d="M535 128h54"></path></g><path d="M589 128a10 10 0 0 1 10 10v7a10 10 0 0 0 10 10"></path><path d="M515 155h20"></path><g class="non-terminal "><path d="M535 155h0"></path><path d="M589 155h0"></path><rect x="535" y="144" width="54" height="22" rx="10" ry="10"></rect><text x="562" y="159">pNNA</text></g><path d="M589 155h20"></path></g></g><path d="M619 155h199"></path></g><path d="M818 155a10 10 0 0 0 10 -10v-88a10 10 0 0 1 10 -10"></path><path d="M40 47a10 10 0 0 1 10 10v142a10 10 0 0 0 10 10"></path><g><path d="M60 209h0"></path><g><path d="M60 209h10"></path><path d="M808 209h10"></path><g class="terminal "><path d="M70 209h0"></path><path d="M115.5 209h0"></path><rect x="70" y="198" width="45.5" height="22"></rect><text x="92.75" y="213">'.'</text></g><path d="M115.5 209h10"></path><g><path d="M125.5 209h0"></path><path d="M296 209h0"></path><path d="M125.5 209a10 10 0 0 0 10 -10v-7a10 10 0 0 1 10 -10"></path><g><path d="M145.5 182h130.5"></path></g><path d="M276 182a10 10 0 0 1 10 10v7a10 10 0 0 0 10 10"></path><path d="M125.5 209h20"></path><g class="non-terminal "><path d="M145.5 209h0"></path><path d="M276 209h0"></path><rect x="145.5" y="198" width="130.5" height="22" rx="10" ry="10"></rect><text x="210.75" y="213">typeArguments</text></g><path d="M276 209h20"></path></g><path d="M296 209h10"></path><g class="non-terminal "><path d="M306 209h0"></path><path d="M411 209h0"></path><rect x="306" y="198" width="105" height="22" rx="10" ry="10"></rect><text x="358.5" y="213">identifier</text></g><path d="M411 209h10"></path><path d="M421 209h10"></path><g class="terminal "><path d="M431 209h0"></path><path d="M476.5 209h0"></path><rect x="431" y="198" width="45.5" height="22"></rect><text x="453.75" y="213">'('</text></g><path d="M476.5 209h10"></path><g><path d="M486.5 209h0"></path><path d="M648.5 209h0"></path><path d="M486.5 209a10 10 0 0 0 10 -10v-7a10 10 0 0 1 10 -10"></path><g><path d="M506.5 182h122"></path></g><path d="M628.5 182a10 10 0 0 1 10 10v7a10 10 0 0 0 10 10"></path><path d="M486.5 209h20"></path><g class="non-terminal "><path d="M506.5 209h0"></path><path d="M628.5 209h0"></path><rect x="506.5" y="198" width="122" height="22" rx="10" ry="10"></rect><text x="567.5" y="213">argumentList</text></g><path d="M628.5 209h20"></path></g><path d="M648.5 209h10"></path><g class="terminal "><path d="M658.5 209h0"></path><path d="M704 209h0"></path><rect x="658.5" y="198" width="45.5" height="22"></rect><text x="681.25" y="213">')'</text></g><path d="M704 209h10"></path><g><path d="M714 209h0"></path><path d="M808 209h0"></path><path d="M714 209a10 10 0 0 0 10 -10v-7a10 10 0 0 1 10 -10"></path><g><path d="M734 182h54"></path></g><path d="M788 182a10 10 0 0 1 10 10v7a10 10 0 0 0 10 10"></path><path d="M714 209h20"></path><g class="non-terminal "><path d="M734 209h0"></path><path d="M788 209h0"></path><rect x="734" y="198" width="54" height="22" rx="10" ry="10"></rect><text x="761" y="213">pNNA</text></g><path d="M788 209h20"></path></g></g><path d="M818 209h0"></path></g><path d="M818 209a10 10 0 0 0 10 -10v-142a10 10 0 0 1 10 -10"></path><path d="M40 47a10 10 0 0 1 10 10v196a10 10 0 0 0 10 10"></path><g><path d="M60 263h142.25"></path><g><path d="M202.25 263h10"></path><path d="M665.75 263h10"></path><g class="terminal "><path d="M212.25 263h0"></path><path d="M266.25 263h0"></path><rect x="212.25" y="252" width="54" height="22"></rect><text x="239.25" y="267">'::'</text></g><path d="M266.25 263h10"></path><g><path d="M276.25 263h0"></path><path d="M446.75 263h0"></path><path d="M276.25 263a10 10 0 0 0 10 -10v-7a10 10 0 0 1 10 -10"></path><g><path d="M296.25 236h130.5"></path></g><path d="M426.75 236a10 10 0 0 1 10 10v7a10 10 0 0 0 10 10"></path><path d="M276.25 263h20"></path><g class="non-terminal "><path d="M296.25 263h0"></path><path d="M426.75 263h0"></path><rect x="296.25" y="252" width="130.5" height="22" rx="10" ry="10"></rect><text x="361.5" y="267">typeArguments</text></g><path d="M426.75 263h20"></path></g><path d="M446.75 263h10"></path><g class="non-terminal "><path d="M456.75 263h0"></path><path d="M561.75 263h0"></path><rect x="456.75" y="252" width="105" height="22" rx="10" ry="10"></rect><text x="509.25" y="267">identifier</text></g><path d="M561.75 263h10"></path><g><path d="M571.75 263h0"></path><path d="M665.75 263h0"></path><path d="M571.75 263a10 10 0 0 0 10 -10v-7a10 10 0 0 1 10 -10"></path><g><path d="M591.75 236h54"></path></g><path d="M645.75 236a10 10 0 0 1 10 10v7a10 10 0 0 0 10 10"></path><path d="M571.75 263h20"></path><g class="non-terminal "><path d="M591.75 263h0"></path><path d="M645.75 263h0"></path><rect x="591.75" y="252" width="54" height="22" rx="10" ry="10"></rect><text x="618.75" y="267">pNNA</text></g><path d="M645.75 263h20"></path></g></g><path d="M675.75 263h142.25"></path></g><path d="M818 263a10 10 0 0 0 10 -10v-196a10 10 0 0 1 10 -10"></path></g><path d="M 838 47 h 20 m 0 -10 v 20"></path></g><defs><style type="text/css"><![CDATA[
svg.railroad-diagram path { stroke-width: 2; stroke: darkgray; fill: rgba(0, 0, 0, 0);}/* All text except comments. */svg.railroad-diagram text { font: bold 12px Hack, "Source Code Pro", monospace; text-anchor: middle; fill: #404040;}/* Comment text */svg.railroad-diagram text.comment { font: italic 10px Hack, "Source Code Pro", monospace; fill: #404040;}/* The terminal boxes. */svg.railroad-diagram g.terminal rect { stroke-width: 2; stroke: #404040; fill: rgba(200, 200, 200, 1);}svg.railroad-diagram g.non-terminal rect { /* The non-terminal boxes. */ stroke-width: 2; stroke: #404040; fill: rgba(255, 255, 255, 1);}/* Multiple choice text, not working atm. */svg.railroad-diagram text.diagram-text { font-size: 12px Hack, "Source Code Pro", monospace; fill: red;}/* Multiple choice text, not working atm. */svg.railroad-diagram path.diagram-text { stroke-width: 1; stroke: red; fill: red; cursor: help;}
 ]]>
</style></defs></svg>