<?xml version="1.0" encoding="UTF-8" standalone="no"?>
<!DOCTYPE svg PUBLIC "-//W3C//DTD SVG 1.1//EN" "http://www.w3.org/Graphics/SVG/1.1/DTD/svg11.dtd">
<svg class="railroad-diagram" width="374.5" height="132" viewBox="0 0 374.5 132" id="postfixExpression" xmlns="http://www.w3.org/2000/svg" xmlns:xlink="http://www.w3.org/1999/xlink"><g transform="translate(.5 .5)"><g><path d="M20 37v20m0 -10h20"></path></g><g><path d="M40 47h0"></path><path d="M334.5 47h0"></path><path d="M40 47h20"></path><g><path d="M60 47h29.75"></path><g><path d="M89.75 47h10"></path><path d="M274.75 47h10"></path><g class="non-terminal "><path d="M99.75 47h0"></path><path d="M179.25 47h0"></path><rect x="99.75" y="36" width="79.5" height="22" rx="10" ry="10"></rect><text x="139.5" y="51">primary</text></g><path d="M179.25 47h10"></path><g><path d="M189.25 47h0"></path><path d="M274.75 47h0"></path><path d="M189.25 47a10 10 0 0 0 10 -10v-7a10 10 0 0 1 10 -10"></path><g><path d="M209.25 20h45.5"></path></g><path d="M254.75 20a10 10 0 0 1 10 10v7a10 10 0 0 0 10 10"></path><path d="M189.25 47h20"></path><g class="non-terminal "><path d="M209.25 47h0"></path><path d="M254.75 47h0"></path><rect x="209.25" y="36" width="45.5" height="22" rx="10" ry="10"></rect><text x="232" y="51">pfE</text></g><path d="M254.75 47h20"></path></g></g><path d="M284.75 47h29.75"></path></g><path d="M314.5 47h20"></path><path d="M40 47a10 10 0 0 1 10 10v34a10 10 0 0 0 10 10"></path><g><path d="M60 101h0"></path><g><path d="M60 101h10"></path><path d="M304.5 101h10"></path><g class="non-terminal "><path d="M70 101h0"></path><path d="M209 101h0"></path><rect x="70" y="90" width="139" height="22" rx="10" ry="10"></rect><text x="139.5" y="105">expressionName</text></g><path d="M209 101h10"></path><g><path d="M219 101h0"></path><path d="M304.5 101h0"></path><path d="M219 101a10 10 0 0 0 10 -10v-7a10 10 0 0 1 10 -10"></path><g><path d="M239 74h45.5"></path></g><path d="M284.5 74a10 10 0 0 1 10 10v7a10 10 0 0 0 10 10"></path><path d="M219 101h20"></path><g class="non-terminal "><path d="M239 101h0"></path><path d="M284.5 101h0"></path><rect x="239" y="90" width="45.5" height="22" rx="10" ry="10"></rect><text x="261.75" y="105">pfE</text></g><path d="M284.5 101h20"></path></g></g><path d="M314.5 101h0"></path></g><path d="M314.5 101a10 10 0 0 0 10 -10v-34a10 10 0 0 1 10 -10"></path></g><path d="M 334.5 47 h 20 m 0 -10 v 20"></path></g><defs><style type="text/css"><![CDATA[
svg.railroad-diagram path { stroke-width: 2; stroke: darkgray; fill: rgba(0, 0, 0, 0);}/* All text except comments. */svg.railroad-diagram text { font: bold 12px Hack, "Source Code Pro", monospace; text-anchor: middle; fill: #404040;}/* Comment text */svg.railroad-diagram text.comment { font: italic 10px Hack, "Source Code Pro", monospace; fill: #404040;}/* The terminal boxes. */svg.railroad-diagram g.terminal rect { stroke-width: 2; stroke: #404040; fill: rgba(200, 200, 200, 1);}svg.railroad-diagram g.non-terminal rect { /* The non-terminal boxes. */ stroke-width: 2; stroke: #404040; fill: rgba(255, 255, 255, 1);}/* Multiple choice text, not working atm. */svg.railroad-diagram text.diagram-text { font-size: 12px Hack, "Source Code Pro", monospace; fill: red;}/* Multiple choice text, not working atm. */svg.railroad-diagram path.diagram-text { stroke-width: 1; stroke: red; fill: red; cursor: help;}
 ]]>
</style></defs></svg>