<?xml version="1.0" encoding="UTF-8" standalone="no"?>
<!DOCTYPE svg PUBLIC "-//W3C//DTD SVG 1.1//EN" "http://www.w3.org/Graphics/SVG/1.1/DTD/svg11.dtd">
<svg class="railroad-diagram" width="1151" height="1428" viewBox="0 0 1151 1428" id="primaryNoNewArray" xmlns="http://www.w3.org/2000/svg" xmlns:xlink="http://www.w3.org/1999/xlink"><g transform="translate(.5 .5)"><g><path d="M20 37v20m0 -10h20"></path></g><g><path d="M40 47h0"></path><path d="M1111 47h0"></path><path d="M40 47h20"></path><g><path d="M60 47h413.75"></path><g><path d="M473.75 47h10"></path><path d="M667.25 47h10"></path><g class="non-terminal "><path d="M483.75 47h0"></path><path d="M563.25 47h0"></path><rect x="483.75" y="36" width="79.5" height="22" rx="10" ry="10"></rect><text x="523.5" y="51">literal</text></g><path d="M563.25 47h10"></path><g><path d="M573.25 47h0"></path><path d="M667.25 47h0"></path><path d="M573.25 47a10 10 0 0 0 10 -10v-7a10 10 0 0 1 10 -10"></path><g><path d="M593.25 20h54"></path></g><path d="M647.25 20a10 10 0 0 1 10 10v7a10 10 0 0 0 10 10"></path><path d="M573.25 47h20"></path><g class="non-terminal "><path d="M593.25 47h0"></path><path d="M647.25 47h0"></path><rect x="593.25" y="36" width="54" height="22" rx="10" ry="10"></rect><text x="620.25" y="51">pNNA</text></g><path d="M647.25 47h20"></path></g></g><path d="M677.25 47h413.75"></path></g><path d="M1091 47h20"></path><path d="M40 47a10 10 0 0 1 10 10v34a10 10 0 0 0 10 10"></path><g><path d="M60 101h392.5"></path><g><path d="M452.5 101h10"></path><path d="M688.5 101h10"></path><g class="non-terminal "><path d="M462.5 101h0"></path><path d="M584.5 101h0"></path><rect x="462.5" y="90" width="122" height="22" rx="10" ry="10"></rect><text x="523.5" y="105">classLiteral</text></g><path d="M584.5 101h10"></path><g><path d="M594.5 101h0"></path><path d="M688.5 101h0"></path><path d="M594.5 101a10 10 0 0 0 10 -10v-7a10 10 0 0 1 10 -10"></path><g><path d="M614.5 74h54"></path></g><path d="M668.5 74a10 10 0 0 1 10 10v7a10 10 0 0 0 10 10"></path><path d="M594.5 101h20"></path><g class="non-terminal "><path d="M614.5 101h0"></path><path d="M668.5 101h0"></path><rect x="614.5" y="90" width="54" height="22" rx="10" ry="10"></rect><text x="641.5" y="105">pNNA</text></g><path d="M668.5 101h20"></path></g></g><path d="M698.5 101h392.5"></path></g><path d="M1091 101a10 10 0 0 0 10 -10v-34a10 10 0 0 1 10 -10"></path><path d="M40 47a10 10 0 0 1 10 10v88a10 10 0 0 0 10 10"></path><g><path d="M60 155h418"></path><g><path d="M478 155h10"></path><path d="M663 155h10"></path><g class="terminal "><path d="M488 155h0"></path><path d="M559 155h0"></path><rect x="488" y="144" width="71" height="22"></rect><text x="523.5" y="159">'this'</text></g><path d="M559 155h10"></path><g><path d="M569 155h0"></path><path d="M663 155h0"></path><path d="M569 155a10 10 0 0 0 10 -10v-7a10 10 0 0 1 10 -10"></path><g><path d="M589 128h54"></path></g><path d="M643 128a10 10 0 0 1 10 10v7a10 10 0 0 0 10 10"></path><path d="M569 155h20"></path><g class="non-terminal "><path d="M589 155h0"></path><path d="M643 155h0"></path><rect x="589" y="144" width="54" height="22" rx="10" ry="10"></rect><text x="616" y="159">pNNA</text></g><path d="M643 155h20"></path></g></g><path d="M673 155h418"></path></g><path d="M1091 155a10 10 0 0 0 10 -10v-88a10 10 0 0 1 10 -10"></path><path d="M40 47a10 10 0 0 1 10 10v142a10 10 0 0 0 10 10"></path><g><path d="M60 209h331.25"></path><g><path d="M391.25 209h10"></path><path d="M749.75 209h10"></path><g class="non-terminal "><path d="M401.25 209h0"></path><path d="M489.25 209h0"></path><rect x="401.25" y="198" width="88" height="22" rx="10" ry="10"></rect><text x="445.25" y="213">typeName</text></g><path d="M489.25 209h10"></path><path d="M499.25 209h10"></path><g class="terminal "><path d="M509.25 209h0"></path><path d="M554.75 209h0"></path><rect x="509.25" y="198" width="45.5" height="22"></rect><text x="532" y="213">'.'</text></g><path d="M554.75 209h10"></path><path d="M564.75 209h10"></path><g class="terminal "><path d="M574.75 209h0"></path><path d="M645.75 209h0"></path><rect x="574.75" y="198" width="71" height="22"></rect><text x="610.25" y="213">'this'</text></g><path d="M645.75 209h10"></path><g><path d="M655.75 209h0"></path><path d="M749.75 209h0"></path><path d="M655.75 209a10 10 0 0 0 10 -10v-7a10 10 0 0 1 10 -10"></path><g><path d="M675.75 182h54"></path></g><path d="M729.75 182a10 10 0 0 1 10 10v7a10 10 0 0 0 10 10"></path><path d="M655.75 209h20"></path><g class="non-terminal "><path d="M675.75 209h0"></path><path d="M729.75 209h0"></path><rect x="675.75" y="198" width="54" height="22" rx="10" ry="10"></rect><text x="702.75" y="213">pNNA</text></g><path d="M729.75 209h20"></path></g></g><path d="M759.75 209h331.25"></path></g><path d="M1091 209a10 10 0 0 0 10 -10v-142a10 10 0 0 1 10 -10"></path><path d="M40 47a10 10 0 0 1 10 10v196a10 10 0 0 0 10 10"></path><g><path d="M60 263h335.5"></path><g><path d="M395.5 263h10"></path><path d="M745.5 263h10"></path><g class="terminal "><path d="M405.5 263h0"></path><path d="M451 263h0"></path><rect x="405.5" y="252" width="45.5" height="22"></rect><text x="428.25" y="267">'('</text></g><path d="M451 263h10"></path><path d="M461 263h10"></path><g class="non-terminal "><path d="M471 263h0"></path><path d="M576 263h0"></path><rect x="471" y="252" width="105" height="22" rx="10" ry="10"></rect><text x="523.5" y="267">expression</text></g><path d="M576 263h10"></path><path d="M586 263h10"></path><g class="terminal "><path d="M596 263h0"></path><path d="M641.5 263h0"></path><rect x="596" y="252" width="45.5" height="22"></rect><text x="618.75" y="267">')'</text></g><path d="M641.5 263h10"></path><g><path d="M651.5 263h0"></path><path d="M745.5 263h0"></path><path d="M651.5 263a10 10 0 0 0 10 -10v-7a10 10 0 0 1 10 -10"></path><g><path d="M671.5 236h54"></path></g><path d="M725.5 236a10 10 0 0 1 10 10v7a10 10 0 0 0 10 10"></path><path d="M651.5 263h20"></path><g class="non-terminal "><path d="M671.5 263h0"></path><path d="M725.5 263h0"></path><rect x="671.5" y="252" width="54" height="22" rx="10" ry="10"></rect><text x="698.5" y="267">pNNA</text></g><path d="M725.5 263h20"></path></g></g><path d="M755.5 263h335.5"></path></g><path d="M1091 263a10 10 0 0 0 10 -10v-196a10 10 0 0 1 10 -10"></path><path d="M40 47a10 10 0 0 1 10 10v250a10 10 0 0 0 10 10"></path><g><path d="M60 317h265"></path><g><path d="M325 317h10"></path><path d="M816 317h10"></path><g class="non-terminal "><path d="M335 317h0"></path><path d="M712 317h0"></path><rect x="335" y="306" width="377" height="22" rx="10" ry="10"></rect><text x="523.5" y="321">unqualifiedClassInstanceCreationExpression</text></g><path d="M712 317h10"></path><g><path d="M722 317h0"></path><path d="M816 317h0"></path><path d="M722 317a10 10 0 0 0 10 -10v-7a10 10 0 0 1 10 -10"></path><g><path d="M742 290h54"></path></g><path d="M796 290a10 10 0 0 1 10 10v7a10 10 0 0 0 10 10"></path><path d="M722 317h20"></path><g class="non-terminal "><path d="M742 317h0"></path><path d="M796 317h0"></path><rect x="742" y="306" width="54" height="22" rx="10" ry="10"></rect><text x="769" y="321">pNNA</text></g><path d="M796 317h20"></path></g></g><path d="M826 317h265"></path></g><path d="M1091 317a10 10 0 0 0 10 -10v-250a10 10 0 0 1 10 -10"></path><path d="M40 47a10 10 0 0 1 10 10v304a10 10 0 0 0 10 10"></path><g><path d="M60 371h152.75"></path><g><path d="M212.75 371h10"></path><path d="M928.25 371h10"></path><g class="non-terminal "><path d="M222.75 371h0"></path><path d="M361.75 371h0"></path><rect x="222.75" y="360" width="139" height="22" rx="10" ry="10"></rect><text x="292.25" y="375">expressionName</text></g><path d="M361.75 371h10"></path><path d="M371.75 371h10"></path><g class="terminal "><path d="M381.75 371h0"></path><path d="M427.25 371h0"></path><rect x="381.75" y="360" width="45.5" height="22"></rect><text x="404.5" y="375">'.'</text></g><path d="M427.25 371h10"></path><path d="M437.25 371h10"></path><g class="non-terminal "><path d="M447.25 371h0"></path><path d="M824.25 371h0"></path><rect x="447.25" y="360" width="377" height="22" rx="10" ry="10"></rect><text x="635.75" y="375">unqualifiedClassInstanceCreationExpression</text></g><path d="M824.25 371h10"></path><g><path d="M834.25 371h0"></path><path d="M928.25 371h0"></path><path d="M834.25 371a10 10 0 0 0 10 -10v-7a10 10 0 0 1 10 -10"></path><g><path d="M854.25 344h54"></path></g><path d="M908.25 344a10 10 0 0 1 10 10v7a10 10 0 0 0 10 10"></path><path d="M834.25 371h20"></path><g class="non-terminal "><path d="M854.25 371h0"></path><path d="M908.25 371h0"></path><rect x="854.25" y="360" width="54" height="22" rx="10" ry="10"></rect><text x="881.25" y="375">pNNA</text></g><path d="M908.25 371h20"></path></g></g><path d="M938.25 371h152.75"></path></g><path d="M1091 371a10 10 0 0 0 10 -10v-304a10 10 0 0 1 10 -10"></path><path d="M40 47a10 10 0 0 1 10 10v358a10 10 0 0 0 10 10"></path><g><path d="M60 425h114.5"></path><g><path d="M174.5 425h10"></path><path d="M966.5 425h10"></path><g class="non-terminal "><path d="M184.5 425h0"></path><path d="M400 425h0"></path><rect x="184.5" y="414" width="215.5" height="22" rx="10" ry="10"></rect><text x="292.25" y="429">arrayCreationExpression</text></g><path d="M400 425h10"></path><path d="M410 425h10"></path><g class="terminal "><path d="M420 425h0"></path><path d="M465.5 425h0"></path><rect x="420" y="414" width="45.5" height="22"></rect><text x="442.75" y="429">'.'</text></g><path d="M465.5 425h10"></path><path d="M475.5 425h10"></path><g class="non-terminal "><path d="M485.5 425h0"></path><path d="M862.5 425h0"></path><rect x="485.5" y="414" width="377" height="22" rx="10" ry="10"></rect><text x="674" y="429">unqualifiedClassInstanceCreationExpression</text></g><path d="M862.5 425h10"></path><g><path d="M872.5 425h0"></path><path d="M966.5 425h0"></path><path d="M872.5 425a10 10 0 0 0 10 -10v-7a10 10 0 0 1 10 -10"></path><g><path d="M892.5 398h54"></path></g><path d="M946.5 398a10 10 0 0 1 10 10v7a10 10 0 0 0 10 10"></path><path d="M872.5 425h20"></path><g class="non-terminal "><path d="M892.5 425h0"></path><path d="M946.5 425h0"></path><rect x="892.5" y="414" width="54" height="22" rx="10" ry="10"></rect><text x="919.5" y="429">pNNA</text></g><path d="M946.5 425h20"></path></g></g><path d="M976.5 425h114.5"></path></g><path d="M1091 425a10 10 0 0 0 10 -10v-358a10 10 0 0 1 10 -10"></path><path d="M40 47a10 10 0 0 1 10 10v412a10 10 0 0 0 10 10"></path><g><path d="M60 479h250.5"></path><g><path d="M310.5 479h10"></path><path d="M830.5 479h10"></path><g class="non-terminal "><path d="M320.5 479h0"></path><path d="M536 479h0"></path><rect x="320.5" y="468" width="215.5" height="22" rx="10" ry="10"></rect><text x="428.25" y="483">arrayCreationExpression</text></g><path d="M536 479h10"></path><path d="M546 479h10"></path><g class="terminal "><path d="M556 479h0"></path><path d="M601.5 479h0"></path><rect x="556" y="468" width="45.5" height="22"></rect><text x="578.75" y="483">'.'</text></g><path d="M601.5 479h10"></path><path d="M611.5 479h10"></path><g class="non-terminal "><path d="M621.5 479h0"></path><path d="M726.5 479h0"></path><rect x="621.5" y="468" width="105" height="22" rx="10" ry="10"></rect><text x="674" y="483">identifier</text></g><path d="M726.5 479h10"></path><g><path d="M736.5 479h0"></path><path d="M830.5 479h0"></path><path d="M736.5 479a10 10 0 0 0 10 -10v-7a10 10 0 0 1 10 -10"></path><g><path d="M756.5 452h54"></path></g><path d="M810.5 452a10 10 0 0 1 10 10v7a10 10 0 0 0 10 10"></path><path d="M736.5 479h20"></path><g class="non-terminal "><path d="M756.5 479h0"></path><path d="M810.5 479h0"></path><rect x="756.5" y="468" width="54" height="22" rx="10" ry="10"></rect><text x="783.5" y="483">pNNA</text></g><path d="M810.5 479h20"></path></g></g><path d="M840.5 479h250.5"></path></g><path d="M1091 479a10 10 0 0 0 10 -10v-412a10 10 0 0 1 10 -10"></path><path d="M40 47a10 10 0 0 1 10 10v466a10 10 0 0 0 10 10"></path><g><path d="M60 533h318.5"></path><g><path d="M378.5 533h10"></path><path d="M762.5 533h10"></path><g class="terminal "><path d="M388.5 533h0"></path><path d="M468 533h0"></path><rect x="388.5" y="522" width="79.5" height="22"></rect><text x="428.25" y="537">'super'</text></g><path d="M468 533h10"></path><path d="M478 533h10"></path><g class="terminal "><path d="M488 533h0"></path><path d="M533.5 533h0"></path><rect x="488" y="522" width="45.5" height="22"></rect><text x="510.75" y="537">'.'</text></g><path d="M533.5 533h10"></path><path d="M543.5 533h10"></path><g class="non-terminal "><path d="M553.5 533h0"></path><path d="M658.5 533h0"></path><rect x="553.5" y="522" width="105" height="22" rx="10" ry="10"></rect><text x="606" y="537">identifier</text></g><path d="M658.5 533h10"></path><g><path d="M668.5 533h0"></path><path d="M762.5 533h0"></path><path d="M668.5 533a10 10 0 0 0 10 -10v-7a10 10 0 0 1 10 -10"></path><g><path d="M688.5 506h54"></path></g><path d="M742.5 506a10 10 0 0 1 10 10v7a10 10 0 0 0 10 10"></path><path d="M668.5 533h20"></path><g class="non-terminal "><path d="M688.5 533h0"></path><path d="M742.5 533h0"></path><rect x="688.5" y="522" width="54" height="22" rx="10" ry="10"></rect><text x="715.5" y="537">pNNA</text></g><path d="M742.5 533h20"></path></g></g><path d="M772.5 533h318.5"></path></g><path d="M1091 533a10 10 0 0 0 10 -10v-466a10 10 0 0 1 10 -10"></path><path d="M40 47a10 10 0 0 1 10 10v520a10 10 0 0 0 10 10"></path><g><path d="M60 587h231.75"></path><g><path d="M291.75 587h10"></path><path d="M849.25 587h10"></path><g class="non-terminal "><path d="M301.75 587h0"></path><path d="M389.75 587h0"></path><rect x="301.75" y="576" width="88" height="22" rx="10" ry="10"></rect><text x="345.75" y="591">typeName</text></g><path d="M389.75 587h10"></path><path d="M399.75 587h10"></path><g class="terminal "><path d="M409.75 587h0"></path><path d="M455.25 587h0"></path><rect x="409.75" y="576" width="45.5" height="22"></rect><text x="432.5" y="591">'.'</text></g><path d="M455.25 587h10"></path><path d="M465.25 587h10"></path><g class="terminal "><path d="M475.25 587h0"></path><path d="M554.75 587h0"></path><rect x="475.25" y="576" width="79.5" height="22"></rect><text x="515" y="591">'super'</text></g><path d="M554.75 587h10"></path><path d="M564.75 587h10"></path><g class="terminal "><path d="M574.75 587h0"></path><path d="M620.25 587h0"></path><rect x="574.75" y="576" width="45.5" height="22"></rect><text x="597.5" y="591">'.'</text></g><path d="M620.25 587h10"></path><path d="M630.25 587h10"></path><g class="non-terminal "><path d="M640.25 587h0"></path><path d="M745.25 587h0"></path><rect x="640.25" y="576" width="105" height="22" rx="10" ry="10"></rect><text x="692.75" y="591">identifier</text></g><path d="M745.25 587h10"></path><g><path d="M755.25 587h0"></path><path d="M849.25 587h0"></path><path d="M755.25 587a10 10 0 0 0 10 -10v-7a10 10 0 0 1 10 -10"></path><g><path d="M775.25 560h54"></path></g><path d="M829.25 560a10 10 0 0 1 10 10v7a10 10 0 0 0 10 10"></path><path d="M755.25 587h20"></path><g class="non-terminal "><path d="M775.25 587h0"></path><path d="M829.25 587h0"></path><rect x="775.25" y="576" width="54" height="22" rx="10" ry="10"></rect><text x="802.25" y="591">pNNA</text></g><path d="M829.25 587h20"></path></g></g><path d="M859.25 587h231.75"></path></g><path d="M1091 587a10 10 0 0 0 10 -10v-520a10 10 0 0 1 10 -10"></path><path d="M40 47a10 10 0 0 1 10 10v574a10 10 0 0 0 10 10"></path><g><path d="M60 641h256"></path><g><path d="M316 641h10"></path><path d="M825 641h10"></path><g class="non-terminal "><path d="M326 641h0"></path><path d="M465 641h0"></path><rect x="326" y="630" width="139" height="22" rx="10" ry="10"></rect><text x="395.5" y="645">expressionName</text></g><path d="M465 641h10"></path><path d="M475 641h10"></path><g class="terminal "><path d="M485 641h0"></path><path d="M530.5 641h0"></path><rect x="485" y="630" width="45.5" height="22"></rect><text x="507.75" y="645">'['</text></g><path d="M530.5 641h10"></path><path d="M540.5 641h10"></path><g class="non-terminal "><path d="M550.5 641h0"></path><path d="M655.5 641h0"></path><rect x="550.5" y="630" width="105" height="22" rx="10" ry="10"></rect><text x="603" y="645">expression</text></g><path d="M655.5 641h10"></path><path d="M665.5 641h10"></path><g class="terminal "><path d="M675.5 641h0"></path><path d="M721 641h0"></path><rect x="675.5" y="630" width="45.5" height="22"></rect><text x="698.25" y="645">']'</text></g><path d="M721 641h10"></path><g><path d="M731 641h0"></path><path d="M825 641h0"></path><path d="M731 641a10 10 0 0 0 10 -10v-7a10 10 0 0 1 10 -10"></path><g><path d="M751 614h54"></path></g><path d="M805 614a10 10 0 0 1 10 10v7a10 10 0 0 0 10 10"></path><path d="M731 641h20"></path><g class="non-terminal "><path d="M751 641h0"></path><path d="M805 641h0"></path><rect x="751" y="630" width="54" height="22" rx="10" ry="10"></rect><text x="778" y="645">pNNA</text></g><path d="M805 641h20"></path></g></g><path d="M835 641h256"></path></g><path d="M1091 641a10 10 0 0 0 10 -10v-574a10 10 0 0 1 10 -10"></path><path d="M40 47a10 10 0 0 1 10 10v628a10 10 0 0 0 10 10"></path><g><path d="M60 695h154"></path><g><path d="M214 695h10"></path><path d="M927 695h10"></path><g class="non-terminal "><path d="M224 695h0"></path><path d="M567 695h0"></path><rect x="224" y="684" width="343" height="22" rx="10" ry="10"></rect><text x="395.5" y="699">arrayCreationExpressionWithInitializer</text></g><path d="M567 695h10"></path><path d="M577 695h10"></path><g class="terminal "><path d="M587 695h0"></path><path d="M632.5 695h0"></path><rect x="587" y="684" width="45.5" height="22"></rect><text x="609.75" y="699">'['</text></g><path d="M632.5 695h10"></path><path d="M642.5 695h10"></path><g class="non-terminal "><path d="M652.5 695h0"></path><path d="M757.5 695h0"></path><rect x="652.5" y="684" width="105" height="22" rx="10" ry="10"></rect><text x="705" y="699">expression</text></g><path d="M757.5 695h10"></path><path d="M767.5 695h10"></path><g class="terminal "><path d="M777.5 695h0"></path><path d="M823 695h0"></path><rect x="777.5" y="684" width="45.5" height="22"></rect><text x="800.25" y="699">']'</text></g><path d="M823 695h10"></path><g><path d="M833 695h0"></path><path d="M927 695h0"></path><path d="M833 695a10 10 0 0 0 10 -10v-7a10 10 0 0 1 10 -10"></path><g><path d="M853 668h54"></path></g><path d="M907 668a10 10 0 0 1 10 10v7a10 10 0 0 0 10 10"></path><path d="M833 695h20"></path><g class="non-terminal "><path d="M853 695h0"></path><path d="M907 695h0"></path><rect x="853" y="684" width="54" height="22" rx="10" ry="10"></rect><text x="880" y="699">pNNA</text></g><path d="M907 695h20"></path></g></g><path d="M937 695h154"></path></g><path d="M1091 695a10 10 0 0 0 10 -10v-628a10 10 0 0 1 10 -10"></path><path d="M40 47a10 10 0 0 1 10 10v682a10 10 0 0 0 10 10"></path><g><path d="M60 749h254.5"></path><g><path d="M314.5 749h10"></path><path d="M826.5 749h10"></path><g class="non-terminal "><path d="M324.5 749h0"></path><path d="M429.5 749h0"></path><rect x="324.5" y="738" width="105" height="22" rx="10" ry="10"></rect><text x="377" y="753">methodName</text></g><path d="M429.5 749h10"></path><path d="M439.5 749h10"></path><g class="terminal "><path d="M449.5 749h0"></path><path d="M495 749h0"></path><rect x="449.5" y="738" width="45.5" height="22"></rect><text x="472.25" y="753">'('</text></g><path d="M495 749h10"></path><g><path d="M505 749h0"></path><path d="M667 749h0"></path><path d="M505 749a10 10 0 0 0 10 -10v-7a10 10 0 0 1 10 -10"></path><g><path d="M525 722h122"></path></g><path d="M647 722a10 10 0 0 1 10 10v7a10 10 0 0 0 10 10"></path><path d="M505 749h20"></path><g class="non-terminal "><path d="M525 749h0"></path><path d="M647 749h0"></path><rect x="525" y="738" width="122" height="22" rx="10" ry="10"></rect><text x="586" y="753">argumentList</text></g><path d="M647 749h20"></path></g><path d="M667 749h10"></path><g class="terminal "><path d="M677 749h0"></path><path d="M722.5 749h0"></path><rect x="677" y="738" width="45.5" height="22"></rect><text x="699.75" y="753">')'</text></g><path d="M722.5 749h10"></path><g><path d="M732.5 749h0"></path><path d="M826.5 749h0"></path><path d="M732.5 749a10 10 0 0 0 10 -10v-7a10 10 0 0 1 10 -10"></path><g><path d="M752.5 722h54"></path></g><path d="M806.5 722a10 10 0 0 1 10 10v7a10 10 0 0 0 10 10"></path><path d="M732.5 749h20"></path><g class="non-terminal "><path d="M752.5 749h0"></path><path d="M806.5 749h0"></path><rect x="752.5" y="738" width="54" height="22" rx="10" ry="10"></rect><text x="779.5" y="753">pNNA</text></g><path d="M806.5 749h20"></path></g></g><path d="M836.5 749h254.5"></path></g><path d="M1091 749a10 10 0 0 0 10 -10v-682a10 10 0 0 1 10 -10"></path><path d="M40 47a10 10 0 0 1 10 10v736a10 10 0 0 0 10 10"></path><g><path d="M60 803h82.5"></path><g><path d="M142.5 803h10"></path><path d="M998.5 803h10"></path><g class="non-terminal "><path d="M152.5 803h0"></path><path d="M240.5 803h0"></path><rect x="152.5" y="792" width="88" height="22" rx="10" ry="10"></rect><text x="196.5" y="807">typeName</text></g><path d="M240.5 803h10"></path><path d="M250.5 803h10"></path><g class="terminal "><path d="M260.5 803h0"></path><path d="M306 803h0"></path><rect x="260.5" y="792" width="45.5" height="22"></rect><text x="283.25" y="807">'.'</text></g><path d="M306 803h10"></path><g><path d="M316 803h0"></path><path d="M486.5 803h0"></path><path d="M316 803a10 10 0 0 0 10 -10v-7a10 10 0 0 1 10 -10"></path><g><path d="M336 776h130.5"></path></g><path d="M466.5 776a10 10 0 0 1 10 10v7a10 10 0 0 0 10 10"></path><path d="M316 803h20"></path><g class="non-terminal "><path d="M336 803h0"></path><path d="M466.5 803h0"></path><rect x="336" y="792" width="130.5" height="22" rx="10" ry="10"></rect><text x="401.25" y="807">typeArguments</text></g><path d="M466.5 803h20"></path></g><path d="M486.5 803h10"></path><g class="non-terminal "><path d="M496.5 803h0"></path><path d="M601.5 803h0"></path><rect x="496.5" y="792" width="105" height="22" rx="10" ry="10"></rect><text x="549" y="807">identifier</text></g><path d="M601.5 803h10"></path><path d="M611.5 803h10"></path><g class="terminal "><path d="M621.5 803h0"></path><path d="M667 803h0"></path><rect x="621.5" y="792" width="45.5" height="22"></rect><text x="644.25" y="807">'('</text></g><path d="M667 803h10"></path><g><path d="M677 803h0"></path><path d="M839 803h0"></path><path d="M677 803a10 10 0 0 0 10 -10v-7a10 10 0 0 1 10 -10"></path><g><path d="M697 776h122"></path></g><path d="M819 776a10 10 0 0 1 10 10v7a10 10 0 0 0 10 10"></path><path d="M677 803h20"></path><g class="non-terminal "><path d="M697 803h0"></path><path d="M819 803h0"></path><rect x="697" y="792" width="122" height="22" rx="10" ry="10"></rect><text x="758" y="807">argumentList</text></g><path d="M819 803h20"></path></g><path d="M839 803h10"></path><g class="terminal "><path d="M849 803h0"></path><path d="M894.5 803h0"></path><rect x="849" y="792" width="45.5" height="22"></rect><text x="871.75" y="807">')'</text></g><path d="M894.5 803h10"></path><g><path d="M904.5 803h0"></path><path d="M998.5 803h0"></path><path d="M904.5 803a10 10 0 0 0 10 -10v-7a10 10 0 0 1 10 -10"></path><g><path d="M924.5 776h54"></path></g><path d="M978.5 776a10 10 0 0 1 10 10v7a10 10 0 0 0 10 10"></path><path d="M904.5 803h20"></path><g class="non-terminal "><path d="M924.5 803h0"></path><path d="M978.5 803h0"></path><rect x="924.5" y="792" width="54" height="22" rx="10" ry="10"></rect><text x="951.5" y="807">pNNA</text></g><path d="M978.5 803h20"></path></g></g><path d="M1008.5 803h82.5"></path></g><path d="M1091 803a10 10 0 0 0 10 -10v-736a10 10 0 0 1 10 -10"></path><path d="M40 47a10 10 0 0 1 10 10v790a10 10 0 0 0 10 10"></path><g><path d="M60 857h57"></path><g><path d="M117 857h10"></path><path d="M1024 857h10"></path><g class="non-terminal "><path d="M127 857h0"></path><path d="M266 857h0"></path><rect x="127" y="846" width="139" height="22" rx="10" ry="10"></rect><text x="196.5" y="861">expressionName</text></g><path d="M266 857h10"></path><path d="M276 857h10"></path><g class="terminal "><path d="M286 857h0"></path><path d="M331.5 857h0"></path><rect x="286" y="846" width="45.5" height="22"></rect><text x="308.75" y="861">'.'</text></g><path d="M331.5 857h10"></path><g><path d="M341.5 857h0"></path><path d="M512 857h0"></path><path d="M341.5 857a10 10 0 0 0 10 -10v-7a10 10 0 0 1 10 -10"></path><g><path d="M361.5 830h130.5"></path></g><path d="M492 830a10 10 0 0 1 10 10v7a10 10 0 0 0 10 10"></path><path d="M341.5 857h20"></path><g class="non-terminal "><path d="M361.5 857h0"></path><path d="M492 857h0"></path><rect x="361.5" y="846" width="130.5" height="22" rx="10" ry="10"></rect><text x="426.75" y="861">typeArguments</text></g><path d="M492 857h20"></path></g><path d="M512 857h10"></path><g class="non-terminal "><path d="M522 857h0"></path><path d="M627 857h0"></path><rect x="522" y="846" width="105" height="22" rx="10" ry="10"></rect><text x="574.5" y="861">identifier</text></g><path d="M627 857h10"></path><path d="M637 857h10"></path><g class="terminal "><path d="M647 857h0"></path><path d="M692.5 857h0"></path><rect x="647" y="846" width="45.5" height="22"></rect><text x="669.75" y="861">'('</text></g><path d="M692.5 857h10"></path><g><path d="M702.5 857h0"></path><path d="M864.5 857h0"></path><path d="M702.5 857a10 10 0 0 0 10 -10v-7a10 10 0 0 1 10 -10"></path><g><path d="M722.5 830h122"></path></g><path d="M844.5 830a10 10 0 0 1 10 10v7a10 10 0 0 0 10 10"></path><path d="M702.5 857h20"></path><g class="non-terminal "><path d="M722.5 857h0"></path><path d="M844.5 857h0"></path><rect x="722.5" y="846" width="122" height="22" rx="10" ry="10"></rect><text x="783.5" y="861">argumentList</text></g><path d="M844.5 857h20"></path></g><path d="M864.5 857h10"></path><g class="terminal "><path d="M874.5 857h0"></path><path d="M920 857h0"></path><rect x="874.5" y="846" width="45.5" height="22"></rect><text x="897.25" y="861">')'</text></g><path d="M920 857h10"></path><g><path d="M930 857h0"></path><path d="M1024 857h0"></path><path d="M930 857a10 10 0 0 0 10 -10v-7a10 10 0 0 1 10 -10"></path><g><path d="M950 830h54"></path></g><path d="M1004 830a10 10 0 0 1 10 10v7a10 10 0 0 0 10 10"></path><path d="M930 857h20"></path><g class="non-terminal "><path d="M950 857h0"></path><path d="M1004 857h0"></path><rect x="950" y="846" width="54" height="22" rx="10" ry="10"></rect><text x="977" y="861">pNNA</text></g><path d="M1004 857h20"></path></g></g><path d="M1034 857h57"></path></g><path d="M1091 857a10 10 0 0 0 10 -10v-790a10 10 0 0 1 10 -10"></path><path d="M40 47a10 10 0 0 1 10 10v844a10 10 0 0 0 10 10"></path><g><path d="M60 911h18.75"></path><g><path d="M78.75 911h10"></path><path d="M1062.25 911h10"></path><g class="non-terminal "><path d="M88.75 911h0"></path><path d="M304.25 911h0"></path><rect x="88.75" y="900" width="215.5" height="22" rx="10" ry="10"></rect><text x="196.5" y="915">arrayCreationExpression</text></g><path d="M304.25 911h10"></path><path d="M314.25 911h10"></path><g class="terminal "><path d="M324.25 911h0"></path><path d="M369.75 911h0"></path><rect x="324.25" y="900" width="45.5" height="22"></rect><text x="347" y="915">'.'</text></g><path d="M369.75 911h10"></path><g><path d="M379.75 911h0"></path><path d="M550.25 911h0"></path><path d="M379.75 911a10 10 0 0 0 10 -10v-7a10 10 0 0 1 10 -10"></path><g><path d="M399.75 884h130.5"></path></g><path d="M530.25 884a10 10 0 0 1 10 10v7a10 10 0 0 0 10 10"></path><path d="M379.75 911h20"></path><g class="non-terminal "><path d="M399.75 911h0"></path><path d="M530.25 911h0"></path><rect x="399.75" y="900" width="130.5" height="22" rx="10" ry="10"></rect><text x="465" y="915">typeArguments</text></g><path d="M530.25 911h20"></path></g><path d="M550.25 911h10"></path><g class="non-terminal "><path d="M560.25 911h0"></path><path d="M665.25 911h0"></path><rect x="560.25" y="900" width="105" height="22" rx="10" ry="10"></rect><text x="612.75" y="915">identifier</text></g><path d="M665.25 911h10"></path><path d="M675.25 911h10"></path><g class="terminal "><path d="M685.25 911h0"></path><path d="M730.75 911h0"></path><rect x="685.25" y="900" width="45.5" height="22"></rect><text x="708" y="915">'('</text></g><path d="M730.75 911h10"></path><g><path d="M740.75 911h0"></path><path d="M902.75 911h0"></path><path d="M740.75 911a10 10 0 0 0 10 -10v-7a10 10 0 0 1 10 -10"></path><g><path d="M760.75 884h122"></path></g><path d="M882.75 884a10 10 0 0 1 10 10v7a10 10 0 0 0 10 10"></path><path d="M740.75 911h20"></path><g class="non-terminal "><path d="M760.75 911h0"></path><path d="M882.75 911h0"></path><rect x="760.75" y="900" width="122" height="22" rx="10" ry="10"></rect><text x="821.75" y="915">argumentList</text></g><path d="M882.75 911h20"></path></g><path d="M902.75 911h10"></path><g class="terminal "><path d="M912.75 911h0"></path><path d="M958.25 911h0"></path><rect x="912.75" y="900" width="45.5" height="22"></rect><text x="935.5" y="915">')'</text></g><path d="M958.25 911h10"></path><g><path d="M968.25 911h0"></path><path d="M1062.25 911h0"></path><path d="M968.25 911a10 10 0 0 0 10 -10v-7a10 10 0 0 1 10 -10"></path><g><path d="M988.25 884h54"></path></g><path d="M1042.25 884a10 10 0 0 1 10 10v7a10 10 0 0 0 10 10"></path><path d="M968.25 911h20"></path><g class="non-terminal "><path d="M988.25 911h0"></path><path d="M1042.25 911h0"></path><rect x="988.25" y="900" width="54" height="22" rx="10" ry="10"></rect><text x="1015.25" y="915">pNNA</text></g><path d="M1042.25 911h20"></path></g></g><path d="M1072.25 911h18.75"></path></g><path d="M1091 911a10 10 0 0 0 10 -10v-844a10 10 0 0 1 10 -10"></path><path d="M40 47a10 10 0 0 1 10 10v898a10 10 0 0 0 10 10"></path><g><path d="M60 965h86.75"></path><g><path d="M146.75 965h10"></path><path d="M994.25 965h10"></path><g class="terminal "><path d="M156.75 965h0"></path><path d="M236.25 965h0"></path><rect x="156.75" y="954" width="79.5" height="22"></rect><text x="196.5" y="969">'super'</text></g><path d="M236.25 965h10"></path><path d="M246.25 965h10"></path><g class="terminal "><path d="M256.25 965h0"></path><path d="M301.75 965h0"></path><rect x="256.25" y="954" width="45.5" height="22"></rect><text x="279" y="969">'.'</text></g><path d="M301.75 965h10"></path><g><path d="M311.75 965h0"></path><path d="M482.25 965h0"></path><path d="M311.75 965a10 10 0 0 0 10 -10v-7a10 10 0 0 1 10 -10"></path><g><path d="M331.75 938h130.5"></path></g><path d="M462.25 938a10 10 0 0 1 10 10v7a10 10 0 0 0 10 10"></path><path d="M311.75 965h20"></path><g class="non-terminal "><path d="M331.75 965h0"></path><path d="M462.25 965h0"></path><rect x="331.75" y="954" width="130.5" height="22" rx="10" ry="10"></rect><text x="397" y="969">typeArguments</text></g><path d="M462.25 965h20"></path></g><path d="M482.25 965h10"></path><g class="non-terminal "><path d="M492.25 965h0"></path><path d="M597.25 965h0"></path><rect x="492.25" y="954" width="105" height="22" rx="10" ry="10"></rect><text x="544.75" y="969">identifier</text></g><path d="M597.25 965h10"></path><path d="M607.25 965h10"></path><g class="terminal "><path d="M617.25 965h0"></path><path d="M662.75 965h0"></path><rect x="617.25" y="954" width="45.5" height="22"></rect><text x="640" y="969">'('</text></g><path d="M662.75 965h10"></path><g><path d="M672.75 965h0"></path><path d="M834.75 965h0"></path><path d="M672.75 965a10 10 0 0 0 10 -10v-7a10 10 0 0 1 10 -10"></path><g><path d="M692.75 938h122"></path></g><path d="M814.75 938a10 10 0 0 1 10 10v7a10 10 0 0 0 10 10"></path><path d="M672.75 965h20"></path><g class="non-terminal "><path d="M692.75 965h0"></path><path d="M814.75 965h0"></path><rect x="692.75" y="954" width="122" height="22" rx="10" ry="10"></rect><text x="753.75" y="969">argumentList</text></g><path d="M814.75 965h20"></path></g><path d="M834.75 965h10"></path><g class="terminal "><path d="M844.75 965h0"></path><path d="M890.25 965h0"></path><rect x="844.75" y="954" width="45.5" height="22"></rect><text x="867.5" y="969">')'</text></g><path d="M890.25 965h10"></path><g><path d="M900.25 965h0"></path><path d="M994.25 965h0"></path><path d="M900.25 965a10 10 0 0 0 10 -10v-7a10 10 0 0 1 10 -10"></path><g><path d="M920.25 938h54"></path></g><path d="M974.25 938a10 10 0 0 1 10 10v7a10 10 0 0 0 10 10"></path><path d="M900.25 965h20"></path><g class="non-terminal "><path d="M920.25 965h0"></path><path d="M974.25 965h0"></path><rect x="920.25" y="954" width="54" height="22" rx="10" ry="10"></rect><text x="947.25" y="969">pNNA</text></g><path d="M974.25 965h20"></path></g></g><path d="M1004.25 965h86.75"></path></g><path d="M1091 965a10 10 0 0 0 10 -10v-898a10 10 0 0 1 10 -10"></path><path d="M40 47a10 10 0 0 1 10 10v952a10 10 0 0 0 10 10"></path><g><path d="M60 1019h0"></path><g><path d="M60 1019h10"></path><path d="M1081 1019h10"></path><g class="non-terminal "><path d="M70 1019h0"></path><path d="M158 1019h0"></path><rect x="70" y="1008" width="88" height="22" rx="10" ry="10"></rect><text x="114" y="1023">typeName</text></g><path d="M158 1019h10"></path><path d="M168 1019h10"></path><g class="terminal "><path d="M178 1019h0"></path><path d="M223.5 1019h0"></path><rect x="178" y="1008" width="45.5" height="22"></rect><text x="200.75" y="1023">'.'</text></g><path d="M223.5 1019h10"></path><path d="M233.5 1019h10"></path><g class="terminal "><path d="M243.5 1019h0"></path><path d="M323 1019h0"></path><rect x="243.5" y="1008" width="79.5" height="22"></rect><text x="283.25" y="1023">'super'</text></g><path d="M323 1019h10"></path><path d="M333 1019h10"></path><g class="terminal "><path d="M343 1019h0"></path><path d="M388.5 1019h0"></path><rect x="343" y="1008" width="45.5" height="22"></rect><text x="365.75" y="1023">'.'</text></g><path d="M388.5 1019h10"></path><g><path d="M398.5 1019h0"></path><path d="M569 1019h0"></path><path d="M398.5 1019a10 10 0 0 0 10 -10v-7a10 10 0 0 1 10 -10"></path><g><path d="M418.5 992h130.5"></path></g><path d="M549 992a10 10 0 0 1 10 10v7a10 10 0 0 0 10 10"></path><path d="M398.5 1019h20"></path><g class="non-terminal "><path d="M418.5 1019h0"></path><path d="M549 1019h0"></path><rect x="418.5" y="1008" width="130.5" height="22" rx="10" ry="10"></rect><text x="483.75" y="1023">typeArguments</text></g><path d="M549 1019h20"></path></g><path d="M569 1019h10"></path><g class="non-terminal "><path d="M579 1019h0"></path><path d="M684 1019h0"></path><rect x="579" y="1008" width="105" height="22" rx="10" ry="10"></rect><text x="631.5" y="1023">identifier</text></g><path d="M684 1019h10"></path><path d="M694 1019h10"></path><g class="terminal "><path d="M704 1019h0"></path><path d="M749.5 1019h0"></path><rect x="704" y="1008" width="45.5" height="22"></rect><text x="726.75" y="1023">'('</text></g><path d="M749.5 1019h10"></path><g><path d="M759.5 1019h0"></path><path d="M921.5 1019h0"></path><path d="M759.5 1019a10 10 0 0 0 10 -10v-7a10 10 0 0 1 10 -10"></path><g><path d="M779.5 992h122"></path></g><path d="M901.5 992a10 10 0 0 1 10 10v7a10 10 0 0 0 10 10"></path><path d="M759.5 1019h20"></path><g class="non-terminal "><path d="M779.5 1019h0"></path><path d="M901.5 1019h0"></path><rect x="779.5" y="1008" width="122" height="22" rx="10" ry="10"></rect><text x="840.5" y="1023">argumentList</text></g><path d="M901.5 1019h20"></path></g><path d="M921.5 1019h10"></path><g class="terminal "><path d="M931.5 1019h0"></path><path d="M977 1019h0"></path><rect x="931.5" y="1008" width="45.5" height="22"></rect><text x="954.25" y="1023">')'</text></g><path d="M977 1019h10"></path><g><path d="M987 1019h0"></path><path d="M1081 1019h0"></path><path d="M987 1019a10 10 0 0 0 10 -10v-7a10 10 0 0 1 10 -10"></path><g><path d="M1007 992h54"></path></g><path d="M1061 992a10 10 0 0 1 10 10v7a10 10 0 0 0 10 10"></path><path d="M987 1019h20"></path><g class="non-terminal "><path d="M1007 1019h0"></path><path d="M1061 1019h0"></path><rect x="1007" y="1008" width="54" height="22" rx="10" ry="10"></rect><text x="1034" y="1023">pNNA</text></g><path d="M1061 1019h20"></path></g></g><path d="M1091 1019h0"></path></g><path d="M1091 1019a10 10 0 0 0 10 -10v-952a10 10 0 0 1 10 -10"></path><path d="M40 47a10 10 0 0 1 10 10v1006a10 10 0 0 0 10 10"></path><g><path d="M60 1073h199.25"></path><g><path d="M259.25 1073h10"></path><path d="M881.75 1073h10"></path><g class="non-terminal "><path d="M269.25 1073h0"></path><path d="M408.25 1073h0"></path><rect x="269.25" y="1062" width="139" height="22" rx="10" ry="10"></rect><text x="338.75" y="1077">expressionName</text></g><path d="M408.25 1073h10"></path><path d="M418.25 1073h10"></path><g class="terminal "><path d="M428.25 1073h0"></path><path d="M482.25 1073h0"></path><rect x="428.25" y="1062" width="54" height="22"></rect><text x="455.25" y="1077">'::'</text></g><path d="M482.25 1073h10"></path><g><path d="M492.25 1073h0"></path><path d="M662.75 1073h0"></path><path d="M492.25 1073a10 10 0 0 0 10 -10v-7a10 10 0 0 1 10 -10"></path><g><path d="M512.25 1046h130.5"></path></g><path d="M642.75 1046a10 10 0 0 1 10 10v7a10 10 0 0 0 10 10"></path><path d="M492.25 1073h20"></path><g class="non-terminal "><path d="M512.25 1073h0"></path><path d="M642.75 1073h0"></path><rect x="512.25" y="1062" width="130.5" height="22" rx="10" ry="10"></rect><text x="577.5" y="1077">typeArguments</text></g><path d="M642.75 1073h20"></path></g><path d="M662.75 1073h10"></path><g class="non-terminal "><path d="M672.75 1073h0"></path><path d="M777.75 1073h0"></path><rect x="672.75" y="1062" width="105" height="22" rx="10" ry="10"></rect><text x="725.25" y="1077">identifier</text></g><path d="M777.75 1073h10"></path><g><path d="M787.75 1073h0"></path><path d="M881.75 1073h0"></path><path d="M787.75 1073a10 10 0 0 0 10 -10v-7a10 10 0 0 1 10 -10"></path><g><path d="M807.75 1046h54"></path></g><path d="M861.75 1046a10 10 0 0 1 10 10v7a10 10 0 0 0 10 10"></path><path d="M787.75 1073h20"></path><g class="non-terminal "><path d="M807.75 1073h0"></path><path d="M861.75 1073h0"></path><rect x="807.75" y="1062" width="54" height="22" rx="10" ry="10"></rect><text x="834.75" y="1077">pNNA</text></g><path d="M861.75 1073h20"></path></g></g><path d="M891.75 1073h199.25"></path></g><path d="M1091 1073a10 10 0 0 0 10 -10v-1006a10 10 0 0 1 10 -10"></path><path d="M40 47a10 10 0 0 1 10 10v1060a10 10 0 0 0 10 10"></path><g><path d="M60 1127h161"></path><g><path d="M221 1127h10"></path><path d="M920 1127h10"></path><g class="non-terminal "><path d="M231 1127h0"></path><path d="M446.5 1127h0"></path><rect x="231" y="1116" width="215.5" height="22" rx="10" ry="10"></rect><text x="338.75" y="1131">arrayCreationExpression</text></g><path d="M446.5 1127h10"></path><path d="M456.5 1127h10"></path><g class="terminal "><path d="M466.5 1127h0"></path><path d="M520.5 1127h0"></path><rect x="466.5" y="1116" width="54" height="22"></rect><text x="493.5" y="1131">'::'</text></g><path d="M520.5 1127h10"></path><g><path d="M530.5 1127h0"></path><path d="M701 1127h0"></path><path d="M530.5 1127a10 10 0 0 0 10 -10v-7a10 10 0 0 1 10 -10"></path><g><path d="M550.5 1100h130.5"></path></g><path d="M681 1100a10 10 0 0 1 10 10v7a10 10 0 0 0 10 10"></path><path d="M530.5 1127h20"></path><g class="non-terminal "><path d="M550.5 1127h0"></path><path d="M681 1127h0"></path><rect x="550.5" y="1116" width="130.5" height="22" rx="10" ry="10"></rect><text x="615.75" y="1131">typeArguments</text></g><path d="M681 1127h20"></path></g><path d="M701 1127h10"></path><g class="non-terminal "><path d="M711 1127h0"></path><path d="M816 1127h0"></path><rect x="711" y="1116" width="105" height="22" rx="10" ry="10"></rect><text x="763.5" y="1131">identifier</text></g><path d="M816 1127h10"></path><g><path d="M826 1127h0"></path><path d="M920 1127h0"></path><path d="M826 1127a10 10 0 0 0 10 -10v-7a10 10 0 0 1 10 -10"></path><g><path d="M846 1100h54"></path></g><path d="M900 1100a10 10 0 0 1 10 10v7a10 10 0 0 0 10 10"></path><path d="M826 1127h20"></path><g class="non-terminal "><path d="M846 1127h0"></path><path d="M900 1127h0"></path><rect x="846" y="1116" width="54" height="22" rx="10" ry="10"></rect><text x="873" y="1131">pNNA</text></g><path d="M900 1127h20"></path></g></g><path d="M930 1127h161"></path></g><path d="M1091 1127a10 10 0 0 0 10 -10v-1060a10 10 0 0 1 10 -10"></path><path d="M40 47a10 10 0 0 1 10 10v1114a10 10 0 0 0 10 10"></path><g><path d="M60 1181h203.5"></path><g><path d="M263.5 1181h10"></path><path d="M877.5 1181h10"></path><g class="non-terminal "><path d="M273.5 1181h0"></path><path d="M404 1181h0"></path><rect x="273.5" y="1170" width="130.5" height="22" rx="10" ry="10"></rect><text x="338.75" y="1185">referenceType</text></g><path d="M404 1181h10"></path><path d="M414 1181h10"></path><g class="terminal "><path d="M424 1181h0"></path><path d="M478 1181h0"></path><rect x="424" y="1170" width="54" height="22"></rect><text x="451" y="1185">'::'</text></g><path d="M478 1181h10"></path><g><path d="M488 1181h0"></path><path d="M658.5 1181h0"></path><path d="M488 1181a10 10 0 0 0 10 -10v-7a10 10 0 0 1 10 -10"></path><g><path d="M508 1154h130.5"></path></g><path d="M638.5 1154a10 10 0 0 1 10 10v7a10 10 0 0 0 10 10"></path><path d="M488 1181h20"></path><g class="non-terminal "><path d="M508 1181h0"></path><path d="M638.5 1181h0"></path><rect x="508" y="1170" width="130.5" height="22" rx="10" ry="10"></rect><text x="573.25" y="1185">typeArguments</text></g><path d="M638.5 1181h20"></path></g><path d="M658.5 1181h10"></path><g class="non-terminal "><path d="M668.5 1181h0"></path><path d="M773.5 1181h0"></path><rect x="668.5" y="1170" width="105" height="22" rx="10" ry="10"></rect><text x="721" y="1185">identifier</text></g><path d="M773.5 1181h10"></path><g><path d="M783.5 1181h0"></path><path d="M877.5 1181h0"></path><path d="M783.5 1181a10 10 0 0 0 10 -10v-7a10 10 0 0 1 10 -10"></path><g><path d="M803.5 1154h54"></path></g><path d="M857.5 1154a10 10 0 0 1 10 10v7a10 10 0 0 0 10 10"></path><path d="M783.5 1181h20"></path><g class="non-terminal "><path d="M803.5 1181h0"></path><path d="M857.5 1181h0"></path><rect x="803.5" y="1170" width="54" height="22" rx="10" ry="10"></rect><text x="830.5" y="1185">pNNA</text></g><path d="M857.5 1181h20"></path></g></g><path d="M887.5 1181h203.5"></path></g><path d="M1091 1181a10 10 0 0 0 10 -10v-1114a10 10 0 0 1 10 -10"></path><path d="M40 47a10 10 0 0 1 10 10v1168a10 10 0 0 0 10 10"></path><g><path d="M60 1235h229"></path><g><path d="M289 1235h10"></path><path d="M852 1235h10"></path><g class="terminal "><path d="M299 1235h0"></path><path d="M378.5 1235h0"></path><rect x="299" y="1224" width="79.5" height="22"></rect><text x="338.75" y="1239">'super'</text></g><path d="M378.5 1235h10"></path><path d="M388.5 1235h10"></path><g class="terminal "><path d="M398.5 1235h0"></path><path d="M452.5 1235h0"></path><rect x="398.5" y="1224" width="54" height="22"></rect><text x="425.5" y="1239">'::'</text></g><path d="M452.5 1235h10"></path><g><path d="M462.5 1235h0"></path><path d="M633 1235h0"></path><path d="M462.5 1235a10 10 0 0 0 10 -10v-7a10 10 0 0 1 10 -10"></path><g><path d="M482.5 1208h130.5"></path></g><path d="M613 1208a10 10 0 0 1 10 10v7a10 10 0 0 0 10 10"></path><path d="M462.5 1235h20"></path><g class="non-terminal "><path d="M482.5 1235h0"></path><path d="M613 1235h0"></path><rect x="482.5" y="1224" width="130.5" height="22" rx="10" ry="10"></rect><text x="547.75" y="1239">typeArguments</text></g><path d="M613 1235h20"></path></g><path d="M633 1235h10"></path><g class="non-terminal "><path d="M643 1235h0"></path><path d="M748 1235h0"></path><rect x="643" y="1224" width="105" height="22" rx="10" ry="10"></rect><text x="695.5" y="1239">identifier</text></g><path d="M748 1235h10"></path><g><path d="M758 1235h0"></path><path d="M852 1235h0"></path><path d="M758 1235a10 10 0 0 0 10 -10v-7a10 10 0 0 1 10 -10"></path><g><path d="M778 1208h54"></path></g><path d="M832 1208a10 10 0 0 1 10 10v7a10 10 0 0 0 10 10"></path><path d="M758 1235h20"></path><g class="non-terminal "><path d="M778 1235h0"></path><path d="M832 1235h0"></path><rect x="778" y="1224" width="54" height="22" rx="10" ry="10"></rect><text x="805" y="1239">pNNA</text></g><path d="M832 1235h20"></path></g></g><path d="M862 1235h229"></path></g><path d="M1091 1235a10 10 0 0 0 10 -10v-1168a10 10 0 0 1 10 -10"></path><path d="M40 47a10 10 0 0 1 10 10v1222a10 10 0 0 0 10 10"></path><g><path d="M60 1289h142.25"></path><g><path d="M202.25 1289h10"></path><path d="M938.75 1289h10"></path><g class="non-terminal "><path d="M212.25 1289h0"></path><path d="M300.25 1289h0"></path><rect x="212.25" y="1278" width="88" height="22" rx="10" ry="10"></rect><text x="256.25" y="1293">typeName</text></g><path d="M300.25 1289h10"></path><path d="M310.25 1289h10"></path><g class="terminal "><path d="M320.25 1289h0"></path><path d="M365.75 1289h0"></path><rect x="320.25" y="1278" width="45.5" height="22"></rect><text x="343" y="1293">'.'</text></g><path d="M365.75 1289h10"></path><path d="M375.75 1289h10"></path><g class="terminal "><path d="M385.75 1289h0"></path><path d="M465.25 1289h0"></path><rect x="385.75" y="1278" width="79.5" height="22"></rect><text x="425.5" y="1293">'super'</text></g><path d="M465.25 1289h10"></path><path d="M475.25 1289h10"></path><g class="terminal "><path d="M485.25 1289h0"></path><path d="M539.25 1289h0"></path><rect x="485.25" y="1278" width="54" height="22"></rect><text x="512.25" y="1293">'::'</text></g><path d="M539.25 1289h10"></path><g><path d="M549.25 1289h0"></path><path d="M719.75 1289h0"></path><path d="M549.25 1289a10 10 0 0 0 10 -10v-7a10 10 0 0 1 10 -10"></path><g><path d="M569.25 1262h130.5"></path></g><path d="M699.75 1262a10 10 0 0 1 10 10v7a10 10 0 0 0 10 10"></path><path d="M549.25 1289h20"></path><g class="non-terminal "><path d="M569.25 1289h0"></path><path d="M699.75 1289h0"></path><rect x="569.25" y="1278" width="130.5" height="22" rx="10" ry="10"></rect><text x="634.5" y="1293">typeArguments</text></g><path d="M699.75 1289h20"></path></g><path d="M719.75 1289h10"></path><g class="non-terminal "><path d="M729.75 1289h0"></path><path d="M834.75 1289h0"></path><rect x="729.75" y="1278" width="105" height="22" rx="10" ry="10"></rect><text x="782.25" y="1293">identifier</text></g><path d="M834.75 1289h10"></path><g><path d="M844.75 1289h0"></path><path d="M938.75 1289h0"></path><path d="M844.75 1289a10 10 0 0 0 10 -10v-7a10 10 0 0 1 10 -10"></path><g><path d="M864.75 1262h54"></path></g><path d="M918.75 1262a10 10 0 0 1 10 10v7a10 10 0 0 0 10 10"></path><path d="M844.75 1289h20"></path><g class="non-terminal "><path d="M864.75 1289h0"></path><path d="M918.75 1289h0"></path><rect x="864.75" y="1278" width="54" height="22" rx="10" ry="10"></rect><text x="891.75" y="1293">pNNA</text></g><path d="M918.75 1289h20"></path></g></g><path d="M948.75 1289h142.25"></path></g><path d="M1091 1289a10 10 0 0 0 10 -10v-1222a10 10 0 0 1 10 -10"></path><path d="M40 47a10 10 0 0 1 10 10v1276a10 10 0 0 0 10 10"></path><g><path d="M60 1343h241.75"></path><g><path d="M301.75 1343h10"></path><path d="M839.25 1343h10"></path><g class="non-terminal "><path d="M311.75 1343h0"></path><path d="M408.25 1343h0"></path><rect x="311.75" y="1332" width="96.5" height="22" rx="10" ry="10"></rect><text x="360" y="1347">classType</text></g><path d="M408.25 1343h10"></path><path d="M418.25 1343h10"></path><g class="terminal "><path d="M428.25 1343h0"></path><path d="M482.25 1343h0"></path><rect x="428.25" y="1332" width="54" height="22"></rect><text x="455.25" y="1347">'::'</text></g><path d="M482.25 1343h10"></path><g><path d="M492.25 1343h0"></path><path d="M662.75 1343h0"></path><path d="M492.25 1343a10 10 0 0 0 10 -10v-7a10 10 0 0 1 10 -10"></path><g><path d="M512.25 1316h130.5"></path></g><path d="M642.75 1316a10 10 0 0 1 10 10v7a10 10 0 0 0 10 10"></path><path d="M492.25 1343h20"></path><g class="non-terminal "><path d="M512.25 1343h0"></path><path d="M642.75 1343h0"></path><rect x="512.25" y="1332" width="130.5" height="22" rx="10" ry="10"></rect><text x="577.5" y="1347">typeArguments</text></g><path d="M642.75 1343h20"></path></g><path d="M662.75 1343h10"></path><g class="terminal "><path d="M672.75 1343h0"></path><path d="M735.25 1343h0"></path><rect x="672.75" y="1332" width="62.5" height="22"></rect><text x="704" y="1347">'new'</text></g><path d="M735.25 1343h10"></path><g><path d="M745.25 1343h0"></path><path d="M839.25 1343h0"></path><path d="M745.25 1343a10 10 0 0 0 10 -10v-7a10 10 0 0 1 10 -10"></path><g><path d="M765.25 1316h54"></path></g><path d="M819.25 1316a10 10 0 0 1 10 10v7a10 10 0 0 0 10 10"></path><path d="M745.25 1343h20"></path><g class="non-terminal "><path d="M765.25 1343h0"></path><path d="M819.25 1343h0"></path><rect x="765.25" y="1332" width="54" height="22" rx="10" ry="10"></rect><text x="792.25" y="1347">pNNA</text></g><path d="M819.25 1343h20"></path></g></g><path d="M849.25 1343h241.75"></path></g><path d="M1091 1343a10 10 0 0 0 10 -10v-1276a10 10 0 0 1 10 -10"></path><path d="M40 47a10 10 0 0 1 10 10v1330a10 10 0 0 0 10 10"></path><g><path d="M60 1397h327"></path><g><path d="M387 1397h10"></path><path d="M754 1397h10"></path><g class="non-terminal "><path d="M397 1397h0"></path><path d="M493.5 1397h0"></path><rect x="397" y="1386" width="96.5" height="22" rx="10" ry="10"></rect><text x="445.25" y="1401">arrayType</text></g><path d="M493.5 1397h10"></path><path d="M503.5 1397h10"></path><g class="terminal "><path d="M513.5 1397h0"></path><path d="M567.5 1397h0"></path><rect x="513.5" y="1386" width="54" height="22"></rect><text x="540.5" y="1401">'::'</text></g><path d="M567.5 1397h10"></path><path d="M577.5 1397h10"></path><g class="terminal "><path d="M587.5 1397h0"></path><path d="M650 1397h0"></path><rect x="587.5" y="1386" width="62.5" height="22"></rect><text x="618.75" y="1401">'new'</text></g><path d="M650 1397h10"></path><g><path d="M660 1397h0"></path><path d="M754 1397h0"></path><path d="M660 1397a10 10 0 0 0 10 -10v-7a10 10 0 0 1 10 -10"></path><g><path d="M680 1370h54"></path></g><path d="M734 1370a10 10 0 0 1 10 10v7a10 10 0 0 0 10 10"></path><path d="M660 1397h20"></path><g class="non-terminal "><path d="M680 1397h0"></path><path d="M734 1397h0"></path><rect x="680" y="1386" width="54" height="22" rx="10" ry="10"></rect><text x="707" y="1401">pNNA</text></g><path d="M734 1397h20"></path></g></g><path d="M764 1397h327"></path></g><path d="M1091 1397a10 10 0 0 0 10 -10v-1330a10 10 0 0 1 10 -10"></path></g><path d="M 1111 47 h 20 m 0 -10 v 20"></path></g><defs><style type="text/css"><![CDATA[
svg.railroad-diagram path { stroke-width: 2; stroke: darkgray; fill: rgba(0, 0, 0, 0);}/* All text except comments. */svg.railroad-diagram text { font: bold 12px Hack, "Source Code Pro", monospace; text-anchor: middle; fill: #404040;}/* Comment text */svg.railroad-diagram text.comment { font: italic 10px Hack, "Source Code Pro", monospace; fill: #404040;}/* The terminal boxes. */svg.railroad-diagram g.terminal rect { stroke-width: 2; stroke: #404040; fill: rgba(200, 200, 200, 1);}svg.railroad-diagram g.non-terminal rect { /* The non-terminal boxes. */ stroke-width: 2; stroke: #404040; fill: rgba(255, 255, 255, 1);}/* Multiple choice text, not working atm. */svg.railroad-diagram text.diagram-text { font-size: 12px Hack, "Source Code Pro", monospace; fill: red;}/* Multiple choice text, not working atm. */svg.railroad-diagram path.diagram-text { stroke-width: 1; stroke: red; fill: red; cursor: help;}
 ]]>
</style></defs></svg>