<?xml version="1.0" encoding="UTF-8" standalone="no"?>
<!DOCTYPE svg PUBLIC "-//W3C//DTD SVG 1.1//EN" "http://www.w3.org/Graphics/SVG/1.1/DTD/svg11.dtd">
<svg class="railroad-diagram" width="478.5" height="116" viewBox="0 0 478.5 116" id="primitiveType" xmlns="http://www.w3.org/2000/svg" xmlns:xlink="http://www.w3.org/1999/xlink"><g transform="translate(.5 .5)"><g><path d="M20 37v20m0 -10h20"></path></g><g><path d="M40 47h0"></path><path d="M438.5 47h0"></path><path d="M40 47h20"></path><g><path d="M60 47h0"></path><g><path d="M60 47h10"></path><path d="M408.5 47h10"></path><g><path d="M70 47h0"></path><path d="M235 47h0"></path><path d="M70 47a10 10 0 0 0 10 -10v-7a10 10 0 0 1 10 -10"></path><g><path d="M90 20h125"></path></g><path d="M215 20a10 10 0 0 1 10 10v7a10 10 0 0 0 10 10"></path><path d="M70 47h20"></path><g><path d="M90 47h0"></path><path d="M215 47h0"></path><path d="M90 47h10"></path><g class="non-terminal "><path d="M100 47h0"></path><path d="M205 47h0"></path><rect x="100" y="36" width="105" height="22" rx="10" ry="10"></rect><text x="152.5" y="51">annotation</text></g><path d="M205 47h10"></path><path d="M100 47a10 10 0 0 0 -10 10v7a10 10 0 0 0 10 10"></path><g><path d="M100 74h105"></path></g><path d="M205 74a10 10 0 0 0 10 -10v-7a10 10 0 0 0 -10 -10"></path></g><path d="M215 47h20"></path></g><g><path d="M235 47h0"></path><path d="M408.5 47h0"></path><path d="M235 47h20"></path><g><path d="M255 47h0"></path><g><path d="M255 47h10"></path><path d="M378.5 47h10"></path><g class="non-terminal "><path d="M265 47h0"></path><path d="M378.5 47h0"></path><rect x="265" y="36" width="113.5" height="22" rx="10" ry="10"></rect><text x="321.75" y="51">numericType</text></g></g><path d="M388.5 47h0"></path></g><path d="M388.5 47h20"></path><path d="M235 47a10 10 0 0 1 10 10v18a10 10 0 0 0 10 10"></path><g><path d="M255 85h8.5"></path><g><path d="M263.5 85h10"></path><path d="M370 85h10"></path><g class="terminal "><path d="M273.5 85h0"></path><path d="M370 85h0"></path><rect x="273.5" y="74" width="96.5" height="22"></rect><text x="321.75" y="89">'boolean'</text></g></g><path d="M380 85h8.5"></path></g><path d="M388.5 85a10 10 0 0 0 10 -10v-18a10 10 0 0 1 10 -10"></path></g></g><path d="M418.5 47h0"></path></g><path d="M418.5 47h20"></path></g><path d="M 438.5 47 h 20 m 0 -10 v 20"></path></g><defs><style type="text/css"><![CDATA[
svg.railroad-diagram path { stroke-width: 2; stroke: darkgray; fill: rgba(0, 0, 0, 0);}/* All text except comments. */svg.railroad-diagram text { font: bold 12px Hack, "Source Code Pro", monospace; text-anchor: middle; fill: #404040;}/* Comment text */svg.railroad-diagram text.comment { font: italic 10px Hack, "Source Code Pro", monospace; fill: #404040;}/* The terminal boxes. */svg.railroad-diagram g.terminal rect { stroke-width: 2; stroke: #404040; fill: rgba(200, 200, 200, 1);}svg.railroad-diagram g.non-terminal rect { /* The non-terminal boxes. */ stroke-width: 2; stroke: #404040; fill: rgba(255, 255, 255, 1);}/* Multiple choice text, not working atm. */svg.railroad-diagram text.diagram-text { font-size: 12px Hack, "Source Code Pro", monospace; fill: red;}/* Multiple choice text, not working atm. */svg.railroad-diagram path.diagram-text { stroke-width: 1; stroke: red; fill: red; cursor: help;}
 ]]>
</style></defs></svg>