<?xml version="1.0" encoding="UTF-8" standalone="no"?>
<!DOCTYPE svg PUBLIC "-//W3C//DTD SVG 1.1//EN" "http://www.w3.org/Graphics/SVG/1.1/DTD/svg11.dtd">
<svg class="railroad-diagram" width="773" height="94" viewBox="0 0 773 94" id="receiverParameter" xmlns="http://www.w3.org/2000/svg" xmlns:xlink="http://www.w3.org/1999/xlink"><g transform="translate(.5 .5)"><g><path d="M20 37v20m0 -10h20"></path></g><g><path d="M40 47h0"></path><path d="M733 47h0"></path><path d="M40 47h20"></path><g><path d="M60 47h0"></path><g><path d="M60 47h10"></path><path d="M703 47h10"></path><g><path d="M70 47h0"></path><path d="M235 47h0"></path><path d="M70 47a10 10 0 0 0 10 -10v-7a10 10 0 0 1 10 -10"></path><g><path d="M90 20h125"></path></g><path d="M215 20a10 10 0 0 1 10 10v7a10 10 0 0 0 10 10"></path><path d="M70 47h20"></path><g><path d="M90 47h0"></path><path d="M215 47h0"></path><path d="M90 47h10"></path><g class="non-terminal "><path d="M100 47h0"></path><path d="M205 47h0"></path><rect x="100" y="36" width="105" height="22" rx="10" ry="10"></rect><text x="152.5" y="51">annotation</text></g><path d="M205 47h10"></path><path d="M100 47a10 10 0 0 0 -10 10v7a10 10 0 0 0 10 10"></path><g><path d="M100 74h105"></path></g><path d="M205 74a10 10 0 0 0 10 -10v-7a10 10 0 0 0 -10 -10"></path></g><path d="M215 47h20"></path></g><path d="M235 47h10"></path><g class="non-terminal "><path d="M245 47h0"></path><path d="M341.5 47h0"></path><rect x="245" y="36" width="96.5" height="22" rx="10" ry="10"></rect><text x="293.25" y="51">unannType</text></g><path d="M341.5 47h10"></path><g><path d="M351.5 47h0"></path><path d="M622 47h0"></path><path d="M351.5 47a10 10 0 0 0 10 -10v-7a10 10 0 0 1 10 -10"></path><g><path d="M371.5 20h230.5"></path></g><path d="M602 20a10 10 0 0 1 10 10v7a10 10 0 0 0 10 10"></path><path d="M351.5 47h20"></path><g><path d="M371.5 47h0"></path><path d="M602 47h0"></path><path d="M371.5 47h20"></path><g><path d="M391.5 47h0"></path><g><path d="M391.5 47h10"></path><path d="M572 47h10"></path><g class="non-terminal "><path d="M401.5 47h0"></path><path d="M506.5 47h0"></path><rect x="401.5" y="36" width="105" height="22" rx="10" ry="10"></rect><text x="454" y="51">identifier</text></g><path d="M506.5 47h10"></path><path d="M516.5 47h10"></path><g class="terminal "><path d="M526.5 47h0"></path><path d="M572 47h0"></path><rect x="526.5" y="36" width="45.5" height="22"></rect><text x="549.25" y="51">'.'</text></g></g><path d="M582 47h0"></path></g><path d="M582 47h20"></path></g><path d="M602 47h20"></path></g><path d="M622 47h10"></path><g class="terminal "><path d="M632 47h0"></path><path d="M703 47h0"></path><rect x="632" y="36" width="71" height="22"></rect><text x="667.5" y="51">'this'</text></g></g><path d="M713 47h0"></path></g><path d="M713 47h20"></path></g><path d="M 733 47 h 20 m 0 -10 v 20"></path></g><defs><style type="text/css"><![CDATA[
svg.railroad-diagram path { stroke-width: 2; stroke: darkgray; fill: rgba(0, 0, 0, 0);}/* All text except comments. */svg.railroad-diagram text { font: bold 12px Hack, "Source Code Pro", monospace; text-anchor: middle; fill: #404040;}/* Comment text */svg.railroad-diagram text.comment { font: italic 10px Hack, "Source Code Pro", monospace; fill: #404040;}/* The terminal boxes. */svg.railroad-diagram g.terminal rect { stroke-width: 2; stroke: #404040; fill: rgba(200, 200, 200, 1);}svg.railroad-diagram g.non-terminal rect { /* The non-terminal boxes. */ stroke-width: 2; stroke: #404040; fill: rgba(255, 255, 255, 1);}/* Multiple choice text, not working atm. */svg.railroad-diagram text.diagram-text { font-size: 12px Hack, "Source Code Pro", monospace; fill: red;}/* Multiple choice text, not working atm. */svg.railroad-diagram path.diagram-text { stroke-width: 1; stroke: red; fill: red; cursor: help;}
 ]]>
</style></defs></svg>