<?xml version="1.0" encoding="UTF-8" standalone="no"?>
<!DOCTYPE svg PUBLIC "-//W3C//DTD SVG 1.1//EN" "http://www.w3.org/Graphics/SVG/1.1/DTD/svg11.dtd">
<svg class="railroad-diagram" width="647" height="132" viewBox="0 0 647 132" id="recordComponent" xmlns="http://www.w3.org/2000/svg" xmlns:xlink="http://www.w3.org/1999/xlink"><g transform="translate(.5 .5)"><g><path d="M20 37v20m0 -10h20"></path></g><g><path d="M40 47h0"></path><path d="M607 47h0"></path><path d="M40 47h20"></path><g><path d="M60 47h0"></path><g><path d="M60 47h10"></path><path d="M577 47h10"></path><g><path d="M70 47h0"></path><path d="M345.5 47h0"></path><path d="M70 47a10 10 0 0 0 10 -10v-7a10 10 0 0 1 10 -10"></path><g><path d="M90 20h235.5"></path></g><path d="M325.5 20a10 10 0 0 1 10 10v7a10 10 0 0 0 10 10"></path><path d="M70 47h20"></path><g><path d="M90 47h0"></path><path d="M325.5 47h0"></path><path d="M90 47h10"></path><g class="non-terminal "><path d="M100 47h0"></path><path d="M315.5 47h0"></path><rect x="100" y="36" width="215.5" height="22" rx="10" ry="10"></rect><text x="207.75" y="51">recordComponentModifier</text></g><path d="M315.5 47h10"></path><path d="M100 47a10 10 0 0 0 -10 10v7a10 10 0 0 0 10 10"></path><g><path d="M100 74h215.5"></path></g><path d="M315.5 74a10 10 0 0 0 10 -10v-7a10 10 0 0 0 -10 -10"></path></g><path d="M325.5 47h20"></path></g><path d="M345.5 47h10"></path><g class="non-terminal "><path d="M355.5 47h0"></path><path d="M452 47h0"></path><rect x="355.5" y="36" width="96.5" height="22" rx="10" ry="10"></rect><text x="403.75" y="51">unannType</text></g><path d="M452 47h10"></path><path d="M462 47h10"></path><g class="non-terminal "><path d="M472 47h0"></path><path d="M577 47h0"></path><rect x="472" y="36" width="105" height="22" rx="10" ry="10"></rect><text x="524.5" y="51">identifier</text></g></g><path d="M587 47h0"></path></g><path d="M587 47h20"></path><path d="M40 47a10 10 0 0 1 10 10v34a10 10 0 0 0 10 10"></path><g><path d="M60 101h124.5"></path><g><path d="M184.5 101h10"></path><path d="M452.5 101h10"></path><g class="non-terminal "><path d="M194.5 101h0"></path><path d="M452.5 101h0"></path><rect x="194.5" y="90" width="258" height="22" rx="10" ry="10"></rect><text x="323.5" y="105">variableArityRecordComponent</text></g></g><path d="M462.5 101h124.5"></path></g><path d="M587 101a10 10 0 0 0 10 -10v-34a10 10 0 0 1 10 -10"></path></g><path d="M 607 47 h 20 m 0 -10 v 20"></path></g><defs><style type="text/css"><![CDATA[
svg.railroad-diagram path { stroke-width: 2; stroke: darkgray; fill: rgba(0, 0, 0, 0);}/* All text except comments. */svg.railroad-diagram text { font: bold 12px Hack, "Source Code Pro", monospace; text-anchor: middle; fill: #404040;}/* Comment text */svg.railroad-diagram text.comment { font: italic 10px Hack, "Source Code Pro", monospace; fill: #404040;}/* The terminal boxes. */svg.railroad-diagram g.terminal rect { stroke-width: 2; stroke: #404040; fill: rgba(200, 200, 200, 1);}svg.railroad-diagram g.non-terminal rect { /* The non-terminal boxes. */ stroke-width: 2; stroke: #404040; fill: rgba(255, 255, 255, 1);}/* Multiple choice text, not working atm. */svg.railroad-diagram text.diagram-text { font-size: 12px Hack, "Source Code Pro", monospace; fill: red;}/* Multiple choice text, not working atm. */svg.railroad-diagram path.diagram-text { stroke-width: 1; stroke: red; fill: red; cursor: help;}
 ]]>
</style></defs></svg>