<?xml version="1.0" encoding="UTF-8" standalone="no"?>
<!DOCTYPE svg PUBLIC "-//W3C//DTD SVG 1.1//EN" "http://www.w3.org/Graphics/SVG/1.1/DTD/svg11.dtd">
<svg class="railroad-diagram" width="1221" height="94" viewBox="0 0 1221 94" id="recordDeclaration" xmlns="http://www.w3.org/2000/svg" xmlns:xlink="http://www.w3.org/1999/xlink"><g transform="translate(.5 .5)"><g><path d="M20 37v20m0 -10h20"></path></g><g><path d="M40 47h0"></path><path d="M1181 47h0"></path><path d="M40 47h20"></path><g><path d="M60 47h0"></path><g><path d="M60 47h10"></path><path d="M1151 47h10"></path><g><path d="M70 47h0"></path><path d="M260.5 47h0"></path><path d="M70 47a10 10 0 0 0 10 -10v-7a10 10 0 0 1 10 -10"></path><g><path d="M90 20h150.5"></path></g><path d="M240.5 20a10 10 0 0 1 10 10v7a10 10 0 0 0 10 10"></path><path d="M70 47h20"></path><g><path d="M90 47h0"></path><path d="M240.5 47h0"></path><path d="M90 47h10"></path><g class="non-terminal "><path d="M100 47h0"></path><path d="M230.5 47h0"></path><rect x="100" y="36" width="130.5" height="22" rx="10" ry="10"></rect><text x="165.25" y="51">classModifier</text></g><path d="M230.5 47h10"></path><path d="M100 47a10 10 0 0 0 -10 10v7a10 10 0 0 0 10 10"></path><g><path d="M100 74h130.5"></path></g><path d="M230.5 74a10 10 0 0 0 10 -10v-7a10 10 0 0 0 -10 -10"></path></g><path d="M240.5 47h20"></path></g><path d="M260.5 47h10"></path><g class="terminal "><path d="M270.5 47h0"></path><path d="M358.5 47h0"></path><rect x="270.5" y="36" width="88" height="22"></rect><text x="314.5" y="51">'record'</text></g><path d="M358.5 47h10"></path><path d="M368.5 47h10"></path><g class="non-terminal "><path d="M378.5 47h0"></path><path d="M517.5 47h0"></path><rect x="378.5" y="36" width="139" height="22" rx="10" ry="10"></rect><text x="448" y="51">typeIdentifier</text></g><path d="M517.5 47h10"></path><g><path d="M527.5 47h0"></path><path d="M706.5 47h0"></path><path d="M527.5 47a10 10 0 0 0 10 -10v-7a10 10 0 0 1 10 -10"></path><g><path d="M547.5 20h139"></path></g><path d="M686.5 20a10 10 0 0 1 10 10v7a10 10 0 0 0 10 10"></path><path d="M527.5 47h20"></path><g class="non-terminal "><path d="M547.5 47h0"></path><path d="M686.5 47h0"></path><rect x="547.5" y="36" width="139" height="22" rx="10" ry="10"></rect><text x="617" y="51">typeParameters</text></g><path d="M686.5 47h20"></path></g><path d="M706.5 47h10"></path><g class="non-terminal "><path d="M716.5 47h0"></path><path d="M838.5 47h0"></path><rect x="716.5" y="36" width="122" height="22" rx="10" ry="10"></rect><text x="777.5" y="51">recordHeader</text></g><path d="M838.5 47h10"></path><g><path d="M848.5 47h0"></path><path d="M1036 47h0"></path><path d="M848.5 47a10 10 0 0 0 10 -10v-7a10 10 0 0 1 10 -10"></path><g><path d="M868.5 20h147.5"></path></g><path d="M1016 20a10 10 0 0 1 10 10v7a10 10 0 0 0 10 10"></path><path d="M848.5 47h20"></path><g class="non-terminal "><path d="M868.5 47h0"></path><path d="M1016 47h0"></path><rect x="868.5" y="36" width="147.5" height="22" rx="10" ry="10"></rect><text x="942.25" y="51">classImplements</text></g><path d="M1016 47h20"></path></g><path d="M1036 47h10"></path><g class="non-terminal "><path d="M1046 47h0"></path><path d="M1151 47h0"></path><rect x="1046" y="36" width="105" height="22" rx="10" ry="10"></rect><text x="1098.5" y="51">recordBody</text></g></g><path d="M1161 47h0"></path></g><path d="M1161 47h20"></path></g><path d="M 1181 47 h 20 m 0 -10 v 20"></path></g><defs><style type="text/css"><![CDATA[
svg.railroad-diagram path { stroke-width: 2; stroke: darkgray; fill: rgba(0, 0, 0, 0);}/* All text except comments. */svg.railroad-diagram text { font: bold 12px Hack, "Source Code Pro", monospace; text-anchor: middle; fill: #404040;}/* Comment text */svg.railroad-diagram text.comment { font: italic 10px Hack, "Source Code Pro", monospace; fill: #404040;}/* The terminal boxes. */svg.railroad-diagram g.terminal rect { stroke-width: 2; stroke: #404040; fill: rgba(200, 200, 200, 1);}svg.railroad-diagram g.non-terminal rect { /* The non-terminal boxes. */ stroke-width: 2; stroke: #404040; fill: rgba(255, 255, 255, 1);}/* Multiple choice text, not working atm. */svg.railroad-diagram text.diagram-text { font-size: 12px Hack, "Source Code Pro", monospace; fill: red;}/* Multiple choice text, not working atm. */svg.railroad-diagram path.diagram-text { stroke-width: 1; stroke: red; fill: red; cursor: help;}
 ]]>
</style></defs></svg>