<?xml version="1.0" encoding="UTF-8" standalone="no"?>
<!DOCTYPE svg PUBLIC "-//W3C//DTD SVG 1.1//EN" "http://www.w3.org/Graphics/SVG/1.1/DTD/svg11.dtd">
<svg class="railroad-diagram" width="672.5" height="290" viewBox="0 0 672.5 290" id="relationalExpression" xmlns="http://www.w3.org/2000/svg" xmlns:xlink="http://www.w3.org/1999/xlink"><g transform="translate(.5 .5)"><g><path d="M20 21v20m0 -10h20"></path></g><g><path d="M40 31h0"></path><path d="M632.5 31h0"></path><path d="M40 31h20"></path><g><path d="M60 31h192.5"></path><g><path d="M252.5 31h10"></path><path d="M410 31h10"></path><g class="non-terminal "><path d="M262.5 31h0"></path><path d="M410 31h0"></path><rect x="262.5" y="20" width="147.5" height="22" rx="10" ry="10"></rect><text x="336.25" y="35">shiftExpression</text></g></g><path d="M420 31h192.5"></path></g><path d="M612.5 31h20"></path><path d="M40 31a10 10 0 0 1 10 10v18a10 10 0 0 0 10 10"></path><g><path d="M60 69h54.75"></path><g><path d="M114.75 69h10"></path><path d="M547.75 69h10"></path><g class="non-terminal "><path d="M124.75 69h0"></path><path d="M314.75 69h0"></path><rect x="124.75" y="58" width="190" height="22" rx="10" ry="10"></rect><text x="219.75" y="73">relationalExpression</text></g><path d="M314.75 69h10"></path><path d="M324.75 69h10"></path><g class="terminal "><path d="M334.75 69h0"></path><path d="M380.25 69h0"></path><rect x="334.75" y="58" width="45.5" height="22"></rect><text x="357.5" y="73">'&lt;'</text></g><path d="M380.25 69h10"></path><path d="M390.25 69h10"></path><g class="non-terminal "><path d="M400.25 69h0"></path><path d="M547.75 69h0"></path><rect x="400.25" y="58" width="147.5" height="22" rx="10" ry="10"></rect><text x="474" y="73">shiftExpression</text></g></g><path d="M557.75 69h54.75"></path></g><path d="M612.5 69a10 10 0 0 0 10 -10v-18a10 10 0 0 1 10 -10"></path><path d="M40 31a10 10 0 0 1 10 10v56a10 10 0 0 0 10 10"></path><g><path d="M60 107h54.75"></path><g><path d="M114.75 107h10"></path><path d="M547.75 107h10"></path><g class="non-terminal "><path d="M124.75 107h0"></path><path d="M314.75 107h0"></path><rect x="124.75" y="96" width="190" height="22" rx="10" ry="10"></rect><text x="219.75" y="111">relationalExpression</text></g><path d="M314.75 107h10"></path><path d="M324.75 107h10"></path><g class="terminal "><path d="M334.75 107h0"></path><path d="M380.25 107h0"></path><rect x="334.75" y="96" width="45.5" height="22"></rect><text x="357.5" y="111">'&gt;'</text></g><path d="M380.25 107h10"></path><path d="M390.25 107h10"></path><g class="non-terminal "><path d="M400.25 107h0"></path><path d="M547.75 107h0"></path><rect x="400.25" y="96" width="147.5" height="22" rx="10" ry="10"></rect><text x="474" y="111">shiftExpression</text></g></g><path d="M557.75 107h54.75"></path></g><path d="M612.5 107a10 10 0 0 0 10 -10v-56a10 10 0 0 1 10 -10"></path><path d="M40 31a10 10 0 0 1 10 10v94a10 10 0 0 0 10 10"></path><g><path d="M60 145h50.5"></path><g><path d="M110.5 145h10"></path><path d="M552 145h10"></path><g class="non-terminal "><path d="M120.5 145h0"></path><path d="M310.5 145h0"></path><rect x="120.5" y="134" width="190" height="22" rx="10" ry="10"></rect><text x="215.5" y="149">relationalExpression</text></g><path d="M310.5 145h10"></path><path d="M320.5 145h10"></path><g class="terminal "><path d="M330.5 145h0"></path><path d="M384.5 145h0"></path><rect x="330.5" y="134" width="54" height="22"></rect><text x="357.5" y="149">'&lt;='</text></g><path d="M384.5 145h10"></path><path d="M394.5 145h10"></path><g class="non-terminal "><path d="M404.5 145h0"></path><path d="M552 145h0"></path><rect x="404.5" y="134" width="147.5" height="22" rx="10" ry="10"></rect><text x="478.25" y="149">shiftExpression</text></g></g><path d="M562 145h50.5"></path></g><path d="M612.5 145a10 10 0 0 0 10 -10v-94a10 10 0 0 1 10 -10"></path><path d="M40 31a10 10 0 0 1 10 10v132a10 10 0 0 0 10 10"></path><g><path d="M60 183h50.5"></path><g><path d="M110.5 183h10"></path><path d="M552 183h10"></path><g class="non-terminal "><path d="M120.5 183h0"></path><path d="M310.5 183h0"></path><rect x="120.5" y="172" width="190" height="22" rx="10" ry="10"></rect><text x="215.5" y="187">relationalExpression</text></g><path d="M310.5 183h10"></path><path d="M320.5 183h10"></path><g class="terminal "><path d="M330.5 183h0"></path><path d="M384.5 183h0"></path><rect x="330.5" y="172" width="54" height="22"></rect><text x="357.5" y="187">'&gt;='</text></g><path d="M384.5 183h10"></path><path d="M394.5 183h10"></path><g class="non-terminal "><path d="M404.5 183h0"></path><path d="M552 183h0"></path><rect x="404.5" y="172" width="147.5" height="22" rx="10" ry="10"></rect><text x="478.25" y="187">shiftExpression</text></g></g><path d="M562 183h50.5"></path></g><path d="M612.5 183a10 10 0 0 0 10 -10v-132a10 10 0 0 1 10 -10"></path><path d="M40 31a10 10 0 0 1 10 10v170a10 10 0 0 0 10 10"></path><g><path d="M60 221h0"></path><g><path d="M60 221h10"></path><path d="M602.5 221h10"></path><g class="non-terminal "><path d="M70 221h0"></path><path d="M260 221h0"></path><rect x="70" y="210" width="190" height="22" rx="10" ry="10"></rect><text x="165" y="225">relationalExpression</text></g><path d="M260 221h10"></path><path d="M270 221h10"></path><g class="terminal "><path d="M280 221h0"></path><path d="M402 221h0"></path><rect x="280" y="210" width="122" height="22"></rect><text x="341" y="225">'instanceof'</text></g><path d="M402 221h10"></path><g><path d="M412 221h0"></path><path d="M602.5 221h0"></path><path d="M412 221h20"></path><g><path d="M432 221h0"></path><g><path d="M432 221h10"></path><path d="M572.5 221h10"></path><g class="non-terminal "><path d="M442 221h0"></path><path d="M572.5 221h0"></path><rect x="442" y="210" width="130.5" height="22" rx="10" ry="10"></rect><text x="507.25" y="225">referenceType</text></g></g><path d="M582.5 221h0"></path></g><path d="M582.5 221h20"></path><path d="M412 221a10 10 0 0 1 10 10v18a10 10 0 0 0 10 10"></path><g><path d="M432 259h25.5"></path><g><path d="M457.5 259h10"></path><path d="M547 259h10"></path><g class="non-terminal "><path d="M467.5 259h0"></path><path d="M547 259h0"></path><rect x="467.5" y="248" width="79.5" height="22" rx="10" ry="10"></rect><text x="507.25" y="263">pattern</text></g></g><path d="M557 259h25.5"></path></g><path d="M582.5 259a10 10 0 0 0 10 -10v-18a10 10 0 0 1 10 -10"></path></g></g><path d="M612.5 221h0"></path></g><path d="M612.5 221a10 10 0 0 0 10 -10v-170a10 10 0 0 1 10 -10"></path></g><path d="M 632.5 31 h 20 m 0 -10 v 20"></path></g><defs><style type="text/css"><![CDATA[
svg.railroad-diagram path { stroke-width: 2; stroke: darkgray; fill: rgba(0, 0, 0, 0);}/* All text except comments. */svg.railroad-diagram text { font: bold 12px Hack, "Source Code Pro", monospace; text-anchor: middle; fill: #404040;}/* Comment text */svg.railroad-diagram text.comment { font: italic 10px Hack, "Source Code Pro", monospace; fill: #404040;}/* The terminal boxes. */svg.railroad-diagram g.terminal rect { stroke-width: 2; stroke: #404040; fill: rgba(200, 200, 200, 1);}svg.railroad-diagram g.non-terminal rect { /* The non-terminal boxes. */ stroke-width: 2; stroke: #404040; fill: rgba(255, 255, 255, 1);}/* Multiple choice text, not working atm. */svg.railroad-diagram text.diagram-text { font-size: 12px Hack, "Source Code Pro", monospace; fill: red;}/* Multiple choice text, not working atm. */svg.railroad-diagram path.diagram-text { stroke-width: 1; stroke: red; fill: red; cursor: help;}
 ]]>
</style></defs></svg>