<?xml version="1.0" encoding="UTF-8" standalone="no"?>
<!DOCTYPE svg PUBLIC "-//W3C//DTD SVG 1.1//EN" "http://www.w3.org/Graphics/SVG/1.1/DTD/svg11.dtd">
<svg class="railroad-diagram" width="511.5" height="94" viewBox="0 0 511.5 94" id="resourceList" xmlns="http://www.w3.org/2000/svg" xmlns:xlink="http://www.w3.org/1999/xlink"><g transform="translate(.5 .5)"><g><path d="M20 37v20m0 -10h20"></path></g><g><path d="M40 47h0"></path><path d="M471.5 47h0"></path><path d="M40 47h20"></path><g><path d="M60 47h0"></path><g><path d="M60 47h10"></path><path d="M441.5 47h10"></path><g class="non-terminal "><path d="M70 47h0"></path><path d="M158 47h0"></path><rect x="70" y="36" width="88" height="22" rx="10" ry="10"></rect><text x="114" y="51">resource</text></g><path d="M158 47h10"></path><g><path d="M168 47h0"></path><path d="M441.5 47h0"></path><path d="M168 47a10 10 0 0 0 10 -10v-7a10 10 0 0 1 10 -10"></path><g><path d="M188 20h233.5"></path></g><path d="M421.5 20a10 10 0 0 1 10 10v7a10 10 0 0 0 10 10"></path><path d="M168 47h20"></path><g><path d="M188 47h0"></path><path d="M421.5 47h0"></path><path d="M188 47h10"></path><g><path d="M198 47h0"></path><path d="M411.5 47h0"></path><path d="M198 47h20"></path><g><path d="M218 47h0"></path><g><path d="M218 47h10"></path><path d="M381.5 47h10"></path><g class="terminal "><path d="M228 47h0"></path><path d="M273.5 47h0"></path><rect x="228" y="36" width="45.5" height="22"></rect><text x="250.75" y="51">';'</text></g><path d="M273.5 47h10"></path><path d="M283.5 47h10"></path><g class="non-terminal "><path d="M293.5 47h0"></path><path d="M381.5 47h0"></path><rect x="293.5" y="36" width="88" height="22" rx="10" ry="10"></rect><text x="337.5" y="51">resource</text></g></g><path d="M391.5 47h0"></path></g><path d="M391.5 47h20"></path></g><path d="M411.5 47h10"></path><path d="M198 47a10 10 0 0 0 -10 10v7a10 10 0 0 0 10 10"></path><g><path d="M198 74h213.5"></path></g><path d="M411.5 74a10 10 0 0 0 10 -10v-7a10 10 0 0 0 -10 -10"></path></g><path d="M421.5 47h20"></path></g></g><path d="M451.5 47h0"></path></g><path d="M451.5 47h20"></path></g><path d="M 471.5 47 h 20 m 0 -10 v 20"></path></g><defs><style type="text/css"><![CDATA[
svg.railroad-diagram path { stroke-width: 2; stroke: darkgray; fill: rgba(0, 0, 0, 0);}/* All text except comments. */svg.railroad-diagram text { font: bold 12px Hack, "Source Code Pro", monospace; text-anchor: middle; fill: #404040;}/* Comment text */svg.railroad-diagram text.comment { font: italic 10px Hack, "Source Code Pro", monospace; fill: #404040;}/* The terminal boxes. */svg.railroad-diagram g.terminal rect { stroke-width: 2; stroke: #404040; fill: rgba(200, 200, 200, 1);}svg.railroad-diagram g.non-terminal rect { /* The non-terminal boxes. */ stroke-width: 2; stroke: #404040; fill: rgba(255, 255, 255, 1);}/* Multiple choice text, not working atm. */svg.railroad-diagram text.diagram-text { font-size: 12px Hack, "Source Code Pro", monospace; fill: red;}/* Multiple choice text, not working atm. */svg.railroad-diagram path.diagram-text { stroke-width: 1; stroke: red; fill: red; cursor: help;}
 ]]>
</style></defs></svg>