<?xml version="1.0" encoding="UTF-8" standalone="no"?>
<!DOCTYPE svg PUBLIC "-//W3C//DTD SVG 1.1//EN" "http://www.w3.org/Graphics/SVG/1.1/DTD/svg11.dtd">
<svg class="railroad-diagram" width="677" height="176" viewBox="0 0 677 176" id="shiftExpression" xmlns="http://www.w3.org/2000/svg" xmlns:xlink="http://www.w3.org/1999/xlink"><g transform="translate(.5 .5)"><g><path d="M20 21v20m0 -10h20"></path></g><g><path d="M40 31h0"></path><path d="M637 31h0"></path><path d="M40 31h20"></path><g><path d="M60 31h182"></path><g><path d="M242 31h10"></path><path d="M425 31h10"></path><g class="non-terminal "><path d="M252 31h0"></path><path d="M425 31h0"></path><rect x="252" y="20" width="173" height="22" rx="10" ry="10"></rect><text x="338.5" y="35">additiveExpression</text></g></g><path d="M435 31h182"></path></g><path d="M617 31h20"></path><path d="M40 31a10 10 0 0 1 10 10v18a10 10 0 0 0 10 10"></path><g><path d="M60 69h32.75"></path><g><path d="M92.75 69h10"></path><path d="M574.25 69h10"></path><g class="non-terminal "><path d="M102.75 69h0"></path><path d="M250.25 69h0"></path><rect x="102.75" y="58" width="147.5" height="22" rx="10" ry="10"></rect><text x="176.5" y="73">shiftExpression</text></g><path d="M250.25 69h10"></path><path d="M260.25 69h10"></path><g class="terminal "><path d="M270.25 69h0"></path><path d="M315.75 69h0"></path><rect x="270.25" y="58" width="45.5" height="22"></rect><text x="293" y="73">'&lt;'</text></g><path d="M315.75 69h10"></path><path d="M325.75 69h10"></path><g class="terminal "><path d="M335.75 69h0"></path><path d="M381.25 69h0"></path><rect x="335.75" y="58" width="45.5" height="22"></rect><text x="358.5" y="73">'&lt;'</text></g><path d="M381.25 69h10"></path><path d="M391.25 69h10"></path><g class="non-terminal "><path d="M401.25 69h0"></path><path d="M574.25 69h0"></path><rect x="401.25" y="58" width="173" height="22" rx="10" ry="10"></rect><text x="487.75" y="73">additiveExpression</text></g></g><path d="M584.25 69h32.75"></path></g><path d="M617 69a10 10 0 0 0 10 -10v-18a10 10 0 0 1 10 -10"></path><path d="M40 31a10 10 0 0 1 10 10v56a10 10 0 0 0 10 10"></path><g><path d="M60 107h32.75"></path><g><path d="M92.75 107h10"></path><path d="M574.25 107h10"></path><g class="non-terminal "><path d="M102.75 107h0"></path><path d="M250.25 107h0"></path><rect x="102.75" y="96" width="147.5" height="22" rx="10" ry="10"></rect><text x="176.5" y="111">shiftExpression</text></g><path d="M250.25 107h10"></path><path d="M260.25 107h10"></path><g class="terminal "><path d="M270.25 107h0"></path><path d="M315.75 107h0"></path><rect x="270.25" y="96" width="45.5" height="22"></rect><text x="293" y="111">'&gt;'</text></g><path d="M315.75 107h10"></path><path d="M325.75 107h10"></path><g class="terminal "><path d="M335.75 107h0"></path><path d="M381.25 107h0"></path><rect x="335.75" y="96" width="45.5" height="22"></rect><text x="358.5" y="111">'&gt;'</text></g><path d="M381.25 107h10"></path><path d="M391.25 107h10"></path><g class="non-terminal "><path d="M401.25 107h0"></path><path d="M574.25 107h0"></path><rect x="401.25" y="96" width="173" height="22" rx="10" ry="10"></rect><text x="487.75" y="111">additiveExpression</text></g></g><path d="M584.25 107h32.75"></path></g><path d="M617 107a10 10 0 0 0 10 -10v-56a10 10 0 0 1 10 -10"></path><path d="M40 31a10 10 0 0 1 10 10v94a10 10 0 0 0 10 10"></path><g><path d="M60 145h0"></path><g><path d="M60 145h10"></path><path d="M607 145h10"></path><g class="non-terminal "><path d="M70 145h0"></path><path d="M217.5 145h0"></path><rect x="70" y="134" width="147.5" height="22" rx="10" ry="10"></rect><text x="143.75" y="149">shiftExpression</text></g><path d="M217.5 145h10"></path><path d="M227.5 145h10"></path><g class="terminal "><path d="M237.5 145h0"></path><path d="M283 145h0"></path><rect x="237.5" y="134" width="45.5" height="22"></rect><text x="260.25" y="149">'&gt;'</text></g><path d="M283 145h10"></path><path d="M293 145h10"></path><g class="terminal "><path d="M303 145h0"></path><path d="M348.5 145h0"></path><rect x="303" y="134" width="45.5" height="22"></rect><text x="325.75" y="149">'&gt;'</text></g><path d="M348.5 145h10"></path><path d="M358.5 145h10"></path><g class="terminal "><path d="M368.5 145h0"></path><path d="M414 145h0"></path><rect x="368.5" y="134" width="45.5" height="22"></rect><text x="391.25" y="149">'&gt;'</text></g><path d="M414 145h10"></path><path d="M424 145h10"></path><g class="non-terminal "><path d="M434 145h0"></path><path d="M607 145h0"></path><rect x="434" y="134" width="173" height="22" rx="10" ry="10"></rect><text x="520.5" y="149">additiveExpression</text></g></g><path d="M617 145h0"></path></g><path d="M617 145a10 10 0 0 0 10 -10v-94a10 10 0 0 1 10 -10"></path></g><path d="M 637 31 h 20 m 0 -10 v 20"></path></g><defs><style type="text/css"><![CDATA[
svg.railroad-diagram path { stroke-width: 2; stroke: darkgray; fill: rgba(0, 0, 0, 0);}/* All text except comments. */svg.railroad-diagram text { font: bold 12px Hack, "Source Code Pro", monospace; text-anchor: middle; fill: #404040;}/* Comment text */svg.railroad-diagram text.comment { font: italic 10px Hack, "Source Code Pro", monospace; fill: #404040;}/* The terminal boxes. */svg.railroad-diagram g.terminal rect { stroke-width: 2; stroke: #404040; fill: rgba(200, 200, 200, 1);}svg.railroad-diagram g.non-terminal rect { /* The non-terminal boxes. */ stroke-width: 2; stroke: #404040; fill: rgba(255, 255, 255, 1);}/* Multiple choice text, not working atm. */svg.railroad-diagram text.diagram-text { font-size: 12px Hack, "Source Code Pro", monospace; fill: red;}/* Multiple choice text, not working atm. */svg.railroad-diagram path.diagram-text { stroke-width: 1; stroke: red; fill: red; cursor: help;}
 ]]>
</style></defs></svg>