<?xml version="1.0" encoding="UTF-8" standalone="no"?>
<!DOCTYPE svg PUBLIC "-//W3C//DTD SVG 1.1//EN" "http://www.w3.org/Graphics/SVG/1.1/DTD/svg11.dtd">
<svg class="railroad-diagram" width="466" height="214" viewBox="0 0 466 214" id="statementNoShortIf" xmlns="http://www.w3.org/2000/svg" xmlns:xlink="http://www.w3.org/1999/xlink"><g transform="translate(.5 .5)"><g><path d="M20 21v20m0 -10h20"></path></g><g><path d="M40 31h0"></path><path d="M426 31h0"></path><path d="M40 31h20"></path><g><path d="M60 31h0"></path><g><path d="M60 31h10"></path><path d="M396 31h10"></path><g class="non-terminal "><path d="M70 31h0"></path><path d="M396 31h0"></path><rect x="70" y="20" width="326" height="22" rx="10" ry="10"></rect><text x="233" y="35">statementWithoutTrailingSubstatement</text></g></g><path d="M406 31h0"></path></g><path d="M406 31h20"></path><path d="M40 31a10 10 0 0 1 10 10v18a10 10 0 0 0 10 10"></path><g><path d="M60 69h46.75"></path><g><path d="M106.75 69h10"></path><path d="M349.25 69h10"></path><g class="non-terminal "><path d="M116.75 69h0"></path><path d="M349.25 69h0"></path><rect x="116.75" y="58" width="232.5" height="22" rx="10" ry="10"></rect><text x="233" y="73">labeledStatementNoShortIf</text></g></g><path d="M359.25 69h46.75"></path></g><path d="M406 69a10 10 0 0 0 10 -10v-18a10 10 0 0 1 10 -10"></path><path d="M40 31a10 10 0 0 1 10 10v56a10 10 0 0 0 10 10"></path><g><path d="M60 107h34"></path><g><path d="M94 107h10"></path><path d="M362 107h10"></path><g class="non-terminal "><path d="M104 107h0"></path><path d="M362 107h0"></path><rect x="104" y="96" width="258" height="22" rx="10" ry="10"></rect><text x="233" y="111">ifThenElseStatementNoShortIf</text></g></g><path d="M372 107h34"></path></g><path d="M406 107a10 10 0 0 0 10 -10v-56a10 10 0 0 1 10 -10"></path><path d="M40 31a10 10 0 0 1 10 10v94a10 10 0 0 0 10 10"></path><g><path d="M60 145h55.25"></path><g><path d="M115.25 145h10"></path><path d="M340.75 145h10"></path><g class="non-terminal "><path d="M125.25 145h0"></path><path d="M340.75 145h0"></path><rect x="125.25" y="134" width="215.5" height="22" rx="10" ry="10"></rect><text x="233" y="149">whileStatementNoShortIf</text></g></g><path d="M350.75 145h55.25"></path></g><path d="M406 145a10 10 0 0 0 10 -10v-94a10 10 0 0 1 10 -10"></path><path d="M40 31a10 10 0 0 1 10 10v132a10 10 0 0 0 10 10"></path><g><path d="M60 183h63.75"></path><g><path d="M123.75 183h10"></path><path d="M332.25 183h10"></path><g class="non-terminal "><path d="M133.75 183h0"></path><path d="M332.25 183h0"></path><rect x="133.75" y="172" width="198.5" height="22" rx="10" ry="10"></rect><text x="233" y="187">forStatementNoShortIf</text></g></g><path d="M342.25 183h63.75"></path></g><path d="M406 183a10 10 0 0 0 10 -10v-132a10 10 0 0 1 10 -10"></path></g><path d="M 426 31 h 20 m 0 -10 v 20"></path></g><defs><style type="text/css"><![CDATA[
svg.railroad-diagram path { stroke-width: 2; stroke: darkgray; fill: rgba(0, 0, 0, 0);}/* All text except comments. */svg.railroad-diagram text { font: bold 12px Hack, "Source Code Pro", monospace; text-anchor: middle; fill: #404040;}/* Comment text */svg.railroad-diagram text.comment { font: italic 10px Hack, "Source Code Pro", monospace; fill: #404040;}/* The terminal boxes. */svg.railroad-diagram g.terminal rect { stroke-width: 2; stroke: #404040; fill: rgba(200, 200, 200, 1);}svg.railroad-diagram g.non-terminal rect { /* The non-terminal boxes. */ stroke-width: 2; stroke: #404040; fill: rgba(255, 255, 255, 1);}/* Multiple choice text, not working atm. */svg.railroad-diagram text.diagram-text { font-size: 12px Hack, "Source Code Pro", monospace; fill: red;}/* Multiple choice text, not working atm. */svg.railroad-diagram path.diagram-text { stroke-width: 1; stroke: red; fill: red; cursor: help;}
 ]]>
</style></defs></svg>