<?xml version="1.0" encoding="UTF-8" standalone="no"?>
<!DOCTYPE svg PUBLIC "-//W3C//DTD SVG 1.1//EN" "http://www.w3.org/Graphics/SVG/1.1/DTD/svg11.dtd">
<svg class="railroad-diagram" width="466" height="252" viewBox="0 0 466 252" id="statement" xmlns="http://www.w3.org/2000/svg" xmlns:xlink="http://www.w3.org/1999/xlink"><g transform="translate(.5 .5)"><g><path d="M20 21v20m0 -10h20"></path></g><g><path d="M40 31h0"></path><path d="M426 31h0"></path><path d="M40 31h20"></path><g><path d="M60 31h0"></path><g><path d="M60 31h10"></path><path d="M396 31h10"></path><g class="non-terminal "><path d="M70 31h0"></path><path d="M396 31h0"></path><rect x="70" y="20" width="326" height="22" rx="10" ry="10"></rect><text x="233" y="35">statementWithoutTrailingSubstatement</text></g></g><path d="M406 31h0"></path></g><path d="M406 31h20"></path><path d="M40 31a10 10 0 0 1 10 10v18a10 10 0 0 0 10 10"></path><g><path d="M60 69h85"></path><g><path d="M145 69h10"></path><path d="M311 69h10"></path><g class="non-terminal "><path d="M155 69h0"></path><path d="M311 69h0"></path><rect x="155" y="58" width="156" height="22" rx="10" ry="10"></rect><text x="233" y="73">labeledStatement</text></g></g><path d="M321 69h85"></path></g><path d="M406 69a10 10 0 0 0 10 -10v-18a10 10 0 0 1 10 -10"></path><path d="M40 31a10 10 0 0 1 10 10v56a10 10 0 0 0 10 10"></path><g><path d="M60 107h89.25"></path><g><path d="M149.25 107h10"></path><path d="M306.75 107h10"></path><g class="non-terminal "><path d="M159.25 107h0"></path><path d="M306.75 107h0"></path><rect x="159.25" y="96" width="147.5" height="22" rx="10" ry="10"></rect><text x="233" y="111">ifThenStatement</text></g></g><path d="M316.75 107h89.25"></path></g><path d="M406 107a10 10 0 0 0 10 -10v-56a10 10 0 0 1 10 -10"></path><path d="M40 31a10 10 0 0 1 10 10v94a10 10 0 0 0 10 10"></path><g><path d="M60 145h72.25"></path><g><path d="M132.25 145h10"></path><path d="M323.75 145h10"></path><g class="non-terminal "><path d="M142.25 145h0"></path><path d="M323.75 145h0"></path><rect x="142.25" y="134" width="181.5" height="22" rx="10" ry="10"></rect><text x="233" y="149">ifThenElseStatement</text></g></g><path d="M333.75 145h72.25"></path></g><path d="M406 145a10 10 0 0 0 10 -10v-94a10 10 0 0 1 10 -10"></path><path d="M40 31a10 10 0 0 1 10 10v132a10 10 0 0 0 10 10"></path><g><path d="M60 183h93.5"></path><g><path d="M153.5 183h10"></path><path d="M302.5 183h10"></path><g class="non-terminal "><path d="M163.5 183h0"></path><path d="M302.5 183h0"></path><rect x="163.5" y="172" width="139" height="22" rx="10" ry="10"></rect><text x="233" y="187">whileStatement</text></g></g><path d="M312.5 183h93.5"></path></g><path d="M406 183a10 10 0 0 0 10 -10v-132a10 10 0 0 1 10 -10"></path><path d="M40 31a10 10 0 0 1 10 10v170a10 10 0 0 0 10 10"></path><g><path d="M60 221h102"></path><g><path d="M162 221h10"></path><path d="M294 221h10"></path><g class="non-terminal "><path d="M172 221h0"></path><path d="M294 221h0"></path><rect x="172" y="210" width="122" height="22" rx="10" ry="10"></rect><text x="233" y="225">forStatement</text></g></g><path d="M304 221h102"></path></g><path d="M406 221a10 10 0 0 0 10 -10v-170a10 10 0 0 1 10 -10"></path></g><path d="M 426 31 h 20 m 0 -10 v 20"></path></g><defs><style type="text/css"><![CDATA[
svg.railroad-diagram path { stroke-width: 2; stroke: darkgray; fill: rgba(0, 0, 0, 0);}/* All text except comments. */svg.railroad-diagram text { font: bold 12px Hack, "Source Code Pro", monospace; text-anchor: middle; fill: #404040;}/* Comment text */svg.railroad-diagram text.comment { font: italic 10px Hack, "Source Code Pro", monospace; fill: #404040;}/* The terminal boxes. */svg.railroad-diagram g.terminal rect { stroke-width: 2; stroke: #404040; fill: rgba(200, 200, 200, 1);}svg.railroad-diagram g.non-terminal rect { /* The non-terminal boxes. */ stroke-width: 2; stroke: #404040; fill: rgba(255, 255, 255, 1);}/* Multiple choice text, not working atm. */svg.railroad-diagram text.diagram-text { font-size: 12px Hack, "Source Code Pro", monospace; fill: red;}/* Multiple choice text, not working atm. */svg.railroad-diagram path.diagram-text { stroke-width: 1; stroke: red; fill: red; cursor: help;}
 ]]>
</style></defs></svg>