<?xml version="1.0" encoding="UTF-8" standalone="no"?>
<!DOCTYPE svg PUBLIC "-//W3C//DTD SVG 1.1//EN" "http://www.w3.org/Graphics/SVG/1.1/DTD/svg11.dtd">
<svg class="railroad-diagram" width="338.5" height="518" viewBox="0 0 338.5 518" id="statementWithoutTrailingSubstatement" xmlns="http://www.w3.org/2000/svg" xmlns:xlink="http://www.w3.org/1999/xlink"><g transform="translate(.5 .5)"><g><path d="M20 21v20m0 -10h20"></path></g><g><path d="M40 31h0"></path><path d="M298.5 31h0"></path><path d="M40 31h20"></path><g><path d="M60 31h68"></path><g><path d="M128 31h10"></path><path d="M200.5 31h10"></path><g class="non-terminal "><path d="M138 31h0"></path><path d="M200.5 31h0"></path><rect x="138" y="20" width="62.5" height="22" rx="10" ry="10"></rect><text x="169.25" y="35">block</text></g></g><path d="M210.5 31h68"></path></g><path d="M278.5 31h20"></path><path d="M40 31a10 10 0 0 1 10 10v18a10 10 0 0 0 10 10"></path><g><path d="M60 69h25.5"></path><g><path d="M85.5 69h10"></path><path d="M243 69h10"></path><g class="non-terminal "><path d="M95.5 69h0"></path><path d="M243 69h0"></path><rect x="95.5" y="58" width="147.5" height="22" rx="10" ry="10"></rect><text x="169.25" y="73">emptyStatement_</text></g></g><path d="M253 69h25.5"></path></g><path d="M278.5 69a10 10 0 0 0 10 -10v-18a10 10 0 0 1 10 -10"></path><path d="M40 31a10 10 0 0 1 10 10v56a10 10 0 0 0 10 10"></path><g><path d="M60 107h8.5"></path><g><path d="M68.5 107h10"></path><path d="M260 107h10"></path><g class="non-terminal "><path d="M78.5 107h0"></path><path d="M260 107h0"></path><rect x="78.5" y="96" width="181.5" height="22" rx="10" ry="10"></rect><text x="169.25" y="111">expressionStatement</text></g></g><path d="M270 107h8.5"></path></g><path d="M278.5 107a10 10 0 0 0 10 -10v-56a10 10 0 0 1 10 -10"></path><path d="M40 31a10 10 0 0 1 10 10v94a10 10 0 0 0 10 10"></path><g><path d="M60 145h25.5"></path><g><path d="M85.5 145h10"></path><path d="M243 145h10"></path><g class="non-terminal "><path d="M95.5 145h0"></path><path d="M243 145h0"></path><rect x="95.5" y="134" width="147.5" height="22" rx="10" ry="10"></rect><text x="169.25" y="149">assertStatement</text></g></g><path d="M253 145h25.5"></path></g><path d="M278.5 145a10 10 0 0 0 10 -10v-94a10 10 0 0 1 10 -10"></path><path d="M40 31a10 10 0 0 1 10 10v132a10 10 0 0 0 10 10"></path><g><path d="M60 183h25.5"></path><g><path d="M85.5 183h10"></path><path d="M243 183h10"></path><g class="non-terminal "><path d="M95.5 183h0"></path><path d="M243 183h0"></path><rect x="95.5" y="172" width="147.5" height="22" rx="10" ry="10"></rect><text x="169.25" y="187">switchStatement</text></g></g><path d="M253 183h25.5"></path></g><path d="M278.5 183a10 10 0 0 0 10 -10v-132a10 10 0 0 1 10 -10"></path><path d="M40 31a10 10 0 0 1 10 10v170a10 10 0 0 0 10 10"></path><g><path d="M60 221h42.5"></path><g><path d="M102.5 221h10"></path><path d="M226 221h10"></path><g class="non-terminal "><path d="M112.5 221h0"></path><path d="M226 221h0"></path><rect x="112.5" y="210" width="113.5" height="22" rx="10" ry="10"></rect><text x="169.25" y="225">doStatement</text></g></g><path d="M236 221h42.5"></path></g><path d="M278.5 221a10 10 0 0 0 10 -10v-170a10 10 0 0 1 10 -10"></path><path d="M40 31a10 10 0 0 1 10 10v208a10 10 0 0 0 10 10"></path><g><path d="M60 259h29.75"></path><g><path d="M89.75 259h10"></path><path d="M238.75 259h10"></path><g class="non-terminal "><path d="M99.75 259h0"></path><path d="M238.75 259h0"></path><rect x="99.75" y="248" width="139" height="22" rx="10" ry="10"></rect><text x="169.25" y="263">breakStatement</text></g></g><path d="M248.75 259h29.75"></path></g><path d="M278.5 259a10 10 0 0 0 10 -10v-208a10 10 0 0 1 10 -10"></path><path d="M40 31a10 10 0 0 1 10 10v246a10 10 0 0 0 10 10"></path><g><path d="M60 297h17"></path><g><path d="M77 297h10"></path><path d="M251.5 297h10"></path><g class="non-terminal "><path d="M87 297h0"></path><path d="M251.5 297h0"></path><rect x="87" y="286" width="164.5" height="22" rx="10" ry="10"></rect><text x="169.25" y="301">continueStatement</text></g></g><path d="M261.5 297h17"></path></g><path d="M278.5 297a10 10 0 0 0 10 -10v-246a10 10 0 0 1 10 -10"></path><path d="M40 31a10 10 0 0 1 10 10v284a10 10 0 0 0 10 10"></path><g><path d="M60 335h25.5"></path><g><path d="M85.5 335h10"></path><path d="M243 335h10"></path><g class="non-terminal "><path d="M95.5 335h0"></path><path d="M243 335h0"></path><rect x="95.5" y="324" width="147.5" height="22" rx="10" ry="10"></rect><text x="169.25" y="339">returnStatement</text></g></g><path d="M253 335h25.5"></path></g><path d="M278.5 335a10 10 0 0 0 10 -10v-284a10 10 0 0 1 10 -10"></path><path d="M40 31a10 10 0 0 1 10 10v322a10 10 0 0 0 10 10"></path><g><path d="M60 373h0"></path><g><path d="M60 373h10"></path><path d="M268.5 373h10"></path><g class="non-terminal "><path d="M70 373h0"></path><path d="M268.5 373h0"></path><rect x="70" y="362" width="198.5" height="22" rx="10" ry="10"></rect><text x="169.25" y="377">synchronizedStatement</text></g></g><path d="M278.5 373h0"></path></g><path d="M278.5 373a10 10 0 0 0 10 -10v-322a10 10 0 0 1 10 -10"></path><path d="M40 31a10 10 0 0 1 10 10v360a10 10 0 0 0 10 10"></path><g><path d="M60 411h29.75"></path><g><path d="M89.75 411h10"></path><path d="M238.75 411h10"></path><g class="non-terminal "><path d="M99.75 411h0"></path><path d="M238.75 411h0"></path><rect x="99.75" y="400" width="139" height="22" rx="10" ry="10"></rect><text x="169.25" y="415">throwStatement</text></g></g><path d="M248.75 411h29.75"></path></g><path d="M278.5 411a10 10 0 0 0 10 -10v-360a10 10 0 0 1 10 -10"></path><path d="M40 31a10 10 0 0 1 10 10v398a10 10 0 0 0 10 10"></path><g><path d="M60 449h38.25"></path><g><path d="M98.25 449h10"></path><path d="M230.25 449h10"></path><g class="non-terminal "><path d="M108.25 449h0"></path><path d="M230.25 449h0"></path><rect x="108.25" y="438" width="122" height="22" rx="10" ry="10"></rect><text x="169.25" y="453">tryStatement</text></g></g><path d="M240.25 449h38.25"></path></g><path d="M278.5 449a10 10 0 0 0 10 -10v-398a10 10 0 0 1 10 -10"></path><path d="M40 31a10 10 0 0 1 10 10v436a10 10 0 0 0 10 10"></path><g><path d="M60 487h29.75"></path><g><path d="M89.75 487h10"></path><path d="M238.75 487h10"></path><g class="non-terminal "><path d="M99.75 487h0"></path><path d="M238.75 487h0"></path><rect x="99.75" y="476" width="139" height="22" rx="10" ry="10"></rect><text x="169.25" y="491">yieldStatement</text></g></g><path d="M248.75 487h29.75"></path></g><path d="M278.5 487a10 10 0 0 0 10 -10v-436a10 10 0 0 1 10 -10"></path></g><path d="M 298.5 31 h 20 m 0 -10 v 20"></path></g><defs><style type="text/css"><![CDATA[
svg.railroad-diagram path { stroke-width: 2; stroke: darkgray; fill: rgba(0, 0, 0, 0);}/* All text except comments. */svg.railroad-diagram text { font: bold 12px Hack, "Source Code Pro", monospace; text-anchor: middle; fill: #404040;}/* Comment text */svg.railroad-diagram text.comment { font: italic 10px Hack, "Source Code Pro", monospace; fill: #404040;}/* The terminal boxes. */svg.railroad-diagram g.terminal rect { stroke-width: 2; stroke: #404040; fill: rgba(200, 200, 200, 1);}svg.railroad-diagram g.non-terminal rect { /* The non-terminal boxes. */ stroke-width: 2; stroke: #404040; fill: rgba(255, 255, 255, 1);}/* Multiple choice text, not working atm. */svg.railroad-diagram text.diagram-text { font-size: 12px Hack, "Source Code Pro", monospace; fill: red;}/* Multiple choice text, not working atm. */svg.railroad-diagram path.diagram-text { stroke-width: 1; stroke: red; fill: red; cursor: help;}
 ]]>
</style></defs></svg>