<?xml version="1.0" encoding="UTF-8" standalone="no"?>
<!DOCTYPE svg PUBLIC "-//W3C//DTD SVG 1.1//EN" "http://www.w3.org/Graphics/SVG/1.1/DTD/svg11.dtd">
<svg class="railroad-diagram" width="423.5" height="290" viewBox="0 0 423.5 290" id="statementExpression" xmlns="http://www.w3.org/2000/svg" xmlns:xlink="http://www.w3.org/1999/xlink"><g transform="translate(.5 .5)"><g><path d="M20 21v20m0 -10h20"></path></g><g><path d="M40 31h0"></path><path d="M383.5 31h0"></path><path d="M40 31h20"></path><g><path d="M60 31h89.25"></path><g><path d="M149.25 31h10"></path><path d="M264.25 31h10"></path><g class="non-terminal "><path d="M159.25 31h0"></path><path d="M264.25 31h0"></path><rect x="159.25" y="20" width="105" height="22" rx="10" ry="10"></rect><text x="211.75" y="35">assignment</text></g></g><path d="M274.25 31h89.25"></path></g><path d="M363.5 31h20"></path><path d="M40 31a10 10 0 0 1 10 10v18a10 10 0 0 0 10 10"></path><g><path d="M60 69h38.25"></path><g><path d="M98.25 69h10"></path><path d="M315.25 69h10"></path><g class="non-terminal "><path d="M108.25 69h0"></path><path d="M315.25 69h0"></path><rect x="108.25" y="58" width="207" height="22" rx="10" ry="10"></rect><text x="211.75" y="73">preIncrementExpression</text></g></g><path d="M325.25 69h38.25"></path></g><path d="M363.5 69a10 10 0 0 0 10 -10v-18a10 10 0 0 1 10 -10"></path><path d="M40 31a10 10 0 0 1 10 10v56a10 10 0 0 0 10 10"></path><g><path d="M60 107h38.25"></path><g><path d="M98.25 107h10"></path><path d="M315.25 107h10"></path><g class="non-terminal "><path d="M108.25 107h0"></path><path d="M315.25 107h0"></path><rect x="108.25" y="96" width="207" height="22" rx="10" ry="10"></rect><text x="211.75" y="111">preDecrementExpression</text></g></g><path d="M325.25 107h38.25"></path></g><path d="M363.5 107a10 10 0 0 0 10 -10v-56a10 10 0 0 1 10 -10"></path><path d="M40 31a10 10 0 0 1 10 10v94a10 10 0 0 0 10 10"></path><g><path d="M60 145h34"></path><g><path d="M94 145h10"></path><path d="M319.5 145h10"></path><g class="non-terminal "><path d="M104 145h0"></path><path d="M319.5 145h0"></path><rect x="104" y="134" width="215.5" height="22" rx="10" ry="10"></rect><text x="211.75" y="149">postIncrementExpression</text></g></g><path d="M329.5 145h34"></path></g><path d="M363.5 145a10 10 0 0 0 10 -10v-94a10 10 0 0 1 10 -10"></path><path d="M40 31a10 10 0 0 1 10 10v132a10 10 0 0 0 10 10"></path><g><path d="M60 183h34"></path><g><path d="M94 183h10"></path><path d="M319.5 183h10"></path><g class="non-terminal "><path d="M104 183h0"></path><path d="M319.5 183h0"></path><rect x="104" y="172" width="215.5" height="22" rx="10" ry="10"></rect><text x="211.75" y="187">postDecrementExpression</text></g></g><path d="M329.5 183h34"></path></g><path d="M363.5 183a10 10 0 0 0 10 -10v-132a10 10 0 0 1 10 -10"></path><path d="M40 31a10 10 0 0 1 10 10v170a10 10 0 0 0 10 10"></path><g><path d="M60 221h63.75"></path><g><path d="M123.75 221h10"></path><path d="M289.75 221h10"></path><g class="non-terminal "><path d="M133.75 221h0"></path><path d="M289.75 221h0"></path><rect x="133.75" y="210" width="156" height="22" rx="10" ry="10"></rect><text x="211.75" y="225">methodInvocation</text></g></g><path d="M299.75 221h63.75"></path></g><path d="M363.5 221a10 10 0 0 0 10 -10v-170a10 10 0 0 1 10 -10"></path><path d="M40 31a10 10 0 0 1 10 10v208a10 10 0 0 0 10 10"></path><g><path d="M60 259h0"></path><g><path d="M60 259h10"></path><path d="M353.5 259h10"></path><g class="non-terminal "><path d="M70 259h0"></path><path d="M353.5 259h0"></path><rect x="70" y="248" width="283.5" height="22" rx="10" ry="10"></rect><text x="211.75" y="263">classInstanceCreationExpression</text></g></g><path d="M363.5 259h0"></path></g><path d="M363.5 259a10 10 0 0 0 10 -10v-208a10 10 0 0 1 10 -10"></path></g><path d="M 383.5 31 h 20 m 0 -10 v 20"></path></g><defs><style type="text/css"><![CDATA[
svg.railroad-diagram path { stroke-width: 2; stroke: darkgray; fill: rgba(0, 0, 0, 0);}/* All text except comments. */svg.railroad-diagram text { font: bold 12px Hack, "Source Code Pro", monospace; text-anchor: middle; fill: #404040;}/* Comment text */svg.railroad-diagram text.comment { font: italic 10px Hack, "Source Code Pro", monospace; fill: #404040;}/* The terminal boxes. */svg.railroad-diagram g.terminal rect { stroke-width: 2; stroke: #404040; fill: rgba(200, 200, 200, 1);}svg.railroad-diagram g.non-terminal rect { /* The non-terminal boxes. */ stroke-width: 2; stroke: #404040; fill: rgba(255, 255, 255, 1);}/* Multiple choice text, not working atm. */svg.railroad-diagram text.diagram-text { font-size: 12px Hack, "Source Code Pro", monospace; fill: red;}/* Multiple choice text, not working atm. */svg.railroad-diagram path.diagram-text { stroke-width: 1; stroke: red; fill: red; cursor: help;}
 ]]>
</style></defs></svg>