<?xml version="1.0" encoding="UTF-8" standalone="no"?>
<!DOCTYPE svg PUBLIC "-//W3C//DTD SVG 1.1//EN" "http://www.w3.org/Graphics/SVG/1.1/DTD/svg11.dtd">
<svg class="railroad-diagram" width="785.5" height="94" viewBox="0 0 785.5 94" id="switchBlockStatementGroup" xmlns="http://www.w3.org/2000/svg" xmlns:xlink="http://www.w3.org/1999/xlink"><g transform="translate(.5 .5)"><g><path d="M20 37v20m0 -10h20"></path></g><g><path d="M40 47h0"></path><path d="M745.5 47h0"></path><path d="M40 47h20"></path><g><path d="M60 47h0"></path><g><path d="M60 47h10"></path><path d="M715.5 47h10"></path><g class="non-terminal "><path d="M70 47h0"></path><path d="M183.5 47h0"></path><rect x="70" y="36" width="113.5" height="22" rx="10" ry="10"></rect><text x="126.75" y="51">switchLabel</text></g><path d="M183.5 47h10"></path><path d="M193.5 47h10"></path><g class="terminal "><path d="M203.5 47h0"></path><path d="M249 47h0"></path><rect x="203.5" y="36" width="45.5" height="22"></rect><text x="226.25" y="51">':'</text></g><path d="M249 47h10"></path><g><path d="M259 47h0"></path><path d="M558 47h0"></path><path d="M259 47a10 10 0 0 0 10 -10v-7a10 10 0 0 1 10 -10"></path><g><path d="M279 20h259"></path></g><path d="M538 20a10 10 0 0 1 10 10v7a10 10 0 0 0 10 10"></path><path d="M259 47h20"></path><g><path d="M279 47h0"></path><path d="M538 47h0"></path><path d="M279 47h10"></path><g><path d="M289 47h0"></path><path d="M528 47h0"></path><path d="M289 47h20"></path><g><path d="M309 47h0"></path><g><path d="M309 47h10"></path><path d="M498 47h10"></path><g class="non-terminal "><path d="M319 47h0"></path><path d="M432.5 47h0"></path><rect x="319" y="36" width="113.5" height="22" rx="10" ry="10"></rect><text x="375.75" y="51">switchLabel</text></g><path d="M432.5 47h10"></path><path d="M442.5 47h10"></path><g class="terminal "><path d="M452.5 47h0"></path><path d="M498 47h0"></path><rect x="452.5" y="36" width="45.5" height="22"></rect><text x="475.25" y="51">':'</text></g></g><path d="M508 47h0"></path></g><path d="M508 47h20"></path></g><path d="M528 47h10"></path><path d="M289 47a10 10 0 0 0 -10 10v7a10 10 0 0 0 10 10"></path><g><path d="M289 74h239"></path></g><path d="M528 74a10 10 0 0 0 10 -10v-7a10 10 0 0 0 -10 -10"></path></g><path d="M538 47h20"></path></g><path d="M558 47h10"></path><g class="non-terminal "><path d="M568 47h0"></path><path d="M715.5 47h0"></path><rect x="568" y="36" width="147.5" height="22" rx="10" ry="10"></rect><text x="641.75" y="51">blockStatements</text></g></g><path d="M725.5 47h0"></path></g><path d="M725.5 47h20"></path></g><path d="M 745.5 47 h 20 m 0 -10 v 20"></path></g><defs><style type="text/css"><![CDATA[
svg.railroad-diagram path { stroke-width: 2; stroke: darkgray; fill: rgba(0, 0, 0, 0);}/* All text except comments. */svg.railroad-diagram text { font: bold 12px Hack, "Source Code Pro", monospace; text-anchor: middle; fill: #404040;}/* Comment text */svg.railroad-diagram text.comment { font: italic 10px Hack, "Source Code Pro", monospace; fill: #404040;}/* The terminal boxes. */svg.railroad-diagram g.terminal rect { stroke-width: 2; stroke: #404040; fill: rgba(200, 200, 200, 1);}svg.railroad-diagram g.non-terminal rect { /* The non-terminal boxes. */ stroke-width: 2; stroke: #404040; fill: rgba(255, 255, 255, 1);}/* Multiple choice text, not working atm. */svg.railroad-diagram text.diagram-text { font-size: 12px Hack, "Source Code Pro", monospace; fill: red;}/* Multiple choice text, not working atm. */svg.railroad-diagram path.diagram-text { stroke-width: 1; stroke: red; fill: red; cursor: help;}
 ]]>
</style></defs></svg>