<?xml version="1.0" encoding="UTF-8" standalone="no"?>
<!DOCTYPE svg PUBLIC "-//W3C//DTD SVG 1.1//EN" "http://www.w3.org/Graphics/SVG/1.1/DTD/svg11.dtd">
<svg class="railroad-diagram" width="568" height="138" viewBox="0 0 568 138" id="switchRule" xmlns="http://www.w3.org/2000/svg" xmlns:xlink="http://www.w3.org/1999/xlink"><g transform="translate(.5 .5)"><g><path d="M20 21v20m0 -10h20"></path></g><g><path d="M40 31h0"></path><path d="M528 31h0"></path><path d="M40 31h20"></path><g><path d="M60 31h0"></path><g><path d="M60 31h10"></path><path d="M498 31h10"></path><g class="non-terminal "><path d="M70 31h0"></path><path d="M183.5 31h0"></path><rect x="70" y="20" width="113.5" height="22" rx="10" ry="10"></rect><text x="126.75" y="35">switchLabel</text></g><path d="M183.5 31h10"></path><path d="M193.5 31h10"></path><g class="terminal "><path d="M203.5 31h0"></path><path d="M257.5 31h0"></path><rect x="203.5" y="20" width="54" height="22"></rect><text x="230.5" y="35">'-&gt;'</text></g><path d="M257.5 31h10"></path><g><path d="M267.5 31h0"></path><path d="M498 31h0"></path><path d="M267.5 31h20"></path><g><path d="M287.5 31h0"></path><g><path d="M287.5 31h10"></path><path d="M468 31h10"></path><g class="non-terminal "><path d="M297.5 31h0"></path><path d="M402.5 31h0"></path><rect x="297.5" y="20" width="105" height="22" rx="10" ry="10"></rect><text x="350" y="35">expression</text></g><path d="M402.5 31h10"></path><path d="M412.5 31h10"></path><g class="terminal "><path d="M422.5 31h0"></path><path d="M468 31h0"></path><rect x="422.5" y="20" width="45.5" height="22"></rect><text x="445.25" y="35">';'</text></g></g><path d="M478 31h0"></path></g><path d="M478 31h20"></path><path d="M267.5 31a10 10 0 0 1 10 10v18a10 10 0 0 0 10 10"></path><g><path d="M287.5 69h54"></path><g><path d="M341.5 69h10"></path><path d="M414 69h10"></path><g class="non-terminal "><path d="M351.5 69h0"></path><path d="M414 69h0"></path><rect x="351.5" y="58" width="62.5" height="22" rx="10" ry="10"></rect><text x="382.75" y="73">block</text></g></g><path d="M424 69h54"></path></g><path d="M478 69a10 10 0 0 0 10 -10v-18a10 10 0 0 1 10 -10"></path><path d="M267.5 31a10 10 0 0 1 10 10v56a10 10 0 0 0 10 10"></path><g><path d="M287.5 107h15.75"></path><g><path d="M303.25 107h10"></path><path d="M452.25 107h10"></path><g class="non-terminal "><path d="M313.25 107h0"></path><path d="M452.25 107h0"></path><rect x="313.25" y="96" width="139" height="22" rx="10" ry="10"></rect><text x="382.75" y="111">throwStatement</text></g></g><path d="M462.25 107h15.75"></path></g><path d="M478 107a10 10 0 0 0 10 -10v-56a10 10 0 0 1 10 -10"></path></g></g><path d="M508 31h0"></path></g><path d="M508 31h20"></path></g><path d="M 528 31 h 20 m 0 -10 v 20"></path></g><defs><style type="text/css"><![CDATA[
svg.railroad-diagram path { stroke-width: 2; stroke: darkgray; fill: rgba(0, 0, 0, 0);}/* All text except comments. */svg.railroad-diagram text { font: bold 12px Hack, "Source Code Pro", monospace; text-anchor: middle; fill: #404040;}/* Comment text */svg.railroad-diagram text.comment { font: italic 10px Hack, "Source Code Pro", monospace; fill: #404040;}/* The terminal boxes. */svg.railroad-diagram g.terminal rect { stroke-width: 2; stroke: #404040; fill: rgba(200, 200, 200, 1);}svg.railroad-diagram g.non-terminal rect { /* The non-terminal boxes. */ stroke-width: 2; stroke: #404040; fill: rgba(255, 255, 255, 1);}/* Multiple choice text, not working atm. */svg.railroad-diagram text.diagram-text { font-size: 12px Hack, "Source Code Pro", monospace; fill: red;}/* Multiple choice text, not working atm. */svg.railroad-diagram path.diagram-text { stroke-width: 1; stroke: red; fill: red; cursor: help;}
 ]]>
</style></defs></svg>