<?xml version="1.0" encoding="UTF-8" standalone="no"?>
<!DOCTYPE svg PUBLIC "-//W3C//DTD SVG 1.1//EN" "http://www.w3.org/Graphics/SVG/1.1/DTD/svg11.dtd">
<svg class="railroad-diagram" width="670.5" height="132" viewBox="0 0 670.5 132" id="switchLabel" xmlns="http://www.w3.org/2000/svg" xmlns:xlink="http://www.w3.org/1999/xlink"><g transform="translate(.5 .5)"><g><path d="M20 37v20m0 -10h20"></path></g><g><path d="M40 47h0"></path><path d="M630.5 47h0"></path><path d="M40 47h20"></path><g><path d="M60 47h0"></path><g><path d="M60 47h10"></path><path d="M600.5 47h10"></path><g class="terminal "><path d="M70 47h0"></path><path d="M141 47h0"></path><rect x="70" y="36" width="71" height="22"></rect><text x="105.5" y="51">'case'</text></g><path d="M141 47h10"></path><path d="M151 47h10"></path><g class="non-terminal "><path d="M161 47h0"></path><path d="M283 47h0"></path><rect x="161" y="36" width="122" height="22" rx="10" ry="10"></rect><text x="222" y="51">caseConstant</text></g><path d="M283 47h10"></path><g><path d="M293 47h0"></path><path d="M600.5 47h0"></path><path d="M293 47a10 10 0 0 0 10 -10v-7a10 10 0 0 1 10 -10"></path><g><path d="M313 20h267.5"></path></g><path d="M580.5 20a10 10 0 0 1 10 10v7a10 10 0 0 0 10 10"></path><path d="M293 47h20"></path><g><path d="M313 47h0"></path><path d="M580.5 47h0"></path><path d="M313 47h10"></path><g><path d="M323 47h0"></path><path d="M570.5 47h0"></path><path d="M323 47h20"></path><g><path d="M343 47h0"></path><g><path d="M343 47h10"></path><path d="M540.5 47h10"></path><g class="terminal "><path d="M353 47h0"></path><path d="M398.5 47h0"></path><rect x="353" y="36" width="45.5" height="22"></rect><text x="375.75" y="51">','</text></g><path d="M398.5 47h10"></path><path d="M408.5 47h10"></path><g class="non-terminal "><path d="M418.5 47h0"></path><path d="M540.5 47h0"></path><rect x="418.5" y="36" width="122" height="22" rx="10" ry="10"></rect><text x="479.5" y="51">caseConstant</text></g></g><path d="M550.5 47h0"></path></g><path d="M550.5 47h20"></path></g><path d="M570.5 47h10"></path><path d="M323 47a10 10 0 0 0 -10 10v7a10 10 0 0 0 10 10"></path><g><path d="M323 74h247.5"></path></g><path d="M570.5 74a10 10 0 0 0 10 -10v-7a10 10 0 0 0 -10 -10"></path></g><path d="M580.5 47h20"></path></g></g><path d="M610.5 47h0"></path></g><path d="M610.5 47h20"></path><path d="M40 47a10 10 0 0 1 10 10v34a10 10 0 0 0 10 10"></path><g><path d="M60 101h217"></path><g><path d="M277 101h10"></path><path d="M383.5 101h10"></path><g class="terminal "><path d="M287 101h0"></path><path d="M383.5 101h0"></path><rect x="287" y="90" width="96.5" height="22"></rect><text x="335.25" y="105">'default'</text></g></g><path d="M393.5 101h217"></path></g><path d="M610.5 101a10 10 0 0 0 10 -10v-34a10 10 0 0 1 10 -10"></path></g><path d="M 630.5 47 h 20 m 0 -10 v 20"></path></g><defs><style type="text/css"><![CDATA[
svg.railroad-diagram path { stroke-width: 2; stroke: darkgray; fill: rgba(0, 0, 0, 0);}/* All text except comments. */svg.railroad-diagram text { font: bold 12px Hack, "Source Code Pro", monospace; text-anchor: middle; fill: #404040;}/* Comment text */svg.railroad-diagram text.comment { font: italic 10px Hack, "Source Code Pro", monospace; fill: #404040;}/* The terminal boxes. */svg.railroad-diagram g.terminal rect { stroke-width: 2; stroke: #404040; fill: rgba(200, 200, 200, 1);}svg.railroad-diagram g.non-terminal rect { /* The non-terminal boxes. */ stroke-width: 2; stroke: #404040; fill: rgba(255, 255, 255, 1);}/* Multiple choice text, not working atm. */svg.railroad-diagram text.diagram-text { font-size: 12px Hack, "Source Code Pro", monospace; fill: red;}/* Multiple choice text, not working atm. */svg.railroad-diagram path.diagram-text { stroke-width: 1; stroke: red; fill: red; cursor: help;}
 ]]>
</style></defs></svg>