<?xml version="1.0" encoding="UTF-8" standalone="no"?>
<!DOCTYPE svg PUBLIC "-//W3C//DTD SVG 1.1//EN" "http://www.w3.org/Graphics/SVG/1.1/DTD/svg11.dtd">
<svg class="railroad-diagram" width="842.5" height="164" viewBox="0 0 842.5 164" id="switchBlock" xmlns="http://www.w3.org/2000/svg" xmlns:xlink="http://www.w3.org/1999/xlink"><g transform="translate(.5 .5)"><g><path d="M20 37v20m0 -10h20"></path></g><g><path d="M40 47h0"></path><path d="M802.5 47h0"></path><path d="M40 47h20"></path><g><path d="M60 47h150.75"></path><g><path d="M210.75 47h10"></path><path d="M621.75 47h10"></path><g class="terminal "><path d="M220.75 47h0"></path><path d="M266.25 47h0"></path><rect x="220.75" y="36" width="45.5" height="22"></rect><text x="243.5" y="51">'{'</text></g><path d="M266.25 47h10"></path><path d="M276.25 47h10"></path><g class="non-terminal "><path d="M286.25 47h0"></path><path d="M391.25 47h0"></path><rect x="286.25" y="36" width="105" height="22" rx="10" ry="10"></rect><text x="338.75" y="51">switchRule</text></g><path d="M391.25 47h10"></path><g><path d="M401.25 47h0"></path><path d="M566.25 47h0"></path><path d="M401.25 47a10 10 0 0 0 10 -10v-7a10 10 0 0 1 10 -10"></path><g><path d="M421.25 20h125"></path></g><path d="M546.25 20a10 10 0 0 1 10 10v7a10 10 0 0 0 10 10"></path><path d="M401.25 47h20"></path><g><path d="M421.25 47h0"></path><path d="M546.25 47h0"></path><path d="M421.25 47h10"></path><g class="non-terminal "><path d="M431.25 47h0"></path><path d="M536.25 47h0"></path><rect x="431.25" y="36" width="105" height="22" rx="10" ry="10"></rect><text x="483.75" y="51">switchRule</text></g><path d="M536.25 47h10"></path><path d="M431.25 47a10 10 0 0 0 -10 10v7a10 10 0 0 0 10 10"></path><g><path d="M431.25 74h105"></path></g><path d="M536.25 74a10 10 0 0 0 10 -10v-7a10 10 0 0 0 -10 -10"></path></g><path d="M546.25 47h20"></path></g><path d="M566.25 47h10"></path><g class="terminal "><path d="M576.25 47h0"></path><path d="M621.75 47h0"></path><rect x="576.25" y="36" width="45.5" height="22"></rect><text x="599" y="51">'}'</text></g></g><path d="M631.75 47h150.75"></path></g><path d="M782.5 47h20"></path><path d="M40 47a10 10 0 0 1 10 10v50a10 10 0 0 0 10 10"></path><g><path d="M60 117h0"></path><g><path d="M60 117h10"></path><path d="M772.5 117h10"></path><g class="terminal "><path d="M70 117h0"></path><path d="M115.5 117h0"></path><rect x="70" y="106" width="45.5" height="22"></rect><text x="92.75" y="121">'{'</text></g><path d="M115.5 117h10"></path><g><path d="M125.5 117h0"></path><path d="M418 117h0"></path><path d="M125.5 117a10 10 0 0 0 10 -10v-7a10 10 0 0 1 10 -10"></path><g><path d="M145.5 90h252.5"></path></g><path d="M398 90a10 10 0 0 1 10 10v7a10 10 0 0 0 10 10"></path><path d="M125.5 117h20"></path><g><path d="M145.5 117h0"></path><path d="M398 117h0"></path><path d="M145.5 117h10"></path><g class="non-terminal "><path d="M155.5 117h0"></path><path d="M388 117h0"></path><rect x="155.5" y="106" width="232.5" height="22" rx="10" ry="10"></rect><text x="271.75" y="121">switchBlockStatementGroup</text></g><path d="M388 117h10"></path><path d="M155.5 117a10 10 0 0 0 -10 10v7a10 10 0 0 0 10 10"></path><g><path d="M155.5 144h232.5"></path></g><path d="M388 144a10 10 0 0 0 10 -10v-7a10 10 0 0 0 -10 -10"></path></g><path d="M398 117h20"></path></g><g><path d="M418 117h0"></path><path d="M717 117h0"></path><path d="M418 117a10 10 0 0 0 10 -10v-7a10 10 0 0 1 10 -10"></path><g><path d="M438 90h259"></path></g><path d="M697 90a10 10 0 0 1 10 10v7a10 10 0 0 0 10 10"></path><path d="M418 117h20"></path><g><path d="M438 117h0"></path><path d="M697 117h0"></path><path d="M438 117h10"></path><g><path d="M448 117h0"></path><path d="M687 117h0"></path><path d="M448 117h20"></path><g><path d="M468 117h0"></path><g><path d="M468 117h10"></path><path d="M657 117h10"></path><g class="non-terminal "><path d="M478 117h0"></path><path d="M591.5 117h0"></path><rect x="478" y="106" width="113.5" height="22" rx="10" ry="10"></rect><text x="534.75" y="121">switchLabel</text></g><path d="M591.5 117h10"></path><path d="M601.5 117h10"></path><g class="terminal "><path d="M611.5 117h0"></path><path d="M657 117h0"></path><rect x="611.5" y="106" width="45.5" height="22"></rect><text x="634.25" y="121">':'</text></g></g><path d="M667 117h0"></path></g><path d="M667 117h20"></path></g><path d="M687 117h10"></path><path d="M448 117a10 10 0 0 0 -10 10v7a10 10 0 0 0 10 10"></path><g><path d="M448 144h239"></path></g><path d="M687 144a10 10 0 0 0 10 -10v-7a10 10 0 0 0 -10 -10"></path></g><path d="M697 117h20"></path></g><path d="M717 117h10"></path><g class="terminal "><path d="M727 117h0"></path><path d="M772.5 117h0"></path><rect x="727" y="106" width="45.5" height="22"></rect><text x="749.75" y="121">'}'</text></g></g><path d="M782.5 117h0"></path></g><path d="M782.5 117a10 10 0 0 0 10 -10v-50a10 10 0 0 1 10 -10"></path></g><path d="M 802.5 47 h 20 m 0 -10 v 20"></path></g><defs><style type="text/css"><![CDATA[
svg.railroad-diagram path { stroke-width: 2; stroke: darkgray; fill: rgba(0, 0, 0, 0);}/* All text except comments. */svg.railroad-diagram text { font: bold 12px Hack, "Source Code Pro", monospace; text-anchor: middle; fill: #404040;}/* Comment text */svg.railroad-diagram text.comment { font: italic 10px Hack, "Source Code Pro", monospace; fill: #404040;}/* The terminal boxes. */svg.railroad-diagram g.terminal rect { stroke-width: 2; stroke: #404040; fill: rgba(200, 200, 200, 1);}svg.railroad-diagram g.non-terminal rect { /* The non-terminal boxes. */ stroke-width: 2; stroke: #404040; fill: rgba(255, 255, 255, 1);}/* Multiple choice text, not working atm. */svg.railroad-diagram text.diagram-text { font-size: 12px Hack, "Source Code Pro", monospace; fill: red;}/* Multiple choice text, not working atm. */svg.railroad-diagram path.diagram-text { stroke-width: 1; stroke: red; fill: red; cursor: help;}
 ]]>
</style></defs></svg>