<?xml version="1.0" encoding="UTF-8" standalone="no"?>
<!DOCTYPE svg PUBLIC "-//W3C//DTD SVG 1.1//EN" "http://www.w3.org/Graphics/SVG/1.1/DTD/svg11.dtd">
<svg class="railroad-diagram" width="546.5" height="192" viewBox="0 0 546.5 192" id="tryStatement" xmlns="http://www.w3.org/2000/svg" xmlns:xlink="http://www.w3.org/1999/xlink"><g transform="translate(.5 .5)"><g><path d="M20 21v20m0 -10h20"></path></g><g><path d="M40 31h0"></path><path d="M506.5 31h0"></path><path d="M40 31h20"></path><g><path d="M60 31h81"></path><g><path d="M141 31h10"></path><path d="M395.5 31h10"></path><g class="terminal "><path d="M151 31h0"></path><path d="M213.5 31h0"></path><rect x="151" y="20" width="62.5" height="22"></rect><text x="182.25" y="35">'try'</text></g><path d="M213.5 31h10"></path><path d="M223.5 31h10"></path><g class="non-terminal "><path d="M233.5 31h0"></path><path d="M296 31h0"></path><rect x="233.5" y="20" width="62.5" height="22" rx="10" ry="10"></rect><text x="264.75" y="35">block</text></g><path d="M296 31h10"></path><path d="M306 31h10"></path><g class="non-terminal "><path d="M316 31h0"></path><path d="M395.5 31h0"></path><rect x="316" y="20" width="79.5" height="22" rx="10" ry="10"></rect><text x="355.75" y="35">catches</text></g></g><path d="M405.5 31h81"></path></g><path d="M486.5 31h20"></path><path d="M40 31a10 10 0 0 1 10 10v18a10 10 0 0 0 10 10"></path><g><path d="M60 69h59.75"></path><g><path d="M119.75 69h10"></path><path d="M416.75 69h10"></path><g class="terminal "><path d="M129.75 69h0"></path><path d="M192.25 69h0"></path><rect x="129.75" y="58" width="62.5" height="22"></rect><text x="161" y="73">'try'</text></g><path d="M192.25 69h10"></path><path d="M202.25 69h10"></path><g class="non-terminal "><path d="M212.25 69h0"></path><path d="M274.75 69h0"></path><rect x="212.25" y="58" width="62.5" height="22" rx="10" ry="10"></rect><text x="243.5" y="73">block</text></g><path d="M274.75 69h10"></path><path d="M284.75 69h10"></path><g class="non-terminal "><path d="M294.75 69h0"></path><path d="M416.75 69h0"></path><rect x="294.75" y="58" width="122" height="22" rx="10" ry="10"></rect><text x="355.75" y="73">finallyBlock</text></g></g><path d="M426.75 69h59.75"></path></g><path d="M486.5 69a10 10 0 0 0 10 -10v-18a10 10 0 0 1 10 -10"></path><path d="M40 31a10 10 0 0 1 10 10v72a10 10 0 0 0 10 10"></path><g><path d="M60 123h0"></path><g><path d="M60 123h10"></path><path d="M476.5 123h10"></path><g class="terminal "><path d="M70 123h0"></path><path d="M132.5 123h0"></path><rect x="70" y="112" width="62.5" height="22"></rect><text x="101.25" y="127">'try'</text></g><path d="M132.5 123h10"></path><path d="M142.5 123h10"></path><g class="non-terminal "><path d="M152.5 123h0"></path><path d="M215 123h0"></path><rect x="152.5" y="112" width="62.5" height="22" rx="10" ry="10"></rect><text x="183.75" y="127">block</text></g><path d="M215 123h10"></path><g><path d="M225 123h0"></path><path d="M344.5 123h0"></path><path d="M225 123a10 10 0 0 0 10 -10v-7a10 10 0 0 1 10 -10"></path><g><path d="M245 96h79.5"></path></g><path d="M324.5 96a10 10 0 0 1 10 10v7a10 10 0 0 0 10 10"></path><path d="M225 123h20"></path><g class="non-terminal "><path d="M245 123h0"></path><path d="M324.5 123h0"></path><rect x="245" y="112" width="79.5" height="22" rx="10" ry="10"></rect><text x="284.75" y="127">catches</text></g><path d="M324.5 123h20"></path></g><path d="M344.5 123h10"></path><g class="non-terminal "><path d="M354.5 123h0"></path><path d="M476.5 123h0"></path><rect x="354.5" y="112" width="122" height="22" rx="10" ry="10"></rect><text x="415.5" y="127">finallyBlock</text></g></g><path d="M486.5 123h0"></path></g><path d="M486.5 123a10 10 0 0 0 10 -10v-72a10 10 0 0 1 10 -10"></path><path d="M40 31a10 10 0 0 1 10 10v110a10 10 0 0 0 10 10"></path><g><path d="M60 161h87"></path><g><path d="M147 161h10"></path><path d="M389.5 161h10"></path><g class="non-terminal "><path d="M157 161h0"></path><path d="M389.5 161h0"></path><rect x="157" y="150" width="232.5" height="22" rx="10" ry="10"></rect><text x="273.25" y="165">tryWithResourcesStatement</text></g></g><path d="M399.5 161h87"></path></g><path d="M486.5 161a10 10 0 0 0 10 -10v-110a10 10 0 0 1 10 -10"></path></g><path d="M 506.5 31 h 20 m 0 -10 v 20"></path></g><defs><style type="text/css"><![CDATA[
svg.railroad-diagram path { stroke-width: 2; stroke: darkgray; fill: rgba(0, 0, 0, 0);}/* All text except comments. */svg.railroad-diagram text { font: bold 12px Hack, "Source Code Pro", monospace; text-anchor: middle; fill: #404040;}/* Comment text */svg.railroad-diagram text.comment { font: italic 10px Hack, "Source Code Pro", monospace; fill: #404040;}/* The terminal boxes. */svg.railroad-diagram g.terminal rect { stroke-width: 2; stroke: #404040; fill: rgba(200, 200, 200, 1);}svg.railroad-diagram g.non-terminal rect { /* The non-terminal boxes. */ stroke-width: 2; stroke: #404040; fill: rgba(255, 255, 255, 1);}/* Multiple choice text, not working atm. */svg.railroad-diagram text.diagram-text { font-size: 12px Hack, "Source Code Pro", monospace; fill: red;}/* Multiple choice text, not working atm. */svg.railroad-diagram path.diagram-text { stroke-width: 1; stroke: red; fill: red; cursor: help;}
 ]]>
</style></defs></svg>