<?xml version="1.0" encoding="UTF-8" standalone="no"?>
<!DOCTYPE svg PUBLIC "-//W3C//DTD SVG 1.1//EN" "http://www.w3.org/Graphics/SVG/1.1/DTD/svg11.dtd">
<svg class="railroad-diagram" width="795" height="78" viewBox="0 0 795 78" id="tryWithResourcesStatement" xmlns="http://www.w3.org/2000/svg" xmlns:xlink="http://www.w3.org/1999/xlink"><g transform="translate(.5 .5)"><g><path d="M20 37v20m0 -10h20"></path></g><g><path d="M40 47h0"></path><path d="M755 47h0"></path><path d="M40 47h20"></path><g><path d="M60 47h0"></path><g><path d="M60 47h10"></path><path d="M725 47h10"></path><g class="terminal "><path d="M70 47h0"></path><path d="M132.5 47h0"></path><rect x="70" y="36" width="62.5" height="22"></rect><text x="101.25" y="51">'try'</text></g><path d="M132.5 47h10"></path><path d="M142.5 47h10"></path><g class="non-terminal "><path d="M152.5 47h0"></path><path d="M351 47h0"></path><rect x="152.5" y="36" width="198.5" height="22" rx="10" ry="10"></rect><text x="251.75" y="51">resourceSpecification</text></g><path d="M351 47h10"></path><path d="M361 47h10"></path><g class="non-terminal "><path d="M371 47h0"></path><path d="M433.5 47h0"></path><rect x="371" y="36" width="62.5" height="22" rx="10" ry="10"></rect><text x="402.25" y="51">block</text></g><path d="M433.5 47h10"></path><g><path d="M443.5 47h0"></path><path d="M563 47h0"></path><path d="M443.5 47a10 10 0 0 0 10 -10v-7a10 10 0 0 1 10 -10"></path><g><path d="M463.5 20h79.5"></path></g><path d="M543 20a10 10 0 0 1 10 10v7a10 10 0 0 0 10 10"></path><path d="M443.5 47h20"></path><g class="non-terminal "><path d="M463.5 47h0"></path><path d="M543 47h0"></path><rect x="463.5" y="36" width="79.5" height="22" rx="10" ry="10"></rect><text x="503.25" y="51">catches</text></g><path d="M543 47h20"></path></g><g><path d="M563 47h0"></path><path d="M725 47h0"></path><path d="M563 47a10 10 0 0 0 10 -10v-7a10 10 0 0 1 10 -10"></path><g><path d="M583 20h122"></path></g><path d="M705 20a10 10 0 0 1 10 10v7a10 10 0 0 0 10 10"></path><path d="M563 47h20"></path><g class="non-terminal "><path d="M583 47h0"></path><path d="M705 47h0"></path><rect x="583" y="36" width="122" height="22" rx="10" ry="10"></rect><text x="644" y="51">finallyBlock</text></g><path d="M705 47h20"></path></g></g><path d="M735 47h0"></path></g><path d="M735 47h20"></path></g><path d="M 755 47 h 20 m 0 -10 v 20"></path></g><defs><style type="text/css"><![CDATA[
svg.railroad-diagram path { stroke-width: 2; stroke: darkgray; fill: rgba(0, 0, 0, 0);}/* All text except comments. */svg.railroad-diagram text { font: bold 12px Hack, "Source Code Pro", monospace; text-anchor: middle; fill: #404040;}/* Comment text */svg.railroad-diagram text.comment { font: italic 10px Hack, "Source Code Pro", monospace; fill: #404040;}/* The terminal boxes. */svg.railroad-diagram g.terminal rect { stroke-width: 2; stroke: #404040; fill: rgba(200, 200, 200, 1);}svg.railroad-diagram g.non-terminal rect { /* The non-terminal boxes. */ stroke-width: 2; stroke: #404040; fill: rgba(255, 255, 255, 1);}/* Multiple choice text, not working atm. */svg.railroad-diagram text.diagram-text { font-size: 12px Hack, "Source Code Pro", monospace; fill: red;}/* Multiple choice text, not working atm. */svg.railroad-diagram path.diagram-text { stroke-width: 1; stroke: red; fill: red; cursor: help;}
 ]]>
</style></defs></svg>