<?xml version="1.0" encoding="UTF-8" standalone="no"?>
<!DOCTYPE svg PUBLIC "-//W3C//DTD SVG 1.1//EN" "http://www.w3.org/Graphics/SVG/1.1/DTD/svg11.dtd">
<svg class="railroad-diagram" width="568" height="78" viewBox="0 0 568 78" id="typeName" xmlns="http://www.w3.org/2000/svg" xmlns:xlink="http://www.w3.org/1999/xlink"><g transform="translate(.5 .5)"><g><path d="M20 37v20m0 -10h20"></path></g><g><path d="M40 47h0"></path><path d="M528 47h0"></path><path d="M40 47h20"></path><g><path d="M60 47h0"></path><g><path d="M60 47h10"></path><path d="M498 47h10"></path><g class="non-terminal "><path d="M70 47h0"></path><path d="M183.5 47h0"></path><rect x="70" y="36" width="113.5" height="22" rx="10" ry="10"></rect><text x="126.75" y="51">packageName</text></g><path d="M183.5 47h10"></path><g><path d="M193.5 47h0"></path><path d="M498 47h0"></path><path d="M193.5 47a10 10 0 0 0 10 -10v-7a10 10 0 0 1 10 -10"></path><g><path d="M213.5 20h264.5"></path></g><path d="M478 20a10 10 0 0 1 10 10v7a10 10 0 0 0 10 10"></path><path d="M193.5 47h20"></path><g><path d="M213.5 47h0"></path><path d="M478 47h0"></path><path d="M213.5 47h20"></path><g><path d="M233.5 47h0"></path><g><path d="M233.5 47h10"></path><path d="M448 47h10"></path><g class="terminal "><path d="M243.5 47h0"></path><path d="M289 47h0"></path><rect x="243.5" y="36" width="45.5" height="22"></rect><text x="266.25" y="51">'.'</text></g><path d="M289 47h10"></path><path d="M299 47h10"></path><g class="non-terminal "><path d="M309 47h0"></path><path d="M448 47h0"></path><rect x="309" y="36" width="139" height="22" rx="10" ry="10"></rect><text x="378.5" y="51">typeIdentifier</text></g></g><path d="M458 47h0"></path></g><path d="M458 47h20"></path></g><path d="M478 47h20"></path></g></g><path d="M508 47h0"></path></g><path d="M508 47h20"></path></g><path d="M 528 47 h 20 m 0 -10 v 20"></path></g><defs><style type="text/css"><![CDATA[
svg.railroad-diagram path { stroke-width: 2; stroke: darkgray; fill: rgba(0, 0, 0, 0);}/* All text except comments. */svg.railroad-diagram text { font: bold 12px Hack, "Source Code Pro", monospace; text-anchor: middle; fill: #404040;}/* Comment text */svg.railroad-diagram text.comment { font: italic 10px Hack, "Source Code Pro", monospace; fill: #404040;}/* The terminal boxes. */svg.railroad-diagram g.terminal rect { stroke-width: 2; stroke: #404040; fill: rgba(200, 200, 200, 1);}svg.railroad-diagram g.non-terminal rect { /* The non-terminal boxes. */ stroke-width: 2; stroke: #404040; fill: rgba(255, 255, 255, 1);}/* Multiple choice text, not working atm. */svg.railroad-diagram text.diagram-text { font-size: 12px Hack, "Source Code Pro", monospace; fill: red;}/* Multiple choice text, not working atm. */svg.railroad-diagram path.diagram-text { stroke-width: 1; stroke: red; fill: red; cursor: help;}
 ]]>
</style></defs></svg>