<?xml version="1.0" encoding="UTF-8" standalone="no"?>
<!DOCTYPE svg PUBLIC "-//W3C//DTD SVG 1.1//EN" "http://www.w3.org/Graphics/SVG/1.1/DTD/svg11.dtd">
<svg class="railroad-diagram" width="792.5" height="94" viewBox="0 0 792.5 94" id="uCOIT" xmlns="http://www.w3.org/2000/svg" xmlns:xlink="http://www.w3.org/1999/xlink"><g transform="translate(.5 .5)"><g><path d="M20 37v20m0 -10h20"></path></g><g><path d="M40 47h0"></path><path d="M752.5 47h0"></path><path d="M40 47h20"></path><g><path d="M60 47h0"></path><g><path d="M60 47h10"></path><path d="M722.5 47h10"></path><g class="terminal "><path d="M70 47h0"></path><path d="M115.5 47h0"></path><rect x="70" y="36" width="45.5" height="22"></rect><text x="92.75" y="51">'.'</text></g><path d="M115.5 47h10"></path><g><path d="M125.5 47h0"></path><path d="M290.5 47h0"></path><path d="M125.5 47a10 10 0 0 0 10 -10v-7a10 10 0 0 1 10 -10"></path><g><path d="M145.5 20h125"></path></g><path d="M270.5 20a10 10 0 0 1 10 10v7a10 10 0 0 0 10 10"></path><path d="M125.5 47h20"></path><g><path d="M145.5 47h0"></path><path d="M270.5 47h0"></path><path d="M145.5 47h10"></path><g class="non-terminal "><path d="M155.5 47h0"></path><path d="M260.5 47h0"></path><rect x="155.5" y="36" width="105" height="22" rx="10" ry="10"></rect><text x="208" y="51">annotation</text></g><path d="M260.5 47h10"></path><path d="M155.5 47a10 10 0 0 0 -10 10v7a10 10 0 0 0 10 10"></path><g><path d="M155.5 74h105"></path></g><path d="M260.5 74a10 10 0 0 0 10 -10v-7a10 10 0 0 0 -10 -10"></path></g><path d="M270.5 47h20"></path></g><path d="M290.5 47h10"></path><g class="non-terminal "><path d="M300.5 47h0"></path><path d="M439.5 47h0"></path><rect x="300.5" y="36" width="139" height="22" rx="10" ry="10"></rect><text x="370" y="51">typeIdentifier</text></g><path d="M439.5 47h10"></path><g><path d="M449.5 47h0"></path><path d="M620 47h0"></path><path d="M449.5 47a10 10 0 0 0 10 -10v-7a10 10 0 0 1 10 -10"></path><g><path d="M469.5 20h130.5"></path></g><path d="M600 20a10 10 0 0 1 10 10v7a10 10 0 0 0 10 10"></path><path d="M449.5 47h20"></path><g class="non-terminal "><path d="M469.5 47h0"></path><path d="M600 47h0"></path><rect x="469.5" y="36" width="130.5" height="22" rx="10" ry="10"></rect><text x="534.75" y="51">typeArguments</text></g><path d="M600 47h20"></path></g><g><path d="M620 47h0"></path><path d="M722.5 47h0"></path><path d="M620 47a10 10 0 0 0 10 -10v-7a10 10 0 0 1 10 -10"></path><g><path d="M640 20h62.5"></path></g><path d="M702.5 20a10 10 0 0 1 10 10v7a10 10 0 0 0 10 10"></path><path d="M620 47h20"></path><g class="non-terminal "><path d="M640 47h0"></path><path d="M702.5 47h0"></path><rect x="640" y="36" width="62.5" height="22" rx="10" ry="10"></rect><text x="671.25" y="51">uCOIT</text></g><path d="M702.5 47h20"></path></g></g><path d="M732.5 47h0"></path></g><path d="M732.5 47h20"></path></g><path d="M 752.5 47 h 20 m 0 -10 v 20"></path></g><defs><style type="text/css"><![CDATA[
svg.railroad-diagram path { stroke-width: 2; stroke: darkgray; fill: rgba(0, 0, 0, 0);}/* All text except comments. */svg.railroad-diagram text { font: bold 12px Hack, "Source Code Pro", monospace; text-anchor: middle; fill: #404040;}/* Comment text */svg.railroad-diagram text.comment { font: italic 10px Hack, "Source Code Pro", monospace; fill: #404040;}/* The terminal boxes. */svg.railroad-diagram g.terminal rect { stroke-width: 2; stroke: #404040; fill: rgba(200, 200, 200, 1);}svg.railroad-diagram g.non-terminal rect { /* The non-terminal boxes. */ stroke-width: 2; stroke: #404040; fill: rgba(255, 255, 255, 1);}/* Multiple choice text, not working atm. */svg.railroad-diagram text.diagram-text { font-size: 12px Hack, "Source Code Pro", monospace; fill: red;}/* Multiple choice text, not working atm. */svg.railroad-diagram path.diagram-text { stroke-width: 1; stroke: red; fill: red; cursor: help;}
 ]]>
</style></defs></svg>