<?xml version="1.0" encoding="UTF-8" standalone="no"?>
<!DOCTYPE svg PUBLIC "-//W3C//DTD SVG 1.1//EN" "http://www.w3.org/Graphics/SVG/1.1/DTD/svg11.dtd">
<svg class="railroad-diagram" width="992.5" height="170" viewBox="0 0 992.5 170" id="unannClassType" xmlns="http://www.w3.org/2000/svg" xmlns:xlink="http://www.w3.org/1999/xlink"><g transform="translate(.5 .5)"><g><path d="M20 37v20m0 -10h20"></path></g><g><path d="M40 47h0"></path><path d="M952.5 47h0"></path><path d="M40 47h20"></path><g><path d="M60 47h266.5"></path><g><path d="M326.5 47h10"></path><path d="M656 47h10"></path><g class="non-terminal "><path d="M336.5 47h0"></path><path d="M475.5 47h0"></path><rect x="336.5" y="36" width="139" height="22" rx="10" ry="10"></rect><text x="406" y="51">typeIdentifier</text></g><path d="M475.5 47h10"></path><g><path d="M485.5 47h0"></path><path d="M656 47h0"></path><path d="M485.5 47a10 10 0 0 0 10 -10v-7a10 10 0 0 1 10 -10"></path><g><path d="M505.5 20h130.5"></path></g><path d="M636 20a10 10 0 0 1 10 10v7a10 10 0 0 0 10 10"></path><path d="M485.5 47h20"></path><g class="non-terminal "><path d="M505.5 47h0"></path><path d="M636 47h0"></path><rect x="505.5" y="36" width="130.5" height="22" rx="10" ry="10"></rect><text x="570.75" y="51">typeArguments</text></g><path d="M636 47h20"></path></g></g><path d="M666 47h266.5"></path></g><path d="M932.5 47h20"></path><path d="M40 47a10 10 0 0 1 10 10v34a10 10 0 0 0 10 10"></path><g><path d="M60 101h0"></path><g><path d="M60 101h10"></path><path d="M922.5 101h10"></path><g><path d="M70 101h0"></path><path d="M362.5 101h0"></path><path d="M70 101h20"></path><g><path d="M90 101h59.5"></path><g><path d="M149.5 101h10"></path><path d="M273 101h10"></path><g class="non-terminal "><path d="M159.5 101h0"></path><path d="M273 101h0"></path><rect x="159.5" y="90" width="113.5" height="22" rx="10" ry="10"></rect><text x="216.25" y="105">packageName</text></g></g><path d="M283 101h59.5"></path></g><path d="M342.5 101h20"></path><path d="M70 101a10 10 0 0 1 10 10v18a10 10 0 0 0 10 10"></path><g><path d="M90 139h0"></path><g><path d="M90 139h10"></path><path d="M332.5 139h10"></path><g class="non-terminal "><path d="M100 139h0"></path><path d="M332.5 139h0"></path><rect x="100" y="128" width="232.5" height="22" rx="10" ry="10"></rect><text x="216.25" y="143">unannClassOrInterfaceType</text></g></g><path d="M342.5 139h0"></path></g><path d="M342.5 139a10 10 0 0 0 10 -10v-18a10 10 0 0 1 10 -10"></path></g><path d="M362.5 101h10"></path><g class="terminal "><path d="M372.5 101h0"></path><path d="M418 101h0"></path><rect x="372.5" y="90" width="45.5" height="22"></rect><text x="395.25" y="105">'.'</text></g><path d="M418 101h10"></path><g><path d="M428 101h0"></path><path d="M593 101h0"></path><path d="M428 101a10 10 0 0 0 10 -10v-7a10 10 0 0 1 10 -10"></path><g><path d="M448 74h125"></path></g><path d="M573 74a10 10 0 0 1 10 10v7a10 10 0 0 0 10 10"></path><path d="M428 101h20"></path><g><path d="M448 101h0"></path><path d="M573 101h0"></path><path d="M448 101h10"></path><g class="non-terminal "><path d="M458 101h0"></path><path d="M563 101h0"></path><rect x="458" y="90" width="105" height="22" rx="10" ry="10"></rect><text x="510.5" y="105">annotation</text></g><path d="M563 101h10"></path><path d="M458 101a10 10 0 0 0 -10 10v7a10 10 0 0 0 10 10"></path><g><path d="M458 128h105"></path></g><path d="M563 128a10 10 0 0 0 10 -10v-7a10 10 0 0 0 -10 -10"></path></g><path d="M573 101h20"></path></g><path d="M593 101h10"></path><g class="non-terminal "><path d="M603 101h0"></path><path d="M742 101h0"></path><rect x="603" y="90" width="139" height="22" rx="10" ry="10"></rect><text x="672.5" y="105">typeIdentifier</text></g><path d="M742 101h10"></path><g><path d="M752 101h0"></path><path d="M922.5 101h0"></path><path d="M752 101a10 10 0 0 0 10 -10v-7a10 10 0 0 1 10 -10"></path><g><path d="M772 74h130.5"></path></g><path d="M902.5 74a10 10 0 0 1 10 10v7a10 10 0 0 0 10 10"></path><path d="M752 101h20"></path><g class="non-terminal "><path d="M772 101h0"></path><path d="M902.5 101h0"></path><rect x="772" y="90" width="130.5" height="22" rx="10" ry="10"></rect><text x="837.25" y="105">typeArguments</text></g><path d="M902.5 101h20"></path></g></g><path d="M932.5 101h0"></path></g><path d="M932.5 101a10 10 0 0 0 10 -10v-34a10 10 0 0 1 10 -10"></path></g><path d="M 952.5 47 h 20 m 0 -10 v 20"></path></g><defs><style type="text/css"><![CDATA[
svg.railroad-diagram path { stroke-width: 2; stroke: darkgray; fill: rgba(0, 0, 0, 0);}/* All text except comments. */svg.railroad-diagram text { font: bold 12px Hack, "Source Code Pro", monospace; text-anchor: middle; fill: #404040;}/* Comment text */svg.railroad-diagram text.comment { font: italic 10px Hack, "Source Code Pro", monospace; fill: #404040;}/* The terminal boxes. */svg.railroad-diagram g.terminal rect { stroke-width: 2; stroke: #404040; fill: rgba(200, 200, 200, 1);}svg.railroad-diagram g.non-terminal rect { /* The non-terminal boxes. */ stroke-width: 2; stroke: #404040; fill: rgba(255, 255, 255, 1);}/* Multiple choice text, not working atm. */svg.railroad-diagram text.diagram-text { font-size: 12px Hack, "Source Code Pro", monospace; fill: red;}/* Multiple choice text, not working atm. */svg.railroad-diagram path.diagram-text { stroke-width: 1; stroke: red; fill: red; cursor: help;}
 ]]>
</style></defs></svg>