<?xml version="1.0" encoding="UTF-8" standalone="no"?>
<!DOCTYPE svg PUBLIC "-//W3C//DTD SVG 1.1//EN" "http://www.w3.org/Graphics/SVG/1.1/DTD/svg11.dtd">
<svg class="railroad-diagram" width="1026" height="110" viewBox="0 0 1026 110" id="unannClassOrInterfaceType" xmlns="http://www.w3.org/2000/svg" xmlns:xlink="http://www.w3.org/1999/xlink"><g transform="translate(.5 .5)"><g><path d="M20 53v20m0 -10h20"></path></g><g><path d="M40 63h0"></path><path d="M986 63h0"></path><path d="M40 63h20"></path><g><path d="M60 63h0"></path><g><path d="M60 63h10"></path><path d="M956 63h10"></path><g><path d="M70 63h0"></path><path d="M524 63h0"></path><path d="M70 63a10 10 0 0 0 10 -10v-23a10 10 0 0 1 10 -10"></path><g><path d="M90 20h414"></path></g><path d="M504 20a10 10 0 0 1 10 10v23a10 10 0 0 0 10 10"></path><path d="M70 63h20"></path><g><path d="M90 63h0"></path><path d="M504 63h0"></path><path d="M90 63h20"></path><g><path d="M110 63h0"></path><g><path d="M110 63h10"></path><path d="M474 63h10"></path><g class="non-terminal "><path d="M120 63h0"></path><path d="M233.5 63h0"></path><rect x="120" y="52" width="113.5" height="22" rx="10" ry="10"></rect><text x="176.75" y="67">packageName</text></g><path d="M233.5 63h10"></path><path d="M243.5 63h10"></path><g class="terminal "><path d="M253.5 63h0"></path><path d="M299 63h0"></path><rect x="253.5" y="52" width="45.5" height="22"></rect><text x="276.25" y="67">'.'</text></g><path d="M299 63h10"></path><g><path d="M309 63h0"></path><path d="M474 63h0"></path><path d="M309 63a10 10 0 0 0 10 -10v-7a10 10 0 0 1 10 -10"></path><g><path d="M329 36h125"></path></g><path d="M454 36a10 10 0 0 1 10 10v7a10 10 0 0 0 10 10"></path><path d="M309 63h20"></path><g><path d="M329 63h0"></path><path d="M454 63h0"></path><path d="M329 63h10"></path><g class="non-terminal "><path d="M339 63h0"></path><path d="M444 63h0"></path><rect x="339" y="52" width="105" height="22" rx="10" ry="10"></rect><text x="391.5" y="67">annotation</text></g><path d="M444 63h10"></path><path d="M339 63a10 10 0 0 0 -10 10v7a10 10 0 0 0 10 10"></path><g><path d="M339 90h105"></path></g><path d="M444 90a10 10 0 0 0 10 -10v-7a10 10 0 0 0 -10 -10"></path></g><path d="M454 63h20"></path></g></g><path d="M484 63h0"></path></g><path d="M484 63h20"></path></g><path d="M504 63h20"></path></g><path d="M524 63h10"></path><g class="non-terminal "><path d="M534 63h0"></path><path d="M673 63h0"></path><rect x="534" y="52" width="139" height="22" rx="10" ry="10"></rect><text x="603.5" y="67">typeIdentifier</text></g><path d="M673 63h10"></path><g><path d="M683 63h0"></path><path d="M853.5 63h0"></path><path d="M683 63a10 10 0 0 0 10 -10v-7a10 10 0 0 1 10 -10"></path><g><path d="M703 36h130.5"></path></g><path d="M833.5 36a10 10 0 0 1 10 10v7a10 10 0 0 0 10 10"></path><path d="M683 63h20"></path><g class="non-terminal "><path d="M703 63h0"></path><path d="M833.5 63h0"></path><rect x="703" y="52" width="130.5" height="22" rx="10" ry="10"></rect><text x="768.25" y="67">typeArguments</text></g><path d="M833.5 63h20"></path></g><g><path d="M853.5 63h0"></path><path d="M956 63h0"></path><path d="M853.5 63a10 10 0 0 0 10 -10v-7a10 10 0 0 1 10 -10"></path><g><path d="M873.5 36h62.5"></path></g><path d="M936 36a10 10 0 0 1 10 10v7a10 10 0 0 0 10 10"></path><path d="M853.5 63h20"></path><g class="non-terminal "><path d="M873.5 63h0"></path><path d="M936 63h0"></path><rect x="873.5" y="52" width="62.5" height="22" rx="10" ry="10"></rect><text x="904.75" y="67">uCOIT</text></g><path d="M936 63h20"></path></g></g><path d="M966 63h0"></path></g><path d="M966 63h20"></path></g><path d="M 986 63 h 20 m 0 -10 v 20"></path></g><defs><style type="text/css"><![CDATA[
svg.railroad-diagram path { stroke-width: 2; stroke: darkgray; fill: rgba(0, 0, 0, 0);}/* All text except comments. */svg.railroad-diagram text { font: bold 12px Hack, "Source Code Pro", monospace; text-anchor: middle; fill: #404040;}/* Comment text */svg.railroad-diagram text.comment { font: italic 10px Hack, "Source Code Pro", monospace; fill: #404040;}/* The terminal boxes. */svg.railroad-diagram g.terminal rect { stroke-width: 2; stroke: #404040; fill: rgba(200, 200, 200, 1);}svg.railroad-diagram g.non-terminal rect { /* The non-terminal boxes. */ stroke-width: 2; stroke: #404040; fill: rgba(255, 255, 255, 1);}/* Multiple choice text, not working atm. */svg.railroad-diagram text.diagram-text { font-size: 12px Hack, "Source Code Pro", monospace; fill: red;}/* Multiple choice text, not working atm. */svg.railroad-diagram path.diagram-text { stroke-width: 1; stroke: red; fill: red; cursor: help;}
 ]]>
</style></defs></svg>