<?xml version="1.0" encoding="UTF-8" standalone="no"?>
<!DOCTYPE svg PUBLIC "-//W3C//DTD SVG 1.1//EN" "http://www.w3.org/Graphics/SVG/1.1/DTD/svg11.dtd">
<svg class="railroad-diagram" width="389.5" height="214" viewBox="0 0 389.5 214" id="unaryExpression" xmlns="http://www.w3.org/2000/svg" xmlns:xlink="http://www.w3.org/1999/xlink"><g transform="translate(.5 .5)"><g><path d="M20 21v20m0 -10h20"></path></g><g><path d="M40 31h0"></path><path d="M349.5 31h0"></path><path d="M40 31h20"></path><g><path d="M60 31h21.25"></path><g><path d="M81.25 31h10"></path><path d="M298.25 31h10"></path><g class="non-terminal "><path d="M91.25 31h0"></path><path d="M298.25 31h0"></path><rect x="91.25" y="20" width="207" height="22" rx="10" ry="10"></rect><text x="194.75" y="35">preIncrementExpression</text></g></g><path d="M308.25 31h21.25"></path></g><path d="M329.5 31h20"></path><path d="M40 31a10 10 0 0 1 10 10v18a10 10 0 0 0 10 10"></path><g><path d="M60 69h21.25"></path><g><path d="M81.25 69h10"></path><path d="M298.25 69h10"></path><g class="non-terminal "><path d="M91.25 69h0"></path><path d="M298.25 69h0"></path><rect x="91.25" y="58" width="207" height="22" rx="10" ry="10"></rect><text x="194.75" y="73">preDecrementExpression</text></g></g><path d="M308.25 69h21.25"></path></g><path d="M329.5 69a10 10 0 0 0 10 -10v-18a10 10 0 0 1 10 -10"></path><path d="M40 31a10 10 0 0 1 10 10v56a10 10 0 0 0 10 10"></path><g><path d="M60 107h18.25"></path><g><path d="M78.25 107h10"></path><path d="M301.25 107h10"></path><g class="terminal "><path d="M88.25 107h0"></path><path d="M133.75 107h0"></path><rect x="88.25" y="96" width="45.5" height="22"></rect><text x="111" y="111">'+'</text></g><path d="M133.75 107h10"></path><path d="M143.75 107h10"></path><g class="non-terminal "><path d="M153.75 107h0"></path><path d="M301.25 107h0"></path><rect x="153.75" y="96" width="147.5" height="22" rx="10" ry="10"></rect><text x="227.5" y="111">unaryExpression</text></g></g><path d="M311.25 107h18.25"></path></g><path d="M329.5 107a10 10 0 0 0 10 -10v-56a10 10 0 0 1 10 -10"></path><path d="M40 31a10 10 0 0 1 10 10v94a10 10 0 0 0 10 10"></path><g><path d="M60 145h18.25"></path><g><path d="M78.25 145h10"></path><path d="M301.25 145h10"></path><g class="terminal "><path d="M88.25 145h0"></path><path d="M133.75 145h0"></path><rect x="88.25" y="134" width="45.5" height="22"></rect><text x="111" y="149">'-'</text></g><path d="M133.75 145h10"></path><path d="M143.75 145h10"></path><g class="non-terminal "><path d="M153.75 145h0"></path><path d="M301.25 145h0"></path><rect x="153.75" y="134" width="147.5" height="22" rx="10" ry="10"></rect><text x="227.5" y="149">unaryExpression</text></g></g><path d="M311.25 145h18.25"></path></g><path d="M329.5 145a10 10 0 0 0 10 -10v-94a10 10 0 0 1 10 -10"></path><path d="M40 31a10 10 0 0 1 10 10v132a10 10 0 0 0 10 10"></path><g><path d="M60 183h0"></path><g><path d="M60 183h10"></path><path d="M319.5 183h10"></path><g class="non-terminal "><path d="M70 183h0"></path><path d="M319.5 183h0"></path><rect x="70" y="172" width="249.5" height="22" rx="10" ry="10"></rect><text x="194.75" y="187">unaryExpressionNotPlusMinus</text></g></g><path d="M329.5 183h0"></path></g><path d="M329.5 183a10 10 0 0 0 10 -10v-132a10 10 0 0 1 10 -10"></path></g><path d="M 349.5 31 h 20 m 0 -10 v 20"></path></g><defs><style type="text/css"><![CDATA[
svg.railroad-diagram path { stroke-width: 2; stroke: darkgray; fill: rgba(0, 0, 0, 0);}/* All text except comments. */svg.railroad-diagram text { font: bold 12px Hack, "Source Code Pro", monospace; text-anchor: middle; fill: #404040;}/* Comment text */svg.railroad-diagram text.comment { font: italic 10px Hack, "Source Code Pro", monospace; fill: #404040;}/* The terminal boxes. */svg.railroad-diagram g.terminal rect { stroke-width: 2; stroke: #404040; fill: rgba(200, 200, 200, 1);}svg.railroad-diagram g.non-terminal rect { /* The non-terminal boxes. */ stroke-width: 2; stroke: #404040; fill: rgba(255, 255, 255, 1);}/* Multiple choice text, not working atm. */svg.railroad-diagram text.diagram-text { font-size: 12px Hack, "Source Code Pro", monospace; fill: red;}/* Multiple choice text, not working atm. */svg.railroad-diagram path.diagram-text { stroke-width: 1; stroke: red; fill: red; cursor: help;}
 ]]>
</style></defs></svg>