<?xml version="1.0" encoding="UTF-8" standalone="no"?>
<!DOCTYPE svg PUBLIC "-//W3C//DTD SVG 1.1//EN" "http://www.w3.org/Graphics/SVG/1.1/DTD/svg11.dtd">
<svg class="railroad-diagram" width="353" height="214" viewBox="0 0 353 214" id="unaryExpressionNotPlusMinus" xmlns="http://www.w3.org/2000/svg" xmlns:xlink="http://www.w3.org/1999/xlink"><g transform="translate(.5 .5)"><g><path d="M20 21v20m0 -10h20"></path></g><g><path d="M40 31h0"></path><path d="M313 31h0"></path><path d="M40 31h20"></path><g><path d="M60 31h24.25"></path><g><path d="M84.25 31h10"></path><path d="M258.75 31h10"></path><g class="non-terminal "><path d="M94.25 31h0"></path><path d="M258.75 31h0"></path><rect x="94.25" y="20" width="164.5" height="22" rx="10" ry="10"></rect><text x="176.5" y="35">postfixExpression</text></g></g><path d="M268.75 31h24.25"></path></g><path d="M293 31h20"></path><path d="M40 31a10 10 0 0 1 10 10v18a10 10 0 0 0 10 10"></path><g><path d="M60 69h0"></path><g><path d="M60 69h10"></path><path d="M283 69h10"></path><g class="terminal "><path d="M70 69h0"></path><path d="M115.5 69h0"></path><rect x="70" y="58" width="45.5" height="22"></rect><text x="92.75" y="73">'~'</text></g><path d="M115.5 69h10"></path><path d="M125.5 69h10"></path><g class="non-terminal "><path d="M135.5 69h0"></path><path d="M283 69h0"></path><rect x="135.5" y="58" width="147.5" height="22" rx="10" ry="10"></rect><text x="209.25" y="73">unaryExpression</text></g></g><path d="M293 69h0"></path></g><path d="M293 69a10 10 0 0 0 10 -10v-18a10 10 0 0 1 10 -10"></path><path d="M40 31a10 10 0 0 1 10 10v56a10 10 0 0 0 10 10"></path><g><path d="M60 107h0"></path><g><path d="M60 107h10"></path><path d="M283 107h10"></path><g class="terminal "><path d="M70 107h0"></path><path d="M115.5 107h0"></path><rect x="70" y="96" width="45.5" height="22"></rect><text x="92.75" y="111">'!'</text></g><path d="M115.5 107h10"></path><path d="M125.5 107h10"></path><g class="non-terminal "><path d="M135.5 107h0"></path><path d="M283 107h0"></path><rect x="135.5" y="96" width="147.5" height="22" rx="10" ry="10"></rect><text x="209.25" y="111">unaryExpression</text></g></g><path d="M293 107h0"></path></g><path d="M293 107a10 10 0 0 0 10 -10v-56a10 10 0 0 1 10 -10"></path><path d="M40 31a10 10 0 0 1 10 10v94a10 10 0 0 0 10 10"></path><g><path d="M60 145h37"></path><g><path d="M97 145h10"></path><path d="M246 145h10"></path><g class="non-terminal "><path d="M107 145h0"></path><path d="M246 145h0"></path><rect x="107" y="134" width="139" height="22" rx="10" ry="10"></rect><text x="176.5" y="149">castExpression</text></g></g><path d="M256 145h37"></path></g><path d="M293 145a10 10 0 0 0 10 -10v-94a10 10 0 0 1 10 -10"></path><path d="M40 31a10 10 0 0 1 10 10v132a10 10 0 0 0 10 10"></path><g><path d="M60 183h28.5"></path><g><path d="M88.5 183h10"></path><path d="M254.5 183h10"></path><g class="non-terminal "><path d="M98.5 183h0"></path><path d="M254.5 183h0"></path><rect x="98.5" y="172" width="156" height="22" rx="10" ry="10"></rect><text x="176.5" y="187">switchExpression</text></g></g><path d="M264.5 183h28.5"></path></g><path d="M293 183a10 10 0 0 0 10 -10v-132a10 10 0 0 1 10 -10"></path></g><path d="M 313 31 h 20 m 0 -10 v 20"></path></g><defs><style type="text/css"><![CDATA[
svg.railroad-diagram path { stroke-width: 2; stroke: darkgray; fill: rgba(0, 0, 0, 0);}/* All text except comments. */svg.railroad-diagram text { font: bold 12px Hack, "Source Code Pro", monospace; text-anchor: middle; fill: #404040;}/* Comment text */svg.railroad-diagram text.comment { font: italic 10px Hack, "Source Code Pro", monospace; fill: #404040;}/* The terminal boxes. */svg.railroad-diagram g.terminal rect { stroke-width: 2; stroke: #404040; fill: rgba(200, 200, 200, 1);}svg.railroad-diagram g.non-terminal rect { /* The non-terminal boxes. */ stroke-width: 2; stroke: #404040; fill: rgba(255, 255, 255, 1);}/* Multiple choice text, not working atm. */svg.railroad-diagram text.diagram-text { font-size: 12px Hack, "Source Code Pro", monospace; fill: red;}/* Multiple choice text, not working atm. */svg.railroad-diagram path.diagram-text { stroke-width: 1; stroke: red; fill: red; cursor: help;}
 ]]>
</style></defs></svg>