<?xml version="1.0" encoding="UTF-8" standalone="no"?>
<!DOCTYPE svg PUBLIC "-//W3C//DTD SVG 1.1//EN" "http://www.w3.org/Graphics/SVG/1.1/DTD/svg11.dtd">
<svg class="railroad-diagram" width="1133" height="78" viewBox="0 0 1133 78" id="unqualifiedClassInstanceCreationExpression" xmlns="http://www.w3.org/2000/svg" xmlns:xlink="http://www.w3.org/1999/xlink"><g transform="translate(.5 .5)"><g><path d="M20 37v20m0 -10h20"></path></g><g><path d="M40 47h0"></path><path d="M1093 47h0"></path><path d="M40 47h20"></path><g><path d="M60 47h0"></path><g><path d="M60 47h10"></path><path d="M1063 47h10"></path><g class="terminal "><path d="M70 47h0"></path><path d="M132.5 47h0"></path><rect x="70" y="36" width="62.5" height="22"></rect><text x="101.25" y="51">'new'</text></g><path d="M132.5 47h10"></path><g><path d="M142.5 47h0"></path><path d="M313 47h0"></path><path d="M142.5 47a10 10 0 0 0 10 -10v-7a10 10 0 0 1 10 -10"></path><g><path d="M162.5 20h130.5"></path></g><path d="M293 20a10 10 0 0 1 10 10v7a10 10 0 0 0 10 10"></path><path d="M142.5 47h20"></path><g class="non-terminal "><path d="M162.5 47h0"></path><path d="M293 47h0"></path><rect x="162.5" y="36" width="130.5" height="22" rx="10" ry="10"></rect><text x="227.75" y="51">typeArguments</text></g><path d="M293 47h20"></path></g><path d="M313 47h10"></path><g class="non-terminal "><path d="M323 47h0"></path><path d="M623.5 47h0"></path><rect x="323" y="36" width="300.5" height="22" rx="10" ry="10"></rect><text x="473.25" y="51">classOrInterfaceTypeToInstantiate</text></g><path d="M623.5 47h10"></path><path d="M633.5 47h10"></path><g class="terminal "><path d="M643.5 47h0"></path><path d="M689 47h0"></path><rect x="643.5" y="36" width="45.5" height="22"></rect><text x="666.25" y="51">'('</text></g><path d="M689 47h10"></path><g><path d="M699 47h0"></path><path d="M861 47h0"></path><path d="M699 47a10 10 0 0 0 10 -10v-7a10 10 0 0 1 10 -10"></path><g><path d="M719 20h122"></path></g><path d="M841 20a10 10 0 0 1 10 10v7a10 10 0 0 0 10 10"></path><path d="M699 47h20"></path><g class="non-terminal "><path d="M719 47h0"></path><path d="M841 47h0"></path><rect x="719" y="36" width="122" height="22" rx="10" ry="10"></rect><text x="780" y="51">argumentList</text></g><path d="M841 47h20"></path></g><path d="M861 47h10"></path><g class="terminal "><path d="M871 47h0"></path><path d="M916.5 47h0"></path><rect x="871" y="36" width="45.5" height="22"></rect><text x="893.75" y="51">')'</text></g><path d="M916.5 47h10"></path><g><path d="M926.5 47h0"></path><path d="M1063 47h0"></path><path d="M926.5 47a10 10 0 0 0 10 -10v-7a10 10 0 0 1 10 -10"></path><g><path d="M946.5 20h96.5"></path></g><path d="M1043 20a10 10 0 0 1 10 10v7a10 10 0 0 0 10 10"></path><path d="M926.5 47h20"></path><g class="non-terminal "><path d="M946.5 47h0"></path><path d="M1043 47h0"></path><rect x="946.5" y="36" width="96.5" height="22" rx="10" ry="10"></rect><text x="994.75" y="51">classBody</text></g><path d="M1043 47h20"></path></g></g><path d="M1073 47h0"></path></g><path d="M1073 47h20"></path></g><path d="M 1093 47 h 20 m 0 -10 v 20"></path></g><defs><style type="text/css"><![CDATA[
svg.railroad-diagram path { stroke-width: 2; stroke: darkgray; fill: rgba(0, 0, 0, 0);}/* All text except comments. */svg.railroad-diagram text { font: bold 12px Hack, "Source Code Pro", monospace; text-anchor: middle; fill: #404040;}/* Comment text */svg.railroad-diagram text.comment { font: italic 10px Hack, "Source Code Pro", monospace; fill: #404040;}/* The terminal boxes. */svg.railroad-diagram g.terminal rect { stroke-width: 2; stroke: #404040; fill: rgba(200, 200, 200, 1);}svg.railroad-diagram g.non-terminal rect { /* The non-terminal boxes. */ stroke-width: 2; stroke: #404040; fill: rgba(255, 255, 255, 1);}/* Multiple choice text, not working atm. */svg.railroad-diagram text.diagram-text { font-size: 12px Hack, "Source Code Pro", monospace; fill: red;}/* Multiple choice text, not working atm. */svg.railroad-diagram path.diagram-text { stroke-width: 1; stroke: red; fill: red; cursor: help;}
 ]]>
</style></defs></svg>