<?xml version="1.0" encoding="UTF-8" standalone="no"?>
<!DOCTYPE svg PUBLIC "-//W3C//DTD SVG 1.1//EN" "http://www.w3.org/Graphics/SVG/1.1/DTD/svg11.dtd">
<svg class="railroad-diagram" width="687" height="78" viewBox="0 0 687 78" id="variableDeclarator" xmlns="http://www.w3.org/2000/svg" xmlns:xlink="http://www.w3.org/1999/xlink"><g transform="translate(.5 .5)"><g><path d="M20 37v20m0 -10h20"></path></g><g><path d="M40 47h0"></path><path d="M647 47h0"></path><path d="M40 47h20"></path><g><path d="M60 47h0"></path><g><path d="M60 47h10"></path><path d="M617 47h10"></path><g class="non-terminal "><path d="M70 47h0"></path><path d="M260 47h0"></path><rect x="70" y="36" width="190" height="22" rx="10" ry="10"></rect><text x="165" y="51">variableDeclaratorId</text></g><path d="M260 47h10"></path><g><path d="M270 47h0"></path><path d="M617 47h0"></path><path d="M270 47a10 10 0 0 0 10 -10v-7a10 10 0 0 1 10 -10"></path><g><path d="M290 20h307"></path></g><path d="M597 20a10 10 0 0 1 10 10v7a10 10 0 0 0 10 10"></path><path d="M270 47h20"></path><g><path d="M290 47h0"></path><path d="M597 47h0"></path><path d="M290 47h20"></path><g><path d="M310 47h0"></path><g><path d="M310 47h10"></path><path d="M567 47h10"></path><g class="terminal "><path d="M320 47h0"></path><path d="M365.5 47h0"></path><rect x="320" y="36" width="45.5" height="22"></rect><text x="342.75" y="51">'='</text></g><path d="M365.5 47h10"></path><path d="M375.5 47h10"></path><g class="non-terminal "><path d="M385.5 47h0"></path><path d="M567 47h0"></path><rect x="385.5" y="36" width="181.5" height="22" rx="10" ry="10"></rect><text x="476.25" y="51">variableInitializer</text></g></g><path d="M577 47h0"></path></g><path d="M577 47h20"></path></g><path d="M597 47h20"></path></g></g><path d="M627 47h0"></path></g><path d="M627 47h20"></path></g><path d="M 647 47 h 20 m 0 -10 v 20"></path></g><defs><style type="text/css"><![CDATA[
svg.railroad-diagram path { stroke-width: 2; stroke: darkgray; fill: rgba(0, 0, 0, 0);}/* All text except comments. */svg.railroad-diagram text { font: bold 12px Hack, "Source Code Pro", monospace; text-anchor: middle; fill: #404040;}/* Comment text */svg.railroad-diagram text.comment { font: italic 10px Hack, "Source Code Pro", monospace; fill: #404040;}/* The terminal boxes. */svg.railroad-diagram g.terminal rect { stroke-width: 2; stroke: #404040; fill: rgba(200, 200, 200, 1);}svg.railroad-diagram g.non-terminal rect { /* The non-terminal boxes. */ stroke-width: 2; stroke: #404040; fill: rgba(255, 255, 255, 1);}/* Multiple choice text, not working atm. */svg.railroad-diagram text.diagram-text { font-size: 12px Hack, "Source Code Pro", monospace; fill: red;}/* Multiple choice text, not working atm. */svg.railroad-diagram path.diagram-text { stroke-width: 1; stroke: red; fill: red; cursor: help;}
 ]]>
</style></defs></svg>