<?xml version="1.0" encoding="UTF-8" standalone="no"?>
<!DOCTYPE svg PUBLIC "-//W3C//DTD SVG 1.1//EN" "http://www.w3.org/Graphics/SVG/1.1/DTD/svg11.dtd">
<svg class="railroad-diagram" width="681.5" height="94" viewBox="0 0 681.5 94" id="variableDeclaratorList" xmlns="http://www.w3.org/2000/svg" xmlns:xlink="http://www.w3.org/1999/xlink"><g transform="translate(.5 .5)"><g><path d="M20 37v20m0 -10h20"></path></g><g><path d="M40 47h0"></path><path d="M641.5 47h0"></path><path d="M40 47h20"></path><g><path d="M60 47h0"></path><g><path d="M60 47h10"></path><path d="M611.5 47h10"></path><g class="non-terminal "><path d="M70 47h0"></path><path d="M243 47h0"></path><rect x="70" y="36" width="173" height="22" rx="10" ry="10"></rect><text x="156.5" y="51">variableDeclarator</text></g><path d="M243 47h10"></path><g><path d="M253 47h0"></path><path d="M611.5 47h0"></path><path d="M253 47a10 10 0 0 0 10 -10v-7a10 10 0 0 1 10 -10"></path><g><path d="M273 20h318.5"></path></g><path d="M591.5 20a10 10 0 0 1 10 10v7a10 10 0 0 0 10 10"></path><path d="M253 47h20"></path><g><path d="M273 47h0"></path><path d="M591.5 47h0"></path><path d="M273 47h10"></path><g><path d="M283 47h0"></path><path d="M581.5 47h0"></path><path d="M283 47h20"></path><g><path d="M303 47h0"></path><g><path d="M303 47h10"></path><path d="M551.5 47h10"></path><g class="terminal "><path d="M313 47h0"></path><path d="M358.5 47h0"></path><rect x="313" y="36" width="45.5" height="22"></rect><text x="335.75" y="51">','</text></g><path d="M358.5 47h10"></path><path d="M368.5 47h10"></path><g class="non-terminal "><path d="M378.5 47h0"></path><path d="M551.5 47h0"></path><rect x="378.5" y="36" width="173" height="22" rx="10" ry="10"></rect><text x="465" y="51">variableDeclarator</text></g></g><path d="M561.5 47h0"></path></g><path d="M561.5 47h20"></path></g><path d="M581.5 47h10"></path><path d="M283 47a10 10 0 0 0 -10 10v7a10 10 0 0 0 10 10"></path><g><path d="M283 74h298.5"></path></g><path d="M581.5 74a10 10 0 0 0 10 -10v-7a10 10 0 0 0 -10 -10"></path></g><path d="M591.5 47h20"></path></g></g><path d="M621.5 47h0"></path></g><path d="M621.5 47h20"></path></g><path d="M 641.5 47 h 20 m 0 -10 v 20"></path></g><defs><style type="text/css"><![CDATA[
svg.railroad-diagram path { stroke-width: 2; stroke: darkgray; fill: rgba(0, 0, 0, 0);}/* All text except comments. */svg.railroad-diagram text { font: bold 12px Hack, "Source Code Pro", monospace; text-anchor: middle; fill: #404040;}/* Comment text */svg.railroad-diagram text.comment { font: italic 10px Hack, "Source Code Pro", monospace; fill: #404040;}/* The terminal boxes. */svg.railroad-diagram g.terminal rect { stroke-width: 2; stroke: #404040; fill: rgba(200, 200, 200, 1);}svg.railroad-diagram g.non-terminal rect { /* The non-terminal boxes. */ stroke-width: 2; stroke: #404040; fill: rgba(255, 255, 255, 1);}/* Multiple choice text, not working atm. */svg.railroad-diagram text.diagram-text { font-size: 12px Hack, "Source Code Pro", monospace; fill: red;}/* Multiple choice text, not working atm. */svg.railroad-diagram path.diagram-text { stroke-width: 1; stroke: red; fill: red; cursor: help;}
 ]]>
</style></defs></svg>